<svg width="38" height="38" viewBox="0 0 38 38" fill="none" xmlns="http://www.w3.org/2000/svg">
<circle cx="19" cy="19" r="18" fill="white" stroke="#52C2BB" stroke-width="2" stroke-linecap="round" stroke-dasharray="2 6"/>
<path d="M24.25 18.25H19.75V13.75C19.75 13.5511 19.671 13.3603 19.5303 13.2197C19.3897 13.079 19.1989 13 19 13C18.8011 13 18.6103 13.079 18.4697 13.2197C18.329 13.3603 18.25 13.5511 18.25 13.75V18.25H13.75C13.5511 18.25 13.3603 18.329 13.2197 18.4697C13.079 18.6103 13 18.8011 13 19C13 19.1989 13.079 19.3897 13.2197 19.5303C13.3603 19.671 13.5511 19.75 13.75 19.75H18.25V24.25C18.25 24.4489 18.329 24.6397 18.4697 24.7803C18.6103 24.921 18.8011 25 19 25C19.1989 25 19.3897 24.921 19.5303 24.7803C19.671 24.6397 19.75 24.4489 19.75 24.25V19.75H24.25C24.4489 19.75 24.6397 19.671 24.7803 19.5303C24.921 19.3897 25 19.1989 25 19C25 18.8011 24.921 18.6103 24.7803 18.4697C24.6397 18.329 24.4489 18.25 24.25 18.25Z" fill="#50C1BA"/>
</svg>
