<svg xmlns="http://www.w3.org/2000/svg" width="48" height="48" fill="none" viewBox="0 0 48 48">
    <path fill="#52C2BB" d="M27.035 12a.73.73 0 0 0-.287.05L24 13.104l-2.746-1.053a.748.748 0 0 0-.85.228l-1.852 2.285-2.905.462a.751.751 0 0 0-.622.622l-.462 2.905-2.285 1.851a.75.75 0 0 0-.228.85l1.053 2.747-1.053 2.746a.748.748 0 0 0 .228.85l2.285 1.85.462 2.905a.75.75 0 0 0 .622.625l2.905.462 1.851 2.282a.746.746 0 0 0 .852.228L24 34.898l2.746 1.052a.753.753 0 0 0 .852-.229l1.85-2.282 2.906-.462a.751.751 0 0 0 .624-.624l.462-2.906 2.282-1.85a.749.749 0 0 0 .228-.85l-1.053-2.746 1.053-2.746a.75.75 0 0 0-.228-.852l-2.282-1.851-.462-2.905a.75.75 0 0 0-.624-.623l-2.906-.461-1.85-2.285a.751.751 0 0 0-.563-.277zm.737 6a.75.75 0 0 1 .59 1.185l-7.5 10.5a.753.753 0 0 1-1.047.175.75.75 0 0 1-.174-1.047l7.5-10.499a.75.75 0 0 1 .631-.314zm-6.022 0c1.24 0 2.25 1.01 2.25 2.25 0 1.241-1.01 2.25-2.25 2.25s-2.25-1.009-2.25-2.25c0-1.24 1.01-2.25 2.25-2.25zm0 1.5a.75.75 0 1 0 0 1.501.75.75 0 0 0 0-1.5zm4.5 6c1.24 0 2.25 1.01 2.25 2.25S27.49 30 26.25 30 24 28.99 24 27.75s1.01-2.25 2.25-2.25zm0 1.5a.752.752 0 0 0-.75.75c0 .413.337.75.75.75.412 0 .75-.337.75-.75a.752.752 0 0 0-.75-.75z"/>
</svg>
