<svg width="18" height="18" viewBox="0 0 18 18" fill="none" xmlns="http://www.w3.org/2000/svg">
<ellipse cx="9.01277" cy="9.01252" rx="8.33333" ry="8.33332" fill="#BED748"/>
<path fill-rule="evenodd" clip-rule="evenodd" d="M9.0724 16.4168C13.1284 16.4168 16.4165 13.1287 16.4165 9.07264C16.4165 5.01659 13.1284 1.72852 9.0724 1.72852C5.01635 1.72852 1.72827 5.01659 1.72827 9.07264C1.72827 13.1287 5.01635 16.4168 9.0724 16.4168ZM9.04238 15.5177C12.6183 15.5177 15.5172 12.6188 15.5172 9.04285C15.5172 5.46691 12.6183 2.56803 9.04238 2.56803C5.46643 2.56803 2.56755 5.46691 2.56755 9.04285C2.56755 12.6188 5.46643 15.5177 9.04238 15.5177Z" fill="#849920"/>
<path d="M10.7741 9.55474V10.2454C10.774 10.2653 10.768 10.2847 10.7569 10.3012C10.7458 10.3177 10.73 10.3305 10.7115 10.338L8.84583 11.1051C8.82754 11.1127 8.8119 11.1255 8.8009 11.142C8.7899 11.1585 8.78403 11.1778 8.78403 11.1976C8.78403 11.2174 8.7899 11.2368 8.8009 11.2532C8.8119 11.2697 8.82754 11.2825 8.84583 11.2901L10.7115 12.0575C10.73 12.0649 10.7458 12.0776 10.7569 12.0941C10.7681 12.1106 10.774 12.13 10.7741 12.1499V12.8286C10.7741 12.8452 10.77 12.8616 10.762 12.8762C10.7541 12.8908 10.7427 12.9033 10.7288 12.9124C10.7149 12.9214 10.6989 12.9269 10.6824 12.9283C10.6658 12.9296 10.6491 12.9268 10.6339 12.9201L7.75171 11.6577C7.73387 11.65 7.71869 11.6372 7.70802 11.6209C7.69735 11.6047 7.69166 11.5856 7.69165 11.5662V10.818C7.69166 10.7985 7.69735 10.7795 7.70802 10.7633C7.71869 10.747 7.73387 10.7342 7.75171 10.7265L10.6339 9.46403C10.6491 9.45734 10.6658 9.45454 10.6824 9.4559C10.6989 9.45726 10.7149 9.46274 10.7288 9.47183C10.7427 9.48092 10.7541 9.49334 10.762 9.50796C10.77 9.52259 10.7741 9.53896 10.7741 9.55558" fill="#849920"/>
<path d="M6.69283 4.85693L11.4355 6.93425C11.4584 6.94433 11.4779 6.96086 11.4915 6.98182C11.5052 7.00278 11.5125 7.02726 11.5125 7.05228V8.30947C11.5124 8.33449 11.5052 8.35896 11.4915 8.37991C11.4778 8.40086 11.4584 8.4174 11.4355 8.4275L6.69283 10.5046C6.67324 10.5132 6.65182 10.5168 6.63051 10.515C6.6092 10.5133 6.58866 10.5062 6.57075 10.4945C6.55285 10.4828 6.53814 10.4668 6.52796 10.448C6.51778 10.4292 6.51245 10.4082 6.51245 10.3868V9.19278C6.51242 9.16725 6.52 9.14228 6.53423 9.12107C6.54845 9.09986 6.56868 9.08337 6.59232 9.07371L9.71476 7.78962C9.73839 7.77995 9.75861 7.76346 9.77284 7.74225C9.78708 7.72105 9.79467 7.69609 9.79467 7.67055C9.79467 7.64502 9.78708 7.62006 9.77284 7.59885C9.75861 7.57765 9.73839 7.56116 9.71476 7.55149L6.59232 6.26739C6.56869 6.25771 6.54848 6.24122 6.53426 6.22001C6.52004 6.19881 6.51245 6.17386 6.51245 6.14832V4.97496C6.51247 4.95357 6.51781 4.93253 6.52799 4.91372C6.53817 4.89491 6.55286 4.87894 6.57076 4.86723C6.58865 4.85552 6.60918 4.84844 6.63049 4.84665C6.6518 4.84485 6.67322 4.84838 6.69283 4.85693Z" fill="#849920"/>
<circle cx="13.5125" cy="14.0127" r="3.55" fill="white" stroke="#CCCCCC" stroke-width="0.1"/>
<path d="M14.0243 12.0127H13.0125V15.1749H14.0243V12.0127Z" fill="#849920"/>
<path d="M14.0243 15.5127H13.0125V16.4824H14.0243V15.5127Z" fill="#849920"/>
</svg>
