<svg xmlns="http://www.w3.org/2000/svg" width="87" height="58" fill="none" viewBox="0 0 87 58">
    <path fill="#52C2BB" d="M28.743 37.951h-2.671v-19.59h13.891l-1.425 1.407a1.782 1.782 0 0 0 2.512 2.529l4.452-4.453a1.78 1.78 0 0 0 0-2.529l-4.452-4.452a1.78 1.78 0 1 0-2.511 2.529l1.406 1.407H24.291a1.781 1.781 0 0 0-1.78 1.78v23.153a1.78 1.78 0 0 0 1.78 1.78h4.452a1.781 1.781 0 0 0 0-3.561zm27.605-23.152h-4.453a1.781 1.781 0 0 0 0 3.562h2.672v19.59H39.66l1.407-1.407a1.78 1.78 0 0 0-1.255-3.047c-.47 0-.922.186-1.256.518l-4.452 4.453a1.78 1.78 0 0 0 0 2.528l4.452 4.453a1.782 1.782 0 1 0 2.511-2.53l-1.407-1.406h16.688a1.781 1.781 0 0 0 1.78-1.781V16.58a1.78 1.78 0 0 0-1.78-1.781z"/>
    <rect width="18.057" height="18.057" x="47.277" y="6.019" fill="#52C2BB" rx="4"/>
    <path fill="#fff" d="M56.305 20.26c-.824 0-1.55-.216-2.177-.647-.618-.43-1.1-1.039-1.446-1.825-.347-.787-.52-1.695-.52-2.725 0-.983.173-1.854.52-2.612.346-.768.833-1.362 1.46-1.784.628-.42 1.349-.631 2.163-.631.824 0 1.55.215 2.177.646.627.42 1.11 1.01 1.447 1.77.346.757.52 1.628.52 2.611 0 1.03-.174 1.938-.52 2.725-.337.786-.82 1.395-1.447 1.825-.627.431-1.353.647-2.177.647zm0-1.616c.712 0 1.278-.294 1.7-.884.43-.59.645-1.489.645-2.697 0-1.123-.215-1.975-.645-2.556-.431-.59-.998-.884-1.7-.884s-1.269.294-1.7.884c-.43.58-.645 1.433-.645 2.556 0 1.199.21 2.097.632 2.697.43.59 1.002.884 1.713.884z"/>
    <g stroke="#52C2BB" stroke-linecap="round" opacity=".4">
        <path d="M68.7 48.796h11.684M74.543 54.638V42.954"/>
    </g>
    <g stroke="#52C2BB" stroke-linecap="round" opacity=".4">
        <path d="M.502 18.542h5.6M3.304 21.442v-5.8"/>
    </g>
    <circle cx="82.799" cy="29.292" r="3.701" fill="#fff" fill-opacity=".6" stroke="#52C2BB" opacity=".4"/>
    <path fill="#fff" fill-opacity=".6" stroke="#52C2BB" d="M18.274 44.42c0 1.317-1.04 2.365-2.3 2.365-1.258 0-2.298-1.048-2.298-2.365 0-1.318 1.04-2.365 2.299-2.365s2.299 1.047 2.299 2.365zM66.16 36.737c0 .805-.635 1.438-1.394 1.438-.758 0-1.393-.633-1.393-1.438 0-.806.635-1.439 1.393-1.439.76 0 1.394.633 1.394 1.439zM49.367 54.323c0 1.317-1.04 2.365-2.299 2.365-1.258 0-2.299-1.048-2.299-2.365 0-1.317 1.04-2.365 2.3-2.365 1.258 0 2.298 1.048 2.298 2.365zM34.798 7.882c0 1.317-1.04 2.365-2.299 2.365S30.2 9.2 30.2 7.882c0-1.317 1.04-2.365 2.3-2.365 1.258 0 2.298 1.048 2.298 2.365z" opacity=".4"/>
</svg>
