<svg xmlns="http://www.w3.org/2000/svg" width="140" height="100" fill="none" viewBox="0 0 140 100">
    <ellipse cx="74.571" cy="90.938" fill="#000" fill-opacity=".05" rx="60.503" ry="9.055"/>
    <path fill="#52C2BB" d="M79.132 40.827a1.566 1.566 0 1 0 0 3.133 1.566 1.566 0 0 0 0-3.133z"/>
    <path fill="#52C2BB" d="M108.929 80.558L88.026 59.656a31.038 31.038 0 0 0 5.2-17.263c0-17.27-14.05-31.32-31.32-31.32s-31.319 14.05-31.319 31.32 14.05 31.319 31.32 31.319a31.04 31.04 0 0 0 17.262-5.199l5.778 5.778.002.002 15.122 15.123a6.223 6.223 0 0 0 4.429 1.835 6.22 6.22 0 0 0 4.428-1.835 6.219 6.219 0 0 0 1.836-4.43 6.22 6.22 0 0 0-1.835-4.428zM78.433 65.213a27.946 27.946 0 0 1-16.527 5.367c-15.542 0-28.187-12.645-28.187-28.187 0-15.543 12.645-28.187 28.187-28.187 15.542 0 28.187 12.645 28.187 28.187a27.946 27.946 0 0 1-5.367 16.526 28.322 28.322 0 0 1-6.293 6.294zm3.285 1.42a31.426 31.426 0 0 0 4.428-4.428l4.443 4.442a38.002 38.002 0 0 1-4.428 4.429l-4.443-4.443zM106.714 87.2a3.11 3.11 0 0 1-2.214.918 3.11 3.11 0 0 1-2.214-.918L88.381 73.296a41.148 41.148 0 0 0 4.428-4.428l13.906 13.905a3.11 3.11 0 0 1 .917 2.214 3.11 3.11 0 0 1-.918 2.214z"/>
    <path fill="#52C2BB" d="M61.906 17.338c-13.816 0-25.055 11.24-25.055 25.055 0 13.816 11.24 25.055 25.055 25.055 13.816 0 25.055-11.24 25.055-25.055 0-13.816-11.24-25.055-25.055-25.055zm0 46.978c-12.088 0-21.923-9.835-21.923-21.923 0-12.089 9.835-21.923 21.923-21.923 12.089 0 21.923 9.834 21.923 21.923 0 12.088-9.834 21.923-21.923 21.923z"/>
    <path fill="#52C2BB" d="M79.455 35.67a18.792 18.792 0 0 0-6.79-8.677 18.659 18.659 0 0 0-10.759-3.391 1.566 1.566 0 0 0 0 3.131c6.436 0 12.313 4.043 14.625 10.061a1.566 1.566 0 1 0 2.924-1.123z"/>
    <path stroke="#52C2BB" stroke-linecap="round" d="M92.296 27.738h5.924M95.258 30.7v-5.923M127.143 42.76h12.356M133.321 48.937V36.581M27.625 9.025h5.924M30.587 11.986V6.063"/>
    <circle cx="124.619" cy="8.636" r="3.943" stroke="#52C2BB"/>
    <path stroke="#52C2BB" d="M29.476 67.6c0 1.41-1.113 2.531-2.461 2.531-1.348 0-2.46-1.122-2.46-2.53 0-1.409 1.112-2.53 2.46-2.53 1.348 0 2.46 1.121 2.46 2.53z"/>
    <ellipse cx="121.043" cy="50.989" fill="#52C2BB" rx="2.004" ry="2.052"/>
    <ellipse cx="2.962" cy="35.639" fill="#52C2BB" rx="2.962" ry="3.031"/>
    <ellipse cx="69.949" cy="3.031" fill="#52C2BB" rx="2.962" ry="3.031"/>
</svg>
