<svg xmlns="http://www.w3.org/2000/svg" width="138" height="101" fill="none" viewBox="0 0 138 101">
    <path stroke="#6AC259" stroke-linecap="round" d="M125.142 53.248h12.357M131.321 59.427V47.07M29.067 32.392v-5.924"/>
    <circle cx="126.928" cy="17.987" r="3.943" stroke="#6AC259"/>
    <path stroke="#6AC259" d="M29.477 79.093c0 1.409-1.113 2.53-2.461 2.53-1.348 0-2.46-1.121-2.46-2.53 0-1.408 1.112-2.53 2.46-2.53 1.348 0 2.46 1.122 2.46 2.53z"/>
    <path fill="#18B45C" stroke="#6AC259" d="M135.745 81.098c0 1.408-1.113 2.53-2.461 2.53-1.348 0-2.461-1.122-2.461-2.53 0-1.409 1.113-2.53 2.461-2.53 1.348 0 2.461 1.121 2.461 2.53zM5.423 43.121c0 1.409-1.113 2.53-2.461 2.53-1.348 0-2.46-1.121-2.46-2.53 0-1.408 1.112-2.53 2.46-2.53 1.348 0 2.46 1.122 2.46 2.53zM61.548 3.032c0 1.408-1.112 2.53-2.46 2.53-1.348 0-2.461-1.122-2.461-2.53 0-1.409 1.113-2.53 2.46-2.53 1.349 0 2.461 1.121 2.461 2.53z"/>
    <path stroke="#6AC259" stroke-linecap="round" d="M26.528 29.52h5.924"/>
    <path fill="#6AC259" stroke="#6AC259" d="M69.937 57.413l.355.355.355-.356 17.197-17.237a3.508 3.508 0 0 1 4.946 0 3.507 3.507 0 0 1 0 4.982l-.001.001-20.044 20.044a3.508 3.508 0 0 1-2.455 1.017h-.001a3.507 3.507 0 0 1-2.49-1.016v-.001l-9.42-9.46-.014-.013-.015-.013a3.51 3.51 0 0 1 3.81-5.822c.435.21.822.508 1.136.876l.013.014.014.014 6.614 6.615zM54.592 19.772A39.59 39.59 0 1 1 98.58 85.607a39.59 39.59 0 0 1-43.99-65.835zm3.897 60a32.574 32.574 0 1 0 36.194-54.168 32.574 32.574 0 0 0-36.194 54.168z"/>
</svg>
