<svg width="161" height="107" viewBox="0 0 161 107" fill="none" xmlns="http://www.w3.org/2000/svg">
<g filter="url(#filter0_d)">
<path d="M89.0054 21.0996V46.8445H134.74C134.94 46.8445 135.045 46.616 134.916 46.4636L113.684 21.0996H89.0054Z" fill="white"/>
<path d="M97.1402 33.0152C97.1402 33.0152 93.5419 31.1457 93.4598 27.1196C93.3837 23.0935 101.688 29.9209 97.1402 33.0152Z" fill="#973D47"/>
<path d="M94.5682 28.7737C94.8495 28.5685 95.2597 28.5275 95.6055 28.6447C95.2714 26.7987 95.5762 24.9175 96.9769 23.7337C97.2699 23.4817 97.5922 23.2941 97.9204 23.1593C99.491 22.5147 101.378 23.0714 102.726 24.1791C104.08 25.2867 104.929 26.9862 105.164 28.7385C105.48 31.0944 104.59 33.6554 102.228 34.3704C102.105 34.4055 101.988 34.4348 101.864 34.4583L102.075 38.3203C102.175 39.9554 100.804 41.2974 99.1745 41.1568C97.7622 41.0337 96.6897 39.8382 96.7249 38.4199C96.7249 38.4199 96.7483 32.5536 96.7307 31.7508C96.7307 31.7097 96.6838 31.6863 96.6487 31.7039C96.1916 31.9383 95.6055 31.9852 95.1484 31.7859C94.5799 31.5456 94.1345 30.9596 94.029 30.3149C93.9353 29.7348 94.1287 29.096 94.5682 28.7737Z" fill="#FDA198"/>
<path d="M100.575 28.6321C100.569 28.8255 100.675 28.9895 100.804 28.9954C100.938 29.0013 101.044 28.843 101.05 28.6496C101.056 28.4562 100.95 28.2922 100.821 28.2863C100.686 28.2804 100.581 28.4328 100.575 28.6321Z" fill="#1E1C1C"/>
<path d="M104.308 28.4919C104.326 28.6853 104.238 28.8553 104.109 28.867C103.98 28.8787 103.857 28.7322 103.833 28.5388C103.816 28.3454 103.904 28.1755 104.032 28.1637C104.161 28.152 104.284 28.2985 104.308 28.4919Z" fill="#1E1C1C"/>
<path d="M102.913 30.3694L103.247 29.8595L103.253 29.8537L103.312 30.0998C103.16 30.0236 103.095 29.924 103.019 29.8302C102.949 29.7365 102.89 29.6368 102.837 29.5372C102.732 29.338 102.638 29.1328 102.55 28.9277C102.679 29.1094 102.814 29.2852 102.96 29.4493C103.031 29.5314 103.107 29.6075 103.189 29.6779C103.265 29.7423 103.359 29.8068 103.412 29.8185L103.587 29.842L103.47 30.0647L103.464 30.0705L102.984 30.4397C102.96 30.4573 102.925 30.4514 102.908 30.428C102.902 30.4104 102.902 30.387 102.913 30.3694Z" fill="#191616"/>
<path d="M105.018 27.2612C105.018 27.2612 104.379 26.3353 103.154 26.7689" stroke="#1E1C1C" stroke-width="0.284876" stroke-miterlimit="10" stroke-linecap="round"/>
<path d="M101.22 26.9366C101.22 26.9366 100.23 26.3974 99.3331 27.3409" stroke="#1E1C1C" stroke-width="0.284876" stroke-miterlimit="10" stroke-linecap="round"/>
<path d="M96.0397 30.5407C96.0397 30.5407 95.7174 29.7554 94.9614 30.2828" stroke="#1E1C1C" stroke-width="0.284876" stroke-miterlimit="10" stroke-linecap="round"/>
<path d="M98.5938 24.8083C100.035 25.1834 103.2 27.9671 104.542 25.0662C104.888 24.3219 104.841 22.974 102.274 22.7103C99.7073 22.4466 99.5139 20.4599 96.4665 21.9836C92.7861 23.8296 92.8799 28.3363 94.5677 28.77C94.5677 28.77 95.687 28.0726 96.654 29.5318C96.654 29.5318 98.2598 27.8206 97.4217 26.4082C96.5895 25.0017 98.1132 24.6853 98.5938 24.8083Z" fill="#973D47"/>
<path d="M105.427 29.9958L104.624 29.6852C103.423 29.1577 102.063 29.1108 100.827 29.5504L97.9141 30.5935C97.9141 30.5935 96.9823 32.9611 99.1975 34.2211C102.034 35.8328 105.697 33.5589 105.462 30.3064C105.451 30.2009 105.439 30.1013 105.427 29.9958Z" fill="#50C1BA"/>
<path d="M95.6112 28.6465L98.0961 30.768L96.7482 31.9694L96.7364 32.3327L98.4008 31.0317L98.3129 30.5219L95.7285 28.4648L95.6112 28.6465Z" fill="#50C1BA"/>
<path d="M95.9511 35.7256L95.1892 48.8471H106.805L102.151 36.8566L95.9511 35.7256Z" fill="#ABE1DE"/>
<path d="M137.349 48.7012L125.751 43.4561" stroke="#1E1C1C" stroke-width="0.445687" stroke-miterlimit="10" stroke-linecap="round"/>
<path d="M127.117 38.79L124.451 47.1177" stroke="#1E1C1C" stroke-width="0.445687" stroke-miterlimit="10" stroke-linecap="round"/>
<path d="M124.281 41.6314C124.814 41.4087 125.394 41.3149 125.963 41.4028C126.502 41.4849 126.988 41.731 126.789 42.3874C126.789 42.3874 127.451 42.6862 127.023 43.325C127.023 43.325 127.562 43.7001 127.123 44.4092C127.123 44.4092 127.785 44.8487 126.953 45.2648C126.121 45.6809 124.597 45.1183 123.847 45.7278L122.915 42.194L124.281 41.6314Z" fill="#FDA198"/>
<path d="M95.9506 35.7256L109.289 40.2498L123.348 41.5509L124.28 46.4912C124.28 46.4912 113.854 48.2083 110.625 48.0618C106.382 47.8743 97.7498 45.7294 97.7498 45.7294L95.9506 35.7256Z" fill="#ABE1DE"/>
<path d="M99.3855 44.7607L106.178 47.2397" stroke="#1E1C1C" stroke-width="0.445687" stroke-miterlimit="10" stroke-linecap="round"/>
<path d="M93.2494 34.6982C94.3219 34.6982 95.1892 35.5656 95.1892 36.6381V48.8512H91.3154V36.6381C91.3154 35.5656 92.1828 34.6982 93.2494 34.6982Z" fill="#BC321F"/>
<path d="M145.277 48.8397L138.28 45.1241L117.317 20.4927C115.817 18.7346 113.625 17.7148 111.31 17.7148H86.0635V87.6827H156.934V68.2319C156.934 60.1152 152.451 52.6548 145.277 48.8397ZM134.74 46.853H89.0054V21.1022H113.684L134.916 46.4662C135.045 46.6186 134.94 46.853 134.74 46.853Z" fill="#EA755B"/>
<path d="M79.6804 3H9.31962C5.82939 3 3 5.82939 3 9.31962V74.6804C3 78.1706 5.82939 81 9.31962 81H86V9.31962C86 5.82939 83.1706 3 79.6804 3Z" fill="#50C1BA"/>
<path d="M86.7084 81.0771H9.73145V87.6877H86.7084V81.0771Z" fill="#EA755B"/>
<path d="M120.936 103.361C130.128 103.361 137.58 95.9089 137.58 86.7169C137.58 77.5249 130.128 70.0732 120.936 70.0732C111.744 70.0732 104.293 77.5249 104.293 86.7169C104.293 95.9089 111.744 103.361 120.936 103.361Z" fill="#132833"/>
<path d="M120.936 97.3017C126.781 97.3017 131.52 92.5631 131.52 86.7177C131.52 80.8724 126.781 76.1338 120.936 76.1338C115.091 76.1338 110.352 80.8724 110.352 86.7177C110.352 92.5631 115.091 97.3017 120.936 97.3017Z" fill="#CCCCCC"/>
<path d="M124.018 86.7183C124.018 88.4237 122.635 89.8009 120.935 89.8009C119.23 89.8009 117.853 88.4179 117.853 86.7183C117.853 85.0188 119.236 83.6357 120.935 83.6357C122.635 83.6357 124.018 85.0129 124.018 86.7183Z" fill="white"/>
<path d="M37.2284 103.632C46.4204 103.632 53.872 96.1804 53.872 86.9884C53.872 77.7963 46.4204 70.3447 37.2284 70.3447C28.0363 70.3447 20.5847 77.7963 20.5847 86.9884C20.5847 96.1804 28.0363 103.632 37.2284 103.632Z" fill="#132833"/>
<path d="M37.2284 97.5732C43.0737 97.5732 47.8123 92.8346 47.8123 86.9892C47.8123 81.1439 43.0737 76.4053 37.2284 76.4053C31.383 76.4053 26.6444 81.1439 26.6444 86.9892C26.6444 92.8346 31.383 97.5732 37.2284 97.5732Z" fill="#CCCCCC"/>
<path d="M40.3107 86.9859C40.3107 88.6913 38.9276 90.0685 37.2281 90.0685C35.5227 90.0685 34.1455 88.6854 34.1455 86.9859C34.1455 85.2864 35.5285 83.9033 37.2281 83.9033C38.9334 83.9033 40.3107 85.2805 40.3107 86.9859Z" fill="white"/>
<path d="M150.335 69.9904C150.335 73.3543 153.061 76.0794 156.424 76.0794C156.594 76.0794 156.764 76.0677 156.934 76.0559V68.2381C156.934 66.7671 156.782 65.3137 156.501 63.9014C156.477 63.9014 156.454 63.8955 156.424 63.8955C153.066 63.9014 150.335 66.6265 150.335 69.9904Z" fill="#F2BC18"/>
<path d="M35.5708 22.0881L58.3423 31.4983C58.5763 31.5929 58.9885 31.9189 58.9885 32.4446V37.7857C58.9885 38.3535 58.5874 38.6479 58.3534 38.7531L35.5151 48.1947C34.479 48.4786 34.0111 47.648 34.0111 47.2064V42.5697C34.0111 41.9599 34.5013 41.6444 34.7798 41.5603L49.998 35.6409C50.5327 35.4306 50.5327 34.7261 49.998 34.5159L34.6573 28.5543C34.1114 28.302 34 27.8499 34 27.5975V22.9924C34.1225 21.9935 35.1141 21.8779 35.5708 22.0881Z" fill="white"/>
<path d="M53.8303 59.8654L40.261 54.2508C40.1161 54.1982 39.8822 53.9985 39.8822 53.6831V50.4973C39.8822 50.1608 40.1273 49.9821 40.261 49.919L53.8748 44.2939C54.4876 44.1257 54.7772 44.6199 54.7772 44.8827V47.6479C54.7772 48.0054 54.4876 48.2052 54.3204 48.2472L45.2408 51.7905C44.9289 51.9167 44.9289 52.3372 45.2408 52.4634L54.3873 56.0172C54.7104 56.1644 54.7772 56.4378 54.7772 56.585V59.3291C54.6992 59.9179 54.0976 59.9915 53.8303 59.8654Z" fill="white"/>
</g>
<defs>
<filter id="filter0_d" x="-2" y="-1" width="165" height="111" filterUnits="userSpaceOnUse" color-interpolation-filters="sRGB">
<feFlood flood-opacity="0" result="BackgroundImageFix"/>
<feColorMatrix in="SourceAlpha" type="matrix" values="0 0 0 0 0 0 0 0 0 0 0 0 0 0 0 0 0 0 127 0"/>
<feOffset dy="1"/>
<feGaussianBlur stdDeviation="1"/>
<feColorMatrix type="matrix" values="0 0 0 0 0 0 0 0 0 0 0 0 0 0 0 0 0 0 0.2 0"/>
<feBlend mode="normal" in2="BackgroundImageFix" result="effect1_dropShadow"/>
<feBlend mode="normal" in="SourceGraphic" in2="effect1_dropShadow" result="shape"/>
</filter>
</defs>
</svg>
