<svg width="131" height="102" viewBox="0 0 131 102" fill="none" xmlns="http://www.w3.org/2000/svg">
<g filter="url(#filter0_d)">
<path d="M24.2383 57.168L36.4268 68.6244" stroke="#ED0C1F" stroke-width="0.4784" stroke-miterlimit="10"/>
<path d="M107.288 37.1646C107.288 36.8446 106.795 34.082 106.795 34.082L100.415 37.1646V41.6622L106.795 43.2619L107.288 37.1646Z" fill="#FF1629"/>
<path d="M104.132 38.669C104.132 41.204 105.325 43.259 106.796 43.259C108.266 43.259 109.46 41.204 109.46 38.669C109.46 36.1341 108.266 34.0791 106.796 34.0791C105.325 34.0791 104.132 36.1341 104.132 38.669Z" fill="#F2BC18"/>
<path d="M41.6753 63.5869C41.6753 63.5869 34.2674 64.436 37.3191 69.4935L41.6753 63.5869Z" fill="#C2081C"/>
<path d="M34.575 73.6322C33.8982 70.1805 37.3991 67.9717 37.3991 67.9717C43.1704 63.8986 43.0596 59.4809 43.0596 59.4809H74.4139L77.921 61.4067C77.921 61.4067 68.9749 62.2004 68.1874 72.1617C67.7505 77.6807 71.0361 80.0741 73.8971 81.4646C76.832 82.892 87.79 83.0582 92.3983 81.2739C94.7118 80.3756 96.293 78.2283 96.1269 75.7549V75.7426L95.1302 61.259C95.0317 59.8131 95.124 58.3611 95.4809 56.9583C96.4038 53.3159 98.225 52.3499 100.022 51.3962L94.9025 39.7552C93.7889 37.2203 94.5764 34.1747 96.9083 32.6735C99.4924 31.0122 101.098 33.1903 101.098 33.1903L103.252 50.5902C107.343 56.6199 109.177 69.9959 109.177 69.9959L103.252 73.1584C103.252 73.1584 102.249 75.6933 101.215 78.3513C99.0002 84.0303 93.5735 87.8942 87.4762 87.9311C87.4331 87.9311 87.39 87.9311 87.3531 87.9311H61.0563L60.6749 86.3806H58.9829C56.7987 86.3806 55.0267 84.6086 55.0267 82.4244H59.7028L57.5431 73.6383H34.575V73.6322Z" fill="#EB755B"/>
<path d="M72.5804 59.4852C73.1895 59.4852 73.774 59.719 74.2109 60.1435C75.2445 61.1464 77.361 62.8138 78.9115 61.4233C81.0404 59.516 79.133 56.3289 75.8844 56.6057C72.6358 56.8888 61.9915 56.9441 58.0722 54.8153C54.153 52.6864 52.6394 52.5757 51.4088 53.917C50.1783 55.2583 52.1349 58.9991 55.7773 59.4852H72.5804Z" fill="#AF4130"/>
<path d="M49.2981 98.9372C57.4296 98.9372 64.0215 92.3453 64.0215 84.2137C64.0215 76.0822 57.4296 69.4902 49.2981 69.4902C41.1665 69.4902 34.5746 76.0822 34.5746 84.2137C34.5746 92.3453 41.1665 98.9372 49.2981 98.9372Z" fill="#132833"/>
<path d="M49.2974 93.5775C54.4693 93.5775 58.6619 89.3849 58.6619 84.2131C58.6619 79.0412 54.4693 74.8486 49.2974 74.8486C44.1256 74.8486 39.933 79.0412 39.933 84.2131C39.933 89.3849 44.1256 93.5775 49.2974 93.5775Z" fill="#CCCCCC"/>
<path d="M46.5728 84.2159C46.5728 85.7233 47.791 86.9416 49.2984 86.9416C50.8058 86.9416 52.0241 85.7233 52.0241 84.2159C52.0241 82.7085 50.7997 81.4902 49.2984 81.4902C47.7971 81.4902 46.5728 82.7085 46.5728 84.2159Z" fill="white"/>
<path d="M113.263 98.9284C121.395 98.9284 127.987 92.3365 127.987 84.2049C127.987 76.0734 121.395 69.4814 113.263 69.4814C105.131 69.4814 98.5396 76.0734 98.5396 84.2049C98.5396 92.3365 105.131 98.9284 113.263 98.9284Z" fill="#132833"/>
<path d="M113.261 93.5688C118.432 93.5688 122.625 89.3761 122.625 84.2043C122.625 79.0325 118.432 74.8398 113.261 74.8398C108.089 74.8398 103.896 79.0325 103.896 84.2043C103.896 89.3761 108.089 93.5688 113.261 93.5688Z" fill="#CCCCCC"/>
<path d="M113.26 86.9328C114.766 86.9328 115.986 85.7124 115.986 84.2071C115.986 82.7018 114.766 81.4814 113.26 81.4814C111.755 81.4814 110.535 82.7018 110.535 84.2071C110.535 85.7124 111.755 86.9328 113.26 86.9328Z" fill="white"/>
<path d="M112.881 66.0215C103.424 66.0215 95.7698 72.8633 95.8806 81.2618C95.8806 81.2618 95.8806 81.2618 95.8867 81.268C96.9881 81.3479 98.2432 81.1264 99.7691 80.3204C100.809 79.7728 101.75 79.0407 102.587 78.2162C106.488 74.3769 109.626 71.9097 116.418 71.9097C120.719 71.9097 124.645 73.3248 127.641 75.6628C128.078 76.0074 128.687 75.5213 128.441 75.0229C125.814 69.7193 119.833 66.0215 112.881 66.0215Z" fill="#AF4130"/>
<path d="M99.7942 35.8027L98.3975 41.2355C98.2622 41.7708 97.5608 42.1954 96.884 42.1523C96.2872 42.1154 95.918 41.7277 96.0164 41.2601L97.3024 35.3535L99.7942 35.8027Z" fill="#132833"/>
<path d="M84.0049 79.1197H79.2058L79.8826 72.4316H84.6756L84.0049 79.1197Z" fill="#FB9F96"/>
<path d="M79.2063 78.3408H85.2913L90.355 80.4635C91.3579 80.9803 91.9917 82.014 91.9917 83.1461H78.4434L79.2063 78.3408Z" fill="#20151D"/>
<path d="M85.7849 78.5743L84.4128 76.7224C84.4128 76.7224 82.2716 76.3286 82.4562 78.6605L85.7849 78.5743Z" fill="#20151D"/>
<path d="M57.2298 44.907C57.2298 44.907 83.5204 44.1625 90.27 49.0355C92.6695 50.7705 86.7383 75.2522 86.7383 75.2522L78.3398 75.5414L81.2193 56.8864L64.9884 56.8987C51.0402 55.5451 57.2298 44.907 57.2298 44.907Z" fill="#999999"/>
<path d="M70.1361 14.3991L69.4347 10.123C70.0991 9.10161 70.8682 9.36618 70.8682 9.36618C70.8621 9.29235 72.0126 8.93549 72.0126 8.86166C76.781 6.35134 78.8114 9.43386 78.8114 9.43386C78.8114 9.43386 77.9008 6.31443 72.511 6.0191C68.7148 5.80991 67.3427 6.81895 67.2074 9.09546C66.9305 13.63 67.4719 14.1284 69.287 17.4201L70.1361 14.3991Z" fill="#132833"/>
<path d="M67.8922 11.377C68.2552 11.217 68.7228 11.2662 69.0796 11.4815C69.1535 9.34655 69.9472 7.32231 71.7868 6.34402C72.1745 6.13483 72.5744 5.99947 72.9805 5.93179C74.8878 5.59339 76.8567 6.66396 78.0934 8.22676C79.3301 9.78955 79.8715 11.8876 79.7116 13.8934C79.4962 16.5883 77.8842 19.2278 75.0847 19.4555C74.9432 19.4678 74.8017 19.4678 74.6602 19.4678L73.9649 23.8239C73.688 25.6697 71.8299 26.8326 70.0518 26.285C68.5074 25.8113 67.603 24.2177 67.9845 22.6488C67.9845 22.6488 69.4242 16.1146 69.5965 15.2224C69.6088 15.1732 69.5596 15.1363 69.5165 15.1486C68.9566 15.3024 68.2859 15.2101 67.8245 14.884C67.2461 14.4779 66.8954 13.7211 66.9323 12.9767C66.9508 12.2999 67.32 11.6292 67.8922 11.377Z" fill="#FDA198"/>
<path d="M74.6089 12.6667C74.5535 12.8821 74.6335 13.0913 74.775 13.122C74.9227 13.1589 75.0826 13.0113 75.138 12.7959C75.1934 12.5806 75.1134 12.3714 74.9719 12.3406C74.8242 12.3037 74.6581 12.4514 74.6089 12.6667Z" fill="#1E1C1C"/>
<path d="M78.8009 13.4116C78.7763 13.6331 78.6348 13.7992 78.4871 13.7807C78.3394 13.7623 78.2348 13.5716 78.2595 13.3501C78.2841 13.1286 78.4256 12.9624 78.5732 12.9809C78.7271 12.9932 78.8255 13.1901 78.8009 13.4116Z" fill="#1E1C1C"/>
<path d="M76.7933 15.1722L77.2855 14.6861H77.2917L77.2978 14.9753C77.1502 14.8522 77.1009 14.723 77.0394 14.6C76.984 14.4769 76.9471 14.3539 76.9102 14.2308C76.8364 13.9847 76.781 13.7324 76.7379 13.4863C76.8364 13.7201 76.9471 13.9478 77.0702 14.1693C77.1317 14.28 77.1994 14.3846 77.2671 14.4769C77.3347 14.5692 77.4209 14.6615 77.4824 14.6861L77.6731 14.7599L77.4885 14.9753L77.4824 14.9814L76.8548 15.2829C76.8241 15.2952 76.7871 15.2829 76.7748 15.2522C76.7748 15.2152 76.781 15.1906 76.7933 15.1722Z" fill="#191616"/>
<path d="M79.6851 15.3428L78.8668 14.8014C77.6547 13.9216 76.1534 13.5462 74.6644 13.737L71.1697 14.1923C71.1697 14.1923 69.5577 16.6041 71.7234 18.5423C74.4983 21.0218 79.119 19.3729 79.642 15.6874C79.6605 15.5828 79.6728 15.4659 79.6851 15.3428Z" fill="#50C1BA"/>
<path d="M69.0782 11.4848L71.3363 14.4504L69.5459 15.4594L69.4474 15.8655L71.607 14.8134L71.6378 14.2289L69.2567 11.3125L69.0782 11.4848Z" fill="#50C1BA"/>
<path d="M79.8891 12.204C79.8891 12.204 79.3968 11.0165 77.9325 11.2073" stroke="#1E1C1C" stroke-width="0.154112" stroke-miterlimit="10" stroke-linecap="round"/>
<path d="M75.7415 10.9315C75.7415 10.9315 74.7632 10.0947 73.5449 10.9315" stroke="#1E1C1C" stroke-width="0.154112" stroke-miterlimit="10" stroke-linecap="round"/>
<path d="M69.0963 13.7039C69.0963 13.7039 68.924 12.7502 67.958 13.1563" stroke="#1E1C1C" stroke-width="0.154112" stroke-miterlimit="10" stroke-linecap="round"/>
<path d="M72.1372 8.60697C72.1372 8.60697 78.3145 12.6309 81.3478 11.8987C81.354 11.8987 77.9085 7.93017 72.1372 8.60697Z" fill="#132833"/>
<path d="M72.7332 7.36914C72.7332 7.36914 67.8356 12.8881 68.1125 15.9891C68.1125 15.9891 72.5486 13.1712 72.7332 7.36914Z" fill="#132833"/>
<path d="M80.7945 10.7981L71.6392 9.46291L69.6765 17.7876C69.6765 17.7876 63.2038 14.3113 65.9356 7.14948C68.6736 -0.00614071 79.9946 1.74739 80.7945 10.7981Z" fill="#EB755B"/>
<path d="M67.3867 13.6223C67.3867 14.0776 67.7559 14.4468 68.2112 14.4468C68.6665 14.4468 69.0356 14.0776 69.0356 13.6223C69.0356 13.167 68.6665 12.7979 68.2112 12.7979C67.7559 12.7979 67.3867 13.167 67.3867 13.6223Z" fill="white"/>
<path d="M57.231 44.9128C57.231 44.9128 61.3287 23.6613 67.9613 21.5693L74.6432 23.0644L71.5053 45.1589L57.231 44.9128Z" fill="white"/>
<path d="M97.4503 34.5743C98.0963 34.5189 98.7546 34.6174 99.3392 34.9066C99.8929 35.1773 100.33 35.6141 99.8929 36.2479C99.8929 36.2479 100.508 36.7954 99.8252 37.3369C99.8252 37.3369 100.281 37.9275 99.5607 38.5428C99.5607 38.5428 100.121 39.2442 99.0807 39.4042C98.0409 39.5642 96.595 38.4382 95.5798 38.8382L95.789 34.7158L97.4503 34.5743Z" fill="#FDA198"/>
<path d="M74.643 23.0664L85.2626 32.3386L96.479 34.1721L95.7899 39.8141C95.7899 39.8141 84.0505 41.3277 80.5558 39.8141C77.7932 38.6144 69.1055 30.5235 69.1055 30.5235L74.643 23.0664Z" fill="white"/>
<path d="M69.0984 30.5225L73.03 34.4356" stroke="#1E1C1C" stroke-width="0.2392" stroke-miterlimit="10" stroke-linecap="round"/>
<path d="M4 20.0814C4 18.9319 4.93187 18 6.08139 18H49.9186C51.0681 18 52 18.9319 52 20.0814V58.9186C52 60.0681 51.0681 61 49.9186 61H6.08139C4.93187 61 4 60.0681 4 58.9186V20.0814Z" fill="#50C1BA"/>
<path d="M22.7431 29.0442L33.5156 33.7611C33.6263 33.8085 33.8213 33.9719 33.8213 34.2354V36.9127C33.8213 37.1973 33.6315 37.3449 33.5209 37.3976L22.7168 42.1303C22.2266 42.2726 22.0053 41.8563 22.0053 41.6349V39.3107C22.0053 39.005 22.2372 38.8469 22.3689 38.8048L29.5681 35.8376C29.8211 35.7322 29.8211 35.3791 29.5681 35.2737L22.3109 32.2854C22.0527 32.1589 22 31.9323 22 31.8058V29.4974C22.058 28.9967 22.527 28.9388 22.7431 29.0442Z" fill="white"/>
<path d="M31.3811 47.9806L24.9618 45.1663C24.8933 45.1399 24.7827 45.0398 24.7827 44.8817V43.2848C24.7827 43.1161 24.8986 43.0266 24.9618 42.9949L31.4021 40.1753C31.692 40.091 31.829 40.3387 31.829 40.4705V41.8565C31.829 42.0357 31.692 42.1359 31.613 42.157L27.3177 43.933C27.1701 43.9963 27.1701 44.2071 27.3177 44.2703L31.6446 46.0517C31.7974 46.1255 31.829 46.2625 31.829 46.3363V47.7118C31.7921 48.007 31.5075 48.0439 31.3811 47.9806Z" fill="white"/>
</g>
<defs>
<filter id="filter0_d" x="2" y="1.72852" width="128.497" height="100.209" filterUnits="userSpaceOnUse" color-interpolation-filters="sRGB">
<feFlood flood-opacity="0" result="BackgroundImageFix"/>
<feColorMatrix in="SourceAlpha" type="matrix" values="0 0 0 0 0 0 0 0 0 0 0 0 0 0 0 0 0 0 127 0"/>
<feOffset dy="1"/>
<feGaussianBlur stdDeviation="1"/>
<feColorMatrix type="matrix" values="0 0 0 0 0 0 0 0 0 0 0 0 0 0 0 0 0 0 0.2 0"/>
<feBlend mode="normal" in2="BackgroundImageFix" result="effect1_dropShadow"/>
<feBlend mode="normal" in="SourceGraphic" in2="effect1_dropShadow" result="shape"/>
</filter>
</defs>
</svg>
