<svg xmlns="http://www.w3.org/2000/svg" width="80" height="72" fill="none" viewBox="0 0 80 72">
    <path fill="#52C2BB" fill-rule="evenodd" d="M64.146 68.373H79.45c.356 0 .623.267.534.534a.608.608 0 0 1-.623.623H.623A.608.608 0 0 1 0 68.907c0-.356.267-.623.623-.623h13.434V38.302c0-.178.178-.445.356-.534L38.79 24.067a.76.76 0 0 1 .623 0l24.378 13.79c.266.089.355.267.355.534v29.982zm-25-42.972L15.392 38.746v29.627h19.395V57.786c0-.356.267-.623.623-.623h7.473c.356 0 .623.267.623.623v10.587h19.306V38.746L39.146 25.401zM36.032 58.41v9.964h6.14V58.41h-6.14zm19.396 6.316h-6.317c-.356 0-.711-.355-.623-.622v-6.317c0-.356.267-.623.623-.623h6.317c.356 0 .623.267.623.623v6.317a.608.608 0 0 1-.623.622zm-.712-6.316h-4.982v4.982h4.982v-4.982zm-25.622-1.335h-6.317a.608.608 0 0 0-.623.623v6.317c0 .356.267.623.623.623h6.317a.608.608 0 0 0 .623-.623v-6.317c.089-.267-.178-.623-.623-.623zm-.623 6.317H23.49v-4.982h4.982v4.982zM55.428 49.69h-6.317c-.356 0-.711-.267-.623-.623V42.75c0-.356.267-.623.623-.623h6.317c.356 0 .623.267.623.623v6.317a.608.608 0 0 1-.623.623zm-.712-6.228h-4.982v4.982h4.982v-4.982zm-25.622-1.335h-6.317a.608.608 0 0 0-.623.623v6.317c0 .356.267.623.623.623h6.317a.608.608 0 0 0 .623-.623V42.75c.089-.356-.178-.623-.623-.623zm-.623 6.228H23.49v-4.982h4.982v4.982zm13.433 1.335h-6.316a.608.608 0 0 1-.623-.623V42.75c0-.356.267-.623.623-.623h6.316c.356 0 .623.267.623.623v6.317a.608.608 0 0 1-.623.623zm-.622-6.228h-4.983v4.982h4.983v-4.982z" clip-rule="evenodd"/>
</svg>
