<svg xmlns="http://www.w3.org/2000/svg" width="48" height="48" fill="none" viewBox="0 0 48 48">
    <path fill="#CCC" d="M6.193 29.42h1.549v1.548H6.193v-1.549zM10.839 29.42h1.548v1.548H10.84v-1.549zM15.484 29.42h1.548v1.548h-1.548v-1.549z"/>
    <path fill="#CCC" d="M46.452 30.194h-6.194v-3.097h4.645A3.1 3.1 0 0 0 48 24a3.104 3.104 0 0 0-2.373-3.012 4.654 4.654 0 0 0-4.595-3.956c-.261 0-.52.03-.774.075V4.645h-3.097V0H10.84v1.623a4.591 4.591 0 0 0-1.549.56 4.567 4.567 0 0 0-2.322-.635 4.655 4.655 0 0 0-4.595 3.956A3.104 3.104 0 0 0 0 8.516a3.1 3.1 0 0 0 3.097 3.097h4.645v14.71H1.548v17.032H0V48h48v-4.645h-1.548V30.194zm-2.323-8.517v.775h.774A1.55 1.55 0 0 1 46.452 24a1.55 1.55 0 0 1-1.549 1.548H32.516A1.55 1.55 0 0 1 30.968 24a1.55 1.55 0 0 1 1.548-1.548h.774v-.775a3.1 3.1 0 0 1 3.097-3.096c.663 0 1.306.22 1.856.634l.467.353.466-.353a3.068 3.068 0 0 1 1.856-.634 3.1 3.1 0 0 1 3.097 3.096zm-5.42-4.01a4.568 4.568 0 0 0-2.322-.635 4.65 4.65 0 0 0-4.375 3.097h-5.69v1.548h4.152A3.087 3.087 0 0 0 29.42 24a3.1 3.1 0 0 0 3.097 3.097h6.194v3.096H24.774v-24H38.71v11.475zM35.614 4.646H24.774V1.548h10.839v3.097zM23.226 1.548v3.097H12.387V1.548h10.839zm-20.13 8.517a1.55 1.55 0 0 1-1.548-1.549 1.55 1.55 0 0 1 1.549-1.548h.774v-.774a3.1 3.1 0 0 1 3.097-3.097c.663 0 1.306.22 1.855.634l.467.353.467-.353c.331-.25.698-.42 1.082-.522v1.436H7.742v5.42H3.097zM9.29 6.194h13.936v24h-1.549v-3.871H9.29V6.193zM3.097 27.87h17.032v6.968h21.677V33.29H21.677v-1.548h23.226v1.548h-1.548v1.549h1.548v8.516h-1.548v-6.968H37.16v6.968h-1.548v-6.968h-6.194v6.968h-1.548v-6.968h-6.194v6.968h-4.645V32.516h-1.548v10.839h-3.097V32.516H10.84v10.839H7.742V32.516H6.194v10.839H3.097V27.87zm38.71 15.484H38.71v-5.42h3.096v5.42zm-7.742 0h-3.097v-5.42h3.097v5.42zm-7.742 0h-3.097v-5.42h3.097v5.42zm20.129 3.097H1.548v-1.549h44.904v1.549z"/>
    <path fill="#CCC" d="M10.839 7.742h10.839V9.29h-10.84V7.742zM10.839 13.935h10.839v1.549h-10.84v-1.549zM10.839 20.129h10.839v1.548h-10.84V20.13zM12.387 10.839h1.549v1.548h-1.549v-1.548zM15.484 10.839h1.548v1.548h-1.548v-1.548zM18.58 10.839h1.549v1.548h-1.548v-1.548zM12.387 17.032h1.549v1.549h-1.549v-1.549zM15.484 17.032h1.548v1.549h-1.548v-1.549zM18.58 17.032h1.549v1.549h-1.548v-1.549zM12.387 23.226h1.549v1.548h-1.549v-1.548zM15.484 23.226h1.548v1.548h-1.548v-1.548zM18.58 23.226h1.549v1.548h-1.548v-1.548zM26.322 7.742h10.839V9.29H26.322V7.742zM26.322 13.935h10.839v1.549H26.322v-1.549zM27.871 10.839h1.549v1.548H27.87v-1.548zM30.968 10.839h1.548v1.548h-1.548v-1.548zM34.065 10.839h1.548v1.548h-1.548v-1.548zM27.871 17.032h1.549v1.549H27.87v-1.549zM30.968 17.032h1.548v1.549h-1.548v-1.549z"/>
</svg>
