<svg xmlns="http://www.w3.org/2000/svg" width="48" height="48" fill="none" viewBox="0 0 48 48">
    <path fill="#CCC" d="M34.839 30.968a2.326 2.326 0 0 0 2.322-2.323 2.326 2.326 0 0 0-2.322-2.322 2.326 2.326 0 0 0-2.323 2.322 2.326 2.326 0 0 0 2.323 2.323zm0-3.097c.426 0 .774.348.774.774a.776.776 0 0 1-.774.774.776.776 0 0 1-.774-.774c0-.426.347-.774.774-.774zM13.161 30.968a2.326 2.326 0 0 0 2.323-2.323 2.326 2.326 0 0 0-2.323-2.322 2.326 2.326 0 0 0-2.322 2.322 2.326 2.326 0 0 0 2.322 2.323zm0-3.097c.427 0 .775.348.775.774a.776.776 0 0 1-.775.774.776.776 0 0 1-.774-.774c0-.426.348-.774.774-.774z"/>
    <path fill="#CCC" d="M44.129 13.935h-2.323V9.29h-3.87V1.548h-1.55v1.549h-3.87v-.774A2.326 2.326 0 0 0 30.193 0H17.806a2.326 2.326 0 0 0-2.323 2.323v.774h-3.87V1.548h-1.549V9.29h-3.87v4.646H3.87v3.096H2.322v1.549h1.549v1.869l3.87 3.87v22.132H3.097V48h41.807v-1.548h-4.645V24.32l3.87-3.871v-1.87h1.55v-1.548h-1.55v-3.097zM17.032 2.323c0-.427.348-.775.774-.775h12.387c.427 0 .774.348.774.775v.774H17.032v-.774zm-5.42 2.322h24.775V9.29H11.613V4.645zm-3.87 6.194h32.516v3.096H7.742V10.84zm-2.323 4.645H42.58v1.548H5.42v-1.548zm33.29 27.87h-1.548v-2.322a2.326 2.326 0 0 0-2.323-2.322 2.326 2.326 0 0 0-2.322 2.322v2.323h-1.549V37.16h7.742v6.194zm-3.097 0h-1.548v-2.322c0-.426.348-.774.774-.774.427 0 .774.348.774.774v2.323zm-21.677 0h-1.548v-2.322c0-.426.348-.774.774-.774.426 0 .774.348.774.774v2.323zm-.774-4.644a2.326 2.326 0 0 0-2.323 2.322v2.323H9.29V37.16h7.742v6.194h-1.549v-2.323a2.326 2.326 0 0 0-2.322-2.322zm-2.323-20.13v4.646H9.29V18.58h1.548zM38.71 32.517h-7.787c-.387-3.478-3.343-6.193-6.922-6.193-3.58 0-6.535 2.715-6.922 6.193H9.29v-7.742h29.42v7.742zm-21.677 3.097H9.29v-1.548h7.742v1.548zm17.032-12.387V18.58h1.548v4.645h-1.548zm-1.548 0h-1.549V18.58h1.549v4.645zm-3.097 0h-1.548V18.58h1.548v4.645zm-3.097 0h-1.548V18.58h1.548v4.645zm-3.096 0h-1.549V18.58h1.549v4.645zm-3.097 0H18.58V18.58h1.549v4.645zm-3.097 0h-1.549V18.58h1.549v4.645zm-3.097 0h-1.548V18.58h1.548v4.645zM18.58 33.29A5.425 5.425 0 0 1 24 27.87a5.425 5.425 0 0 1 5.419 5.42v13.162H18.58V33.29zm20.13 2.323h-7.743v-1.548h7.742v1.548zm-1.55-12.387V18.58h1.55v4.645h-1.55zM5.42 18.58h2.323v3.55l-2.323-2.323v-1.227zM9.29 44.903h7.742v1.549H9.29v-1.549zm21.677 1.549v-1.549h7.742v1.549h-7.742zM42.58 19.808l-2.322 2.323v-3.55h2.322v1.227z"/>
    <path fill="#CCC" d="M17.032 6.194h1.549v1.548h-1.549V6.194zM29.42 6.194h1.548v1.548h-1.549V6.194zM46.452 46.452H48V48h-1.548v-1.548zM0 46.452h1.548V48H0v-1.548z"/>
</svg>
