<svg width="56" height="56" viewBox="0 0 56 56" fill="none" xmlns="http://www.w3.org/2000/svg">
<path fill-rule="evenodd" clip-rule="evenodd" d="M27.9998 51.3332C40.8865 51.3332 51.3332 40.8865 51.3332 27.9998C51.3332 15.1132 40.8865 4.6665 27.9998 4.6665C15.1132 4.6665 4.6665 15.1132 4.6665 27.9998C4.6665 40.8865 15.1132 51.3332 27.9998 51.3332ZM24.3366 30.5432L34.3466 20.5098C34.7838 20.0752 35.3752 19.8313 35.9916 19.8313C36.6081 19.8313 37.1994 20.0752 37.6366 20.5098C37.8553 20.7267 38.0289 20.9848 38.1474 21.2692C38.2658 21.5535 38.3268 21.8585 38.3268 22.1665C38.3268 22.4745 38.2658 22.7795 38.1474 23.0638C38.0289 23.3482 37.8553 23.6063 37.6366 23.8232L25.97 35.4898C25.5353 35.9209 24.9487 36.1639 24.3366 36.1665C24.0295 36.1683 23.7251 36.1094 23.4408 35.9933C23.1566 35.8772 22.898 35.7061 22.68 35.4898L17.1966 29.9832C16.9524 29.774 16.754 29.5166 16.6139 29.2271C16.4739 28.9376 16.3952 28.6223 16.3828 28.301C16.3703 27.9796 16.4245 27.6592 16.5418 27.3597C16.6591 27.0603 16.837 26.7884 17.0644 26.561C17.2918 26.3336 17.5638 26.1557 17.8632 26.0383C18.1626 25.921 18.4831 25.8669 18.8044 25.8793C19.1258 25.8917 19.4411 25.9704 19.7306 26.1105C20.02 26.2505 20.2774 26.4489 20.4866 26.6932L24.3366 30.5432Z" fill="#50C1BA"/>
</svg>
