<svg xmlns="http://www.w3.org/2000/svg" width="48" height="48" fill="none" viewBox="0 0 48 48">
    <path fill="#CCC" d="M47.225 21.677a.774.774 0 0 0 .775-.774v-4.645a.774.774 0 0 0-.775-.774h-.774V7.742h.774a.775.775 0 0 0 .548-1.322L41.579.227A.77.77 0 0 0 41.032 0H6.968a.771.771 0 0 0-.548.227L.227 6.42a.775.775 0 0 0 .547 1.322h.774v7.742H.774a.774.774 0 0 0-.774.774v4.645c0 .428.346.774.774.774h.774v7.742H.774a.774.774 0 0 0-.774.774v17.032c0 .428.346.775.774.775h46.451a.774.774 0 0 0 .775-.775V30.193a.774.774 0 0 0-.775-.774h-.774v-7.742h.774zM7.288 1.548h33.424l4.645 4.646H2.643l4.645-4.646zM3.097 7.742h41.806v7.742h-1.548v-5.42a.774.774 0 0 0-.775-.774h-9.29a.774.774 0 0 0-.774.775v5.419h-3.097v-5.42a.774.774 0 0 0-.774-.774h-9.29a.774.774 0 0 0-.774.775v5.419h-3.097v-5.42a.774.774 0 0 0-.774-.774H5.42a.774.774 0 0 0-.775.775v5.419H3.097V7.742zm32.516 6.193v1.549h-1.549v-4.645h7.742v4.645h-4.645v-1.549h-1.548zm-13.936 0v1.549H20.13v-4.645h7.742v4.645h-4.645v-1.549h-1.549zm-13.935 0v1.549H6.194v-4.645h7.741v4.645H9.29v-1.549H7.742zm-6.194 3.097h44.903v3.097H1.548v-3.097zm0 13.936h44.903v10.838h-1.978c.266-.457.43-.981.43-1.548a3.101 3.101 0 0 0-2.735-3.076 3.092 3.092 0 0 0-2.684-1.57c-1.121 0-2.142.613-2.684 1.57a3.08 3.08 0 0 0-1.574.66 3.079 3.079 0 0 0-1.574-.66 3.092 3.092 0 0 0-2.684-1.57c-1.121 0-2.142.613-2.684 1.57a3.08 3.08 0 0 0-1.575.66 3.078 3.078 0 0 0-1.573-.66 3.092 3.092 0 0 0-2.684-1.57c-1.121 0-2.142.613-2.685 1.57a3.101 3.101 0 0 0-2.735 3.076c0 .567.165 1.09.43 1.548h-1.204a.774.774 0 0 0-.774.774v3.871h-1.549V36.387a.774.774 0 0 0-.774-.774h-9.29a.774.774 0 0 0-.774.774V46.45H1.548V30.968zm12.387-1.549H9.29v-1.548H7.742v1.548H6.194v-4.645h7.741v4.645zm13.936 0h-4.645v-1.548h-1.549v1.548H20.13v-4.645h7.742v4.645zm13.935 0h-4.645v-1.548h-1.548v1.548h-1.549v-4.645h7.742v4.645zM18.581 40.258c0-.854.694-1.549 1.521-1.549l.114.013c.36.02.667-.19.782-.518a1.546 1.546 0 0 1 1.453-1.043c.653 0 1.238.42 1.455 1.043a.77.77 0 0 0 .782.518l.086-.013c.52 0 1.002.26 1.29.696.286.432 1.005.432 1.29 0a1.534 1.534 0 0 1 1.264-.696l.114.013c.36.02.667-.19.782-.518a1.546 1.546 0 0 1 1.454-1.043c.652 0 1.237.42 1.454 1.043a.768.768 0 0 0 .782.518l.086-.013c.52 0 1.002.26 1.29.696.287.432 1.005.432 1.29 0a1.534 1.534 0 0 1 1.264-.696l.114.013a.77.77 0 0 0 .782-.518 1.546 1.546 0 0 1 1.454-1.043c.652 0 1.237.42 1.454 1.043.114.328.42.538.782.518l.086-.013a1.55 1.55 0 0 1 1.549 1.549 1.55 1.55 0 0 1-1.549 1.548H20.13a1.55 1.55 0 0 1-1.549-1.548zm0 3.097v3.096h-1.549v-3.096h1.549zm1.548 0h1.548v3.096H20.13v-3.096zm3.097 0h1.548v3.096h-1.548v-3.096zm3.096 0h1.549v3.096h-1.549v-3.096zm3.097 0h1.549v3.096h-1.549v-3.096zm3.097 0h1.548v3.096h-1.548v-3.096zm3.097 0h1.548v3.096h-1.548v-3.096zm3.096 0h1.549v3.096h-1.549v-3.096zm3.097 0h1.549v3.096h-1.549v-3.096zM4.646 46.45v-9.29h7.741v9.29H4.645zm40.257 0v-3.096h1.548v3.096h-1.548zm0-17.032h-1.548V24a.774.774 0 0 0-.775-.773h-9.29a.774.774 0 0 0-.774.774v5.42h-3.097V24a.774.774 0 0 0-.774-.774h-9.29a.774.774 0 0 0-.774.774v5.42h-3.097V24a.774.774 0 0 0-.774-.774H5.42a.774.774 0 0 0-.775.774v5.42H3.097v-7.743h41.806v7.742z"/>
    <path fill="#CCC" d="M6.193 40.258h1.549v3.096H6.193v-3.096z"/>
</svg>
