<svg width="24" height="24" viewBox="0 0 24 24" fill="none" xmlns="http://www.w3.org/2000/svg">
<path fill-rule="evenodd" clip-rule="evenodd" d="M16.4 10.9997H19.1C19.3387 10.9997 19.5676 11.0945 19.7364 11.2633C19.9052 11.4321 20 11.661 20 11.8997V17.2997C20 18.0158 19.7155 18.7025 19.2092 19.2089C18.7028 19.7152 18.0161 19.9997 17.3 19.9997H4.70001C3.98392 19.9997 3.29717 19.7152 2.79082 19.2089C2.28447 18.7025 2.00001 18.0158 2.00001 17.2997V2.89967C1.99938 2.74108 2.04066 2.58514 2.11969 2.44764C2.19871 2.31014 2.31266 2.19596 2.45001 2.11667C2.58682 2.03768 2.74202 1.99609 2.90001 1.99609C3.05799 1.99609 3.21319 2.03768 3.35001 2.11667L6.05001 3.66467L8.75 2.11667C8.88682 2.03768 9.04202 1.99609 9.2 1.99609C9.35799 1.99609 9.51319 2.03768 9.65 2.11667L12.35 3.66467L15.05 2.11667C15.1868 2.03768 15.342 1.99609 15.5 1.99609C15.658 1.99609 15.8132 2.03768 15.95 2.11667C16.0873 2.19596 16.2013 2.31014 16.2803 2.44764C16.3593 2.58514 16.4006 2.74108 16.4 2.89967V10.9997ZM4.06361 17.9361C4.23239 18.1048 4.46131 18.1997 4.70001 18.1997H14.762C14.6572 17.9111 14.6024 17.6067 14.6 17.2997V4.45667L12.8 5.48267C12.6611 5.55522 12.5067 5.59311 12.35 5.59311C12.1933 5.59311 12.0389 5.55522 11.9 5.48267L9.2 3.93467L6.50001 5.48267C6.3611 5.55522 6.20672 5.59311 6.05001 5.59311C5.8933 5.59311 5.73891 5.55522 5.60001 5.48267L3.80001 4.45667V17.2997C3.80001 17.5384 3.89483 17.7673 4.06361 17.9361ZM17.9364 17.9361C18.1052 17.7673 18.2 17.5384 18.2 17.2997V12.7997H16.4V17.2997C16.4 17.5384 16.4948 17.7673 16.6636 17.9361C16.8324 18.1048 17.0613 18.1997 17.3 18.1997C17.5387 18.1997 17.7676 18.1048 17.9364 17.9361ZM7.27 8.87839H8.51586C8.67088 8.85137 8.83064 8.87248 8.9728 8.93877C9.11495 9.00506 9.23239 9.1132 9.30868 9.24808H7.27C7.06974 9.24808 6.87769 9.32598 6.73609 9.46464C6.59448 9.6033 6.51493 9.79137 6.51493 9.98747C6.51493 10.1836 6.59448 10.3716 6.73609 10.5103C6.87769 10.649 7.06974 10.7269 7.27 10.7269H9.30868C9.23239 10.8617 9.11495 10.9699 8.9728 11.0362C8.83064 11.1025 8.67088 11.1236 8.51586 11.0966H7.27C7.1198 11.0964 6.97264 11.138 6.84564 11.2165C6.71865 11.295 6.61706 11.4073 6.55269 11.5402C6.49691 11.6786 6.4851 11.8303 6.51877 11.9754C6.55245 12.1205 6.63006 12.2523 6.74145 12.3535L9.83723 15.2002C9.97664 15.3395 10.1666 15.4192 10.3658 15.422C10.4686 15.4235 10.5703 15.4007 10.6623 15.3557C10.7543 15.3107 10.8338 15.2446 10.8943 15.1632C10.9652 15.0949 11.0208 15.0128 11.0576 14.9223C11.0944 14.8318 11.1116 14.7348 11.108 14.6375C11.1045 14.5401 11.0803 14.4446 11.037 14.3569C10.9937 14.2692 10.9323 14.1912 10.8566 14.128L9.08216 12.4644C9.5167 12.3456 9.91538 12.1254 10.2441 11.8229C10.5728 11.5203 10.8218 11.1442 10.9698 10.7269H11.5739C11.7741 10.7269 11.9662 10.649 12.1078 10.5103C12.2494 10.3716 12.329 10.1836 12.329 9.98747C12.329 9.79137 12.2494 9.6033 12.1078 9.46464C11.9662 9.32598 11.7741 9.24808 11.5739 9.24808H11.0076C10.9887 9.24808 10.9604 9.15565 10.9321 9.06323C10.9038 8.97081 10.8754 8.87839 10.8566 8.87839H11.5739C11.7741 8.87839 11.9662 8.80049 12.1078 8.66182C12.2494 8.52316 12.329 8.33509 12.329 8.139C12.329 7.9429 12.2494 7.75483 12.1078 7.61617C11.9662 7.47751 11.7741 7.39961 11.5739 7.39961H7.27C7.06974 7.39961 6.87769 7.47751 6.73609 7.61617C6.59448 7.75483 6.51493 7.9429 6.51493 8.139C6.51493 8.33509 6.59448 8.52316 6.73609 8.66182C6.87769 8.80049 7.06974 8.87839 7.27 8.87839Z" fill="#999999"/>
</svg>
