<svg width="68" height="33" viewBox="0 0 68 33" fill="none" xmlns="http://www.w3.org/2000/svg">
<path d="M1.25203 0.07671L19.402 8.26642C19.5885 8.34878 19.917 8.63244 19.917 9.08997V13.7384C19.917 14.2326 19.5973 14.4888 19.4109 14.5803L1.20763 22.7974C0.381824 23.0445 0.00888017 22.3216 0.00888017 21.9373V17.9019C0.00888017 17.3712 0.399583 17.0967 0.621574 17.0235L12.7511 11.8717C13.1774 11.6887 13.1774 11.0756 12.7511 10.8926L0.523899 5.70428C0.0887971 5.48467 0 5.09119 0 4.87158V0.863655C0.0976759 -0.00564402 0.887963 -0.1063 1.25203 0.07671Z" fill="white"/>
<path d="M15.8058 32.9545L4.99038 28.0681C4.87495 28.0223 4.68848 27.8485 4.68848 27.5739V24.8013C4.68848 24.5085 4.88383 24.353 4.99038 24.2981L15.8413 19.4025C16.3297 19.2561 16.5605 19.6862 16.5605 19.915V22.3215C16.5605 22.6327 16.3297 22.8065 16.1965 22.8431L8.95958 25.9269C8.71095 26.0367 8.71095 26.4027 8.95958 26.5125L16.2497 29.6054C16.5073 29.7335 16.5605 29.9714 16.5605 30.0995V32.4878C16.4984 33.0002 16.0189 33.0643 15.8058 32.9545Z" fill="white"/>
<path d="M57.6373 6.29907H62.9651C63.8353 6.29907 64.5723 6.40888 65.1672 6.62849C65.771 6.8481 66.2594 7.15922 66.6323 7.56184C67.2983 8.22983 67.6269 9.12658 67.6269 10.2704V10.307C67.6269 11.2037 67.4138 11.9449 66.9964 12.5306C66.5791 13.1162 66.0108 13.5646 65.3093 13.8757L67.9998 17.9202H64.3947L62.1304 14.3973H62.0949H60.754V17.9111H57.6284V6.29907H57.6373ZM62.823 11.8717C63.3558 11.8717 63.7731 11.7436 64.0661 11.4966C64.3592 11.2495 64.5012 10.9109 64.5012 10.49V10.4626C64.5012 9.99588 64.3503 9.64816 64.0484 9.42855C63.7465 9.19978 63.338 9.08998 62.8052 9.08998H60.7629V11.8809H62.823V11.8717Z" fill="white"/>
<path d="M28.1662 18.1307C27.1539 18.1307 26.1949 17.966 25.2892 17.6457C24.3835 17.3255 23.5754 16.8405 22.8828 16.1908L24.6232 14.0496C25.7509 14.9829 26.9674 15.4405 28.2816 15.4405C28.699 15.4405 29.0186 15.3673 29.2406 15.23C29.4626 15.0927 29.5692 14.8914 29.5692 14.6444V14.6078C29.5692 14.4888 29.5425 14.379 29.4892 14.2875C29.436 14.196 29.3383 14.1045 29.1873 14.013C29.0453 13.9215 28.8499 13.8391 28.6102 13.7568C28.3704 13.6744 28.0507 13.5921 27.6689 13.5006C27.0651 13.3541 26.5057 13.1986 25.9907 13.0247C25.4757 12.8509 25.0228 12.6312 24.6499 12.3659C24.268 12.0914 23.9661 11.762 23.7441 11.3593C23.5221 10.9567 23.4156 10.4534 23.4156 9.85864V9.82204C23.4156 9.28216 23.5133 8.78804 23.7175 8.33051C23.9128 7.88213 24.2059 7.48866 24.5877 7.15009C24.9695 6.82067 25.4313 6.56446 25.964 6.38145C26.4968 6.19844 27.1095 6.10693 27.7844 6.10693C28.7522 6.10693 29.6136 6.23504 30.3683 6.50041C31.1231 6.76577 31.8068 7.15009 32.4195 7.66252L30.8567 9.941C30.3417 9.56583 29.8089 9.28216 29.2672 9.09C28.7256 8.89784 28.2017 8.79718 27.6956 8.79718C27.3226 8.79718 27.0385 8.87039 26.852 9.0168C26.6655 9.16321 26.5678 9.33707 26.5678 9.54753V9.58413C26.5678 9.71224 26.5945 9.83119 26.6566 9.93185C26.7188 10.0325 26.8165 10.124 26.9585 10.2064C27.1006 10.2887 27.3049 10.3711 27.5535 10.4534C27.8021 10.5358 28.1218 10.6181 28.5125 10.7096C29.1607 10.8561 29.7379 11.0208 30.2618 11.2129C30.7857 11.4051 31.2208 11.643 31.5937 11.9175C31.9578 12.192 32.2419 12.5306 32.4284 12.9241C32.6237 13.3175 32.7214 13.7842 32.7214 14.3241V14.3607C32.7214 14.9555 32.6149 15.4862 32.3929 15.9529C32.1709 16.4196 31.8601 16.813 31.4694 17.1333C31.0698 17.4627 30.5903 17.7098 30.0398 17.8745C29.4715 18.0484 28.8499 18.1307 28.1662 18.1307Z" fill="white"/>
<path d="M39.293 18.1306C38.485 18.1306 37.7657 18.0208 37.1175 17.8194C36.4693 17.609 35.9276 17.2887 35.4748 16.8495C35.0219 16.4103 34.6756 15.8612 34.4358 15.1932C34.1961 14.5253 34.0718 13.7383 34.0718 12.8324V6.3081H37.2596V12.7501C37.2596 13.5919 37.446 14.2141 37.819 14.6168C38.1919 15.0194 38.6892 15.2207 39.3196 15.2207C39.9501 15.2207 40.4474 15.0285 40.8203 14.6442C41.1932 14.2599 41.3797 13.656 41.3797 12.8324V6.28979H44.5675V12.7318C44.5675 13.6743 44.4432 14.4795 44.1857 15.1658C43.9371 15.8429 43.5819 16.4011 43.1201 16.8403C42.6673 17.2796 42.1079 17.5998 41.4596 17.8103C40.8292 18.0208 40.1011 18.1306 39.293 18.1306Z" fill="white"/>
<path d="M46.3608 6.29907H51.1914C51.9017 6.29907 52.5411 6.39058 53.1271 6.57359C53.7043 6.7566 54.2016 7.02196 54.61 7.36968C55.0185 7.7174 55.3293 8.14748 55.5513 8.65991C55.7732 9.17233 55.8798 9.74882 55.8798 10.3894V10.426C55.8798 11.1122 55.7555 11.7162 55.5157 12.2378C55.276 12.7593 54.9386 13.1986 54.5123 13.5463C54.0861 13.9032 53.5711 14.1685 52.9762 14.3424C52.3812 14.5162 51.733 14.6077 51.0315 14.6077H49.4865V17.9294H46.3608V6.29907V6.29907ZM50.9694 12.0731C51.5288 12.0731 51.9639 11.9358 52.2836 11.6613C52.6032 11.3868 52.7542 11.0207 52.7542 10.5541V10.5175C52.7542 10.0142 52.5943 9.63901 52.2836 9.37365C51.9639 9.10828 51.5199 8.98017 50.9516 8.98017H49.4865V12.0639H50.9694V12.0731Z" fill="white"/>
<path d="M23.416 20.6018H25.778C27.9446 20.6018 29.2144 21.892 29.2144 23.7038V23.7221C29.2144 25.5339 27.9357 26.8791 25.7514 26.8791H23.4249V20.6018H23.416ZM25.112 22.1391V25.3418H25.8046C26.8258 25.3418 27.4918 24.7653 27.4918 23.7496V23.7313C27.4918 22.7247 26.8169 22.1299 25.8046 22.1299H25.112V22.1391Z" fill="white"/>
<path d="M31.7627 20.5557H33.3877L35.9805 26.8878H34.1691L33.734 25.7532H31.372L30.9369 26.8878H29.1787L31.7627 20.5557ZM33.2456 24.3989L32.5618 22.6237L31.8692 24.3989H33.2456Z" fill="white"/>
<path d="M36.6289 20.6013H38.316V26.8877H36.6289V20.6013Z" fill="white"/>
<path d="M39.4263 20.6013H41.1134V25.3596H44.0703V26.8877H39.4263V20.6013Z" fill="white"/>
<path d="M45.4373 24.536L43.1108 20.6013H45.0377L46.2898 22.889L47.5507 20.6013H49.442L47.1244 24.5086V26.8877H45.4373V24.536Z" fill="white"/>
</svg>
