<svg xmlns="http://www.w3.org/2000/svg" width="134" height="102" fill="none" viewBox="0 0 134 102">
    <path fill="#52C2BB" d="M59.92 93.151a1.897 1.897 0 0 0-1.332-.552c-.497 0-.981.202-1.332.552-.35.35-.551.836-.551 1.332 0 .495.201.98.551 1.33.35.351.837.553 1.332.553.495 0 .981-.202 1.331-.552.35-.35.552-.836.552-1.331 0-.496-.201-.982-.552-1.332zM31.011 58.978c-1.04 0-1.883.843-1.883 1.883v17.483a1.883 1.883 0 0 0 3.767 0V60.861c0-1.04-.843-1.883-1.884-1.883zM32.343 51.683a1.898 1.898 0 0 0-1.332-.552c-.495 0-.98.202-1.331.552-.35.35-.552.834-.552 1.331 0 .496.202.981.552 1.332.35.35.836.552 1.331.552.496 0 .982-.202 1.332-.552.35-.35.552-.836.552-1.332 0-.495-.202-.98-.552-1.331z"/>
    <path fill="#52C2BB" d="M116.513 50.979c0-4.51-3.252-8.271-7.534-9.07V29.698c0-5.193-4.224-9.417-9.416-9.417h-9.841L70.05.61a1.884 1.884 0 0 0-2.663 0l-4.378 4.378L58.63.61a1.884 1.884 0 0 0-2.663 0L36.179 20.4a1.876 1.876 0 0 0-.648-.117h-6.026c-5.192 0-9.417 4.224-9.417 9.416 0 .137.005.273.01.41-.006.064-.01.13-.01.196V86.95c0 5.192 4.225 9.416 9.417 9.416H50.66a1.883 1.883 0 0 0 0-3.767H29.505a5.656 5.656 0 0 1-5.65-5.65V37.227a9.367 9.367 0 0 0 5.65 1.888l39.422.038h21.395c.061 0 .123-.003.184-.009l.01-.001a5.658 5.658 0 0 1 5.092 5.622V56.44H72.82c-5.192 0-9.416 4.225-9.416 9.417s4.224 9.416 9.416 9.416h22.788V86.95a5.656 5.656 0 0 1-5.65 5.65H66.48a1.883 1.883 0 0 0 0 3.766h23.478c5.192 0 9.417-4.224 9.417-9.416v-.754h.188c5.192 0 9.416-4.224 9.416-9.416v-1.696c4.293-.875 7.534-4.68 7.534-9.227V51.355c0-.039-.002-.078-.004-.117.002-.086.004-.173.004-.26zM65.063 8.26l3.655-3.655 4.036 4.035a7.849 7.849 0 0 1-7.872.116c.084-.158.144-.325.181-.496zM23.855 29.698a5.656 5.656 0 0 1 5.65-5.65h3.025l-8.11 8.11a5.616 5.616 0 0 1-.565-2.46zm5.65 5.65c-.861 0-1.677-.195-2.408-.54L57.3 4.604l3.046 3.046-27.697 27.696h-3.144zm17.774 0a11.697 11.697 0 0 1 9.144-4.358c3.145 0 6.103 1.225 8.327 3.449.29.29.561.593.818.908H47.279zm39.424 0H70.078a15.463 15.463 0 0 0-2.665-3.573 15.44 15.44 0 0 0-10.99-4.552 15.44 15.44 0 0 0-10.99 4.552 15.455 15.455 0 0 0-2.665 3.572h-4.793l23.991-23.99a11.57 11.57 0 0 0 6.752 2.167c2.372 0 4.743-.724 6.753-2.167l12.297 12.297c-2.472 3.444-2.827 7.946-1.065 11.693zm3.782-.905a7.848 7.848 0 0 1 0-8.072l4.035 4.036-4.035 4.036zm3.51 1.816l4.52-4.52a1.884 1.884 0 0 0 0-2.664l-5.027-5.027h6.075a5.657 5.657 0 0 1 5.65 5.65V56.44h-5.838V44.764c0-3.748-2.202-6.991-5.38-8.506zm11.218 40.52a5.657 5.657 0 0 1-5.65 5.65h-.188v-7.156h5.838v1.507zm7.533-10.922a5.656 5.656 0 0 1-5.65 5.65H72.82a5.656 5.656 0 0 1-5.65-5.65 5.656 5.656 0 0 1 5.65-5.65h34.465a9.177 9.177 0 0 0 5.461-1.794v7.444zm-3.767-9.688V45.788a5.47 5.47 0 0 1 3.767 5.19 5.47 5.47 0 0 1-3.767 5.191z"/>
    <path fill="#52C2BB" d="M74.528 64.525a1.898 1.898 0 0 0-1.331-.552c-.495 0-.981.202-1.331.552-.35.35-.552.836-.552 1.332 0 .495.201.98.552 1.33.35.351.836.553 1.331.553s.981-.202 1.331-.552c.35-.35.552-.836.552-1.331 0-.496-.201-.982-.552-1.332zM75.377 23.748a1.884 1.884 0 0 0-2.663 0L69.44 27.02a1.883 1.883 0 0 0 2.663 2.664l3.273-3.274a1.883 1.883 0 0 0 0-2.663z"/>
    <ellipse cx="93.411" cy="9.087" fill="#CCC" rx="2.009" ry="2.056"/>
    <ellipse cx="122.494" cy="92.431" fill="#52C2BB" rx="2.968" ry="3.038"/>
    <path stroke="#52C2BB" stroke-linecap="round" d="M127.561 26.07h5.937M130.527 29.038v-5.936"/>
    <path stroke="#52C2BB" d="M5.434 62.299c0 1.411-1.115 2.536-2.466 2.536-1.35 0-2.466-1.125-2.466-2.536 0-1.412 1.115-2.536 2.466-2.536 1.351 0 2.466 1.124 2.466 2.536z"/>
    <path stroke="#999" stroke-linecap="round" d="M11.049 98.388h5.936M14.015 101.356V95.42"/>
</svg>
