<svg width="48" height="48" viewBox="0 0 48 48" fill="none" xmlns="http://www.w3.org/2000/svg">
<circle cx="23.9999" cy="24" r="24" transform="rotate(-180 23.9999 24)" fill="#333333"/>
<path fill-rule="evenodd" clip-rule="evenodd" d="M21.8875 29.1651C21.5458 27.541 21.4276 24.764 21.7046 22.582C21.7667 22.5315 21.8374 22.4728 21.9153 22.4066C22.212 22.1543 22.5087 21.8794 22.788 21.5888C23.2497 21.1084 23.6194 20.6321 23.8658 20.1594C24.5427 18.8546 24.7683 18.1676 24.8802 16.978C24.8983 16.7856 24.9081 16.5655 24.9112 16.321C24.9146 16.0562 24.91 15.777 24.9002 15.5001C24.9197 15.5043 24.944 15.5139 24.9776 15.529C25.9113 15.9484 26.6925 17.0731 26.4008 18.1948C26.0598 19.5063 25.9712 20.2694 26.0552 20.6964C26.0763 20.8034 26.1095 20.899 26.158 20.9849C26.3171 21.2671 26.6305 21.4256 26.9521 21.3866C26.9852 21.3826 27.0523 21.375 27.1491 21.3652C27.3129 21.3485 27.4984 21.3318 27.7013 21.3161C28.532 21.252 29.3818 21.2257 30.1671 21.2584C30.638 21.2779 31.0654 21.3184 31.438 21.3813C31.9113 21.4611 32.0199 21.6006 32.0195 22.0963C32.0193 22.3603 31.8841 22.7174 31.8024 22.7952C31.4596 23.1219 31.4735 23.6731 31.8324 23.9821C31.8506 23.9978 31.8873 24.2273 31.8203 24.515C31.7836 24.6731 31.7229 24.8142 31.6568 24.9061C31.6425 24.9261 31.6297 24.9412 31.6198 24.9514C31.1865 25.0639 30.9257 25.5145 31.053 25.9508C31.2689 26.6911 31.1988 27.0445 30.6872 27.4004C30.4618 27.5572 30.3325 27.8185 30.3444 28.0928C30.3655 28.5781 30.3136 28.892 30.2251 29.062C30.1891 29.131 30.1637 29.1519 30.1095 29.1707C30.0512 29.191 29.9998 29.199 29.8088 29.2183C29.7485 29.2244 29.7067 29.2293 29.6616 29.2361C28.5953 29.3976 23.7498 29.3681 21.8875 29.1651ZM21.633 20.4787C21.5021 20.6148 21.3654 20.7482 21.226 20.8772C21.1388 20.8562 21.0459 20.8497 20.95 20.8603C19.0371 21.0725 18.1066 21.0392 16.6791 20.6534C16.222 20.5299 15.7581 20.8277 15.6801 21.2947C15.0253 25.2144 14.9235 28.1395 15.738 30.8086C15.8304 31.1111 16.092 31.3309 16.4059 31.3697C19.234 31.7194 19.865 31.6626 21.6425 30.9518C21.7465 30.9102 21.837 30.8492 21.9116 30.7746C24.1018 30.9796 28.7282 30.9977 29.9014 30.8201C29.914 30.8182 29.9345 30.8158 29.9705 30.8122C30.1456 30.7944 30.1561 30.7933 30.2415 30.78C30.3784 30.7586 30.5068 30.7286 30.6351 30.6841C31.4572 30.3985 31.9122 29.6538 31.9484 28.4425C32.6578 27.804 32.8703 27.0263 32.7274 26.1046C33.3844 25.4658 33.6468 24.2533 33.3078 23.3902C33.502 23.0013 33.6212 22.5294 33.6215 22.0977C33.6226 20.8449 32.977 20.0161 31.7044 19.8015C31.2598 19.7266 30.7672 19.6799 30.2337 19.6577C29.4162 19.6237 28.5507 19.6478 27.7013 19.7096C27.7541 19.4104 27.8359 19.0417 27.9513 18.598C28.4718 16.5964 27.2058 14.7737 25.6341 14.0676C24.9221 13.7478 24.2569 13.8939 23.7618 14.3196C23.5888 14.4684 23.4702 14.6193 23.3952 14.7446C23.3125 14.883 23.2734 15.0431 23.2831 15.2041C23.2864 15.2578 23.2915 15.357 23.2966 15.488C23.3073 15.7637 23.3126 16.0431 23.3093 16.3005C23.3067 16.5052 23.2987 16.6842 23.2852 16.828C23.1944 17.7932 23.032 18.2876 22.4471 19.4151C22.2803 19.7351 21.998 20.0989 21.633 20.4787ZM17.1319 29.8438C16.6122 27.7828 16.671 25.4261 17.1256 22.4052C18.0865 22.5971 18.9462 22.6339 20.0947 22.5499C19.8119 24.9639 19.9578 27.9348 20.3722 29.7197C19.4483 30.0365 18.8583 30.0461 17.1319 29.8438Z" fill="white"/>
</svg>
