<svg xmlns="http://www.w3.org/2000/svg" width="47" height="47" fill="none" viewBox="0 0 47 47">
    <path fill="#CCC" d="M46.242 42.452h-3.79V23.5a.758.758 0 0 0-.758-.758h-3.79v-1.516h3.79c.419 0 .758-.34.758-.758v-3.032a.758.758 0 0 0-.758-.759h-4.549c-.419 0-.758.34-.758.759v5.306H31.84v-5.306c0-.21-.085-.4-.223-.537l-7.58-7.58a.757.757 0 0 0-1.072 0l-7.58 7.58a.753.753 0 0 0-.223.537v5.306h-4.548v-5.306a.758.758 0 0 0-.758-.759H5.306c-.419 0-.758.34-.758.759v3.032c0 .418.34.758.758.758h3.79v1.516h-3.79c-.419 0-.758.34-.758.758v18.952H.758c-.42 0-.758.34-.758.758v3.032c0 .418.339.758.758.758h45.484c.42 0 .758-.34.758-.758V43.21a.758.758 0 0 0-.758-.758zm-8.339-24.258h3.032v1.516h-3.032v-1.516zm-31.838 0h3.032v1.516H6.065v-1.516zm34.87 6.064v18.194H31.84V24.258h9.096zM28.806 42.452v-8.34a.758.758 0 0 0-.758-.757h-9.096c-.42 0-.759.34-.759.758v8.339h-1.516V18.194h13.646V42.452h-1.517zm-9.096 0V34.87h3.032v7.58H19.71zm4.548-7.581h3.032v7.58h-3.032v-7.58zM23.5 10.927l5.75 5.75h-11.5l5.75-5.75zM6.065 24.258h9.096v18.194H6.065V24.258zm39.419 21.226H1.516v-1.516H45.484v1.516z"/>
    <path fill="#CCC" d="M21.984 19.71h-3.032c-.42 0-.759.34-.759.758V31.08c0 .418.34.758.759.758h3.032c.42 0 .758-.34.758-.758V20.468a.758.758 0 0 0-.758-.758zm-.758 10.613H19.71v-9.097h1.516v9.097zM28.048 19.71h-3.032c-.42 0-.758.34-.758.758V31.08c0 .418.339.758.758.758h3.032c.42 0 .759-.34.759-.758V20.468a.758.758 0 0 0-.759-.758zm-.758 10.613h-1.516v-9.097h1.516v9.097zM12.887 25.774H8.34c-.42 0-.758.34-.758.758v4.549c0 .418.338.758.758.758h4.548c.42 0 .758-.34.758-.758v-4.549a.758.758 0 0 0-.758-.758zm-.758 4.549H9.097V27.29h3.032v3.033zM12.887 33.355H8.34c-.42 0-.758.34-.758.758v4.548c0 .419.338.758.758.758h4.548c.42 0 .758-.34.758-.758v-4.548a.758.758 0 0 0-.758-.758zm-.758 4.548H9.097v-3.032h3.032v3.032zM34.113 31.839h4.548c.42 0 .758-.34.758-.758v-4.549a.758.758 0 0 0-.758-.758h-4.548c-.42 0-.758.34-.758.758v4.549c0 .418.339.758.758.758zm.758-4.549h3.032v3.033h-3.032V27.29zM34.113 39.42h4.548c.42 0 .758-.34.758-.759v-4.548a.758.758 0 0 0-.758-.758h-4.548c-.42 0-.758.34-.758.758v4.548c0 .419.339.758.758.758zm.758-4.549h3.032v3.032h-3.032v-3.032zM.758 15.161h.758v1.516h1.516v-1.516h.758c.42 0 .758-.34.758-.758v-1.516c0-.987-.636-1.82-1.516-2.135v-5.91l1.516.506v3.749c0 .2.08.394.223.536l1.516 1.516a.755.755 0 0 0 .536.222h9.096c.202 0 .395-.08.536-.222l1.516-1.516a.756.756 0 0 0 .223-.536v-3.75l2.513-.837a.758.758 0 0 0 0-1.44L11.61.04a.764.764 0 0 0-.48 0L2.035 3.07a.758.758 0 0 0-.518.72v6.961A2.271 2.271 0 0 0 0 12.887v1.516c0 .419.339.758.758.758zm5.307-6.378v-2.93l4.548 1.516v2.486H7.136L6.065 8.783zm10.612 0l-1.072 1.072H12.13V7.369l4.548-1.516v2.93zm-5.306-7.226l6.7 2.233-6.7 2.234-6.7-2.234 6.7-2.233zm-9.855 11.33a.759.759 0 0 1 1.516 0v.758H1.516v-.758zM45.484 10.752V3.79a.758.758 0 0 0-.519-.72L35.87.04a.764.764 0 0 0-.48 0L26.292 3.07a.758.758 0 0 0 0 1.439l2.514.837v3.75c0 .2.08.394.223.536l1.516 1.516a.755.755 0 0 0 .536.222h9.096c.202 0 .395-.08.536-.222l1.517-1.516a.756.756 0 0 0 .222-.536v-3.75l1.516-.505v5.91a2.271 2.271 0 0 0-1.516 2.135v1.516c0 .419.339.758.758.758h.758v1.516h1.516v-1.516h.758c.42 0 .758-.34.758-.758v-1.516c0-.987-.636-1.82-1.516-2.135zm-9.855-9.195l6.7 2.233-6.7 2.234-6.7-2.234 6.7-2.233zm-5.306 7.226v-2.93l4.548 1.516v2.486h-3.477l-1.071-1.072zm10.612 0l-1.071 1.072h-3.477V7.369l4.548-1.516v2.93zm4.549 4.862h-1.516v-.758a.759.759 0 0 1 1.516 0v.758z"/>
</svg>
