<svg width="360" height="640" viewBox="0 0 360 640" fill="none" xmlns="http://www.w3.org/2000/svg">
<path fill-rule="evenodd" clip-rule="evenodd" d="M40.5582 8.95313L34.5398 16.1271L38.5345 24.1579C38.5345 24.1579 20.58 18.6116 18.0552 6.78965C15.5304 -5.03344 22.0298 -15.9717 22.0298 -15.9717C22.0298 -15.9717 18.0552 6.78965 40.5582 8.95313Z" fill="#F2BC18"/>
<path fill-rule="evenodd" clip-rule="evenodd" d="M109.644 -5.10254C109.644 -5.10254 94.9903 21.3716 113.553 41.1819C132.116 60.9911 159.636 63.7788 157.408 86.7728C157.408 86.7728 143.492 78.073 130.786 69.9169C118.079 61.7607 80.3963 28.3632 109.644 -5.10254Z" fill="#379993"/>
<path fill-rule="evenodd" clip-rule="evenodd" d="M166.327 -97.4771C166.327 -97.4771 173.104 -73.6273 141.074 -46.4092C106.171 -16.7491 94.499 1.8083 99.0172 25.3639C99.0172 25.3639 98.9098 1.3586 143.194 -33.1442C185.266 -65.9242 166.327 -97.4771 166.327 -97.4771Z" fill="#50C1BA"/>
<path fill-rule="evenodd" clip-rule="evenodd" d="M114.556 112.081C114.556 112.081 111.287 122.354 135.148 130.273C159.009 138.192 154.904 157.12 154.904 157.12L150.067 150.477L144.379 157.089C144.379 157.089 146.235 147.838 133.186 143.39C115.964 137.52 109.322 130.382 108.567 120.747C107.812 111.113 114.556 112.081 114.556 112.081Z" fill="#379993"/>
<path fill-rule="evenodd" clip-rule="evenodd" d="M112.656 130.205C112.656 130.205 106.933 118.822 122.07 111.112C137.205 103.4 165.8 103.669 156.439 77.3918C156.439 77.3918 151.46 89.913 132.555 94.3664C113.649 98.8186 101.368 114.476 112.656 130.205Z" fill="#50C1BA"/>
<path fill-rule="evenodd" clip-rule="evenodd" d="M35.9588 58.3152C35.9588 58.3152 41.1214 67.7477 34.7663 77.4107C28.4113 87.0748 0.67526 85.1261 -3.93249 95.7857C-3.93249 95.7857 -10.0963 87.2336 0.278136 80.2487C10.6514 73.2649 30.8153 72.1675 35.9588 58.3152Z" fill="#4CA13C"/>
<path fill-rule="evenodd" clip-rule="evenodd" d="M-1.89481 9.05591C-1.89481 9.05591 -9.70192 19.0321 0.727325 32.4739C11.1577 45.9157 38.9082 46.6697 37.6587 67.3906C37.6587 67.3906 32.1996 61.1451 14.9544 54.5853C-2.29081 48.0255 -6.58087 36.2796 -8.23872 28.1145C-9.89657 19.9494 -1.89481 9.05591 -1.89481 9.05591Z" fill="#6AC259"/>
<path fill-rule="evenodd" clip-rule="evenodd" d="M24.0727 104.116L18.7009 110.612L25.6556 118.256C25.6556 118.256 2.3215 111.785 -3.41498 105.719C-9.15145 99.6538 -10.703 90.8768 -3.62305 83.8181C-3.62305 83.8181 -8.91989 101.716 24.0727 104.116Z" fill="#6AC259"/>
<path fill-rule="evenodd" clip-rule="evenodd" d="M80.6672 431.883C80.6672 431.883 78.3483 439.961 71.8086 445.903C71.8086 445.903 76.177 452.382 75.2071 456.249C75.2071 456.249 92.6302 447.653 80.6672 431.883Z" fill="#F2BC18"/>
<path fill-rule="evenodd" clip-rule="evenodd" d="M4.85865 569C4.85865 569 2.53967 577.078 -4 583.02C-4 583.02 0.368361 589.499 -0.601516 593.367C-0.601516 593.367 16.8216 584.77 4.85865 569Z" fill="#F2BC18"/>
<path fill-rule="evenodd" clip-rule="evenodd" d="M47.26 401.13C47.26 401.13 42.1611 398.059 39.294 392.477C39.294 392.477 34.0643 394.295 31.5977 392.921C31.5977 392.921 34.2903 406.469 47.26 401.13Z" fill="#6AC259"/>
<path fill-rule="evenodd" clip-rule="evenodd" d="M18.053 519.891C18.053 519.891 12.9541 516.821 10.087 511.239C10.087 511.239 4.85727 513.056 2.39062 511.682C2.39062 511.682 5.08435 525.23 18.053 519.891Z" fill="#6AC259"/>
<path fill-rule="evenodd" clip-rule="evenodd" d="M-1.87888 332.645C-1.87888 332.645 0.440094 340.722 6.97865 346.664C6.97865 346.664 2.61029 353.144 3.58129 357.011C3.58129 357.011 -13.8418 348.413 -1.87888 332.645Z" fill="#50C1BA"/>
<path fill-rule="evenodd" clip-rule="evenodd" d="M2.98831 139.046C2.98831 139.046 5.30728 147.124 11.847 153.067C11.847 153.067 7.4786 159.547 8.44848 163.414C8.44848 163.414 -8.97462 154.816 2.98831 139.046Z" fill="#F2BC18"/>
<path fill-rule="evenodd" clip-rule="evenodd" d="M7.25651 441.366C7.25651 441.366 0.934973 446.755 -4.50953 446.339C-4.50953 446.339 -5.95036 457.003 -12.9375 464.286C-12.9375 464.286 -7.55788 466.022 -0.421958 461.43C-0.421958 461.43 8.10557 451.088 7.25651 441.366Z" fill="#F2BC18"/>
<path fill-rule="evenodd" clip-rule="evenodd" d="M320.24 288C320.24 288 312.573 291.181 307.519 289.11C307.519 289.11 302.882 298.815 294 303.593C294 303.593 298.589 306.903 306.786 304.73C306.786 304.73 318.069 297.514 320.24 288Z" fill="#6AC259"/>
<path fill-rule="evenodd" clip-rule="evenodd" d="M82.2404 85C82.2404 85 74.5731 88.1815 69.519 86.1097C69.519 86.1097 64.8821 95.8152 56 100.593C56 100.593 60.5887 103.903 68.7863 101.73C68.7863 101.73 80.069 94.5142 82.2404 85Z" fill="#6AC259"/>
<path fill-rule="evenodd" clip-rule="evenodd" d="M15.2178 296.305C15.2178 296.305 4.36799 272.454 21.7351 256.623C39.1023 240.792 63.0449 240.262 62.6836 220.264C62.6836 220.264 50.0808 226.824 38.5598 232.997C27.0387 239.169 -7.75491 265.423 15.2178 296.305Z" fill="#D09E0A"/>
<path fill-rule="evenodd" clip-rule="evenodd" d="M57.8737 379.905C57.8737 379.905 65.3429 359.782 39.5456 334.103C11.4326 306.119 2.61869 289.306 8.11689 269.283C8.11689 269.283 6.39527 289.994 42.2751 322.798C76.3628 353.963 57.8737 379.905 57.8737 379.905Z" fill="#F2BC18"/>
<path fill-rule="evenodd" clip-rule="evenodd" d="M27.0098 179.723C27.0098 179.723 21.2968 189.156 33.8381 196.845C46.3793 204.535 71.0782 206.254 61.2139 228.296C61.2139 228.296 57.7673 217.149 41.7515 212.014C25.7356 206.881 16.1991 192.528 27.0098 179.723Z" fill="#F2BC18"/>
<path fill-rule="evenodd" clip-rule="evenodd" d="M209.035 -34.4023C209.035 -34.4023 211.873 -22.926 222.454 -9.68001C232.983 3.4989 235.377 8.90202 231.387 13.9494C231.387 13.9494 211.489 -4.18404 208.753 -18.4055C206.696 -29.0954 209.035 -34.4023 209.035 -34.4023Z" fill="#D09E0A"/>
<path fill-rule="evenodd" clip-rule="evenodd" d="M212.398 27.1279L218.418 34.3019L214.421 42.3316C214.421 42.3316 232.377 36.7864 234.901 24.9633C237.426 13.1402 230.927 2.20312 230.927 2.20312C230.927 2.20312 234.901 24.9633 212.398 27.1279Z" fill="#F2BC18"/>
<path fill-rule="evenodd" clip-rule="evenodd" d="M229.206 92.4565C229.206 92.4565 224.886 100.348 230.203 108.432C235.52 116.518 258.726 114.887 262.579 123.805C262.579 123.805 267.738 116.65 259.058 110.807C250.378 104.964 233.509 104.046 229.206 92.4565Z" fill="#4CA13C"/>
<path fill-rule="evenodd" clip-rule="evenodd" d="M260.871 51.2466C260.871 51.2466 267.403 59.5929 258.678 70.8376C249.952 82.0835 226.734 82.7144 227.78 100.05C227.78 100.05 232.348 94.825 246.775 89.3369C261.204 83.8487 264.792 74.0213 266.179 67.1908C267.566 60.3592 260.871 51.2466 260.871 51.2466Z" fill="#6AC259"/>
<path fill-rule="evenodd" clip-rule="evenodd" d="M239.153 130.775L243.646 136.209L237.828 142.605C237.828 142.605 257.35 137.19 262.149 132.116C266.949 127.042 268.248 119.699 262.325 113.792C262.325 113.792 266.756 128.767 239.153 130.775Z" fill="#6AC259"/>
<path fill-rule="evenodd" clip-rule="evenodd" d="M79.196 170C79.196 170 81.5139 178.079 88.0535 184.02C88.0535 184.02 83.6852 190.501 84.655 194.368C84.655 194.368 67.232 185.77 79.196 170Z" fill="#50C1BA"/>
<path fill-rule="evenodd" clip-rule="evenodd" d="M173.986 -2.14917C173.986 -2.14917 171.669 5.92754 165.129 11.8698C165.129 11.8698 169.497 18.3502 168.526 22.2174C168.526 22.2174 185.949 13.6194 173.986 -2.14917Z" fill="#50C1BA"/>
<path fill-rule="evenodd" clip-rule="evenodd" d="M187.148 160.933C187.148 160.933 194.816 164.114 199.87 162.043C199.87 162.043 204.508 171.747 213.389 176.526C213.389 176.526 208.8 179.836 200.603 177.662C200.603 177.662 189.32 170.446 187.148 160.933Z" fill="#F2BC18"/>
<path fill-rule="evenodd" clip-rule="evenodd" d="M340.113 243.713C340.113 243.713 347.781 246.895 352.835 244.823C352.835 244.823 357.473 254.527 366.354 259.306C366.354 259.306 361.765 262.616 353.567 260.443C353.567 260.443 342.285 253.226 340.113 243.713Z" fill="#50C1BA"/>
<path fill-rule="evenodd" clip-rule="evenodd" d="M34.7516 524.535C34.7516 524.535 29.589 533.967 35.9441 543.63C42.2992 553.294 70.0352 551.346 74.6429 562.005C74.6429 562.005 80.8067 553.453 70.4323 546.468C60.059 539.485 39.8952 538.387 34.7516 524.535Z" fill="#4CA13C"/>
<path fill-rule="evenodd" clip-rule="evenodd" d="M72.6021 475.276C72.6021 475.276 80.4092 485.252 69.9799 498.694C59.5507 512.135 31.8002 512.889 33.0486 533.61C33.0486 533.61 38.5088 527.365 55.7529 520.805C72.9981 514.245 77.2893 502.499 78.9471 494.334C80.605 486.169 72.6021 475.276 72.6021 475.276Z" fill="#6AC259"/>
<path fill-rule="evenodd" clip-rule="evenodd" d="M46.6376 570.336L52.0094 576.832L45.0547 584.476C45.0547 584.476 68.3876 578.004 74.1241 571.939C79.8606 565.874 81.4133 557.097 74.3333 550.038C74.3333 550.038 79.6301 567.935 46.6376 570.336Z" fill="#6AC259"/>
<path fill-rule="evenodd" clip-rule="evenodd" d="M55.4133 594.08C55.4133 594.08 53.0932 602.157 46.5547 608.1C46.5547 608.1 50.923 614.58 49.9532 618.447C49.9532 618.447 67.3751 609.849 55.4133 594.08Z" fill="#50C1BA"/>
<path fill-rule="evenodd" clip-rule="evenodd" d="M352.616 542.395C352.616 542.395 350.297 550.473 343.758 556.414C343.758 556.414 348.126 562.895 347.155 566.762C347.155 566.762 364.578 558.164 352.616 542.395Z" fill="#50C1BA"/>
<path fill-rule="evenodd" clip-rule="evenodd" d="M347.653 446.093C347.653 446.093 358.502 422.242 341.136 406.41C323.769 390.579 299.826 390.05 300.188 370.052C300.188 370.052 312.79 376.612 324.311 382.784C335.831 388.957 370.625 415.211 347.653 446.093Z" fill="#D09E0A"/>
<path fill-rule="evenodd" clip-rule="evenodd" d="M304.998 529.692C304.998 529.692 297.529 509.569 323.326 483.89C351.439 455.906 360.253 439.093 354.755 419.07C354.755 419.07 356.477 439.781 320.597 472.585C286.509 503.75 304.998 529.692 304.998 529.692Z" fill="#F2BC18"/>
<path fill-rule="evenodd" clip-rule="evenodd" d="M335.864 329.511C335.864 329.511 341.576 338.943 329.034 346.633C316.494 354.323 291.794 356.042 301.658 378.084C301.658 378.084 305.106 366.937 321.121 361.802C337.138 356.668 346.674 342.316 335.864 329.511Z" fill="#F2BC18"/>
<path fill-rule="evenodd" clip-rule="evenodd" d="M183.468 405.783C183.468 405.783 168.816 432.257 187.379 452.067C205.941 471.876 233.461 474.665 231.233 497.659C231.233 497.659 217.316 488.959 204.61 480.802C191.904 472.645 154.22 439.249 183.468 405.783Z" fill="#379993"/>
<path fill-rule="evenodd" clip-rule="evenodd" d="M188.379 522.966C188.379 522.966 185.11 533.239 208.971 541.159C232.832 549.078 228.727 568.006 228.727 568.006L223.889 561.363L218.201 567.975C218.201 567.975 220.058 558.724 207.009 554.276C189.788 548.406 183.145 541.268 182.391 531.633C181.636 521.999 188.379 522.966 188.379 522.966Z" fill="#379993"/>
<path fill-rule="evenodd" clip-rule="evenodd" d="M186.48 541.09C186.48 541.09 180.756 529.708 195.893 521.997C211.029 514.285 239.624 514.555 230.262 488.277C230.262 488.277 225.283 500.797 206.379 505.251C187.473 509.704 175.192 525.362 186.48 541.09Z" fill="#50C1BA"/>
<path fill-rule="evenodd" clip-rule="evenodd" d="M265.922 550.519C265.922 550.519 271.021 547.448 273.888 541.867C273.888 541.867 279.116 543.684 281.583 542.31C281.583 542.31 278.89 555.858 265.922 550.519Z" fill="#6AC259"/>
<path fill-rule="evenodd" clip-rule="evenodd" d="M325.922 637.652C325.922 637.652 331.021 634.581 333.888 629C333.888 629 339.116 630.817 341.583 629.443C341.583 629.443 338.89 642.991 325.922 637.652Z" fill="#F2BC18"/>
<path fill-rule="evenodd" clip-rule="evenodd" d="M216.408 601.389C216.408 601.389 214.09 609.468 207.551 615.409C207.551 615.409 211.919 621.89 210.948 625.757C210.948 625.757 228.371 617.159 216.408 601.389Z" fill="#F2BC18"/>
<path fill-rule="evenodd" clip-rule="evenodd" d="M137.645 501.005C137.645 501.005 139.962 509.083 146.502 515.025C146.502 515.025 142.135 521.504 143.105 525.371C143.105 525.371 125.682 516.774 137.645 501.005Z" fill="#F2BC18"/>
<path fill-rule="evenodd" clip-rule="evenodd" d="M216.911 635.244C216.911 635.244 222.622 644.676 210.081 652.366C197.541 660.055 172.841 661.775 182.705 683.817C182.705 683.817 186.153 672.669 202.168 667.535C218.185 662.401 227.721 648.049 216.911 635.244Z" fill="#F2BC18"/>
<path fill-rule="evenodd" clip-rule="evenodd" d="M120.128 562C120.128 562 122.966 573.475 133.548 586.721C144.076 599.901 146.471 605.303 142.479 610.351C142.479 610.351 122.583 592.218 119.847 577.996C117.789 567.306 120.128 562 120.128 562Z" fill="#379993"/>
<path fill-rule="evenodd" clip-rule="evenodd" d="M123.496 623.529L129.514 630.703L125.519 638.734C125.519 638.734 143.474 633.187 145.999 621.365C148.524 609.542 142.023 598.604 142.023 598.604C142.023 598.604 145.999 621.365 123.496 623.529Z" fill="#50C1BA"/>
<path fill-rule="evenodd" clip-rule="evenodd" d="M338.692 82.1516C338.692 82.1516 353.346 108.627 334.783 128.436C316.22 148.245 288.701 151.034 290.928 174.028C290.928 174.028 304.844 165.327 317.551 157.171C330.255 149.015 367.94 115.618 338.692 82.1516Z" fill="#D09E0A"/>
<path fill-rule="evenodd" clip-rule="evenodd" d="M282.009 -10.2217C282.009 -10.2217 275.231 13.627 307.261 40.845C342.165 70.5063 353.836 89.0637 349.319 112.619C349.319 112.619 349.426 88.614 305.142 54.1112C263.069 21.3301 282.009 -10.2217 282.009 -10.2217Z" fill="#F2BC18"/>
<path fill-rule="evenodd" clip-rule="evenodd" d="M335.676 218.578C335.676 218.578 341.4 207.196 326.263 199.484C311.126 191.773 282.532 192.043 291.893 165.764C291.893 165.764 296.872 178.285 315.778 182.739C334.683 187.192 346.964 202.85 335.676 218.578Z" fill="#F2BC18"/>
<path fill-rule="evenodd" clip-rule="evenodd" d="M271.047 598.328C271.047 598.328 278.714 601.51 283.768 599.438C283.768 599.438 288.405 609.143 297.287 613.921C297.287 613.921 292.699 617.231 284.501 615.058C284.501 615.058 273.217 607.842 271.047 598.328Z" fill="#6AC259"/>
<path fill-rule="evenodd" clip-rule="evenodd" d="M271.047 429C271.047 429 278.714 432.181 283.768 430.11C283.768 430.11 288.405 439.815 297.287 444.593C297.287 444.593 292.699 447.903 284.501 445.73C284.501 445.73 273.217 438.514 271.047 429Z" fill="#F2BC18"/>
<path fill-rule="evenodd" clip-rule="evenodd" d="M344.656 21.21C344.656 21.21 340.335 29.101 345.652 37.1855C350.969 45.2712 374.175 43.6402 378.029 52.5581C378.029 52.5581 383.187 45.4032 374.507 39.5604C365.827 33.7177 348.958 32.7993 344.656 21.21Z" fill="#4CA13C"/>
<path fill-rule="evenodd" clip-rule="evenodd" d="M376.321 -20C376.321 -20 382.852 -11.6537 374.127 -0.408955C365.401 10.8369 342.184 11.4678 343.23 28.8037C343.23 28.8037 347.797 23.5784 362.224 18.0903C376.653 12.6022 380.241 2.77475 381.629 -4.05577C383.016 -10.8874 376.321 -20 376.321 -20Z" fill="#6AC259"/>
</svg>
