<svg xmlns="http://www.w3.org/2000/svg" width="120" height="89" fill="none" viewBox="0 0 120 89">
    <path fill="#52C2BB" d="M59.084 64.74a12.49 12.49 0 0 1 4.015 9.205 1.336 1.336 0 0 0 1.336 1.336h5.343a1.336 1.336 0 0 0 1.335-1.336V51.238c0-.29-.093-.57-.267-.802l-7.855-10.474c.07-1.116.107-2.237.108-3.361A37.182 37.182 0 0 0 50.63 8.832a1.336 1.336 0 0 0-1.774 0 37.184 37.184 0 0 0-12.47 27.769c0 1.124.036 2.245.108 3.361l-7.855 10.474a1.336 1.336 0 0 0-.267.802v22.707a1.336 1.336 0 0 0 1.335 1.336h5.343a1.336 1.336 0 0 0 1.336-1.336A12.49 12.49 0 0 1 40.4 64.74a1.335 1.335 0 0 0 1.328 1.19h.96l-.92 3.684a1.337 1.337 0 0 0 1.295 1.66h.676a14.795 14.795 0 0 0 2.806 14.35l2.183 2.547a1.335 1.335 0 0 0 2.028 0l2.183-2.547a14.795 14.795 0 0 0 2.806-14.35h.676a1.336 1.336 0 0 0 1.295-1.66l-.92-3.683h.96a1.336 1.336 0 0 0 1.328-1.19zm-2.663-1.48H43.063v-5.344h13.358v5.343zm-6.679-32.058a4.008 4.008 0 1 1 0 8.015 4.008 4.008 0 0 1 0-8.015zm18.7 20.481V72.61h-2.73a15.148 15.148 0 0 0-5.658-10.558l-.962-.77v-4.458l.659-1.757a52.46 52.46 0 0 0 2.842-11.182l5.849 7.8zM57.249 54.13l-.418 1.116h-5.753V41.753a6.68 6.68 0 0 0 0-13.088v-4.141h7.161A34.457 34.457 0 0 1 60.428 36.6a49.75 49.75 0 0 1-3.179 17.528zm-7.507-42.483a34.477 34.477 0 0 1 7.366 10.206H42.376a34.48 34.48 0 0 1 7.366-10.206zm-8.497 12.878h7.161v4.141a6.68 6.68 0 0 0 0 13.088v13.492h-5.753l-.418-1.116A49.753 49.753 0 0 1 39.056 36.6c.001-4.125.742-8.215 2.189-12.077zM39.43 62.05A15.144 15.144 0 0 0 33.77 72.61h-2.729V51.683l5.85-7.799a52.463 52.463 0 0 0 2.841 11.183l.659 1.756v4.459l-.962.77zm7.933 3.88l.668 2.671h-3.257l.668-2.671h1.921zm3.548 17.955l-1.169 1.364-1.169-1.364a12.13 12.13 0 0 1-1.981-12.613h6.3a12.132 12.132 0 0 1-1.981 12.613zm3.799-15.284h-3.257l.668-2.671h1.921l.668 2.671zM15.013 61.923h2.672v17.365h-2.672V61.923zM15.013 81.96h2.672v4.006h-2.672V81.96zM20.356 53.91h2.671v13.356h-2.671V53.91zM20.356 69.938h2.671v4.007h-2.671v-4.007zM81.799 61.923h2.671v17.365H81.8V61.923zM81.799 81.96h2.671v4.006H81.8V81.96zM76.456 53.91h2.672v13.356h-2.672V53.91zM76.456 69.938h2.672v4.007h-2.672v-4.007zM0 50.062h2.671v2.672h2.672v-2.672h2.671v-2.671H5.343V44.72H2.67v2.671H0v2.671zM90.401 6.839h2.672V4.168H90.4V1.496H87.73v2.672h-2.672v2.67h2.672V9.51H90.4V6.84zM25.7 17.524h4.006v2.672H25.7v-2.672zM1.336 27.195h4.007v2.671H1.336v-2.67zM21.692 0h4.007v2.671h-4.007V0zM82.12 31.202h4.006v2.672H82.12v-2.672zM102.476 52.894h4.007v2.672h-4.007v-2.672zM115.993 28.53H120v2.672h-4.007v-2.671z"/>
</svg>
