<svg xmlns="http://www.w3.org/2000/svg" width="56" height="42" fill="none" viewBox="0 0 56 42">
    <path fill="#CCC" d="M46.266 22.047c-.454 0-.82.37-.82.827v1.984c0 .457.366.827.82.827.453 0 .82-.37.82-.827v-1.984a.824.824 0 0 0-.82-.827zM46.266 31.711c-.454 0-.82.37-.82.827v1.984c0 .457.366.827.82.827.453 0 .82-.37.82-.827v-1.984a.823.823 0 0 0-.82-.827zM9.734 25.685c.454 0 .82-.37.82-.827v-1.984a.824.824 0 0 0-.82-.827c-.453 0-.82.37-.82.827v1.984c0 .457.367.827.82.827zM8.914 34.522c0 .457.367.827.82.827.454 0 .82-.37.82-.827v-1.984a.823.823 0 0 0-.82-.827c-.453 0-.82.37-.82.827v1.984z"/>
    <path fill="#CCC" d="M53.43 36.819h-.875V19.787a.824.824 0 0 0-.82-.826H49.82v-1.323h1.367c.454 0 .82-.37.82-.827 0-.44-.341-.8-.772-.825-.127-2.361-1.881-4.293-4.15-4.674V9.874a.823.823 0 0 0-.82-.827c-.453 0-.82.37-.82.827v1.438c-2.267.38-4.022 2.313-4.149 4.674a.825.825 0 0 0-.773.825c0 .456.367.827.82.827h1.423v1.323h-1.97c-.452 0-.82.37-.82.826v1.599h-2.953V8.709c.2-.17.329-.426.329-.711V5.346c0-1.262-.83-2.333-1.97-2.687V.827a.823.823 0 0 0-.82-.827c-.453 0-.82.37-.82.827v1.832a2.814 2.814 0 0 0-1.969 2.687v2.652c0 .285.128.54.329.711v7.637a2.44 2.44 0 0 0-2.461.492 2.44 2.44 0 0 0-3.282 0 2.44 2.44 0 0 0-2.46-.492V8.71c.2-.17.328-.426.328-.71V5.345c0-1.262-.83-2.333-1.97-2.687V.827a.823.823 0 0 0-.82-.827c-.453 0-.82.37-.82.827v1.832a2.814 2.814 0 0 0-1.969 2.687v2.652c0 .285.128.54.329.711v12.677h-2.954v-1.599a.824.824 0 0 0-.82-.826H13.29v-1.323h1.367c.454 0 .82-.37.82-.827 0-.44-.341-.8-.772-.825-.127-2.361-1.882-4.293-4.15-4.674V9.874a.824.824 0 0 0-.82-.827c-.453 0-.82.37-.82.827v1.438c-2.268.38-4.022 2.313-4.149 4.674a.825.825 0 0 0-.773.825c0 .456.367.827.82.827h1.422v1.323H4.266c-.454 0-.82.37-.82.826v4.63c0 .457.366.827.82.827.453 0 .82-.37.82-.827v-3.803h9.297V36.82H5.086v-8.764a.824.824 0 0 0-.82-.827c-.454 0-.82.37-.82.827v8.764H2.57c-1.417 0-2.57 1.162-2.57 2.59C0 40.839 1.153 42 2.57 42h46.457c.454 0 .82-.37.82-.827a.823.823 0 0 0-.82-.827H2.57a.934.934 0 0 1-.93-.936c0-.517.418-.938.93-.938h50.86c.512 0 .93.42.93.938a.934.934 0 0 1-.93.937h-.957c-.454 0-.82.37-.82.826 0 .457.366.827.82.827h.957c1.417 0 2.57-1.162 2.57-2.59 0-1.429-1.153-2.591-2.57-2.591zM9.734 12.898c1.748 0 3.185 1.36 3.325 3.086H6.41c.14-1.725 1.578-3.086 3.325-3.086zm-1.859 4.74h3.773v1.323H7.875v-1.323zm38.39-4.74c1.748 0 3.186 1.36 3.325 3.086h-6.65c.14-1.725 1.578-3.086 3.326-3.086zm-1.859 4.74h3.774v1.323h-3.774v-1.323zM33.742 8.929h1.64v12.457h-1.64V8.929zm-.328-3.583c0-.638.515-1.157 1.148-1.157.634 0 1.149.52 1.149 1.157v1.93h-2.297v-1.93zm-2.133 12.512c.453 0 .82.371.82.827v2.7h-1.64v-2.7c0-.456.368-.827.82-.827zm-3.281 0c.453 0 .82.371.82.827v2.7h-1.64v-2.7c0-.456.367-.827.82-.827zm-3.281 0c.452 0 .82.371.82.827v2.7H23.9v-2.7c0-.456.367-.827.82-.827zm-4.43-12.512c0-.638.515-1.157 1.148-1.157.634 0 1.149.52 1.149 1.157v1.93h-2.297v-1.93zm.328 3.583h1.64v12.457h-1.64V8.929zm19.36 14.11v1.654H16.023v-1.654h23.954zM19.305 36.82v-7.386h12.168c.453 0 .82-.37.82-.827a.824.824 0 0 0-.82-.827H18.484c-.453 0-.82.37-.82.827v8.213h-1.64V26.346h23.953V36.82h-1.641v-8.213a.824.824 0 0 0-.82-.827H35c-.453 0-.82.37-.82.827 0 .457.367.827.82.827h1.695v7.386h-17.39zm22.312 0V20.614h9.297V36.82h-9.297z"/>
</svg>
