<svg xmlns="http://www.w3.org/2000/svg" width="97" height="103" fill="none" viewBox="0 0 97 103">
    <ellipse cx="47" cy="96.5" fill="#E5E5E5" rx="47" ry="6.5"/>
    <path fill="#52C2BB" d="M32.4 14.4h3.2v3.2h-3.2v-3.2zM38.8 14.4H42v3.2h-3.2v-3.2zM45.2 14.4h3.2v3.2h-3.2v-3.2zM51.6 14.4h3.2v3.2h-3.2v-3.2z"/>
    <path fill="#52C2BB" d="M96.4 54.4A32.057 32.057 0 0 0 74 23.875V8a8.01 8.01 0 0 0-8-8H21.2a8.01 8.01 0 0 0-8 8v80a8.01 8.01 0 0 0 8 8H66a8.01 8.01 0 0 0 8-8v-3.075A32.057 32.057 0 0 0 96.4 54.4zm-3.2 0c0 15.905-12.894 28.8-28.8 28.8-15.905 0-28.8-12.895-28.8-28.8 0-15.905 12.895-28.8 28.8-28.8 15.899.019 28.781 12.902 28.8 28.8zM32.4 3.2h22.4v3.2A1.6 1.6 0 0 1 53.2 8H34a1.6 1.6 0 0 1-1.6-1.6V3.2zM70.8 88a4.8 4.8 0 0 1-4.8 4.8H21.2a4.8 4.8 0 0 1-4.8-4.8V8a4.8 4.8 0 0 1 4.8-4.8h8v3.2a4.8 4.8 0 0 0 4.8 4.8h19.2A4.8 4.8 0 0 0 58 6.4V3.2h8A4.8 4.8 0 0 1 70.8 8v15.04A32.001 32.001 0 0 0 37.85 72.213 32.001 32.001 0 0 0 70.8 85.76V88zM88.4 12.8h3.2V9.6h3.2V6.4h-3.2V3.2h-3.2v3.2h-3.2v3.2h3.2v3.2z"/>
    <path fill="#52C2BB" d="M82.2 22h9.6v3.2h-9.6V22zM86.8 83.2h-3.2v3.2h-3.2v3.2h3.2v3.2h3.2v-3.2H90v-3.2h-3.2v-3.2zM43.86 49.878a1.6 1.6 0 0 0 .265 1.91L62.269 69.93a1.6 1.6 0 0 0 2.262 0l18.144-18.143a1.6 1.6 0 0 0 .266-1.91 22.372 22.372 0 0 0-39.082 0zm35.68.528L63.4 66.537 47.269 50.4a19.179 19.179 0 0 1 32.262 0l.008.006z"/>
    <path fill="#52C2BB" d="M63.48 56.28L63.26 47h2.48l-.22 9.28v.58h-2.04v-.58zm-.28 2h2.6V61h-2.6v-2.72z"/>
</svg>
