<svg width="91" height="78" viewBox="0 0 91 78" fill="none" xmlns="http://www.w3.org/2000/svg">
<path d="M90.4104 65.0247C90.4104 66.4301 89.3003 67.5494 87.9552 67.5494C86.6101 67.5494 85.5 66.4301 85.5 65.0247C85.5 63.6193 86.6101 62.5 87.9552 62.5C89.3003 62.5 90.4104 63.6193 90.4104 65.0247Z" fill="#BED748" stroke="#BED748"/>
<path d="M78 3.95532H83.9104" stroke="#BED748" stroke-linecap="round"/>
<path d="M80.9531 6.9104V0.999961" stroke="#BED748" stroke-linecap="round"/>
<path d="M9.41044 21.0247C9.41044 22.4301 8.30031 23.5494 6.95522 23.5494C5.61013 23.5494 4.5 22.4301 4.5 21.0247C4.5 19.6193 5.61013 18.5 6.95522 18.5C8.30031 18.5 9.41044 19.6193 9.41044 21.0247Z" stroke="#BED748"/>
<path d="M1 67.9554H6.91044" stroke="#BED748" stroke-linecap="round"/>
<path d="M3.95312 70.9105L3.95313 65.0001" stroke="#BED748" stroke-linecap="round"/>
<ellipse cx="49.0007" cy="41.9996" rx="30" ry="30" fill="#BED748"/>
<path fill-rule="evenodd" clip-rule="evenodd" d="M49.2145 68.6545C63.8163 68.6545 75.6533 56.8175 75.6533 42.2157C75.6533 27.6139 63.8163 15.7769 49.2145 15.7769C34.6127 15.7769 22.7756 27.6139 22.7756 42.2157C22.7756 56.8175 34.6127 68.6545 49.2145 68.6545ZM49.1064 65.4169C61.9799 65.4169 72.4158 54.9809 72.4158 42.1075C72.4158 29.2341 61.9799 18.7982 49.1064 18.7982C36.233 18.7982 25.7971 29.2341 25.7971 42.1075C25.7971 54.9809 36.233 65.4169 49.1064 65.4169Z" fill="#849920"/>
<path d="M55.3415 43.9488V46.4351C55.3414 46.5068 55.3199 46.5768 55.2798 46.6361C55.2397 46.6955 55.1828 46.7416 55.1163 46.7684L48.3999 49.5302C48.3341 49.5575 48.2778 49.6037 48.2382 49.6629C48.1986 49.7222 48.1774 49.7919 48.1774 49.8631C48.1774 49.9344 48.1986 50.0041 48.2382 50.0634C48.2778 50.1226 48.3341 50.1688 48.3999 50.1961L55.1163 52.9586C55.1828 52.9853 55.2397 53.0312 55.2798 53.0904C55.32 53.1497 55.3414 53.2196 55.3415 53.2912V55.7347C55.3416 55.7945 55.3268 55.8534 55.2983 55.9061C55.2699 55.9587 55.2287 56.0034 55.1786 56.0361C55.1285 56.0689 55.071 56.0886 55.0114 56.0935C54.9518 56.0984 54.8918 56.0883 54.8371 56.0642L44.4611 51.5195C44.3969 51.4916 44.3422 51.4456 44.3038 51.387C44.2654 51.3285 44.2449 51.26 44.2449 51.19V48.4965C44.2449 48.4265 44.2654 48.358 44.3038 48.2995C44.3422 48.2409 44.3969 48.1949 44.4611 48.167L54.8371 43.6223C54.8918 43.5982 54.9518 43.5881 55.0114 43.593C55.071 43.5979 55.1285 43.6176 55.1786 43.6503C55.2287 43.6831 55.2699 43.7278 55.2983 43.7804C55.3268 43.8331 55.3416 43.892 55.3415 43.9518" fill="#849920"/>
<path d="M40.6493 27.039L57.723 34.5174C57.8054 34.5537 57.8755 34.6132 57.9247 34.6886C57.9739 34.7641 58.0001 34.8522 58 34.9423V39.4682C58 39.5582 57.9738 39.6463 57.9246 39.7218C57.8754 39.7972 57.8054 39.8567 57.723 39.8931L40.6493 47.3707C40.5788 47.4016 40.5017 47.4145 40.425 47.4082C40.3483 47.4018 40.2743 47.3764 40.2099 47.3343C40.1454 47.2922 40.0925 47.2347 40.0558 47.167C40.0192 47.0993 40 47.0235 40 46.9465V42.6481C39.9999 42.5562 40.0272 42.4663 40.0784 42.3899C40.1296 42.3136 40.2024 42.2542 40.2875 42.2194L51.5283 37.5967C51.6134 37.5619 51.6862 37.5025 51.7374 37.4262C51.7886 37.3499 51.816 37.26 51.816 37.1681C51.816 37.0761 51.7886 36.9863 51.7374 36.91C51.6862 36.8336 51.6134 36.7743 51.5283 36.7394L40.2875 32.1167C40.2025 32.0818 40.1297 32.0225 40.0785 31.9461C40.0273 31.8698 40 31.78 40 31.688V27.4639C40.0001 27.3869 40.0193 27.3112 40.0559 27.2435C40.0926 27.1758 40.1455 27.1182 40.2099 27.0761C40.2743 27.0339 40.3482 27.0085 40.4249 27.002C40.5017 26.9955 40.5788 27.0083 40.6493 27.039Z" fill="#849920"/>
</svg>
