<svg width="50" height="50" viewBox="0 0 50 50" fill="none" xmlns="http://www.w3.org/2000/svg">
<circle cx="24.5479" cy="25.452" r="24.5479" fill="white"/>
<g filter="url(#filter0_d)">
<path d="M13.553 36.3644L14.6911 17.5303H34.4156L35.4271 36.3644H13.553Z" fill="#50C1BA" stroke="#50C1BA" stroke-width="3"/>
<path d="M16.0001 19C20.1745 4.14599 29.7698 4.52188 33.0001 19" stroke="#50C1BA" stroke-width="2"/>
<path d="M14.8903 25.8168L15.2632 19.354H15.7603L15.5117 25.8168H14.8903Z" fill="white" fill-opacity="0.3"/>
<path d="M14.7659 27.4325L14.8902 26.1897H15.5116L15.3873 27.4325H14.7659Z" fill="white" fill-opacity="0.3"/>
</g>
<path d="M21.3187 20.8487L27.7655 23.7455C27.8318 23.7747 27.9484 23.875 27.9484 24.0368V25.6811C27.9484 25.8559 27.8349 25.9465 27.7687 25.9789L21.303 28.8855C21.0096 28.9729 20.8772 28.7172 20.8772 28.5812V27.1538C20.8772 26.9661 21.016 26.869 21.0948 26.8431L25.4032 25.0208C25.5546 24.9561 25.5546 24.7392 25.4032 24.6745L21.0601 22.8393C20.9056 22.7616 20.874 22.6224 20.874 22.5447V21.127C20.9087 20.8195 21.1894 20.7839 21.3187 20.8487Z" fill="white"/>
<path d="M26.4881 32.4782L22.6465 30.7498C22.6055 30.7336 22.5393 30.6721 22.5393 30.575V29.5943C22.5393 29.4907 22.6087 29.4357 22.6465 29.4163L26.5007 27.6846C26.6742 27.6328 26.7562 27.785 26.7562 27.8659V28.7171C26.7562 28.8272 26.6742 28.8887 26.6269 28.9016L24.0564 29.9924C23.9681 30.0312 23.9681 30.1607 24.0564 30.1996L26.6458 31.2936C26.7373 31.3389 26.7562 31.423 26.7562 31.4684V32.3131C26.7341 32.4944 26.5638 32.5171 26.4881 32.4782Z" fill="white"/>
<defs>
<filter id="filter0_d" x="8.95966" y="4" width="39.0502" height="44.8644" filterUnits="userSpaceOnUse" color-interpolation-filters="sRGB">
<feFlood flood-opacity="0" result="BackgroundImageFix"/>
<feColorMatrix in="SourceAlpha" type="matrix" values="0 0 0 0 0 0 0 0 0 0 0 0 0 0 0 0 0 0 127 0"/>
<feOffset dx="4" dy="4"/>
<feGaussianBlur stdDeviation="3.5"/>
<feColorMatrix type="matrix" values="0 0 0 0 0 0 0 0 0 0 0 0 0 0 0 0 0 0 0.25 0"/>
<feBlend mode="normal" in2="BackgroundImageFix" result="effect1_dropShadow"/>
<feBlend mode="normal" in="SourceGraphic" in2="effect1_dropShadow" result="shape"/>
</filter>
</defs>
</svg>
