<svg xmlns="http://www.w3.org/2000/svg" width="113" height="47" fill="none" viewBox="0 0 113 47">
    <path fill="#52C2BB" d="M7.977 44.05l-.793-6.355-2.282 4.36-2.331-4.373-.793 6.368H.577l1.129-8.41h.973l2.21 4.169 2.187-4.169h.985l1.117 8.41H7.977zm3.804.12c-.544 0-.985-.16-1.321-.48-.329-.321-.493-.73-.493-1.226 0-.745.353-1.278 1.057-1.598.705-.32 1.526-.489 2.463-.505 0-.528-.104-.884-.312-1.069-.2-.192-.525-.288-.973-.288-.249 0-.497.04-.745.12a2.823 2.823 0 0 0-.805.408l-.156-.876a2.89 2.89 0 0 1 .889-.445c.352-.112.72-.168 1.105-.168.505 0 .905.088 1.201.264.305.176.525.469.661.877.144.409.216.97.216 1.682v1.201c0 .32.012.565.036.733.033.16.097.285.193.373.096.088.244.132.444.132h.108l-.168.865h-.084c-.336 0-.6-.032-.793-.096a.983.983 0 0 1-.444-.277 2.112 2.112 0 0 1-.277-.492c-.496.576-1.097.865-1.802.865zm.204-.865c.289 0 .565-.072.83-.216.272-.145.496-.337.672-.577v-1.406c-.865.032-1.486.148-1.862.349-.368.192-.553.508-.553.949 0 .304.08.532.24.684.169.145.393.217.674.217zm4.187-8.266h1.081v5.779l2.163-2.655h1.32l-2.342 2.74 2.403 3.147h-1.322l-2.222-2.992v2.992h-1.081v-9.01zm7.95 9.13c-.673 0-1.25-.135-1.73-.408a2.818 2.818 0 0 1-1.081-1.129 3.33 3.33 0 0 1-.372-1.574c0-.552.112-1.057.336-1.514.232-.464.565-.828.997-1.093.44-.272.957-.408 1.55-.408.753 0 1.361.22 1.826.66.472.441.709 1.05.709 1.827 0 .2-.016.392-.048.576h-4.265c.072.761.304 1.302.697 1.622.392.32.897.48 1.513.48.617 0 1.182-.115 1.694-.348l.144.853c-.68.305-1.337.457-1.97.457zm1.117-3.807c0-.425-.12-.757-.36-.998-.24-.24-.6-.36-1.081-.36-.465 0-.83.116-1.093.348-.265.225-.453.561-.565 1.01h3.1zm5.134-4.722h1.141v7.376h3.857v1.034h-4.998v-8.41zm5.79 0h1.082v1.202h-1.082V35.64zm0 2.523h1.082v5.887h-1.082v-5.887zm2.955.84h-1.022l.145-.84h.877v-1.394c0-.536.14-.957.42-1.261.288-.312.7-.469 1.238-.469.352 0 .664.053.937.157l-.169.913a1.697 1.697 0 0 0-.6-.108c-.497 0-.745.28-.745.84v1.322h1.586v.84h-1.586v5.047h-1.081v-5.046zm6.274 5.167c-.673 0-1.25-.136-1.73-.409a2.818 2.818 0 0 1-1.081-1.129 3.33 3.33 0 0 1-.372-1.574c0-.552.112-1.057.336-1.514.232-.464.565-.828.997-1.093.44-.272.957-.408 1.55-.408.753 0 1.361.22 1.826.66.472.441.709 1.05.709 1.827 0 .2-.016.392-.048.576h-4.265c.072.761.304 1.302.697 1.622.392.32.897.48 1.513.48.617 0 1.182-.115 1.694-.348l.144.853c-.68.305-1.337.457-1.97.457zm1.117-3.809c0-.424-.12-.756-.36-.997-.24-.24-.6-.36-1.081-.36-.465 0-.83.116-1.093.348-.265.225-.453.561-.565 1.01h3.1zm7.537 3.857a7.07 7.07 0 0 1-1.514-.168c-.512-.104-.925-.229-1.237-.373l.156-1.213c.4.192.853.36 1.358.504a5.444 5.444 0 0 0 1.501.217c.56 0 .993-.1 1.298-.3.312-.209.468-.517.468-.926 0-.304-.08-.556-.24-.757-.152-.208-.38-.38-.685-.516-.296-.144-.713-.297-1.25-.457a7.956 7.956 0 0 1-1.357-.516 2.365 2.365 0 0 1-.877-.757c-.216-.32-.324-.725-.324-1.214 0-.68.26-1.229.78-1.645.53-.417 1.27-.625 2.223-.625.513 0 .997.056 1.454.168.464.112.869.248 1.213.409l-.12 1.213a5.673 5.673 0 0 0-1.297-.577 4.659 4.659 0 0 0-1.298-.18c-.52 0-.937.096-1.25.288-.304.193-.456.489-.456.89 0 .272.068.496.205.672.144.176.348.329.612.457.264.12.633.252 1.105.396.945.288 1.65.633 2.115 1.033.464.393.697.937.697 1.634 0 .737-.277 1.314-.83 1.73-.552.409-1.369.613-2.45.613zm8 0c-1.16 0-2.034-.325-2.618-.973-.577-.657-.865-1.578-.865-2.763V35.64h1.141v4.53c0 .92.164 1.653.493 2.198.328.544.945.817 1.85.817.905 0 1.521-.273 1.85-.817.328-.553.492-1.286.492-2.199V35.64h1.142v4.842c0 1.185-.293 2.106-.877 2.763-.577.648-1.446.973-2.607.973zm5.306-8.578h2.775c.897 0 1.594.22 2.09.66.505.433.758 1.122.758 2.067 0 .93-.253 1.618-.757 2.067-.505.448-1.202.672-2.09.672h-1.574v2.944h-1.202v-8.41zm2.607 4.445c.617 0 1.077-.14 1.382-.42.304-.28.456-.71.456-1.286 0-.584-.148-1.017-.444-1.297-.289-.28-.753-.42-1.394-.42h-1.405v3.423h1.405zm4.268-4.445h2.727c.913 0 1.626.212 2.139.637.512.416.769 1.057.769 1.922 0 1.121-.489 1.91-1.466 2.367l1.886 3.484h-1.394l-1.706-3.28h-1.754v3.28h-1.2v-8.41zm2.715 4.109c.56 0 .99-.136 1.286-.409.296-.272.444-.652.444-1.141 0-.488-.148-.865-.444-1.13-.289-.272-.717-.408-1.286-.408H75.43v3.088h1.513zm4.163 3.027h1.298v1.274h-1.298v-1.274zm5.558-7.136h3.112c.816 0 1.541.168 2.174.505a3.495 3.495 0 0 1 1.478 1.453c.352.633.528 1.382.528 2.247s-.176 1.618-.528 2.258a3.589 3.589 0 0 1-1.478 1.454c-.633.328-1.358.493-2.174.493h-3.112v-8.41zm3.112 7.376c.937 0 1.657-.284 2.162-.852.513-.577.769-1.35.769-2.32 0-.968-.256-1.737-.769-2.306-.505-.576-1.225-.865-2.162-.865h-1.97v6.343h1.97zm6.664 1.154c-.544 0-.985-.16-1.321-.48-.329-.321-.493-.73-.493-1.226 0-.745.352-1.278 1.057-1.598.705-.32 1.526-.489 2.463-.505 0-.528-.104-.884-.312-1.069-.2-.192-.525-.288-.973-.288-.249 0-.497.04-.745.12a2.823 2.823 0 0 0-.805.408l-.156-.876a2.89 2.89 0 0 1 .889-.445c.352-.112.72-.168 1.105-.168.504 0 .905.088 1.201.264.305.176.525.469.661.877.144.409.216.97.216 1.682v1.201c0 .32.012.565.036.733.032.16.096.285.192.373.097.088.245.132.445.132h.108l-.168.865h-.084c-.337 0-.6-.032-.793-.096a.983.983 0 0 1-.445-.277 2.112 2.112 0 0 1-.276-.492c-.496.576-1.097.865-1.802.865zm.204-.865c.289 0 .565-.072.83-.216.272-.145.496-.337.672-.577v-1.406c-.865.032-1.486.148-1.862.349-.368.192-.553.508-.553.949 0 .304.08.532.24.684.169.145.393.217.673.217zm4.199-7.665h1.081v1.202h-1.081V35.64zm0 2.523h1.081v5.887h-1.081v-5.887zm4.059 6.007c-.528 0-.917-.136-1.165-.409-.24-.272-.361-.608-.361-1.009V35.04h1.082v7.088c0 .353.02.61.06.77a.48.48 0 0 0 .264.324c.128.056.336.084.625.084l-.156.865h-.349zm3.046-.385l-2.451-5.622h1.201l1.838 4.373 1.658-4.373h1.201l-3.604 8.794h-1.201l1.358-3.172zm3.755-1.009H113v1.274h-1.298v-1.274z" opacity=".8"/>
    <path fill="#52C2BB" d="M35.565 15.49c.438-.779.657-1.722.657-2.828 0-.65-.099-1.234-.295-1.755a4.347 4.347 0 0 0-.845-1.39 5.563 5.563 0 0 0-1.336-1.072 10.966 10.966 0 0 0-1.797-.83c-.54-.194-.95-.381-1.227-.56a.852.852 0 0 1-.416-.757c0-.405.166-.706.495-.903.33-.195.7-.293 1.11-.293.527 0 .99.102 1.386.305.396.202.718.467.967.793l3.255-3.486a4.542 4.542 0 0 0-1.034-.878 7.654 7.654 0 0 0-1.342-.672 8.92 8.92 0 0 0-1.54-.438 8.583 8.583 0 0 0-1.65-.158c-1.011 0-1.94.158-2.783.475a6.588 6.588 0 0 0-2.178 1.316 5.812 5.812 0 0 0-1.408 1.987 6.222 6.222 0 0 0-.494 2.486c0 .732.102 1.353.308 1.866.205.511.487.951.848 1.316.358.366.785.679 1.275.94.491.26 1.015.487 1.574.682.703.243 1.183.48 1.441.706.256.228.385.488.385.78 0 .357-.154.63-.462.816-.308.187-.718.28-1.232.28-.235 0-.49-.037-.77-.11a5.156 5.156 0 0 1-.824-.294 4.488 4.488 0 0 1-.782-.451 3.103 3.103 0 0 1-.639-.61l-3.476 3.56c.368.39.8.738 1.299 1.047.498.309 1.03.57 1.594.78.564.21 1.154.374 1.77.488.617.113 1.233.17 1.849.17.776 0 1.575-.114 2.393-.342a7.08 7.08 0 0 0 2.247-1.073c.68-.478 1.24-1.113 1.677-1.892zM38.928 17.331c.586.463 1.29.816 2.111 1.061.822.243 1.73.367 2.728.367 1.157 0 2.184-.162 3.079-.488.894-.325 1.66-.78 2.299-1.366a6.69 6.69 0 0 0 1.54-2.134c.389-.837.663-1.767.825-2.792l1.694-10.923h-4.949l-1.65 10.069c-.059.326-.132.65-.219.974-.089.326-.22.617-.395.878-.176.26-.407.47-.693.635-.285.162-.656.243-1.11.243-.703 0-1.203-.203-1.495-.61a2.345 2.345 0 0 1-.44-1.414v-.39c0-.146.013-.283.043-.415l1.606-9.972h-5.037l-1.65 10.704c-.03.243-.06.515-.089.816-.03.3-.043.565-.043.793 0 .845.162 1.6.484 2.266.32.67.774 1.235 1.36 1.698zM56.704 18.319l.924-5.631h1.495c1.144 0 2.164-.126 3.059-.379.894-.25 1.657-.636 2.287-1.157.63-.521 1.11-1.187 1.44-1.999.331-.812.495-1.77.495-2.876 0-1.625-.53-2.902-1.594-3.828-1.064-.926-2.599-1.389-4.61-1.389h-5.806l-2.75 17.26h5.06v-.001zM58.772 5.47h.77c.556 0 .996.099 1.318.294.322.194.484.553.484 1.072 0 .554-.198.96-.593 1.22-.397.26-.945.39-1.65.39h-.815l.486-2.976zM76.68 11.271a4.583 4.583 0 0 0 2.496-1.902c.61-.926.914-2.104.914-3.534 0-.764-.129-1.443-.385-2.035a3.993 3.993 0 0 0-1.11-1.5c-.484-.406-1.07-.715-1.76-.925-.689-.21-1.458-.317-2.31-.317h-6.4l-2.75 17.26h4.905l.968-6.313h.616l2.134 6.314h5.72l-3.038-7.047zm-2.22-3.229c-.382.253-.91.378-1.584.378h-1.012l.462-2.901h.945c.543 0 .97.094 1.286.28.315.186.473.532.473 1.035 0 .554-.19.957-.57 1.208zM5.742 13.49c1.709 0 3.277-1.117 3.94-2.869.575-1.483.357-3.011-.344-4.38C8.318 4.275 7.286 2.296 6.264.332c-.218-.41-.867-.467-1.097-.029-1.02 1.95-2.04 3.9-3.047 5.865-.702 1.342-.92 2.799-.408 4.267.625 1.868 2.27 3.012 4.03 3.054zM3.51 6.283a999.402 999.402 0 0 1 2.225-4.264c.732 1.412 1.467 2.822 2.2 4.235.471.904.917 1.767.804 2.868-.18 1.694-1.488 3.077-3.04 3.081-1.58-.03-2.826-1.315-3.005-3.052-.115-1.101.345-1.964.816-2.868zM20.044.562c-.073-.005-.138-.005-.2-.005h-8.846c-.144 0-.583 0-.92.395-.384.43-.46 1.117-.194 1.663.597 1.268 1.198 2.535 1.8 3.8l1.801 3.832c.303.643.606 1.287.91 1.927.225.475.619.758 1.055.758.437 0 .83-.283 1.055-.758l1.896-4.03c.675-1.425 1.352-2.853 2.024-4.277.134-.28.265-.557.395-.835l.197-.419c.205-.44.205-.947.003-1.358a1.21 1.21 0 0 0-.976-.693zm-.373 1.806c-.128.276-.259.552-.391.832l-2.026 4.279-1.805 3.833c-.274-.577-.545-1.154-.817-1.729l-1.801-3.835c-.595-1.252-1.189-2.504-1.779-3.756H19.849l-.178.376zM15.43 14.541c-1.71 0-3.278 1.117-3.941 2.87-.574 1.483-.357 3.01.345 4.38 1.02 1.964 2.052 3.944 3.074 5.908.217.409.866.466 1.096.029 1.02-1.95 2.04-3.901 3.048-5.865.701-1.343.917-2.8.407-4.27-.625-1.865-2.27-3.01-4.03-3.052zm2.231 7.208c-.738 1.422-1.48 2.842-2.224 4.264-.733-1.413-1.468-2.823-2.2-4.235-.472-.905-.918-1.767-.805-2.869.18-1.694 1.489-3.077 3.041-3.08 1.579.03 2.825 1.315 3.004 3.051.115 1.104-.344 1.964-.816 2.869zM9.487 21.618l-1.801-3.832c-.303-.642-.606-1.286-.91-1.927-.225-.474-.618-.758-1.055-.758-.437 0-.83.284-1.055.758l-1.895 4.028-2.025 4.277c-.134.28-.264.558-.395.836l-.197.418c-.205.44-.205.948-.003 1.358a1.2 1.2 0 0 0 .975.691c.073.006.137.006.2.006h8.846c.144 0 .583 0 .92-.395.383-.43.46-1.117.193-1.663-.597-1.264-1.197-2.532-1.798-3.797zM1.326 26.04h-.004l.178-.377c.129-.276.26-.551.392-.831.673-1.426 1.349-2.853 2.026-4.28L5.72 16.72l.816 1.728 1.802 3.835c.595 1.252 1.188 2.505 1.778 3.757H1.326zM24.427 21.878h-1.689v5.452h1.633c.947 0 1.652-.247 2.112-.74.459-.494.689-1.166.689-2.013s-.237-1.508-.71-1.985c-.476-.476-1.153-.714-2.035-.714zm1.432 4.113c-.316.315-.773.473-1.368.473h-.922v-3.735h.83c1.29 0 1.935.623 1.935 1.871 0 .612-.158 1.077-.475 1.391zM29.443 21.878l-2.167 5.452h.886l.492-1.24h2.463l.493 1.24h.886l-2.167-5.452h-.886zm-.45 3.36l.894-2.245.893 2.246h-1.786zM34.151 21.878h-.83v5.452h.83v-5.452zM36.346 21.878h-.83v5.45h3.076v-.872h-2.246v-4.578zM41.855 21.878l-1.344 2.48-1.343-2.48h-.907l1.83 3.3v2.15h.843v-2.15l1.83-3.3h-.909z"/>
</svg>
