<svg width="48" height="48" viewBox="0 0 48 48" fill="none" xmlns="http://www.w3.org/2000/svg">
<circle cx="24" cy="24" r="24" fill="#333333"/>
<path fill-rule="evenodd" clip-rule="evenodd" d="M26.1124 18.8349C26.4541 20.459 26.5723 23.236 26.2953 25.418C26.2332 25.4685 26.1624 25.5272 26.0846 25.5934C25.7879 25.8457 25.4911 26.1206 25.2119 26.4112C24.7502 26.8916 24.3805 27.3679 24.1341 27.8406C23.4572 29.1454 23.2316 29.8324 23.1197 31.022C23.1016 31.2144 23.0918 31.4345 23.0887 31.679C23.0853 31.9438 23.0899 32.223 23.0997 32.4999C23.0802 32.4957 23.0559 32.4861 23.0223 32.471C22.0885 32.0516 21.3073 30.9269 21.599 29.8052C21.9401 28.4937 22.0286 27.7306 21.9446 27.3036C21.9236 27.1966 21.8903 27.101 21.8419 27.0151C21.6828 26.7329 21.3693 26.5744 21.0478 26.6134C21.0146 26.6174 20.9476 26.625 20.8508 26.6348C20.687 26.6515 20.5015 26.6682 20.2985 26.6839C19.4679 26.748 18.6181 26.7743 17.8327 26.7416C17.3619 26.7221 16.9345 26.6816 16.5618 26.6187C16.0886 26.5389 15.9799 26.3994 15.9804 25.9037C15.9806 25.6397 16.1158 25.2826 16.1975 25.2048C16.5403 24.8781 16.5264 24.3269 16.1675 24.0179C16.1492 24.0022 16.1126 23.7727 16.1795 23.485C16.2163 23.3269 16.277 23.1858 16.343 23.0939C16.3574 23.0739 16.3701 23.0588 16.3801 23.0486C16.8134 22.9361 17.0742 22.4855 16.9469 22.0492C16.731 21.3089 16.8011 20.9555 17.3127 20.5996C17.538 20.4428 17.6674 20.1815 17.6555 19.9072C17.6344 19.4219 17.6863 19.108 17.7748 18.938C17.8108 18.869 17.8362 18.8481 17.8904 18.8293C17.9487 18.809 18.0001 18.801 18.1911 18.7817C18.2514 18.7756 18.2931 18.7707 18.3383 18.7639C19.4046 18.6024 24.2501 18.6319 26.1124 18.8349ZM26.3669 27.5213C26.4978 27.3852 26.6345 27.2518 26.7738 27.1228C26.8611 27.1438 26.954 27.1503 27.0499 27.1397C28.9628 26.9275 29.8932 26.9608 31.3208 27.3466C31.7779 27.4701 32.2418 27.1723 32.3198 26.7053C32.9745 22.7856 33.0764 19.8605 32.2618 17.1914C32.1695 16.8889 31.9079 16.6691 31.594 16.6303C28.7658 16.2806 28.1349 16.3374 26.3573 17.0482C26.2534 17.0898 26.1628 17.1508 26.0883 17.2254C23.898 17.0204 19.2716 17.0023 18.0985 17.1799C18.0858 17.1818 18.0654 17.1842 18.0294 17.1878C17.8542 17.2056 17.8438 17.2067 17.7584 17.22C17.6214 17.2414 17.4931 17.2714 17.3648 17.3159C16.5427 17.6015 16.0877 18.3462 16.0515 19.5575C15.3421 20.196 15.1295 20.9737 15.2724 21.8954C14.6155 22.5342 14.3531 23.7467 14.692 24.6098C14.4979 24.9987 14.3787 25.4706 14.3783 25.9023C14.3773 27.1551 15.0229 27.9839 16.2954 28.1985C16.7401 28.2734 17.2327 28.3201 17.7662 28.3423C18.5836 28.3763 19.4492 28.3522 20.2986 28.2904C20.2458 28.5896 20.164 28.9583 20.0486 29.402C19.5281 31.4036 20.7941 33.2263 22.3658 33.9324C23.0778 34.2522 23.743 34.1061 24.238 33.6804C24.4111 33.5316 24.5297 33.3807 24.6046 33.2554C24.6874 33.117 24.7265 32.9569 24.7167 32.7959C24.7135 32.7422 24.7084 32.643 24.7033 32.512C24.6925 32.2363 24.6873 31.9569 24.6906 31.6995C24.6932 31.4948 24.7012 31.3158 24.7147 31.172C24.8054 30.2068 24.9678 29.7124 25.5528 28.5849C25.7195 28.2649 26.0019 27.9011 26.3669 27.5213ZM30.868 18.1562C31.3877 20.2172 31.3288 22.5739 30.8743 25.5948C29.9133 25.4029 29.0537 25.3661 27.9052 25.4501C28.1879 23.0361 28.0421 20.0652 27.6277 18.2803C28.5516 17.9635 29.1416 17.9539 30.868 18.1562Z" fill="white"/>
</svg>
