<svg width="119" height="89" viewBox="0 0 119 89" fill="none" xmlns="http://www.w3.org/2000/svg">
<g filter="url(#filter0_d)">
<circle cx="44.0441" cy="41.0313" r="29.1894" transform="rotate(171.854 44.0441 41.0313)" fill="white"/>
</g>
<path fill-rule="evenodd" clip-rule="evenodd" d="M42.3909 47.614C41.6996 45.7175 41.0787 42.3945 41.0361 39.7198C41.1022 39.6483 41.1773 39.5654 41.2596 39.4723C41.5733 39.1174 41.8832 38.7352 42.1694 38.3373C42.6425 37.6793 43.0055 37.0422 43.2206 36.4305C43.8107 34.743 43.964 33.8771 43.8937 32.4255C43.8823 32.1908 43.8562 31.924 43.8178 31.6291C43.7762 31.3098 43.7226 30.9744 43.663 30.6427C43.6873 30.6445 43.7182 30.6518 43.7612 30.6641C44.9577 31.0083 46.092 32.2277 45.9342 33.6285C45.7495 35.2662 45.7745 36.2002 45.9492 36.6998C45.993 36.825 46.0495 36.9344 46.1226 37.0294C46.3628 37.3417 46.7675 37.4786 47.1479 37.3762C47.1871 37.3656 47.2665 37.345 47.3814 37.3165C47.5758 37.2681 47.7962 37.216 48.0378 37.1622C49.0269 36.9419 50.0454 36.7638 50.9966 36.6677C51.5668 36.6101 52.0884 36.5852 52.5479 36.5967C53.1313 36.6112 53.2862 36.7604 53.3711 37.3573C53.4164 37.6752 53.3151 38.1284 53.2302 38.2362C52.8738 38.6886 52.9856 39.3499 53.4709 39.66C53.4955 39.6758 53.5792 39.9457 53.5482 40.3037C53.5312 40.5003 53.4824 40.6806 53.4187 40.8027C53.4049 40.8293 53.3922 40.8497 53.382 40.8637C52.8796 41.0737 52.6434 41.6612 52.8718 42.1646C53.2592 43.0186 53.2358 43.4562 52.6812 43.9729C52.4369 44.2005 52.3262 44.5373 52.3878 44.8655C52.4969 45.4461 52.4884 45.8331 52.4112 46.0529C52.3798 46.1422 52.3528 46.1717 52.2907 46.2038C52.2241 46.2382 52.1636 46.2567 51.937 46.3129C51.8654 46.3307 51.816 46.3437 51.7628 46.3597C50.5068 46.7378 44.668 47.5374 42.3909 47.614ZM40.5875 37.1998C40.4534 37.3863 40.3118 37.5704 40.1662 37.7497C40.0575 37.7395 39.9446 37.7477 39.8309 37.777C37.5645 38.3621 36.4385 38.4823 34.6533 38.2639C34.0817 38.194 33.5745 38.6325 33.5611 39.2082C33.4483 44.0402 33.8298 47.5794 35.2705 50.6524C35.4338 51.0007 35.7867 51.2203 36.1712 51.2129C39.6365 51.1465 40.3863 50.9694 42.4039 49.8073C42.5219 49.7393 42.6204 49.6503 42.6973 49.5476C45.3696 49.417 50.9427 48.6414 52.3245 48.2254C52.3394 48.221 52.3636 48.2146 52.4063 48.204C52.6141 48.1524 52.6265 48.1492 52.727 48.1185C52.8882 48.0692 53.0376 48.0109 53.1844 47.9352C54.1249 47.4497 54.5444 46.4747 54.3792 45.0101C55.1232 44.1192 55.2451 43.1462 54.9142 42.0611C55.5951 41.1788 55.702 39.6739 55.1452 38.6931C55.3119 38.1914 55.3741 37.6028 55.3001 37.0829C55.0856 35.5744 54.1654 34.6879 52.5963 34.6488C52.0481 34.6352 51.447 34.6639 50.8008 34.7292C49.8108 34.8291 48.7729 35.0073 47.7609 35.228C47.7729 34.8587 47.8079 34.4008 47.8703 33.8467C48.1521 31.3471 46.3137 29.3709 44.2998 28.7916C43.3875 28.5292 42.6117 28.8199 42.0891 29.4177C41.9064 29.6267 41.7896 29.8287 41.721 29.9925C41.6452 30.1734 41.6257 30.3729 41.6652 30.565C41.6783 30.6291 41.7015 30.7477 41.7303 30.9046C41.7908 31.2347 41.8452 31.5702 41.8856 31.8806C41.9178 32.1274 41.939 32.3444 41.9475 32.5198C42.0046 33.6975 41.8943 34.3208 41.3844 35.779C41.2387 36.193 40.9615 36.6796 40.5875 37.1998ZM36.7824 49.2507C35.8014 46.8588 35.4662 44.0114 35.4928 40.296C36.6828 40.3615 37.7242 40.2576 39.0924 39.9585C39.168 42.9136 39.8556 46.4653 40.6621 48.5428C39.6044 49.0834 38.8957 49.1967 36.7824 49.2507Z" fill="#ABE1DE"/>
<path d="M60.491 60.7703C60.2046 60.7598 59.9397 60.6388 59.7451 60.4298C59.5505 60.2209 59.4492 59.9485 59.4598 59.6628C59.4627 59.5845 59.4018 59.5187 59.3239 59.5158C59.2459 59.513 59.1804 59.5741 59.1775 59.6524C59.1669 59.9381 59.0458 60.2023 58.8363 60.3962C58.6268 60.5903 58.3537 60.6913 58.0673 60.6807C57.9893 60.6779 57.9238 60.739 57.9209 60.8173C57.918 60.8956 57.9788 60.9614 58.0568 60.9643C58.6472 60.9861 59.1098 61.4843 59.0879 62.0749C59.085 62.1532 59.1459 62.219 59.2238 62.2219C59.3018 62.2248 59.3673 62.1637 59.3702 62.0854C59.3921 61.4948 59.8902 61.032 60.4806 61.0539C60.5585 61.0568 60.624 60.9956 60.6269 60.9173C60.6298 60.839 60.569 60.7732 60.491 60.7703Z" fill="#8FD2CE"/>
<g filter="url(#filter1_d)">
<path d="M87.5178 17.4155C87.0192 17.3971 86.5581 17.1866 86.2193 16.8227C85.8806 16.4591 85.7042 15.9849 85.7226 15.4875C85.7276 15.3512 85.6216 15.2366 85.486 15.2316C85.3503 15.2266 85.2362 15.333 85.2311 15.4693C85.2128 15.9667 85.0018 16.4266 84.6372 16.7642C84.2724 17.1021 83.797 17.278 83.2984 17.2595C83.1626 17.2545 83.0486 17.3609 83.0435 17.4973C83.0385 17.6336 83.1444 17.7481 83.2801 17.7531C84.3079 17.7911 85.1133 18.6585 85.0752 19.6866C85.0702 19.823 85.1761 19.9375 85.3118 19.9425C85.4475 19.9475 85.5616 19.8411 85.5667 19.7048C85.6047 18.6767 86.4718 17.8711 87.4996 17.9091C87.6353 17.9141 87.7494 17.8077 87.7544 17.6714C87.7595 17.5351 87.6536 17.4205 87.5178 17.4155Z" fill="#ABE1DE"/>
</g>
<g filter="url(#filter2_d)">
<path d="M15.5615 28.6929C15.0629 28.6744 14.6018 28.4639 14.263 28.1001C13.9243 27.7364 13.7479 27.2622 13.7663 26.7648C13.7713 26.6285 13.6653 26.514 13.5297 26.5089C13.394 26.5039 13.2799 26.6103 13.2748 26.7467C13.2565 27.244 13.0455 27.7039 12.6809 28.0416C12.3161 28.3794 11.8407 28.5553 11.3421 28.5369C11.2063 28.5319 11.0923 28.6383 11.0872 28.7746C11.0822 28.9109 11.1881 29.0255 11.3238 29.0305C12.3516 29.0685 13.157 29.9359 13.1189 30.964C13.1139 31.1003 13.2198 31.2149 13.3555 31.2199C13.4912 31.2249 13.6053 31.1185 13.6104 30.9822C13.6484 29.954 14.5155 29.1485 15.5433 29.1865C15.679 29.1915 15.7931 29.0851 15.7981 28.9488C15.8032 28.8124 15.6973 28.6979 15.5615 28.6929Z" fill="#8FD2CE"/>
</g>
<g filter="url(#filter3_d)">
<path d="M28.4838 65.8605C27.845 65.8369 27.2543 65.5673 26.8202 65.1011C26.3863 64.6352 26.1603 64.0277 26.1839 63.3905C26.1903 63.2159 26.0546 63.0691 25.8808 63.0627C25.7069 63.0563 25.5608 63.1926 25.5543 63.3673C25.5307 64.0045 25.2605 64.5936 24.7933 65.0262C24.326 65.459 23.717 65.6843 23.0782 65.6607C22.9043 65.6543 22.7582 65.7906 22.7517 65.9653C22.7453 66.1399 22.881 66.2866 23.0548 66.2931C24.3715 66.3417 25.4033 67.4529 25.3546 68.7701C25.3481 68.9447 25.4838 69.0915 25.6577 69.0979C25.8315 69.1043 25.9777 68.968 25.9842 68.7933C26.0328 67.4762 27.1437 66.4442 28.4604 66.4929C28.6343 66.4993 28.7804 66.363 28.7869 66.1884C28.7934 66.0137 28.6577 65.867 28.4838 65.8605Z" fill="#8FD2CE"/>
</g>
<g filter="url(#filter4_d)">
<path d="M98.2014 53.1141C92.9553 64.4763 79.4915 69.4343 68.1293 64.1881C56.7671 58.9419 51.8091 45.4782 57.0553 34.116C62.3015 22.7538 75.7652 17.7958 87.1274 23.042C98.4896 28.2881 103.448 41.7519 98.2014 53.1141Z" fill="white" stroke="white" stroke-width="0.768142"/>
<mask id="path-8-inside-1" fill="white">
<path fill-rule="evenodd" clip-rule="evenodd" d="M81.6881 39.7381C81.5371 41.3245 80.8517 43.9038 79.9741 45.8247C79.9028 45.8533 79.8211 45.8869 79.7308 45.9253C79.3868 46.0718 79.0362 46.239 78.6971 46.4255C78.1366 46.7339 77.6616 47.0648 77.3006 47.4277C76.3072 48.4302 75.904 48.9955 75.4614 50.054C75.3899 50.2251 75.3179 50.4241 75.2452 50.6474C75.1664 50.8891 75.0908 51.1464 75.0207 51.403C75.004 51.3935 74.9844 51.3778 74.958 51.3544C74.2219 50.703 73.8273 49.4487 74.4153 48.5039C75.1028 47.3992 75.4021 46.725 75.4471 46.3096C75.4584 46.2055 75.4553 46.1084 75.4354 46.0158C75.3702 45.7117 75.1282 45.4768 74.8223 45.4206C74.7908 45.4149 74.7272 45.4026 74.6356 45.384C74.4807 45.3524 74.3059 45.3148 74.1154 45.2711C73.3356 45.0924 72.5491 44.8736 71.8386 44.6192C71.4126 44.4667 71.0324 44.3074 70.7088 44.1433C70.2978 43.9349 70.238 43.776 70.3801 43.3217C70.4558 43.0797 70.6818 42.7911 70.7789 42.7431C71.1865 42.5416 71.3313 42.0323 71.0907 41.6465C71.0784 41.6269 71.1104 41.4061 71.254 41.1615C71.3329 41.0271 71.4289 40.9151 71.5157 40.8497C71.5346 40.8355 71.5506 40.8253 71.5626 40.8188C71.9919 40.8396 72.3598 40.501 72.3678 40.0647C72.3815 39.3245 72.5468 39.0205 73.1175 38.8405C73.3689 38.7611 73.5621 38.5586 73.6296 38.3038C73.749 37.8529 73.8863 37.58 74.016 37.4495C74.0687 37.3965 74.0979 37.3846 74.1531 37.3829C74.2122 37.381 74.2616 37.3883 74.4423 37.4252C74.4993 37.4368 74.539 37.4443 74.5823 37.4509C75.6059 37.6077 80.0391 39.0198 81.6881 39.7381ZM79.4386 47.7732C79.5974 47.6858 79.7609 47.6026 79.9255 47.5243C79.9995 47.5684 80.0828 47.6009 80.1737 47.6186C81.9878 47.9709 82.8312 48.2674 84.0295 49.029C84.4132 49.2729 84.9235 49.1325 85.1285 48.7267C86.8491 45.3209 87.7785 42.6687 87.7947 39.9893C87.7966 39.6856 87.6196 39.4093 87.3429 39.284C84.8505 38.1551 84.2559 38.0269 82.4233 38.1704C82.3161 38.1788 82.2157 38.2088 82.1261 38.2558C80.177 37.4419 75.9414 36.103 74.8152 35.9304C74.8031 35.9286 74.7837 35.9249 74.7496 35.918C74.584 35.8842 74.5741 35.8823 74.492 35.87C74.3604 35.8504 74.2341 35.8413 74.1038 35.8454C73.2686 35.8722 72.6387 36.4248 72.2593 37.5248C71.4265 37.9073 71.0094 38.5594 70.8769 39.4451C70.0921 39.8429 69.5051 40.8793 69.569 41.7674C69.2799 42.0684 69.0358 42.4668 68.9121 42.8625C68.553 44.0106 68.9079 44.9548 70.013 45.5152C70.3992 45.711 70.8374 45.8946 71.3201 46.0674C72.0597 46.3322 72.8599 46.5575 73.6562 46.7437C73.5223 47.0029 73.342 47.3174 73.1094 47.6912C72.0601 49.3772 72.6996 51.4098 73.9385 52.5063C74.4997 53.003 75.1513 53.0591 75.7267 52.8104C75.9278 52.7235 76.0797 52.6191 76.1842 52.5257C76.2996 52.4225 76.3812 52.2869 76.4183 52.1365C76.4307 52.0864 76.4544 51.994 76.4871 51.8724C76.5561 51.6166 76.6311 51.359 76.7077 51.124C76.7686 50.9371 76.8271 50.7753 76.8806 50.6474C77.2397 49.7886 77.5299 49.3817 78.3883 48.5155C78.6326 48.2698 78.9954 48.0171 79.4386 47.7732ZM85.7912 43.0825C85.4331 44.3687 84.8722 45.7468 84.1209 47.2957C83.2949 46.845 82.5174 46.5656 81.4407 46.3144C82.3898 44.1824 83.1053 41.4174 83.2356 39.6629C84.173 39.6366 84.7166 39.7964 86.2413 40.4753C86.204 41.1499 86.0993 41.8362 85.9294 42.5481C85.9305 42.7016 85.8986 42.8578 85.83 43.0063C85.818 43.0324 85.805 43.0578 85.7912 43.0825ZM85.4257 41.6434C85.387 41.6191 85.3463 41.597 85.3038 41.5774C84.7639 41.3281 84.1241 41.5637 83.8748 42.1036C83.8639 42.1272 83.8539 42.1511 83.8448 42.1751C83.6297 41.9623 83.5843 41.6271 83.6367 41.2433C83.7089 40.7148 84.3107 40.5044 84.7841 40.652C85.218 40.7873 85.4926 41.1133 85.4257 41.6434Z"/>
</mask>
<path fill-rule="evenodd" clip-rule="evenodd" d="M81.6881 39.7381C81.5371 41.3245 80.8517 43.9038 79.9741 45.8247C79.9028 45.8533 79.8211 45.8869 79.7308 45.9253C79.3868 46.0718 79.0362 46.239 78.6971 46.4255C78.1366 46.7339 77.6616 47.0648 77.3006 47.4277C76.3072 48.4302 75.904 48.9955 75.4614 50.054C75.3899 50.2251 75.3179 50.4241 75.2452 50.6474C75.1664 50.8891 75.0908 51.1464 75.0207 51.403C75.004 51.3935 74.9844 51.3778 74.958 51.3544C74.2219 50.703 73.8273 49.4487 74.4153 48.5039C75.1028 47.3992 75.4021 46.725 75.4471 46.3096C75.4584 46.2055 75.4553 46.1084 75.4354 46.0158C75.3702 45.7117 75.1282 45.4768 74.8223 45.4206C74.7908 45.4149 74.7272 45.4026 74.6356 45.384C74.4807 45.3524 74.3059 45.3148 74.1154 45.2711C73.3356 45.0924 72.5491 44.8736 71.8386 44.6192C71.4126 44.4667 71.0324 44.3074 70.7088 44.1433C70.2978 43.9349 70.238 43.776 70.3801 43.3217C70.4558 43.0797 70.6818 42.7911 70.7789 42.7431C71.1865 42.5416 71.3313 42.0323 71.0907 41.6465C71.0784 41.6269 71.1104 41.4061 71.254 41.1615C71.3329 41.0271 71.4289 40.9151 71.5157 40.8497C71.5346 40.8355 71.5506 40.8253 71.5626 40.8188C71.9919 40.8396 72.3598 40.501 72.3678 40.0647C72.3815 39.3245 72.5468 39.0205 73.1175 38.8405C73.3689 38.7611 73.5621 38.5586 73.6296 38.3038C73.749 37.8529 73.8863 37.58 74.016 37.4495C74.0687 37.3965 74.0979 37.3846 74.1531 37.3829C74.2122 37.381 74.2616 37.3883 74.4423 37.4252C74.4993 37.4368 74.539 37.4443 74.5823 37.4509C75.6059 37.6077 80.0391 39.0198 81.6881 39.7381ZM79.4386 47.7732C79.5974 47.6858 79.7609 47.6026 79.9255 47.5243C79.9995 47.5684 80.0828 47.6009 80.1737 47.6186C81.9878 47.9709 82.8312 48.2674 84.0295 49.029C84.4132 49.2729 84.9235 49.1325 85.1285 48.7267C86.8491 45.3209 87.7785 42.6687 87.7947 39.9893C87.7966 39.6856 87.6196 39.4093 87.3429 39.284C84.8505 38.1551 84.2559 38.0269 82.4233 38.1704C82.3161 38.1788 82.2157 38.2088 82.1261 38.2558C80.177 37.4419 75.9414 36.103 74.8152 35.9304C74.8031 35.9286 74.7837 35.9249 74.7496 35.918C74.584 35.8842 74.5741 35.8823 74.492 35.87C74.3604 35.8504 74.2341 35.8413 74.1038 35.8454C73.2686 35.8722 72.6387 36.4248 72.2593 37.5248C71.4265 37.9073 71.0094 38.5594 70.8769 39.4451C70.0921 39.8429 69.5051 40.8793 69.569 41.7674C69.2799 42.0684 69.0358 42.4668 68.9121 42.8625C68.553 44.0106 68.9079 44.9548 70.013 45.5152C70.3992 45.711 70.8374 45.8946 71.3201 46.0674C72.0597 46.3322 72.8599 46.5575 73.6562 46.7437C73.5223 47.0029 73.342 47.3174 73.1094 47.6912C72.0601 49.3772 72.6996 51.4098 73.9385 52.5063C74.4997 53.003 75.1513 53.0591 75.7267 52.8104C75.9278 52.7235 76.0797 52.6191 76.1842 52.5257C76.2996 52.4225 76.3812 52.2869 76.4183 52.1365C76.4307 52.0864 76.4544 51.994 76.4871 51.8724C76.5561 51.6166 76.6311 51.359 76.7077 51.124C76.7686 50.9371 76.8271 50.7753 76.8806 50.6474C77.2397 49.7886 77.5299 49.3817 78.3883 48.5155C78.6326 48.2698 78.9954 48.0171 79.4386 47.7732ZM85.7912 43.0825C85.4331 44.3687 84.8722 45.7468 84.1209 47.2957C83.2949 46.845 82.5174 46.5656 81.4407 46.3144C82.3898 44.1824 83.1053 41.4174 83.2356 39.6629C84.173 39.6366 84.7166 39.7964 86.2413 40.4753C86.204 41.1499 86.0993 41.8362 85.9294 42.5481C85.9305 42.7016 85.8986 42.8578 85.83 43.0063C85.818 43.0324 85.805 43.0578 85.7912 43.0825ZM85.4257 41.6434C85.387 41.6191 85.3463 41.597 85.3038 41.5774C84.7639 41.3281 84.1241 41.5637 83.8748 42.1036C83.8639 42.1272 83.8539 42.1511 83.8448 42.1751C83.6297 41.9623 83.5843 41.6271 83.6367 41.2433C83.7089 40.7148 84.3107 40.5044 84.7841 40.652C85.218 40.7873 85.4926 41.1133 85.4257 41.6434Z" fill="#50C1BA"/>
<path d="M79.9741 45.8247L80.2594 46.538L80.545 46.4237L80.6728 46.1439L79.9741 45.8247ZM81.6881 39.7381L82.4528 39.8109L82.5056 39.2563L81.9949 39.0339L81.6881 39.7381ZM79.7308 45.9253L80.0317 46.6321L80.0317 46.6321L79.7308 45.9253ZM78.6971 46.4255L79.0674 47.0985L78.6971 46.4255ZM77.3006 47.4277L76.756 46.886L76.755 46.8871L77.3006 47.4277ZM75.4614 50.054L76.1701 50.3503L76.1701 50.3503L75.4614 50.054ZM75.2452 50.6474L74.5148 50.4094L74.5148 50.4094L75.2452 50.6474ZM75.0207 51.403L74.641 52.0708L75.501 52.5597L75.7617 51.6054L75.0207 51.403ZM74.958 51.3544L74.4489 51.9296L74.4489 51.9296L74.958 51.3544ZM74.4153 48.5039L75.0675 48.9098L75.0675 48.9098L74.4153 48.5039ZM75.4471 46.3096L76.2108 46.3924L76.2108 46.3924L75.4471 46.3096ZM75.4354 46.0158L74.6844 46.1769L74.6844 46.1769L75.4354 46.0158ZM74.8223 45.4206L74.961 44.6651L74.961 44.6651L74.8223 45.4206ZM74.6356 45.384L74.4824 46.1367L74.4824 46.1367L74.6356 45.384ZM74.1154 45.2711L73.9438 46.0198L73.9438 46.0198L74.1154 45.2711ZM71.8386 44.6192L71.5797 45.3424L71.5797 45.3424L71.8386 44.6192ZM70.7088 44.1433L70.3613 44.8284L70.3613 44.8284L70.7088 44.1433ZM70.3801 43.3217L71.1133 43.551L71.1133 43.551L70.3801 43.3217ZM70.7789 42.7431L70.4385 42.0545L70.4385 42.0545L70.7789 42.7431ZM71.0907 41.6465L70.4389 42.0531L70.4389 42.0531L71.0907 41.6465ZM71.254 41.1615L70.5916 40.7726L70.5916 40.7726L71.254 41.1615ZM71.5157 40.8497L71.0535 40.2362L71.0535 40.2362L71.5157 40.8497ZM71.5626 40.8188L71.5998 40.0515L71.3855 40.0411L71.1968 40.1433L71.5626 40.8188ZM72.3678 40.0647L73.1359 40.0789L73.1359 40.0789L72.3678 40.0647ZM73.1175 38.8405L72.8864 38.1079L72.8864 38.1079L73.1175 38.8405ZM73.6296 38.3038L74.3722 38.5004L74.3722 38.5004L73.6296 38.3038ZM74.016 37.4495L73.4713 36.9079L73.4713 36.9079L74.016 37.4495ZM74.1531 37.3829L74.1776 38.1506L74.1777 38.1506L74.1531 37.3829ZM74.4423 37.4252L74.5957 36.6725L74.5957 36.6725L74.4423 37.4252ZM74.5823 37.4509L74.6986 36.6916L74.6986 36.6916L74.5823 37.4509ZM79.9255 47.5243L80.3189 46.8645L79.9662 46.6542L79.5953 46.8307L79.9255 47.5243ZM79.4386 47.7732L79.8088 48.4462L79.8088 48.4462L79.4386 47.7732ZM80.1737 47.6186L80.0273 48.3727L80.0273 48.3727L80.1737 47.6186ZM84.0295 49.029L83.6174 49.6773L84.0295 49.029ZM85.1285 48.7267L85.8142 49.0731L85.1285 48.7267ZM87.7947 39.9893L88.5629 39.994L88.5629 39.994L87.7947 39.9893ZM87.3429 39.284L87.026 39.9838L87.026 39.9838L87.3429 39.284ZM82.4233 38.1704L82.3633 37.4046L82.3633 37.4046L82.4233 38.1704ZM82.1261 38.2558L81.8301 38.9647L82.1634 39.1038L82.4831 38.9359L82.1261 38.2558ZM74.8152 35.9304L74.9316 35.1711L74.9316 35.1711L74.8152 35.9304ZM74.7496 35.918L74.5961 36.6706L74.5961 36.6706L74.7496 35.918ZM74.492 35.87L74.3788 36.6298L74.3788 36.6298L74.492 35.87ZM74.1038 35.8454L74.0792 35.0777L74.0792 35.0777L74.1038 35.8454ZM72.2593 37.5248L72.5799 38.2229L72.8783 38.0858L72.9854 37.7753L72.2593 37.5248ZM70.8769 39.4451L71.2242 40.1303L71.578 39.951L71.6366 39.5587L70.8769 39.4451ZM69.569 41.7674L70.123 42.2994L70.3597 42.053L70.3352 41.7122L69.569 41.7674ZM68.9121 42.8625L68.1789 42.6332L68.9121 42.8625ZM70.013 45.5152L70.3605 44.8301L70.3605 44.8301L70.013 45.5152ZM71.3201 46.0674L71.579 45.3442L71.579 45.3442L71.3201 46.0674ZM73.6562 46.7437L74.3387 47.0963L74.7913 46.2202L73.8311 45.9957L73.6562 46.7437ZM73.1094 47.6912L73.7615 48.097L73.7615 48.097L73.1094 47.6912ZM73.9385 52.5063L73.4294 53.0815L73.4294 53.0815L73.9385 52.5063ZM75.7267 52.8104L76.0315 53.5155L76.0315 53.5155L75.7267 52.8104ZM76.1842 52.5257L75.6722 51.953L75.6722 51.953L76.1842 52.5257ZM76.4183 52.1365L77.1641 52.3205L77.1641 52.3205L76.4183 52.1365ZM76.4871 51.8724L77.2288 52.0723L77.2288 52.0723L76.4871 51.8724ZM76.7077 51.124L75.9774 50.886L75.9774 50.886L76.7077 51.124ZM76.8806 50.6474L77.5893 50.9437L77.5893 50.9437L76.8806 50.6474ZM78.3883 48.5155L77.8437 47.9738L77.8426 47.9748L78.3883 48.5155ZM84.1209 47.2957L83.753 47.97L84.4604 48.3559L84.812 47.6309L84.1209 47.2957ZM85.7912 43.0825L85.1211 42.7069L85.0759 42.7875L85.0512 42.8765L85.7912 43.0825ZM81.4407 46.3144L80.7389 46.002L80.3608 46.8512L81.2661 47.0625L81.4407 46.3144ZM83.2356 39.6629L83.214 38.8951L82.521 38.9145L82.4696 39.606L83.2356 39.6629ZM86.2413 40.4753L87.0082 40.5177L87.0375 39.9889L86.5537 39.7735L86.2413 40.4753ZM85.9294 42.5481L85.1822 42.3699L85.1606 42.4604L85.1613 42.5535L85.9294 42.5481ZM85.4257 41.6434L85.0176 42.2941L86.0372 42.9335L86.1878 41.7395L85.4257 41.6434ZM83.8448 42.1751L83.3047 42.7212L84.1452 43.5525L84.5633 42.4468L83.8448 42.1751ZM83.6367 41.2433L82.8756 41.1393L83.6367 41.2433ZM84.7841 40.652L84.5554 41.3853L84.5554 41.3853L84.7841 40.652ZM80.6728 46.1439C81.5822 44.1532 82.2928 41.491 82.4528 39.8109L80.9234 39.6653C80.7813 41.158 80.1211 43.6544 79.2755 45.5056L80.6728 46.1439ZM80.0317 46.6321C80.1169 46.5958 80.1934 46.5644 80.2594 46.538L79.6889 45.1115C79.6121 45.1422 79.5253 45.178 79.43 45.2186L80.0317 46.6321ZM79.0674 47.0985C79.3808 46.9261 79.7079 46.7699 80.0317 46.6321L79.43 45.2186C79.0656 45.3736 78.6915 45.5519 78.3269 45.7525L79.0674 47.0985ZM77.8452 47.9694C78.137 47.676 78.5446 47.3861 79.0674 47.0985L78.3269 45.7525C77.7285 46.0816 77.1861 46.4536 76.756 46.886L77.8452 47.9694ZM76.1701 50.3503C76.5655 49.4047 76.9036 48.9196 77.8462 47.9684L76.755 46.8871C75.7107 47.9409 75.2425 48.5862 74.7527 49.7577L76.1701 50.3503ZM75.9755 50.8854C76.0442 50.6747 76.109 50.4965 76.1701 50.3503L74.7527 49.7577C74.6707 49.9538 74.5917 50.1736 74.5148 50.4094L75.9755 50.8854ZM75.7617 51.6054C75.8293 51.3579 75.9014 51.1128 75.9755 50.8854L74.5148 50.4094C74.4314 50.6654 74.3523 50.9349 74.2797 51.2006L75.7617 51.6054ZM74.4489 51.9296C74.4754 51.9531 74.5477 52.0177 74.641 52.0708L75.4003 50.7353C75.436 50.7556 75.4593 50.7735 75.4661 50.7788C75.4735 50.7845 75.4751 50.7863 75.4671 50.7792L74.4489 51.9296ZM73.7632 48.0981C72.9234 49.4473 73.5159 51.1039 74.4489 51.9296L75.4671 50.7792C74.9279 50.3021 74.7312 49.4501 75.0675 48.9098L73.7632 48.0981ZM74.6835 46.2268C74.6742 46.3127 74.6277 46.4967 74.4754 46.825C74.3272 47.1444 74.0981 47.5598 73.7632 48.0981L75.0675 48.9098C75.42 48.3433 75.6844 47.8693 75.8689 47.4716C76.0494 47.0828 76.1751 46.722 76.2108 46.3924L74.6835 46.2268ZM74.6844 46.1769C74.6844 46.1771 74.6851 46.1802 74.6854 46.1876C74.6857 46.1951 74.6855 46.2078 74.6835 46.2268L76.2108 46.3924C76.2293 46.2216 76.2264 46.0407 76.1865 45.8547L74.6844 46.1769ZM74.6836 46.1762C74.684 46.1762 74.6843 46.1765 74.6844 46.1769L76.1865 45.8547C76.0561 45.2469 75.5724 44.7774 74.961 44.6651L74.6836 46.1762ZM74.4824 46.1367C74.5766 46.1558 74.6454 46.1692 74.6836 46.1762L74.961 44.6651C74.9361 44.6606 74.8778 44.6494 74.7888 44.6312L74.4824 46.1367ZM73.9438 46.0198C74.1402 46.0648 74.3211 46.1038 74.4824 46.1367L74.7888 44.6312C74.6403 44.601 74.4716 44.5647 74.287 44.5224L73.9438 46.0198ZM71.5797 45.3424C72.3257 45.6095 73.1426 45.8362 73.9438 46.0198L74.287 44.5224C73.5287 44.3486 72.7726 44.1377 72.0975 43.896L71.5797 45.3424ZM70.3613 44.8284C70.7208 45.0107 71.1321 45.1822 71.5797 45.3424L72.0975 43.896C71.6932 43.7513 71.3439 43.6042 71.0562 43.4582L70.3613 44.8284ZM69.647 43.0924C69.5749 43.323 69.4663 43.7123 69.6229 44.1075C69.7847 44.5162 70.1417 44.717 70.3613 44.8284L71.0562 43.4582C71.0183 43.439 70.9924 43.4243 70.975 43.4136C70.9576 43.4029 70.9536 43.399 70.9577 43.4024C70.9622 43.4061 70.9775 43.4196 70.9963 43.4441C71.0159 43.4697 71.0357 43.5026 71.0512 43.5419C71.0837 43.6239 71.0785 43.6841 71.0783 43.6866C71.0783 43.6867 71.0793 43.6764 71.085 43.6521C71.0906 43.6279 71.0995 43.5951 71.1133 43.551L69.647 43.0924ZM70.4385 42.0545C70.2881 42.1288 70.1793 42.2386 70.1317 42.2882C70.0665 42.3563 70.0041 42.433 69.9482 42.5106C69.8425 42.6575 69.7181 42.8651 69.647 43.0924L71.1133 43.551C71.1131 43.5514 71.1146 43.5467 71.1189 43.5369C71.123 43.5274 71.129 43.5151 71.1368 43.5005C71.1529 43.4707 71.1732 43.4385 71.1947 43.4086C71.2169 43.3778 71.234 43.3583 71.2409 43.3512C71.2443 43.3476 71.2398 43.3527 71.2274 43.363C71.221 43.3684 71.2097 43.3773 71.1939 43.3881C71.1789 43.3985 71.1536 43.4147 71.1193 43.4317L70.4385 42.0545ZM70.4389 42.0531C70.4397 42.0543 70.4397 42.0546 70.4396 42.0542C70.4395 42.0538 70.4393 42.0534 70.4393 42.053C70.4392 42.0523 70.4394 42.0527 70.439 42.0539C70.4387 42.055 70.4384 42.0553 70.4388 42.0547C70.439 42.0544 70.4394 42.0541 70.4397 42.0538C70.44 42.0536 70.4398 42.0538 70.4385 42.0545L71.1193 43.4317C71.934 43.0289 72.2234 42.0111 71.7424 41.24L70.4389 42.0531ZM70.5916 40.7726C70.4824 40.9586 70.4139 41.1379 70.3736 41.2835C70.3537 41.3555 70.338 41.4287 70.329 41.4984C70.3247 41.5316 70.32 41.5783 70.3201 41.6314C70.3202 41.6571 70.3213 41.7 70.3288 41.7516C70.3331 41.7805 70.3514 41.9127 70.4389 42.0531L71.7424 41.24C71.7913 41.3184 71.8152 41.3887 71.8267 41.4277C71.8392 41.4703 71.8456 41.506 71.849 41.5295C71.8557 41.5755 71.8564 41.6115 71.8564 41.6288C71.8565 41.6651 71.8534 41.6895 71.8526 41.6953C71.8507 41.7105 71.8497 41.7095 71.8542 41.6933C71.8628 41.6624 71.8821 41.609 71.9165 41.5504L70.5916 40.7726ZM71.0535 40.2362C70.8648 40.3784 70.7066 40.5768 70.5916 40.7726L71.9165 41.5504C71.9348 41.5192 71.9535 41.4934 71.9689 41.4752C71.9858 41.4552 71.9906 41.4537 71.978 41.4632L71.0535 40.2362ZM71.1968 40.1433C71.144 40.1719 71.0957 40.2044 71.0535 40.2362L71.978 41.4632C71.9748 41.4656 71.9696 41.4693 71.9623 41.4741C71.9553 41.4787 71.9439 41.4858 71.9284 41.4942L71.1968 40.1433ZM71.5998 40.0505C71.5998 40.0519 71.5997 40.0522 71.5998 40.0518C71.5998 40.0515 71.6 40.0511 71.6002 40.0507C71.6005 40.05 71.6005 40.0503 71.5997 40.0511C71.5988 40.0518 71.5983 40.052 71.5986 40.0519C71.5995 40.0515 71.6004 40.0516 71.5998 40.0515L71.5254 41.586C72.3845 41.6276 73.1197 40.9514 73.1359 40.0789L71.5998 40.0505ZM72.8864 38.1079C72.5021 38.2291 72.1215 38.4357 71.8747 38.8479C71.6519 39.2201 71.6072 39.6532 71.5998 40.0505L73.1359 40.0789C73.1388 39.9177 73.1499 39.8084 73.1645 39.7331C73.1716 39.6969 73.1786 39.6728 73.184 39.6577C73.1893 39.643 73.1928 39.6372 73.1929 39.6371C73.193 39.6369 73.1926 39.6375 73.1917 39.6387C73.1908 39.6399 73.1898 39.641 73.1889 39.642C73.1868 39.6442 73.1875 39.6429 73.194 39.6384C73.2092 39.6281 73.252 39.6035 73.3486 39.573L72.8864 38.1079ZM72.887 38.1072L72.8864 38.1079L73.3486 39.573C73.851 39.4145 74.2373 39.0097 74.3722 38.5004L72.887 38.1072ZM73.4713 36.9079C73.1927 37.1881 73.014 37.6277 72.887 38.1072L74.3722 38.5004C74.4236 38.306 74.4739 38.1698 74.5155 38.0802C74.56 37.9845 74.5816 37.9701 74.5608 37.9911L73.4713 36.9079ZM74.1285 36.6151C74.0485 36.6177 73.9097 36.6296 73.7556 36.7024C73.6153 36.7687 73.5205 36.8585 73.4713 36.9079L74.5608 37.9911C74.5604 37.9915 74.5474 38.0047 74.5245 38.0225C74.5 38.0416 74.4622 38.0677 74.4117 38.0916C74.2991 38.1447 74.2025 38.1498 74.1776 38.1506L74.1285 36.6151ZM74.5957 36.6725C74.4343 36.6396 74.2939 36.6098 74.1285 36.6151L74.1777 38.1506C74.1714 38.1508 74.161 38.1508 74.1493 38.1501C74.139 38.1495 74.1348 38.1486 74.1407 38.1495C74.1474 38.1505 74.1611 38.1527 74.1868 38.1576C74.2122 38.1624 74.2448 38.1689 74.2888 38.1778L74.5957 36.6725ZM74.6986 36.6916C74.6732 36.6877 74.6474 36.6831 74.5957 36.6725L74.2888 38.1778C74.3511 38.1905 74.4047 38.2008 74.466 38.2102L74.6986 36.6916ZM81.9949 39.0339C81.1322 38.6581 79.58 38.1157 78.1352 37.6525C76.7102 37.1956 75.283 36.7812 74.6986 36.6916L74.4659 38.2102C74.9051 38.2775 76.2064 38.6474 77.6662 39.1154C79.1061 39.577 80.5949 40.0998 81.3814 40.4423L81.9949 39.0339ZM79.5953 46.8307C79.4185 46.9149 79.2416 47.0049 79.0683 47.1002L79.8088 48.4462C79.9533 48.3668 80.1032 48.2904 80.2556 48.2179L79.5953 46.8307ZM80.3201 46.8646C80.3171 46.864 80.3173 46.8636 80.3189 46.8645L79.5321 48.184C79.6817 48.2733 79.8484 48.3379 80.0273 48.3727L80.3201 46.8646ZM84.4415 48.3808C83.1374 47.5518 82.1948 47.2286 80.3201 46.8646L80.0273 48.3727C81.7808 48.7131 82.525 48.9829 83.6174 49.6773L84.4415 48.3808ZM84.4429 48.3804C84.4423 48.3817 84.442 48.3819 84.4423 48.3815C84.4425 48.3812 84.4429 48.3809 84.4432 48.3806C84.4437 48.3802 84.4435 48.3806 84.4423 48.3809C84.4411 48.3812 84.4407 48.381 84.4414 48.3811C84.4418 48.3812 84.4423 48.3813 84.4427 48.3814C84.4431 48.3816 84.4427 48.3815 84.4415 48.3808L83.6174 49.6773C84.3844 50.1648 85.4044 49.8842 85.8142 49.0731L84.4429 48.3804ZM87.0266 39.9846C87.0114 42.4835 86.1473 45.0064 84.4429 48.3804L85.8142 49.0731C87.5508 45.6353 88.5455 42.8539 88.5629 39.994L87.0266 39.9846ZM87.026 39.9838C87.0264 39.9839 87.0266 39.9843 87.0266 39.9846L88.5629 39.994C88.5665 39.387 88.2128 38.8347 87.6599 38.5843L87.026 39.9838ZM82.4833 38.9362C83.376 38.8663 83.8911 38.8697 84.4669 38.9994C85.0693 39.1351 85.7741 39.4167 87.026 39.9838L87.6599 38.5843C86.4193 38.0224 85.5806 37.6755 84.8044 37.5007C84.0016 37.3199 83.3032 37.331 82.3633 37.4046L82.4833 38.9362ZM82.4831 38.9359L82.4833 38.9362L82.3633 37.4046C82.1504 37.4212 81.9491 37.4811 81.769 37.5757L82.4831 38.9359ZM74.6989 36.6897C75.192 36.7653 76.4737 37.1227 77.9297 37.5848C79.3656 38.0405 80.8867 38.5707 81.8301 38.9647L82.4221 37.547C81.4164 37.127 79.8451 36.5808 78.3944 36.1204C76.9637 35.6664 75.5646 35.2681 74.9316 35.1711L74.6989 36.6897ZM74.5961 36.6706C74.6293 36.6774 74.6658 36.6846 74.6989 36.6897L74.9316 35.1711C74.9353 35.1717 74.9375 35.1721 74.9376 35.1721C74.9377 35.1721 74.9365 35.1719 74.9338 35.1714C74.928 35.1703 74.9184 35.1684 74.9031 35.1653L74.5961 36.6706ZM74.3788 36.6298C74.418 36.6356 74.4297 36.6375 74.4488 36.6411C74.4742 36.6458 74.5103 36.6531 74.5961 36.6706L74.9031 35.1653C74.7357 35.1312 74.7088 35.1257 74.6052 35.1103L74.3788 36.6298ZM74.1284 36.6132C74.2051 36.6107 74.2847 36.6158 74.3788 36.6298L74.6052 35.1103C74.436 35.0851 74.2631 35.0718 74.0792 35.0777L74.1284 36.6132ZM72.9854 37.7753C73.1474 37.3057 73.3409 37.0192 73.5251 36.853C73.6968 36.6982 73.8885 36.6209 74.1284 36.6132L74.0792 35.0777C73.4839 35.0968 72.9431 35.3091 72.4961 35.7123C72.0617 36.1041 71.7505 36.644 71.5331 37.2744L72.9854 37.7753ZM71.6366 39.5587C71.7367 38.8892 72.0175 38.4811 72.5799 38.2229L71.9387 36.8268C70.8355 37.3334 70.282 38.2297 70.1172 39.3315L71.6366 39.5587ZM70.3352 41.7122C70.3162 41.4484 70.395 41.1166 70.5737 40.7998C70.7526 40.4827 70.9943 40.2468 71.2242 40.1303L70.5297 38.76C69.9747 39.0412 69.5305 39.5224 69.2357 40.0449C68.9407 40.5678 68.7579 41.1983 68.8029 41.8225L70.3352 41.7122ZM69.6452 43.0918C69.7308 42.8181 69.9098 42.5215 70.123 42.2994L69.015 41.2353C68.65 41.6153 68.3408 42.1156 68.1789 42.6332L69.6452 43.0918ZM70.3605 44.8301C69.9362 44.615 69.7237 44.3635 69.6255 44.121C69.5258 43.8748 69.5048 43.5406 69.6452 43.0918L68.1789 42.6332C67.9602 43.3325 67.9371 44.0444 68.2014 44.6974C68.4673 45.3541 68.9848 45.855 69.6656 46.2003L70.3605 44.8301ZM71.579 45.3442C71.1188 45.1795 70.7114 45.0081 70.3605 44.8301L69.6656 46.2003C70.087 46.414 70.556 46.6097 71.0612 46.7906L71.579 45.3442ZM73.8311 45.9957C73.056 45.8145 72.2849 45.597 71.579 45.3442L71.0612 46.7906C71.8345 47.0675 72.6638 47.3006 73.4814 47.4917L73.8311 45.9957ZM73.7615 48.097C74.0014 47.7116 74.1928 47.3787 74.3387 47.0963L72.9738 46.3911C72.8519 46.6271 72.6825 46.9233 72.4572 47.2853L73.7615 48.097ZM74.4476 51.9311C73.42 51.0216 72.9554 49.3923 73.7615 48.097L72.4572 47.2853C71.1647 49.3621 71.9792 51.798 73.4294 53.0815L74.4476 51.9311ZM75.422 52.1053C75.1069 52.2415 74.7752 52.221 74.4476 51.9311L73.4294 53.0815C74.2242 53.7849 75.1956 53.8768 76.0315 53.5155L75.422 52.1053ZM75.6722 51.953C75.6296 51.9912 75.5478 52.0509 75.422 52.1053L76.0315 53.5155C76.3079 53.396 76.5298 53.247 76.6962 53.0983L75.6722 51.953ZM75.6725 51.9525L75.6722 51.953L76.6962 53.0983C76.9269 52.8921 77.09 52.621 77.1641 52.3205L75.6725 51.9525ZM75.7455 51.6725C75.7117 51.7979 75.6865 51.8957 75.6725 51.9525L77.1641 52.3205C77.1748 52.277 77.1971 52.1901 77.2288 52.0723L75.7455 51.6725ZM75.9774 50.886C75.8957 51.1366 75.8169 51.4074 75.7455 51.6725L77.2288 52.0723C77.2952 51.8258 77.3666 51.5814 77.4381 51.362L75.9774 50.886ZM76.1719 50.3511C76.1076 50.5049 76.042 50.6878 75.9774 50.886L77.4381 51.362C77.4953 51.1864 77.5466 51.0458 77.5893 50.9437L76.1719 50.3511ZM77.8426 47.9748C77.4057 48.4157 77.0825 48.77 76.8203 49.1403C76.5521 49.519 76.3645 49.8903 76.1719 50.3511L77.5893 50.9437C77.7557 50.5456 77.8928 50.2841 78.074 50.0282C78.2613 49.7637 78.5124 49.4815 78.9339 49.0561L77.8426 47.9748ZM79.0683 47.1002C78.5933 47.3615 78.1603 47.6554 77.8437 47.9738L78.9329 49.0572C79.1049 48.8842 79.3974 48.6726 79.8088 48.4462L79.0683 47.1002ZM84.812 47.6309C85.5745 46.059 86.1562 44.6353 86.5312 43.2885L85.0512 42.8765C84.71 44.1021 84.1698 45.4346 83.4298 46.9605L84.812 47.6309ZM81.2661 47.0625C82.291 47.3015 83.0005 47.5594 83.753 47.97L84.4888 46.6214C83.5893 46.1307 82.7438 45.8297 81.6152 45.5663L81.2661 47.0625ZM82.4696 39.606C82.3468 41.2583 81.6583 43.9369 80.7389 46.002L82.1424 46.6268C83.1214 44.4278 83.8637 41.5766 84.0016 39.7198L82.4696 39.606ZM86.5537 39.7735C85.004 39.0835 84.3299 38.8637 83.214 38.8951L83.2572 40.4307C84.0162 40.4094 84.4293 40.5093 85.9288 41.177L86.5537 39.7735ZM86.6766 42.7264C86.8558 41.9751 86.9681 41.2432 87.0082 40.5177L85.4743 40.4328C85.4398 41.0566 85.3427 41.6972 85.1822 42.3699L86.6766 42.7264ZM85.1613 42.5535C85.1616 42.5964 85.1529 42.6405 85.1326 42.6843L86.5274 43.3283C86.6443 43.075 86.6994 42.8069 86.6975 42.5428L85.1613 42.5535ZM85.1326 42.6843C85.129 42.6922 85.1251 42.6997 85.1211 42.7069L86.4612 43.4581C86.4848 43.416 86.5069 43.3727 86.5274 43.3283L85.1326 42.6843ZM84.9818 42.2748C84.9946 42.2807 85.0065 42.2872 85.0176 42.2941L85.8338 40.9926C85.7675 40.951 85.6981 40.9134 85.6258 40.88L84.9818 42.2748ZM84.5722 42.4256C84.6437 42.2708 84.8271 42.2033 84.9818 42.2748L85.6258 40.88C84.7007 40.4529 83.6046 40.8565 83.1774 41.7816L84.5722 42.4256ZM84.5633 42.4468C84.566 42.4397 84.569 42.4327 84.5722 42.4256L83.1774 41.7816C83.1589 41.8218 83.1418 41.8625 83.1264 41.9034L84.5633 42.4468ZM84.385 41.629C84.4081 41.6518 84.4019 41.6642 84.3936 41.6226C84.384 41.5743 84.3788 41.4858 84.3978 41.3473L82.8756 41.1393C82.8132 41.5963 82.8259 42.2477 83.3047 42.7212L84.385 41.629ZM84.3978 41.3473C84.3966 41.3556 84.3905 41.3737 84.3779 41.3893C84.3678 41.4018 84.3644 41.3996 84.38 41.3924C84.3962 41.385 84.4238 41.3767 84.4599 41.3746C84.4959 41.3725 84.5294 41.3772 84.5554 41.3853L85.0128 39.9187C84.601 39.7903 84.1364 39.8141 83.7399 39.9958C83.3265 40.1853 82.9535 40.5697 82.8756 41.1393L84.3978 41.3473ZM84.5554 41.3853C84.6518 41.4154 84.6677 41.4463 84.6621 41.4382C84.6599 41.4351 84.6615 41.4353 84.6638 41.4457C84.6663 41.4576 84.6709 41.4892 84.6636 41.5472L86.1878 41.7395C86.2409 41.3186 86.1636 40.9065 85.9233 40.5611C85.6887 40.2236 85.3503 40.0239 85.0128 39.9187L84.5554 41.3853Z" fill="#ABE1DE" mask="url(#path-8-inside-1)"/>
</g>
<path d="M105.826 49.3688C104.728 48.6384 103.98 47.5268 103.719 46.2386C103.458 44.9509 103.715 43.6385 104.444 42.5428C104.644 42.2426 104.563 41.838 104.264 41.6392C103.965 41.4404 103.561 41.5226 103.362 41.8229C102.633 42.9185 101.522 43.6636 100.234 43.9208C98.9446 44.1782 97.6301 43.9178 96.5318 43.1874C96.2328 42.9885 95.8287 43.0708 95.629 43.371C95.4293 43.6713 95.5097 44.0758 95.8087 44.2746C98.0727 45.7803 98.6894 48.848 97.1832 51.1127C96.9835 51.413 97.064 51.8175 97.3629 52.0164C97.6617 52.2151 98.066 52.133 98.2657 51.8327C99.7719 49.568 102.839 48.9504 105.103 50.4561C105.402 50.6549 105.806 50.5727 106.006 50.2724C106.206 49.9721 106.125 49.5676 105.826 49.3688Z" fill="#8FD2CE"/>
<defs>
<filter id="filter0_d" x="0.259139" y="0.318583" width="87.5699" height="87.5699" filterUnits="userSpaceOnUse" color-interpolation-filters="sRGB">
<feFlood flood-opacity="0" result="BackgroundImageFix"/>
<feColorMatrix in="SourceAlpha" type="matrix" values="0 0 0 0 0 0 0 0 0 0 0 0 0 0 0 0 0 0 127 0"/>
<feOffset dy="3.07257"/>
<feGaussianBlur stdDeviation="5.37699"/>
<feColorMatrix type="matrix" values="0 0 0 0 0 0 0 0 0 0 0 0 0 0 0 0 0 0 0.04 0"/>
<feBlend mode="normal" in2="BackgroundImageFix" result="effect1_dropShadow"/>
<feBlend mode="normal" in="SourceGraphic" in2="effect1_dropShadow" result="shape"/>
</filter>
<filter id="filter1_d" x="76.8982" y="13.6952" width="17.0015" height="17.0015" filterUnits="userSpaceOnUse" color-interpolation-filters="sRGB">
<feFlood flood-opacity="0" result="BackgroundImageFix"/>
<feColorMatrix in="SourceAlpha" type="matrix" values="0 0 0 0 0 0 0 0 0 0 0 0 0 0 0 0 0 0 127 0"/>
<feOffset dy="4.60885"/>
<feGaussianBlur stdDeviation="3.07257"/>
<feColorMatrix type="matrix" values="0 0 0 0 0 0 0 0 0 0 0 0 0 0 0 0 0 0 0.25 0"/>
<feBlend mode="normal" in2="BackgroundImageFix" result="effect1_dropShadow"/>
<feBlend mode="normal" in="SourceGraphic" in2="effect1_dropShadow" result="shape"/>
</filter>
<filter id="filter2_d" x="4.85493" y="24.8856" width="17.1753" height="17.1753" filterUnits="userSpaceOnUse" color-interpolation-filters="sRGB">
<feFlood flood-opacity="0" result="BackgroundImageFix"/>
<feColorMatrix in="SourceAlpha" type="matrix" values="0 0 0 0 0 0 0 0 0 0 0 0 0 0 0 0 0 0 127 0"/>
<feOffset dy="4.60885"/>
<feGaussianBlur stdDeviation="3.07257"/>
<feColorMatrix type="matrix" values="0 0 0 0 0 0 0 0 0 0 0 0 0 0 0 0 0 0 0.25 0"/>
<feBlend mode="normal" in2="BackgroundImageFix" result="effect1_dropShadow"/>
<feBlend mode="normal" in="SourceGraphic" in2="effect1_dropShadow" result="shape"/>
</filter>
<filter id="filter3_d" x="14.7675" y="60.983" width="22.0033" height="22.0033" filterUnits="userSpaceOnUse" color-interpolation-filters="sRGB">
<feFlood flood-opacity="0" result="BackgroundImageFix"/>
<feColorMatrix in="SourceAlpha" type="matrix" values="0 0 0 0 0 0 0 0 0 0 0 0 0 0 0 0 0 0 127 0"/>
<feOffset dy="5.9044"/>
<feGaussianBlur stdDeviation="3.93626"/>
<feColorMatrix type="matrix" values="0 0 0 0 0 0 0 0 0 0 0 0 0 0 0 0 0 0 0.25 0"/>
<feBlend mode="normal" in2="BackgroundImageFix" result="effect1_dropShadow"/>
<feBlend mode="normal" in="SourceGraphic" in2="effect1_dropShadow" result="shape"/>
</filter>
<filter id="filter4_d" x="36.2925" y="5.35179" width="82.6716" height="82.6716" filterUnits="userSpaceOnUse" color-interpolation-filters="sRGB">
<feFlood flood-opacity="0" result="BackgroundImageFix"/>
<feColorMatrix in="SourceAlpha" type="matrix" values="0 0 0 0 0 0 0 0 0 0 0 0 0 0 0 0 0 0 127 0"/>
<feOffset dy="3.07257"/>
<feGaussianBlur stdDeviation="5.37699"/>
<feColorMatrix type="matrix" values="0 0 0 0 0 0 0 0 0 0 0 0 0 0 0 0 0 0 0.1 0"/>
<feBlend mode="normal" in2="BackgroundImageFix" result="effect1_dropShadow"/>
<feBlend mode="normal" in="SourceGraphic" in2="effect1_dropShadow" result="shape"/>
</filter>
</defs>
</svg>
