<svg width="48" height="48" viewBox="0 0 48 48" fill="none" xmlns="http://www.w3.org/2000/svg">
<circle cx="24" cy="24" r="24" fill="black"/>
<path fill-rule="evenodd" clip-rule="evenodd" d="M28.1724 14.9435C28.7307 17.5972 28.9238 22.1346 28.4713 25.6998C28.3698 25.7823 28.2542 25.8782 28.127 25.9864C27.6422 26.3987 27.1573 26.8479 26.701 27.3226C25.9466 28.1075 25.3426 28.8858 24.94 29.6582C23.834 31.7901 23.4653 32.9126 23.2825 34.8564C23.253 35.1707 23.237 35.5304 23.2319 35.9299C23.2264 36.3625 23.2338 36.8188 23.2499 37.2712C23.218 37.2643 23.1783 37.2487 23.1234 37.224C21.5977 36.5386 20.3213 34.7009 20.7979 32.8682C21.3552 30.7252 21.4998 29.4784 21.3626 28.7807C21.3282 28.6059 21.2739 28.4497 21.1947 28.3094C20.9347 27.8483 20.4226 27.5893 19.8972 27.6531C19.843 27.6596 19.7335 27.6719 19.5753 27.688C19.3076 27.7153 19.0046 27.7426 18.673 27.7682C17.3157 27.8729 15.9272 27.9159 14.644 27.8626C13.8747 27.8306 13.1763 27.7644 12.5675 27.6618C11.7943 27.5314 11.6167 27.3034 11.6174 26.4934C11.6178 26.062 11.8387 25.4786 11.9721 25.3515C12.5323 24.8176 12.5095 23.917 11.9231 23.4122C11.8933 23.3865 11.8334 23.0116 11.9428 22.5414C12.0029 22.2831 12.1021 22.0526 12.21 21.9024C12.2334 21.8697 12.2542 21.845 12.2705 21.8284C12.9785 21.6447 13.4046 20.9084 13.1966 20.1954C12.8439 18.9859 12.9584 18.4084 13.7943 17.8268C14.1625 17.5707 14.3739 17.1438 14.3544 16.6956C14.3199 15.9027 14.4048 15.3897 14.5494 15.112C14.6082 14.9992 14.6496 14.9651 14.7383 14.9343C14.8334 14.9013 14.9174 14.8882 15.2295 14.8565C15.328 14.8465 15.3963 14.8386 15.47 14.8274C17.2124 14.5637 25.1296 14.6119 28.1724 14.9435ZM28.5883 29.1365C28.8021 28.914 29.0254 28.6961 29.2532 28.4854C29.3957 28.5196 29.5475 28.5303 29.7042 28.5129C32.8298 28.1662 34.35 28.2207 36.6826 28.851C37.4294 29.0528 38.1874 28.5662 38.3149 27.8031C39.3847 21.3986 39.5511 16.6192 38.2201 12.2582C38.0693 11.7639 37.6418 11.4047 37.1289 11.3413C32.5079 10.7699 31.477 10.8628 28.5726 12.0242C28.4028 12.0921 28.2548 12.1917 28.133 12.3136C24.5543 11.9787 16.9951 11.9492 15.0783 12.2393C15.0576 12.2425 15.0242 12.2463 14.9653 12.2523C14.6792 12.2813 14.6621 12.2832 14.5225 12.305C14.2988 12.3398 14.089 12.3888 13.8794 12.4616C12.5362 12.9282 11.7927 14.1451 11.7336 16.1243C10.5745 17.1674 10.2272 18.4382 10.4607 19.9441C9.38723 20.9879 8.95857 22.969 9.51236 24.3792C9.19514 25.0148 9.00042 25.7857 8.99981 26.4911C8.99803 28.5381 10.053 29.8923 12.1322 30.2429C12.8587 30.3654 13.6636 30.4417 14.5353 30.4779C15.871 30.5334 17.2851 30.4941 18.6731 30.3931C18.5868 30.882 18.4531 31.4844 18.2646 32.2093C17.4141 35.4799 19.4826 38.458 22.0507 39.6117C23.214 40.1343 24.301 39.8955 25.1099 39.2C25.3926 38.9568 25.5864 38.7103 25.7088 38.5056C25.8441 38.2795 25.9079 38.0178 25.892 37.7549C25.8867 37.6671 25.8784 37.505 25.87 37.2909C25.8524 36.8404 25.8439 36.3839 25.8493 35.9633C25.8535 35.6289 25.8665 35.3364 25.8886 35.1014C26.0369 33.5244 26.3023 32.7165 27.258 30.8743C27.5305 30.3515 27.9918 29.7571 28.5883 29.1365ZM35.9426 13.8346C36.7919 17.2022 36.6957 21.0528 35.953 25.9888C34.3829 25.6751 32.9782 25.615 31.1018 25.7524C31.5637 21.8079 31.3254 16.9538 30.6483 14.0374C32.1578 13.5197 33.1219 13.504 35.9426 13.8346Z" fill="white"/>
</svg>
