<svg width="97" height="97" viewBox="0 0 97 97" fill="none" xmlns="http://www.w3.org/2000/svg">
<path d="M59.0247 35.5693L41.8225 52.6995L35.2062 46.1263C34.8468 45.7093 34.4044 45.3706 33.9069 45.1314C33.4095 44.8923 32.8676 44.758 32.3154 44.7368C31.7631 44.7156 31.2125 44.808 30.6979 45.0083C30.1833 45.2086 29.716 45.5124 29.3252 45.9006C28.9344 46.2888 28.6287 46.7532 28.4271 47.2644C28.2255 47.7756 28.1324 48.3227 28.1537 48.8713C28.1751 49.42 28.3103 49.9583 28.551 50.4525C28.7917 50.9468 29.1326 51.3863 29.5524 51.7434L38.9755 61.1451C39.3502 61.5143 39.7945 61.8064 40.2831 62.0047C40.7716 62.2029 41.2948 62.3034 41.8225 62.3004C42.8744 62.296 43.8825 61.8811 44.6294 61.1451L64.6785 41.2263C65.0544 40.8559 65.3527 40.4153 65.5563 39.9298C65.7598 39.4444 65.8646 38.9237 65.8646 38.3978C65.8646 37.8719 65.7598 37.3512 65.5563 36.8657C65.3527 36.3803 65.0544 35.9397 64.6785 35.5693C63.9272 34.8273 62.9109 34.4109 61.8516 34.4109C60.7923 34.4109 59.776 34.8273 59.0247 35.5693ZM48.1179 8.51953C40.1872 8.51953 32.4346 10.856 25.8405 15.2334C19.2463 19.6108 14.1068 25.8326 11.0719 33.112C8.03691 40.3914 7.24282 48.4014 8.79003 56.1291C10.3372 63.8569 14.1562 70.9553 19.7641 76.5267C25.3719 82.0981 32.5168 85.8923 40.2951 87.4294C48.0734 88.9666 56.1359 88.1776 63.4629 85.1624C70.7899 82.1472 77.0524 77.0411 81.4585 70.4898C85.8645 63.9386 88.2163 56.2364 88.2163 48.3572C88.2163 43.1256 87.1791 37.9453 85.164 33.112C83.1488 28.2787 80.1952 23.887 76.4717 20.1877C72.7483 16.4884 68.3279 13.554 63.4629 11.552C58.5979 9.54996 53.3837 8.51953 48.1179 8.51953ZM48.1179 80.2273C41.7733 80.2273 35.5713 78.3582 30.2959 74.8563C25.0206 71.3543 20.909 66.3769 18.4811 60.5534C16.0531 54.7299 15.4178 48.3218 16.6556 42.1396C17.8934 35.9574 20.9486 30.2787 25.4349 25.8216C29.9211 21.3645 35.637 18.3292 41.8597 17.0994C48.0823 15.8697 54.5323 16.5009 60.3939 18.913C66.2555 21.3252 71.2655 25.4101 74.7904 30.6511C78.3152 35.8921 80.1966 42.0539 80.1966 48.3572C80.1966 56.8097 76.8169 64.916 70.801 70.8928C64.7851 76.8696 56.6257 80.2273 48.1179 80.2273Z" fill="white"/>
</svg>
