<svg width="48" height="48" viewBox="0 0 48 48" fill="none" xmlns="http://www.w3.org/2000/svg">
<circle cx="24" cy="24" r="23.7105" transform="rotate(-180 24 24)" stroke="#999999" stroke-width="0.578947"/>
<path fill-rule="evenodd" clip-rule="evenodd" d="M21.8872 29.585C21.5456 27.9609 21.4274 25.1839 21.7043 23.002C21.7664 22.9514 21.8372 22.8927 21.915 22.8265C22.2117 22.5742 22.5085 22.2993 22.7877 22.0087C23.2495 21.5283 23.6191 21.052 23.8655 20.5793C24.5424 19.2745 24.7681 18.5876 24.8799 17.3979C24.898 17.2056 24.9078 16.9854 24.9109 16.7409C24.9143 16.4761 24.9098 16.1969 24.8999 15.92C24.9194 15.9242 24.9438 15.9338 24.9773 15.9489C25.9111 16.3684 26.6923 17.4931 26.4006 18.6147C26.0595 19.9263 25.971 20.6893 26.055 21.1164C26.076 21.2233 26.1093 21.319 26.1577 21.4048C26.3169 21.687 26.6303 21.8455 26.9519 21.8065C26.985 21.8025 27.052 21.795 27.1489 21.7851C27.3127 21.7684 27.4981 21.7517 27.7011 21.736C28.5318 21.672 29.3816 21.6456 30.1669 21.6783C30.6377 21.6978 31.0652 21.7383 31.4378 21.8012C31.911 21.881 32.0197 22.0205 32.0193 22.5162C32.019 22.7802 31.8838 23.1373 31.8022 23.2151C31.4593 23.5418 31.4733 24.093 31.8322 24.402C31.8504 24.4177 31.887 24.6472 31.8201 24.9349C31.7833 25.093 31.7226 25.2341 31.6566 25.326C31.6422 25.3461 31.6295 25.3611 31.6196 25.3713C31.1862 25.4838 30.9255 25.9344 31.0527 26.3707C31.2686 27.111 31.1985 27.4644 30.6869 27.8204C30.4616 27.9772 30.3322 28.2384 30.3442 28.5127C30.3653 28.998 30.3133 29.3119 30.2248 29.4819C30.1889 29.5509 30.1635 29.5718 30.1092 29.5906C30.051 29.6109 29.9996 29.6189 29.8086 29.6383C29.7483 29.6444 29.7065 29.6492 29.6614 29.6561C28.595 29.8175 23.7495 29.788 21.8872 29.585ZM21.6327 20.8986C21.5019 21.0348 21.3652 21.1682 21.2258 21.2971C21.1385 21.2761 21.0457 21.2696 20.9497 21.2803C19.0368 21.4925 18.1064 21.4591 16.6788 21.0733C16.2217 20.9498 15.7578 21.2476 15.6798 21.7147C15.0251 25.6344 14.9233 28.5594 15.7378 31.2285C15.8301 31.531 16.0918 31.7508 16.4056 31.7897C19.2338 32.1393 19.8648 32.0825 21.6423 31.3717C21.7463 31.3301 21.8368 31.2692 21.9113 31.1946C24.1016 31.3995 28.728 31.4176 29.9011 31.24C29.9138 31.2381 29.9342 31.2357 29.9703 31.2321C30.1454 31.2143 30.1558 31.2132 30.2413 31.1999C30.3782 31.1786 30.5066 31.1485 30.6348 31.104C31.4569 30.8185 31.912 30.0737 31.9481 28.8624C32.6575 28.2239 32.8701 27.4462 32.7272 26.5245C33.3842 25.8857 33.6465 24.6733 33.3076 23.8101C33.5017 23.4212 33.6209 22.9494 33.6213 22.5176C33.6224 21.2648 32.9767 20.436 31.7042 20.2215C31.2596 20.1465 30.767 20.0998 30.2334 20.0776C29.416 20.0437 28.5505 20.0677 27.701 20.1295C27.7538 19.8303 27.8356 19.4617 27.951 19.018C28.4716 17.0163 27.2056 15.1937 25.6338 14.4875C24.9219 14.1677 24.2566 14.3139 23.7616 14.7396C23.5886 14.8883 23.4699 15.0392 23.395 15.1645C23.3122 15.3029 23.2732 15.463 23.2829 15.624C23.2861 15.6777 23.2912 15.7769 23.2963 15.9079C23.3071 16.1836 23.3123 16.4631 23.3091 16.7205C23.3064 16.9251 23.2985 17.1041 23.285 17.2479C23.1942 18.2131 23.0318 18.7076 22.4469 19.835C22.2801 20.155 21.9978 20.5188 21.6327 20.8986ZM17.1317 30.2637C16.6119 28.2027 16.6708 25.846 17.1253 22.8251C18.0863 23.0171 18.946 23.0538 20.0944 22.9698C19.8117 25.3838 19.9576 28.3547 20.3719 30.1396C19.4481 30.4564 18.8581 30.466 17.1317 30.2637Z" fill="#999999"/>
</svg>
