<svg xmlns="http://www.w3.org/2000/svg" width="52" height="40" fill="none" viewBox="0 0 52 40">
    <path fill="#CCC" d="M26.84 21.667h-1.678v1.666h1.677v-1.666z"/>
    <path fill="#CCC" d="M51.161 19.167v-7.5c0-.082-.025-1.87-1.677-2.974V6.667h-1.678v2.026c-1.652 1.104-1.677 2.892-1.677 2.974v7.5h-.839V17.5h-1.677v1.667h-1.677v-1.973c.419-.31.838-.932.838-2.194 0-1.947-1.566-3.398-2.602-4.36-.28-.258-.645-.598-.753-.762V6.667h-1.677v3.211c-.108.164-.474.505-.752.763-1.037.96-2.603 2.412-2.603 4.359 0 1.262.42 1.885.838 2.194v1.973h-1.677v-8.334c0-.157-.053-3.874-4.638-5.74L26.838 3.72V0h-1.677v3.72l-2.072 1.373c-4.585 1.866-4.638 5.583-4.638 5.74v8.334h-1.677v-1.973c.42-.31.838-.932.838-2.194 0-1.947-1.565-3.398-2.602-4.359-.28-.258-.644-.6-.752-.762V6.667H12.58v3.211c-.108.164-.474.505-.752.763-1.037.96-2.603 2.412-2.603 4.359 0 1.262.42 1.885.839 2.194v1.973H8.386V17.5H6.71v1.667H5.87v-7.5c0-.082-.025-1.87-1.677-2.974V6.667H2.515v2.026C.863 9.797.838 11.585.838 11.667v7.5H0V40h52V19.167h-.839zm-48.645-7.5c0-.01.011-.905.838-1.524.807.607.839 1.49.84 1.524v.833H2.516v-.833zm0 2.5h1.678v5H2.516v-5zm2.516 24.166H1.677V35h3.355v3.333zm0-5H1.677v-12.5h3.355v12.5zm7.94-21.474c.16-.148.31-.287.447-.422.138.135.288.274.447.422.922.855 2.07 1.918 2.07 3.14 0 .53-.1.755-.148.834h-4.736c-.05-.079-.149-.304-.149-.833 0-1.223 1.148-2.286 2.07-3.141zm2.125 5.64v1.668h-3.355V17.5h3.355zm-8.388 3.334h11.742v12.5h-1.677V30h-1.677v3.333h-1.678V30h-1.677v3.333h-1.678V30H8.387v3.333H6.709v-12.5zm11.743 17.5H6.71V35h11.742v3.333zm13.419 0H20.129V35h11.742v3.333zM25.16 25v8.333h-1.677V21.667c0-2.227 1.88-3.073 2.516-3.295.64.224 2.516 1.07 2.516 3.295v11.666H26.84V25H25.16zm6.71-5.834v14.167h-1.677V21.667c0-3.151-2.61-4.633-3.991-4.975L26 16.64l-.203.051c-1.38.342-3.99 1.824-3.99 4.974v11.667h-1.678V12.5h11.742v6.666zm-11.742-8.333c0-.027.042-2.786 3.666-4.226L26 5.168l2.05 1.359.155.08c3.543 1.408 3.662 4.067 3.666 4.226H20.13zm18.005 1.026c.16-.148.31-.287.447-.422.137.135.287.274.447.422.922.855 2.069 1.918 2.069 3.14 0 .53-.1.755-.148.834h-4.736c-.05-.079-.148-.304-.148-.833 0-1.223 1.147-2.286 2.069-3.141zm2.124 5.64v1.668h-3.355V17.5h3.355zm5.032 20.834H33.548V35H45.29v3.333zm0-5h-1.677V30h-1.677v3.333h-1.678V30h-1.677v3.333h-1.678V30h-1.677v3.333h-1.678v-12.5H45.29v12.5zm2.517-21.666c0-.01.01-.905.837-1.524.807.607.84 1.49.84 1.524v.833h-1.677v-.833zm0 2.5h1.677v5h-1.677v-5zm-.84 6.666h3.356v12.5h-3.355v-12.5zm3.356 17.5h-3.355V35h3.355v3.333z"/>
    <path fill="#CCC" d="M4.194 30H2.516v1.667h1.678V30zM49.484 30h-1.677v1.667h1.677V30z"/>
</svg>
