<svg xmlns="http://www.w3.org/2000/svg" width="48" height="48" fill="none" viewBox="0 0 48 48">
    <path fill="#CCC" d="M43.357 22.597l-1.548-.352v-9.864h-1.547v-6.19h-3.096l-6.19 1.738v4.452h-1.548v7.05l-1.548-.352V7.74h-3.095V3.255L11.033.02 7.761 0v7.738H4.854L0 24.883 4.488 46.43h-1.37v1.548h41.787V46.43h-1.548V22.597zM6.213 30.953v-1.547h1.548v1.547H6.213zm3.095-1.547h1.548v1.547H9.308v-1.547zm3.096 0h1.547v1.547h-1.547v-1.547zm3.095 0h1.548v1.547h-1.548v-1.547zm3.095 0h1.548v1.547h-1.548v-1.547zm3.096 0h1.547v1.547H21.69v-1.547zM6.213 23.215v-1.548h1.548v1.548H6.213zm3.095-1.548h1.548v1.548H9.308v-1.548zm3.096 0h1.547v1.548h-1.547v-1.548zm3.095 0h1.548v1.548h-1.548v-1.548zm3.095 0h1.548v1.548h-1.548v-1.548zm3.096 0h1.547v1.548H21.69v-1.548zm20.12 2.165V46.43H24.784V20.12h.687l16.337 3.712zM32.522 9.096l4.752-1.358h1.439v4.643h-6.19V9.096zm-1.547 4.833h9.286v7.965l-9.286-2.11v-5.855zM9.308 1.548h1.458l12.471 2.934v3.256H9.308v-6.19zm1.548 44.882v-8.512c0-.427.347-.774.774-.774h6.19c.428 0 .774.347.774.774v8.512h-7.738zm6.964-10.834h-6.19a2.324 2.324 0 0 0-2.322 2.322v8.512h-3.24L1.593 24.94 6.024 9.285h20.309v9.442l-.602-.137-2.494-.019v1.548H4.665v4.643h18.572v3.095H4.665v4.643h18.572v13.93h-3.095v-8.513a2.324 2.324 0 0 0-2.322-2.322z"/>
    <path fill="#CCC" d="M24.785 12.381H7.761v4.643h17.024v-4.643zM15.5 13.93h1.548v1.548h-1.548v-1.548zm-1.548 1.548h-1.547v-1.548h1.547v1.548zm4.643-1.548h1.548v1.548h-1.548v-1.548zm-9.286 0h1.548v1.548H9.308v-1.548zm13.93 1.548H21.69v-1.548h1.547v1.548zM40.262 37.144h-13.93v4.643h13.93v-4.643zm-4.643 1.548v1.547H34.07v-1.547h1.548zm-3.096 0v1.547h-1.547v-1.547h1.547zm-4.643 0h1.548v1.547H27.88v-1.547zm10.834 1.547h-1.548v-1.547h1.548v1.547zM40.262 30.953h-13.93v4.643h13.93v-4.642zm-4.643 1.548v1.548H34.07V32.5h1.548zm-3.096 0v1.548h-1.547V32.5h1.547zm-4.643 0h1.548v1.548H27.88V32.5zm10.834 1.548h-1.548V32.5h1.548v1.548zM46.452 46.43H48v1.548h-1.548V46.43zM.022 46.43H1.57v1.548H.022V46.43z"/>
</svg>
