<svg xmlns="http://www.w3.org/2000/svg" width="48" height="48" fill="none" viewBox="0 0 48 48">
    <path fill="#CCC" d="M35.613 15.392c.112-.023.225-.042.336-.076a3.102 3.102 0 0 0 2.76 1.716c1.124 0 2.11-.601 2.653-1.5a3.088 3.088 0 0 0 4.736-.955A2.711 2.711 0 0 0 48 12c0-1.177-.74-2.182-1.816-2.552a3.856 3.856 0 0 0-3.603-2.48c-.439 0-.87.077-1.289.23a3.828 3.828 0 0 0-2.582-1.004 3.825 3.825 0 0 0-3.097 1.567v-.793a.773.773 0 0 0-.774-.774H27.87V.774A.773.773 0 0 0 27.097 0H16.258a.773.773 0 0 0-.774.774v13.162h-1.549v-2.323a.756.756 0 0 0-.116-.384l.011-.006-5.42-9.29c-.277-.477-1.059-.477-1.338 0l-5.42 9.29.012.006a.763.763 0 0 0-.116.384v24H0v1.548h48v-1.548H35.613v-20.22zm1.014-6.33a2.3 2.3 0 0 1 2.083-1.32c.693 0 1.349.318 1.796.874.235.29.642.372.974.193 1.379-.749 2.997.069 3.345 1.47a.774.774 0 0 0 .637.58c.574.086.99.566.99 1.141a1.16 1.16 0 0 1-1.01 1.143.775.775 0 0 0-.632.517 1.537 1.537 0 0 1-2.977-.255c-.037-.236-.249-.477-.457-.594a.773.773 0 1 0-1.149.822 1.55 1.55 0 0 1-1.517 1.851c-.76 0-1.416-.571-1.523-1.331a.777.777 0 0 0-1.165-.555c-.374.224-.771.337-1.183.337a2.326 2.326 0 0 1-2.323-2.322c0-1.545 1.52-2.78 3.14-2.165a.774.774 0 0 0 .971-.387zm-8.756 14.164h3.097v1.548H27.87v-1.548zm0-6.194h3.097v1.549H27.87v-1.549zm-12.387 18.58h-3.097v-4.644h3.097v4.645zM7.742 3.859l4.071 6.98H3.671l4.07-6.98zm-4.645 8.53h9.29v1.547H5.42a.773.773 0 0 0-.774.775v3.096c0 .429.346.775.774.775h2.323v1.548H5.419a.773.773 0 0 0-.774.774V24c0 .428.346.774.774.774h2.323v3.097H5.419a.773.773 0 0 0-.774.774v6.968H3.097V12.387zm4.645 4.644H6.194v-1.548h1.548v1.548zm0 6.194H6.194v-1.549h1.548v1.549zm0 12.387H6.194v-6.194h1.548v6.194zm1.548-20.13h6.194V29.42h-3.871a.773.773 0 0 0-.774.774v5.42H9.29v-20.13zm7.742-.773V1.548h9.29v34.065h-1.548v-6.968a.773.773 0 0 0-.774-.774h-4.645a.773.773 0 0 0-.774.774v6.968h-1.549V14.71zm6.194 20.903h-3.097v-6.194h3.097v6.194zm4.645-4.645h3.097v4.645H27.87v-4.645zm4.645 4.645v-5.42a.773.773 0 0 0-.774-.774H27.87v-3.096h3.87a.773.773 0 0 0 .775-.775v-3.096a.773.773 0 0 0-.774-.775H27.87V20.13h3.87a.773.773 0 0 0 .775-.774v-3.097a.773.773 0 0 0-.774-.774H27.87v-1.549h1.548v-1.548h-1.548V10.84h1.548V9.29h-1.548V7.742h6.194v.078a3.878 3.878 0 0 0-3.097 3.793 3.878 3.878 0 0 0 3.097 3.793v20.207h-1.549zM42.58 43.355c-1.187 0-2.35.481-3.19 1.321l-.907.908a2.984 2.984 0 0 1-2.096.868c-.78 0-1.544-.316-2.095-.868l-.908-.908a4.543 4.543 0 0 0-3.19-1.321c-1.188 0-2.35.481-3.19 1.321l-.908.908a2.984 2.984 0 0 1-2.096.868c-.78 0-1.544-.316-2.096-.868l-.907-.908a4.543 4.543 0 0 0-3.19-1.321c-1.188 0-2.35.481-3.19 1.321l-.908.908a2.984 2.984 0 0 1-2.096.868c-.78 0-1.544-.316-2.096-.868l-.907-.908a4.543 4.543 0 0 0-3.19-1.321c-1.188 0-2.351.481-3.19 1.321L.226 46.678l1.095 1.095 2.002-2.002a2.983 2.983 0 0 1 2.096-.868c.78 0 1.543.316 2.095.868l.908.907A4.543 4.543 0 0 0 11.613 48c1.188 0 2.35-.482 3.19-1.322l.908-.907a2.983 2.983 0 0 1 2.096-.868c.78 0 1.544.316 2.096.868l.907.907A4.543 4.543 0 0 0 24 48c1.188 0 2.35-.482 3.19-1.322l.908-.907a2.983 2.983 0 0 1 2.096-.868c.78 0 1.544.316 2.096.868l.907.907A4.543 4.543 0 0 0 36.387 48c1.188 0 2.35-.482 3.19-1.322l.908-.907a2.983 2.983 0 0 1 2.096-.868c.78 0 1.544.316 2.096.868l2.002 2.002 1.094-1.095-2.002-2.002a4.543 4.543 0 0 0-3.19-1.321z"/>
    <path fill="#CCC" d="M42.58 38.71c-1.187 0-2.35.481-3.19 1.321l-.907.907a2.984 2.984 0 0 1-2.096.868c-.78 0-1.544-.316-2.095-.867l-.908-.908a4.543 4.543 0 0 0-3.19-1.321c-1.188 0-2.35.481-3.19 1.321l-.908.907a2.984 2.984 0 0 1-2.096.868c-.78 0-1.544-.316-2.096-.867l-.907-.908a4.543 4.543 0 0 0-3.19-1.321c-1.188 0-2.35.481-3.19 1.321l-.908.907a2.984 2.984 0 0 1-2.096.868c-.78 0-1.544-.316-2.096-.867l-.907-.908a4.543 4.543 0 0 0-3.19-1.321c-1.188 0-2.351.481-3.19 1.321L.226 42.033l1.095 1.095 2.002-2.002a2.984 2.984 0 0 1 2.096-.868c.78 0 1.543.316 2.095.868l.908.907a4.543 4.543 0 0 0 3.19 1.322c1.188 0 2.35-.482 3.19-1.322l.908-.907a2.984 2.984 0 0 1 2.096-.868c.78 0 1.544.316 2.096.868l.907.907A4.543 4.543 0 0 0 24 43.355c1.188 0 2.35-.482 3.19-1.322l.908-.907a2.984 2.984 0 0 1 2.096-.868c.78 0 1.544.316 2.096.868l.907.907a4.543 4.543 0 0 0 3.19 1.322c1.188 0 2.35-.482 3.19-1.322l.908-.907a2.984 2.984 0 0 1 2.096-.868c.78 0 1.544.316 2.096.868l2.002 2.002 1.094-1.095-2.002-2.002a4.543 4.543 0 0 0-3.19-1.321zM18.58 6.194h6.194v1.548h-6.193V6.194zM18.58 12.387h6.194v1.548h-6.193v-1.548zM18.58 18.58h6.194v1.549h-6.193v-1.548zM18.58 24.774h6.194v1.549h-6.193v-1.549z"/>
</svg>
