<svg width="118" height="101" viewBox="0 0 118 101" fill="none" xmlns="http://www.w3.org/2000/svg">
<path d="M78.444 26.3646C78.3588 26.2581 78.2949 26.1516 78.2097 26.0451C74.1626 20.6347 71.8834 14.2658 66.9203 9.4731C56.696 -0.453031 37.717 -2.26359 24.468 2.57167C12.5609 6.93832 6.74582 17.4609 6.74582 29.2615C6.74582 72.225 40.6352 87.7106 74.2478 79.3607C87.7311 76.0165 107.285 64.5993 103.515 49.0498C102.279 44.0015 98.2324 41.2325 93.5675 39.0598C87.4329 36.2055 82.4059 31.5832 78.444 26.3646Z" fill="#DCF3F1"/>
<g opacity="0.5">
<path opacity="0.5" d="M107.093 63.17C107.072 62.3393 105.176 58.5265 99.8299 60.7844C99.1483 57.8236 95.2503 56.013 92.4386 57.3763C91.906 55.6935 89.2648 52.3067 85.8353 51.8168C81.277 51.1564 77.3151 53.1374 74.2904 56.5242C71.8621 54.3303 67.6019 54.4155 65.2589 56.7159C62.788 54.4581 59.1882 53.4143 55.8652 54.0107C52.521 54.6072 49.5389 56.8011 48.0479 59.7619C45.8539 57.781 41.8068 58.3561 40.2944 60.8483C38.4626 58.6756 34.5645 58.6756 32.7327 60.8483C32.4771 59.0377 31.2416 57.3975 29.5376 56.5881C27.8335 55.8 25.746 55.8852 24.1272 56.8011C22.6361 55.3953 20.3783 54.7776 18.3547 55.2036C16.3098 55.6296 14.5419 57.0993 13.775 58.9738C12.497 57.4828 10.1965 56.8863 8.32206 57.5467C3.72111 59.1655 5.21216 65.7474 5.21216 69.4751H107.072C107.2 69.4751 107.115 63.7452 107.093 63.17Z" fill="#E5E5E5"/>
</g>
<path d="M45.4279 20.6113L44.6824 20.377L38.143 21.4846L41.402 22.4644L45.4279 20.6113Z" fill="white"/>
<path d="M65.3441 20.2912L59.5929 25.0412C56.8877 26.1063 50.6892 24.2531 49.8371 23.9975C48.1331 23.4863 28.2169 17.4795 26.0869 16.8404C25.1496 16.5635 21.3794 17.3304 19.8031 17.6499C19.3558 17.7351 19.2067 18.3102 19.5262 18.651C23.4882 22.8472 51.4134 29.8765 51.4134 29.8765C58.6769 31.8148 62.575 28.5558 63.0436 27.576L66.9629 20.7811L65.3441 20.2912Z" fill="white"/>
<path d="M25.1496 18.2681C25.3413 18.332 25.5543 18.2042 25.6182 17.9912C25.6821 17.7782 25.5543 17.5652 25.3626 17.5013L23.5734 16.9688C22.9983 17.054 22.3805 17.1605 21.8267 17.267L25.1496 18.2681Z" fill="#999999"/>
<path d="M43.3191 23.6352C43.383 23.4222 43.5747 23.2944 43.7877 23.3583C43.9794 23.4222 44.1072 23.6352 44.0433 23.8482C43.9794 24.0612 43.7877 24.189 43.5747 24.1251C43.383 24.0825 43.2765 23.8482 43.3191 23.6352Z" fill="#999999"/>
<path d="M50.604 25.8295C50.6679 25.6165 50.8596 25.4887 51.0726 25.5526C51.2643 25.6165 51.3921 25.8295 51.3282 26.0426C51.2643 26.2556 51.0726 26.3834 50.8596 26.3195C50.6679 26.2769 50.5401 26.0639 50.604 25.8295Z" fill="#999999"/>
<path d="M40.8908 22.9116C40.9547 22.6986 41.1464 22.5708 41.3594 22.6347C41.5511 22.6986 41.6789 22.9116 41.615 23.1246C41.5511 23.3376 41.3594 23.4654 41.1464 23.4015C40.9547 23.3589 40.8482 23.1246 40.8908 22.9116Z" fill="#999999"/>
<path d="M45.7474 24.3803C45.8113 24.1673 46.003 24.0395 46.216 24.1034C46.4077 24.1673 46.5355 24.3803 46.4716 24.5933C46.4077 24.8063 46.216 24.9341 46.003 24.8702C45.8113 24.8063 45.7048 24.5933 45.7474 24.3803Z" fill="#999999"/>
<path d="M48.1757 25.1059C48.2396 24.8929 48.4313 24.7651 48.6443 24.829C48.836 24.8929 48.9638 25.1059 48.8999 25.3189C48.836 25.5319 48.6443 25.6597 48.4313 25.5958C48.2396 25.5532 48.1118 25.3189 48.1757 25.1059Z" fill="#999999"/>
<path d="M38.4838 22.187C38.5477 21.974 38.7394 21.8462 38.9525 21.9101C39.1442 21.974 39.272 22.187 39.2081 22.4C39.1442 22.613 38.9525 22.7408 38.7394 22.6769C38.5264 22.613 38.4199 22.4 38.4838 22.187Z" fill="#999999"/>
<path d="M36.0556 21.4419C36.1195 21.2288 36.3112 21.101 36.5242 21.1649C36.7159 21.2288 36.8437 21.4419 36.7798 21.6549C36.7159 21.8679 36.5242 21.9957 36.3112 21.9318C36.0982 21.8892 35.9917 21.6549 36.0556 21.4419Z" fill="#999999"/>
<path d="M33.6273 20.7172C33.6912 20.5042 33.8829 20.3764 34.0959 20.4403C34.2876 20.5042 34.4154 20.7172 34.3515 20.9303C34.2876 21.1433 34.0959 21.2711 33.8829 21.2072C33.6699 21.1646 33.5634 20.9303 33.6273 20.7172Z" fill="#999999"/>
<path d="M31.199 19.9936C31.2629 19.7806 31.4546 19.6528 31.6676 19.7167C31.8593 19.7806 31.9872 19.9936 31.9232 20.2066C31.8593 20.4196 31.6676 20.5474 31.4546 20.4835C31.2629 20.4196 31.1351 20.2066 31.199 19.9936Z" fill="#999999"/>
<path d="M28.7707 19.2485C28.8346 19.0355 29.0264 18.9077 29.2394 18.9716C29.4311 19.0355 29.5589 19.2485 29.495 19.4615C29.4311 19.6745 29.2394 19.8023 29.0264 19.7384C28.8346 19.6958 28.7068 19.4615 28.7707 19.2485Z" fill="#999999"/>
<path d="M64.8115 30.7499L63.3631 30.3026L59.3799 26.6602L62.8093 27.7039L64.8115 30.7499Z" fill="white"/>
<path d="M40.1453 29.7689L36.1621 28.5761L36.9715 25.5088L40.9548 26.7016C41.7642 26.9359 42.2328 27.8306 41.9985 28.6613C41.7855 29.5346 40.9548 30.0245 40.1453 29.7689Z" fill="#E5E5E5"/>
<path d="M37.1419 28.8757L35.9278 28.5136L36.7372 25.4463L37.9513 25.8084L37.1419 28.8757Z" fill="#CCCCCC"/>
<path d="M47.9627 33.5188L46.3225 33.0076L35.374 23.0176L42.4671 25.1689L47.9627 33.5188Z" fill="white"/>
<path d="M97 32H94V92H97V32Z" fill="white"/>
<path d="M15 7H13V93H15V7Z" fill="white"/>
<path d="M131 66H12V69H131V66Z" fill="white"/>
<g opacity="0.25">
<path opacity="0.25" d="M35.0545 98.359H29.1542L82.7681 8.27832H88.6684L35.0545 98.359Z" fill="#D9E9FF"/>
</g>
<g opacity="0.25">
<path opacity="0.25" d="M61.5525 100.148L97.0395 40.5488H91.1392L55.6523 100.148H61.5525Z" fill="#D9E9FF"/>
</g>
<g opacity="0.25">
<path opacity="0.25" d="M71.7769 101L107.882 40.5488H101.981L65.8766 101H71.7769Z" fill="#D9E9FF"/>
</g>
<path opacity="0.5" d="M54.5 98C84.5995 98 109 96.433 109 94.5C109 92.567 84.5995 91 54.5 91C24.4005 91 0 92.567 0 94.5C0 96.433 24.4005 98 54.5 98Z" fill="#ABE1DE"/>
<path d="M25.3413 69.3472C23.9142 72.1376 22.2101 75.354 21.3155 77.3988C20.8043 77.4201 20.783 77.5053 20.357 77.2071C21.0599 73.7777 22.8491 68.4738 24.5319 66.6846C25.2348 67.8774 25.3413 68.0052 25.3413 69.3472Z" fill="#EE917C"/>
<path d="M24.1911 67.0469C24.3615 68.7935 24.3402 71.2857 24.5106 73.0324C23.4882 72.9685 22.4444 72.6916 21.5924 72.1164C21.8906 71.0727 23.616 67.6433 24.1911 67.0469Z" fill="#9EBFFF"/>
<path d="M20.8256 78.9534C21.209 78.5487 21.7202 76.7381 21.3794 76.7168L20.4848 77.015C20.0801 77.3984 19.9097 78.4635 20.144 78.996C20.2931 79.3581 20.5274 79.2516 20.8256 78.9534Z" fill="#EE917C"/>
<path d="M29.3033 68.8153C30.7304 71.5631 32.3919 74.7369 33.2865 76.7818C33.7764 76.8031 33.819 76.8883 34.2237 76.5901C33.5208 73.2032 31.7528 67.9633 30.0914 66.1953C29.4098 67.3669 29.3033 67.4947 29.3033 68.8153Z" fill="#EE917C"/>
<path d="M29.8571 66.0029C29.6867 67.7283 30.2831 70.753 30.134 72.457C31.1351 72.4144 32.1788 72.1162 33.0309 71.5624C32.7114 70.5187 30.8156 66.4076 29.8571 66.0029Z" fill="white"/>
<path d="M33.7764 78.3149C33.393 77.9102 32.9031 76.1209 33.2226 76.0996L34.1172 76.3978C34.5006 76.7599 34.6923 77.825 34.458 78.3575C34.3089 78.7196 34.0746 78.6131 33.7764 78.3149Z" fill="#EE917C"/>
<path d="M28.5152 92.7777L29.0477 89.8382C29.069 89.5826 27.727 89.5826 27.7057 89.8382L27.4714 92.586C27.4714 93.1185 28.43 93.0972 28.5152 92.7777Z" fill="white"/>
<path d="M27.4714 91.7133L28.7921 91.8198L30.8795 77.3353L27.8761 76.6963L27.4714 91.7133Z" fill="#409A95"/>
<path d="M24.2124 92.7777L24.6384 89.6252C24.6597 89.3696 23.4456 89.6891 23.4243 89.9447L23.2326 92.7777C23.2326 93.3102 24.1272 93.0972 24.2124 92.7777Z" fill="white"/>
<path d="M23.19 91.8188L24.5106 91.9253L26.5981 77.4408L23.5947 76.8018L23.19 91.8188Z" fill="#409A95"/>
<path d="M27.1732 92.6293C27.2158 92.4589 27.301 92.2885 27.4714 92.182C27.6418 92.0968 28.2808 92.182 28.579 92.3737C28.6216 92.3311 28.9838 92.0116 29.0477 92.2033C29.1542 92.5015 29.4311 92.7358 29.7719 92.7358C30.7304 92.7358 30.8582 93.034 30.8795 93.5879C28.2808 93.7796 27.1732 93.524 27.1519 93.4388C27.088 93.2045 27.088 92.9701 27.1519 92.7358C27.1732 92.6932 27.1732 92.6719 27.1732 92.6293Z" fill="#333333"/>
<path d="M22.9557 93.4599C22.9557 93.4812 22.9557 93.5025 22.9557 93.5025C22.9557 93.5451 23.6586 93.6729 24.4041 93.6729C25.0858 93.6729 25.5118 93.609 25.5118 93.609C25.5118 93.4386 25.6396 92.7996 25.0858 92.7996H24.9792C24.9792 92.7996 24.7875 92.2884 24.7875 92.2671C24.7236 92.0967 24.5106 92.0754 24.3189 92.0967L24.255 92.5014C24.1059 92.4162 23.9355 92.3523 23.7438 92.3523C23.3604 92.3523 23.1261 92.4801 23.0409 92.7357C22.9557 92.97 22.9344 93.2256 22.9557 93.4599Z" fill="#333333"/>
<path d="M23.5521 78.7621C23.2539 77.9527 23.2539 76.8663 23.403 76.206C25.5118 75.993 28.856 75.7161 30.9647 75.9291C30.9647 76.8237 30.9647 78.0379 30.6665 78.7408C30.4961 78.7408 25.1284 79.1881 23.5521 78.7621Z" fill="#388782"/>
<path d="M66.8777 50.4742C69.2421 55.0539 72.0112 60.3365 73.481 63.7233C74.3117 63.7659 74.3543 63.8937 75.0572 63.4038C73.907 57.7804 70.9675 49.0684 68.1984 46.1289C67.0482 48.046 66.8777 48.259 66.8777 50.4742Z" fill="#EE917C"/>
<path d="M74.2904 66.2575C73.6513 65.5971 72.8206 62.6151 73.3744 62.5938L74.8655 63.105C75.5045 63.7227 75.824 65.4693 75.4406 66.364C75.185 66.9178 74.7803 66.7687 74.2904 66.2575Z" fill="#EE917C"/>
<path d="M86.9004 72.542H66.3026C64.8755 72.542 63.7252 73.6922 63.7252 75.1194V76.1418V90.8393C63.7252 92.2665 64.8755 93.4167 66.3026 93.4167H86.9004C88.3275 93.4167 89.4778 92.2665 89.4778 90.8393V76.1418V75.1194C89.4778 73.6922 88.3275 72.542 86.9004 72.542Z" fill="#999999"/>
<path d="M84.2165 72.542H63.6187C62.1916 72.542 61.0413 73.6922 61.0413 75.1194V76.1418V90.8393C61.0413 92.2665 62.1916 93.4167 63.6187 93.4167H84.2165C85.6436 93.4167 86.7939 92.2665 86.7939 90.8393V76.1418V75.1194C86.7939 73.6922 85.6436 72.542 84.2165 72.542Z" fill="#CCCCCC"/>
<path d="M76.0308 70.6626V72.5371H76.6059V70.6626H76.0308Z" fill="white"/>
<path d="M70.7332 70.8163C70.7332 71.0719 70.9462 71.2849 71.2018 71.2849H76.6122C76.8678 71.2849 77.0808 71.0719 77.0808 70.8163C77.0808 70.5607 76.8678 70.3477 76.6122 70.3477H71.2018C70.9462 70.3477 70.7332 70.5607 70.7332 70.8163Z" fill="#999999"/>
<path d="M63.001 45.6389C62.9584 45.2341 63.3205 42.6568 63.3844 42.0816L66.7499 41.0166C66.6221 41.7834 66.4517 43.1467 66.2387 44.2543C66.1322 44.8507 65.9618 45.2767 65.8553 45.6815C65.7488 46.0649 63.4696 47.3003 63.4696 47.3003C63.4696 47.3003 63.0862 46.3418 63.001 45.6389Z" fill="#EE917C"/>
<path d="M68.241 36.4588C68.241 36.3097 68.2197 36.1606 68.1984 36.0328C68.1132 35.053 67.7297 35.053 66.8138 34.4992C66.1961 34.1157 65.3867 34.1157 64.6837 34.2222C64.4707 34.2648 64.279 34.3074 64.066 34.35C63.6187 34.4566 63.1714 34.4352 62.7241 34.3287C62.4046 34.2435 61.9786 33.9666 61.7229 34.3074C61.5951 34.4566 62.4685 33.9879 62.4259 34.1796C62.1703 35.3725 58.1444 43.6798 62.5324 44.404C63.3844 44.5531 64.3003 44.4892 65.1098 44.191C65.6423 43.9993 66.1748 42.8703 66.5582 42.4443C68.028 40.7403 68.3475 38.4398 68.241 36.4588Z" fill="#EE917C"/>
<path d="M65.9192 40.3988C65.8979 40.3988 65.8766 40.3988 65.8766 40.3775C65.6423 40.2284 65.5358 39.9515 65.5997 39.6532C65.6636 39.355 65.8553 39.1207 66.0896 39.0781C66.1322 39.0781 66.1748 39.0994 66.1961 39.142C66.1961 39.1846 66.1748 39.2272 66.1322 39.2485C65.9831 39.2698 65.834 39.4615 65.7914 39.6745C65.7488 39.9089 65.8127 40.1006 65.9831 40.2071C66.0257 40.2284 66.047 40.2923 66.0044 40.3349C65.9831 40.3775 65.9405 40.3988 65.9192 40.3988Z" fill="#9E3F31"/>
<path d="M69.6468 38.9084C69.4764 38.4824 69.2421 38.0138 69.3273 37.5664C69.3699 37.2256 69.5829 36.9487 69.6255 36.6079C69.7107 36.0754 69.3699 35.5003 68.8587 35.3299C68.7309 35.1595 68.6031 35.0104 68.4966 34.8187C68.3262 34.5417 68.241 34.2009 68.241 33.8814C68.241 33.5193 68.3901 33.1785 68.1345 32.8377C67.9854 32.646 67.7724 32.5395 67.5381 32.5182C66.9203 32.4756 66.3878 32.7525 65.8127 32.8803C64.6412 33.1572 63.9808 32.2626 62.9797 31.8792C62.5324 31.7087 61.9147 31.6661 61.5313 32.007C61.1265 32.3691 61.0626 33.0081 60.6792 33.3702C60.2745 33.7536 59.529 33.9666 59.4012 34.563C59.2521 35.2447 59.6994 35.7346 60.2958 35.9689C60.594 36.0967 60.8922 36.1606 61.2117 36.2032C61.3608 36.2245 61.51 36.2032 61.6591 36.2458C61.6804 36.3949 61.723 36.544 61.7656 36.6931C61.8721 37.1617 61.8934 37.6942 61.7869 38.2055C61.723 38.4824 61.9786 38.738 62.2555 38.6954C62.362 38.6741 62.4898 38.6954 62.5963 38.7593C62.8732 38.9084 63.0223 39.2279 63.0223 39.5261C63.001 40.0586 62.6389 40.4633 62.2342 40.7189C62.788 41.1876 62.5537 42.2739 63.1288 42.6999C63.4057 42.9129 63.7678 42.9129 64.1086 42.9342C64.8968 42.9342 65.6636 42.9555 66.4517 42.9555C66.686 42.9555 66.9203 42.9555 67.112 42.849C67.6233 42.5295 67.4528 41.7201 67.7937 41.2515C68.241 40.655 69.306 40.8255 69.7107 40.2077C69.9237 39.8669 69.8172 39.3344 69.6468 38.9084Z" fill="#333333"/>
<path d="M68.7309 92.5009L66.9629 76.6532C66.9203 76.1846 70.2219 76.1846 70.2645 76.6532V91.3081L70.4137 92.7353C70.4137 93.6938 68.8587 93.0548 68.7309 92.5009Z" fill="#CD634E"/>
<path d="M70.4136 92.4157C70.2645 92.2666 70.2645 92.8843 69.6255 92.8843C69.3273 92.8843 68.8374 92.8844 68.667 91.9897L68.5818 91.2442C68.2835 91.2229 67.9427 91.2442 67.8362 91.5637L67.538 92.5009L67.3463 92.5222C66.473 92.5222 66.6647 93.6725 66.6647 93.992C66.6647 93.992 67.3463 94.1198 68.4326 94.1198C69.6042 94.1198 70.7331 93.9068 70.7331 93.8216C70.7331 93.8216 70.7331 93.779 70.7331 93.7364C70.7544 93.3104 70.7118 92.7352 70.4136 92.4157Z" fill="#333333"/>
<path d="M65.4505 90.4133C65.4718 86.6004 65.4932 82.8089 65.5145 78.9961C65.5145 78.6127 65.5145 78.2293 65.5145 77.8458C65.5145 77.5902 65.5145 77.3346 65.5145 77.079C65.5145 76.9938 65.5145 76.8873 65.5145 76.8021C65.4719 76.3335 61.9998 76.653 62.0637 77.1216L63.7465 92.1173C63.6613 92.2025 63.6187 92.2877 63.5761 92.3729C63.4483 92.6711 63.5761 93.0332 63.7891 93.2463C64.0234 93.4593 64.3429 93.5658 64.6624 93.5871C64.9819 93.6084 65.3014 93.5445 65.5997 93.4806C65.5997 93.4806 65.834 93.2463 65.834 93.1824C65.8127 93.1185 65.408 91.9256 65.408 91.8617C65.4293 91.7339 65.4505 90.7541 65.4505 90.4133Z" fill="#CD634E"/>
<path d="M64.7476 93.2462C64.0234 93.3314 63.7678 92.6072 63.6826 91.7978C63.6187 91.7125 63.0436 91.1587 62.9158 91.4782C62.7454 92.0108 62.2981 92.4155 61.7655 92.4368C60.2532 92.4581 60.0615 92.9693 59.9976 93.9491C59.9976 93.9491 59.9976 93.9491 60.0189 93.9491C64.1512 94.3112 65.9831 93.8426 66.0044 93.6722C66.0683 93.4379 66.0044 93.0332 66.0044 92.9267C65.5997 93.0971 65.0459 93.2036 64.7476 93.2462Z" fill="#333333"/>
<path d="M73.3957 77.9097C73.3957 77.9097 72.4585 61.21 68.9865 58.2066C65.6423 57.8231 63.3631 58.4409 60.0189 58.8456C59.0817 61.3591 59.8698 78.2292 60.3384 79.5073C65.2163 80.7427 71.5 79.3369 73.3957 77.9097Z" fill="#409A95"/>
<path d="M68.5818 45.9585C66.473 43.445 61.1052 44.8721 59.6994 47.2365C59.103 48.2163 59.1456 49.4092 59.2308 50.8576C59.2308 50.8576 59.9337 57.9082 60.0189 58.8028C60.0189 58.8454 63.7465 59.3566 65.834 59.2288C68.2197 59.0797 69.0078 58.2916 69.0078 58.249C69.3273 54.777 70.0515 47.7264 68.5818 45.9585Z" fill="#DCF3F1"/>
<path d="M48.9212 45.9582C48.8999 45.5535 49.4963 43.0187 49.6241 42.4436L53.0536 41.6768C52.7553 42.8483 52.1802 45.1275 51.7542 46.2351C51.6051 46.6185 49.2194 47.641 49.2194 47.641C49.2194 47.641 48.9425 46.6611 48.9212 45.9582Z" fill="#EE917C"/>
<path d="M47.4302 51.901C45.0658 56.4807 42.2967 61.7632 40.827 65.15C39.9962 65.1927 39.9536 65.3205 39.2507 64.8305C40.4009 59.2072 43.3404 50.4952 46.1095 47.5557C47.2598 49.4727 47.4302 49.6857 47.4302 51.901Z" fill="#EE917C"/>
<path d="M45.5557 48.1094C45.8326 50.9637 45.8113 55.0747 46.0882 57.929C44.4055 57.8438 42.7014 57.3539 41.2956 56.438C41.7855 54.7339 44.5972 49.1105 45.5557 48.1094Z" fill="#8FD2CE"/>
<path d="M40.0175 67.6637C40.6565 67.0034 41.4873 64.0213 40.9335 64L39.4424 64.5112C38.8034 65.1289 38.4839 66.8756 38.8673 67.7702C39.1229 68.3453 39.5276 68.1749 40.0175 67.6637Z" fill="#EE917C"/>
<path d="M47.8562 92.3307L47.0042 87.0907C46.9616 86.6221 49.0916 86.6221 49.1342 87.0907L49.4964 91.9899C49.5177 92.9484 48.0053 92.9058 47.8562 92.3307Z" fill="white"/>
<path d="M49.5181 90.4127L47.4307 90.6258L44.0865 64.6815L48.8791 63.5312L49.5181 90.4127Z" fill="#409A95"/>
<path d="M54.6937 92.3305L54.0121 86.6858C53.9695 86.2172 55.9079 86.7923 55.9505 87.2609L56.2487 92.3305C56.2487 93.289 54.8215 92.9056 54.6937 92.3305Z" fill="white"/>
<path d="M56.3339 90.6051L54.2251 90.8181L50.9022 64.8739L55.6735 63.7236L56.3339 90.6051Z" fill="#409A95"/>
<path d="M49.9863 92.0955C49.9011 91.7973 49.7733 91.4777 49.4963 91.3073C49.2194 91.1369 48.2183 91.3286 47.7497 91.6269C47.6858 91.5417 47.1107 90.9878 46.9829 91.3073C46.8125 91.8399 46.3651 92.2446 45.8326 92.2659C44.3203 92.2872 44.1286 92.7984 44.0647 93.7782C44.0647 93.7782 44.0647 93.7782 44.086 93.7782C48.2183 94.1403 49.9863 93.6717 50.0076 93.5013C50.1141 93.0966 50.0928 92.6493 50.0076 92.2446C50.0076 92.202 49.9863 92.1381 49.9863 92.0955Z" fill="#333333"/>
<path d="M56.5682 92.2673C56.4404 91.82 56.0357 91.607 55.4392 91.5857C55.141 91.5857 54.8641 91.6709 54.6298 91.8413L54.5446 91.0958C54.2464 91.0745 53.9056 91.0958 53.7991 91.4153L53.5009 92.3525L53.3092 92.3738C52.4358 92.3738 52.6276 93.524 52.6276 93.8436C52.6276 93.8436 53.3092 93.9714 54.3955 93.9714C55.567 93.9714 56.696 93.7584 56.696 93.6731C56.696 93.6731 56.696 93.6305 56.696 93.5879C56.7173 93.1406 56.696 92.672 56.5682 92.2673Z" fill="#333333"/>
<path d="M55.7588 67.2166C56.2487 65.7468 56.2487 63.8298 55.9931 62.6369C52.6489 62.2535 47.3237 61.7636 43.9795 62.147C43.9582 63.7446 43.9795 65.9385 44.4481 67.1953C44.725 67.1953 53.224 68.0047 55.7588 67.2166Z" fill="#409A95"/>
<path d="M51.6264 34.712C51.4134 34.7333 51.2004 34.7546 51.0087 34.7759C50.5401 34.8398 50.1141 34.7759 49.6667 34.6268C49.3472 34.5203 48.5165 35.0315 48.4526 35.2019C47.9201 36.3734 47.4515 37.5876 47.1107 38.8443C46.7911 40.0371 46.429 41.3578 46.6846 42.5932C46.8977 43.6157 47.6219 44.3186 48.6017 44.6381C49.4324 44.915 50.3484 44.8724 51.1791 44.6594C51.7329 44.5103 52.3506 43.4453 52.7766 43.0405C54.3529 41.5282 52.3293 34.6694 51.6264 34.712Z" fill="#EE917C"/>
<path d="M56.1848 52.5618C56.0357 50.6874 55.6523 48.8981 54.4168 47.471C50.7318 43.2321 44.1073 46.342 44.1073 52.5405C44.1073 52.5405 43.8091 63.7021 43.9156 64.5754C43.9369 64.7459 47.2598 65.4275 50.4336 65.4488C53.4157 65.4488 56.2487 64.7885 56.2487 64.6607C56.5256 61.8064 56.483 56.4599 56.1848 52.5618Z" fill="#8FD2CE"/>
<path d="M38.633 79.3371C38.4413 79.3371 38.2496 79.3371 38.0579 79.3371C38.0579 75.5243 38.0366 71.7327 38.0153 67.9199C38.207 67.9199 38.3987 67.9199 38.5904 67.9199C38.6117 71.7327 38.6117 75.5243 38.633 79.3371Z" fill="white"/>
<path d="M40.6778 79.3371C40.4861 79.3371 40.2944 79.3371 40.1027 79.3371C40.1027 75.5243 40.0814 71.7327 40.0601 67.9199C40.2518 67.9199 40.4435 67.9199 40.6352 67.9199C40.6565 71.7327 40.6565 75.5243 40.6778 79.3371Z" fill="white"/>
<path d="M34.9053 93.0338C34.7988 93.0338 34.7349 93.0338 34.6923 93.0338C34.6923 92.9486 34.6923 92.8421 34.6923 92.7782C34.6923 92.693 34.6284 92.6504 34.5645 92.6504C34.5006 92.6504 34.4367 92.693 34.4367 92.7782C34.4367 92.8634 34.4367 92.9699 34.4367 93.0764C34.2237 93.1403 34.0746 93.3107 34.0746 93.545C34.0746 93.8219 34.2876 94.0349 34.5645 94.0349C34.5645 94.0349 34.8627 94.0349 34.884 94.0349C35.2036 94.0136 35.374 93.8219 35.3953 93.545C35.3953 93.2468 35.1183 93.0551 34.9053 93.0338Z" fill="#999999"/>
<path d="M36.7159 93.0338C36.6094 93.0338 36.5455 93.0338 36.5029 93.0338C36.5029 92.9486 36.5029 92.8421 36.5029 92.7782C36.5029 92.693 36.439 92.6504 36.3751 92.6504C36.3112 92.6504 36.2473 92.693 36.2473 92.7782C36.2473 92.8634 36.2473 92.9699 36.2473 93.0764C36.0343 93.1403 35.8852 93.3107 35.8852 93.545C35.8852 93.8219 36.0982 94.0349 36.3751 94.0349C36.3751 94.0349 36.6733 94.0349 36.6946 94.0349C37.0141 94.0136 37.1845 93.8219 37.2058 93.545C37.2271 93.2468 36.9289 93.0551 36.7159 93.0338Z" fill="#999999"/>
<path d="M42.8505 93.0338C42.744 93.0338 42.6801 93.0338 42.6375 93.0338C42.6375 92.9486 42.6375 92.8421 42.6375 92.7782C42.6375 92.693 42.5736 92.6504 42.5097 92.6504C42.4458 92.6504 42.3819 92.693 42.3819 92.7782C42.3819 92.8634 42.3819 92.9699 42.3819 93.0764C42.1689 93.1403 42.0198 93.3107 42.0198 93.545C42.0198 93.8219 42.2328 94.0349 42.5097 94.0349C42.5097 94.0349 42.8079 94.0349 42.8292 94.0349C43.1487 94.0136 43.3191 93.8219 43.3404 93.545C43.3617 93.2255 43.0635 93.0338 42.8505 93.0338Z" fill="#999999"/>
<path d="M44.6824 93.0123C44.5759 93.0123 44.512 93.0123 44.4694 93.0123C44.4694 92.9271 44.4694 92.8206 44.4694 92.7567C44.4694 92.6715 44.4055 92.6289 44.3416 92.6289C44.2777 92.6289 44.2138 92.6715 44.2138 92.7567C44.2138 92.8419 44.2138 92.9484 44.2138 93.0549C44.0008 93.1188 43.8517 93.2892 43.8517 93.5235C43.8517 93.8004 44.0647 94.0135 44.3416 94.0135C44.3416 94.0135 44.6398 94.0135 44.6611 94.0135C44.9806 93.9922 45.151 93.8004 45.1723 93.5235C45.1723 93.2253 44.8954 93.0336 44.6824 93.0123Z" fill="#999999"/>
<path d="M44.7463 92.9265C44.2777 93.033 43.5108 92.8839 42.9783 92.9478C42.9783 87.4522 42.957 81.978 42.9357 76.5037C43.4682 76.5676 44.2351 76.4185 44.7037 76.525C45.6622 76.7167 46.3438 76.9936 46.3438 78.1864C46.3864 82.4679 46.3864 87.0049 46.3864 91.2864C46.3864 92.4366 45.7048 92.7135 44.7463 92.9265Z" fill="#999999"/>
<path d="M42.9783 92.9477C40.2944 92.9051 37.4188 93.0116 34.8202 92.9264C33.6699 92.8838 33.18 92.4365 33.1587 91.2863C33.0948 87.0474 33.0948 82.4465 33.1161 78.2076C33.1374 77.0361 33.6273 76.6101 34.7776 76.5462C37.3762 76.4397 40.2731 76.5462 42.9357 76.5036C42.957 81.9778 42.957 87.4308 42.9783 92.9477Z" fill="#CCCCCC"/>
<path d="M40.827 68.1332H37.8449C37.6745 68.1332 37.5254 67.9841 37.5254 67.8137C37.5254 67.6432 37.6745 67.4941 37.8449 67.4941H40.827C40.9974 67.4941 41.1465 67.6432 41.1465 67.8137C41.1465 68.0054 40.9974 68.1332 40.827 68.1332Z" fill="#999999"/>
<path d="M68.667 54.2445C67.9428 53.8185 66.1109 53.4138 65.8553 53.8185L65.9831 54.4362C66.1109 55.0752 66.7073 55.5012 67.325 55.6503C69.4764 56.119 69.0717 54.5001 68.667 54.2445Z" fill="#EE917C"/>
<path d="M54.9919 48.621C56.5043 51.3901 59.9124 54.1166 66.2387 53.648C66.7925 53.9249 67.2612 54.5852 66.9203 55.3095C60.6366 56.8431 54.715 54.8409 50.5827 49.8565C52.3294 48.7276 52.9258 48.3228 54.9919 48.621Z" fill="#EE917C"/>
<path d="M54.7576 47.9823C55.4818 49.0899 56.6321 50.5597 57.8036 51.1774C57.9314 53.2648 57.6758 54.2234 56.696 55.331C54.6298 54.1808 52.6275 53.2648 50.8383 51.7099C50.3484 51.2839 49.8372 50.7727 49.7946 50.1123C49.752 49.4094 50.3271 48.813 50.9235 48.4509C51.9672 47.8119 53.5861 47.6202 54.7576 47.9823Z" fill="#8FD2CE"/>
<path d="M52.308 34.414C50.1567 33.8815 48.1331 34.5418 47.6858 34.9892C47.6432 35.0318 48.2396 35.543 48.2822 35.5856C48.6869 35.9477 49.1555 36.1394 49.6241 36.4163C49.5389 36.3737 49.2407 36.6932 49.1768 36.7358C49.0064 36.8849 48.8573 37.0553 48.7082 37.247C48.3674 37.6943 48.0905 38.2482 48.0266 38.8233C48.0266 38.8659 47.984 39.2493 48.0692 39.2067C48.0692 39.2067 48.5591 38.8659 49.0277 39.2493C49.6241 39.7392 49.0703 41.3581 48.2609 41.3368C48.1757 41.3368 48.197 42.3166 48.9425 42.7C50.2419 43.3603 51.9459 43.3816 52.4571 43.1899C52.5423 43.1473 52.6275 43.1047 52.7127 43.0621C52.9683 42.8917 53.1601 42.6574 53.3518 42.4231C54.289 41.1664 56.8877 35.5643 52.308 34.414Z" fill="#333333"/>
<path d="M46.1734 52.8396C46.8977 52.4136 48.6656 52.1367 48.6656 52.1367L48.9851 52.8609C48.8573 53.5 48.2609 53.926 47.6432 54.0751C45.5131 54.5437 45.7687 53.074 46.1734 52.8396Z" fill="#EE917C"/>
<path d="M60.0402 47.2168C59.6568 47.2381 59.1882 48.3883 58.2297 49.2191C56.8877 50.3693 55.3541 51.1574 53.65 51.5834C51.9459 52.0095 50.4336 52.2438 48.6869 52.116C48.3461 52.8402 48.2183 52.6272 48.5591 53.3727C50.604 53.7135 52.6063 53.82 54.6724 53.5644C56.2913 53.3514 57.8675 52.968 59.3373 52.2864C59.6568 52.1373 59.9976 52.0095 60.2745 51.7964C60.5301 51.6047 60.6366 51.2639 60.7218 50.9444C60.9774 50.0498 60.9348 49.0274 60.6792 48.154C60.594 47.8771 60.5088 47.4937 60.2745 47.302C60.168 47.2381 60.1041 47.2168 60.0402 47.2168Z" fill="#EE917C"/>
<path d="M26.7472 66.0035C26.172 66.0248 25.7034 65.5988 25.6608 65.0236L25.5756 63.3409L27.6205 63.2344L27.7057 64.9171C27.7483 65.4709 27.301 65.9609 26.7472 66.0035Z" fill="#EE917C"/>
<path d="M30.9647 61.3799L30.7091 63.3182C31.2203 63.2756 31.6463 62.9348 31.6889 62.4875V62.4662C31.7741 61.9763 31.4546 61.5503 30.9647 61.3799Z" fill="#EE917C"/>
<path d="M25.4053 59.4848C25.597 58.1429 27.0028 57.2269 28.6004 57.3973C29.6015 57.5251 30.4961 58.1003 30.9435 58.8671C31.2204 59.357 31.2843 59.9321 31.2843 60.4859C31.2843 61.1676 31.3695 61.8279 31.3269 62.5095C31.2843 63.2763 31.0926 64.0645 30.56 64.6396C28.9412 66.3436 25.4266 65.1082 25.0645 62.8503C24.8941 61.7001 25.2562 60.6137 25.4053 59.4848Z" fill="#EE917C"/>
<path d="M25.8313 60.8477L25.5331 60.8051C24.9793 60.7199 24.468 61.0607 24.4041 61.5506V61.5719C24.3402 62.0618 24.7449 62.5091 25.2988 62.5943L25.597 62.6369L25.8313 60.8477Z" fill="#CD634E"/>
<path d="M31.3056 57.2058C31.0286 56.9289 30.6878 56.7372 30.3257 56.5881C29.1755 56.1195 27.727 56.2686 26.5768 56.7159C25.0644 57.3123 24.1272 58.5477 24.2124 60.2092C24.255 61.0186 25.2988 63.5108 25.2988 63.5108C25.7674 63.8729 27.4501 64.1285 28.5365 64.2563C29.8358 64.4054 30.986 63.2978 30.8369 61.9984C30.8369 61.9558 30.8156 61.9132 30.8156 61.8493C30.6878 61.0186 30.4535 60.5074 30.9008 60.3157C31.3482 60.124 31.7529 59.7619 31.902 59.2933C32.1576 58.569 31.8168 57.6957 31.3056 57.2058Z" fill="#333333"/>
<path d="M22.5722 76.632C24.3828 76.8237 28.6216 76.845 31.199 76.632L30.7304 69.2193C30.6239 67.1958 30.56 65.3852 27.7057 64.9379C25.2987 64.7249 23.403 65.0444 23.19 67.6644C22.9769 70.7104 22.8704 73.5008 22.5722 76.632Z" fill="white"/>
<path d="M27.1945 65.1729H24.894C23.3817 65.1729 22.1462 66.4083 22.1462 67.9206V74.9073C22.1462 76.4196 23.3817 77.6551 24.894 77.6551H27.1945C28.7069 77.6551 29.9423 76.4196 29.9423 74.9073V67.9206C29.9636 66.4083 28.7282 65.1729 27.1945 65.1729Z" fill="#CCCCCC"/>
<path d="M24.7875 65.1729H22.5083C20.996 65.1729 19.7606 66.4083 19.7606 67.9206V74.9073C19.7606 76.4196 20.996 77.6551 22.5083 77.6551H24.8088C26.3212 77.6551 27.5566 76.4196 27.5566 74.9073V67.9206C27.5353 66.4083 26.3212 65.1729 24.7875 65.1729Z" fill="#E5E5E5"/>
<path d="M28.6217 67.0888C28.8347 66.535 29.2394 66.0877 29.7506 65.7895C29.5802 65.6404 29.3885 65.5126 29.1755 65.3848C29.1542 65.3848 29.1542 65.3848 29.1329 65.3848C28.7495 65.4487 28.1317 65.683 27.8335 66.109C28.153 66.3646 28.4512 66.6841 28.6217 67.0888Z" fill="#CCCCCC"/>
</svg>
