<svg width="48" height="48" viewBox="0 0 48 48" fill="none" xmlns="http://www.w3.org/2000/svg">
<circle cx="24" cy="24" r="24" transform="rotate(-180 24 24)" fill="black"/>
<path fill-rule="evenodd" clip-rule="evenodd" d="M19.8276 33.0565C19.2693 30.4028 19.0762 25.8654 19.5287 22.3002C19.6302 22.2177 19.7458 22.1218 19.873 22.0136C20.3578 21.6013 20.8427 21.1521 21.299 20.6774C22.0534 19.8925 22.6574 19.1142 23.06 18.3418C24.166 16.2099 24.5347 15.0874 24.7175 13.1436C24.747 12.8293 24.763 12.4696 24.7681 12.0701C24.7736 11.6375 24.7662 11.1812 24.7501 10.7288C24.782 10.7357 24.8217 10.7513 24.8766 10.776C26.4023 11.4614 27.6787 13.2991 27.2021 15.1318C26.6448 17.2748 26.5002 18.5216 26.6374 19.2193C26.6718 19.3941 26.7261 19.5503 26.8053 19.6906C27.0653 20.1517 27.5774 20.4107 28.1028 20.3469C28.157 20.3404 28.2665 20.3281 28.4247 20.312C28.6924 20.2847 28.9954 20.2574 29.327 20.2318C30.6843 20.1271 32.0728 20.0841 33.356 20.1374C34.1253 20.1694 34.8237 20.2356 35.4325 20.3382C36.2057 20.4686 36.3833 20.6966 36.3826 21.5066C36.3822 21.938 36.1613 22.5214 36.0279 22.6485C35.4677 23.1824 35.4905 24.083 36.0769 24.5878C36.1067 24.6135 36.1666 24.9884 36.0572 25.4586C35.9971 25.7169 35.8979 25.9474 35.79 26.0976C35.7666 26.1303 35.7458 26.155 35.7295 26.1716C35.0215 26.3553 34.5954 27.0916 34.8034 27.8046C35.1561 29.0141 35.0416 29.5916 34.2057 30.1732C33.8375 30.4293 33.6261 30.8562 33.6456 31.3044C33.6801 32.0973 33.5952 32.6103 33.4506 32.888C33.3918 33.0008 33.3504 33.0349 33.2617 33.0657C33.1666 33.0987 33.0826 33.1118 32.7705 33.1435C32.672 33.1535 32.6037 33.1614 32.53 33.1726C30.7876 33.4363 22.8704 33.3881 19.8276 33.0565ZM19.4117 18.8635C19.1979 19.086 18.9746 19.3039 18.7468 19.5146C18.6043 19.4804 18.4525 19.4697 18.2958 19.4871C15.1702 19.8338 13.65 19.7793 11.3174 19.149C10.5706 18.9472 9.81256 19.4338 9.6851 20.1969C8.61534 26.6014 8.44894 31.3808 9.77986 35.7418C9.93069 36.2361 10.3582 36.5953 10.8711 36.6587C15.4921 37.2301 16.523 37.1372 19.4274 35.9758C19.5972 35.9079 19.7452 35.8083 19.867 35.6864C23.4457 36.0213 31.0049 36.0508 32.9217 35.7607C32.9424 35.7575 32.9758 35.7537 33.0347 35.7477C33.3208 35.7187 33.3379 35.7168 33.4775 35.695C33.7012 35.6602 33.911 35.6112 34.1206 35.5384C35.4638 35.0718 36.2073 33.8549 36.2664 31.8757C37.4255 30.8326 37.7728 29.5618 37.5393 28.0559C38.6128 27.0121 39.0414 25.031 38.4876 23.6208C38.8049 22.9852 38.9996 22.2143 39.0002 21.5089C39.002 19.4619 37.947 18.1077 35.8678 17.7571C35.1413 17.6346 34.3364 17.5583 33.4647 17.5221C32.129 17.4666 30.7149 17.5059 29.3269 17.6069C29.4132 17.118 29.5469 16.5156 29.7354 15.7907C30.5859 12.5201 28.5174 9.54202 25.9493 8.38829C24.786 7.86568 23.699 8.10449 22.8901 8.80005C22.6074 9.04316 22.4136 9.28967 22.2912 9.49438C22.1559 9.72049 22.0921 9.98215 22.108 10.2451C22.1133 10.3329 22.1216 10.495 22.13 10.7091C22.1476 11.1596 22.1561 11.6161 22.1507 12.0367C22.1465 12.3711 22.1334 12.6636 22.1114 12.8986C21.9631 14.4756 21.6977 15.2835 20.742 17.1257C20.4695 17.6485 20.0082 18.2429 19.4117 18.8635ZM12.0574 34.1654C11.2081 30.7979 11.3043 26.9472 12.047 22.0112C13.6171 22.3249 15.0218 22.385 16.8982 22.2476C16.4363 26.1921 16.6746 31.0462 17.3517 33.9626C15.8421 34.4803 14.8781 34.496 12.0574 34.1654Z" fill="white"/>
</svg>
