<svg xmlns="http://www.w3.org/2000/svg" width="48" height="48" fill="none" viewBox="0 0 48 48">
    <path fill="#CCC" d="M42.278 42.914h1.59v1.59h-1.59v-1.59zM38.305 42.914h1.59v1.59h-1.59v-1.59zM15.258 42.914h17.484v1.59H15.258v-1.59zM34.331 42.914h1.59v1.59h-1.59v-1.59zM27.973 33.219c0-.636-.238-1.272-.715-1.67L24 28.292l-3.258 3.259c-.477.477-.716 1.033-.716 1.669v8.106h7.947v-8.106zm-2.702-1.43h-2.543L24 30.516l1.271 1.271zm-3.655 1.589h1.59v6.357h-1.59v-6.357zm3.179 6.357v-6.357h1.589v6.357h-1.59zM4.133 42.914h1.59v1.59h-1.59v-1.59zM8.106 42.914h1.59v1.59h-1.59v-1.59zM12.08 42.914h1.589v1.59h-1.59v-1.59zM5.722 34.649v3.497h4.768v-3.497l-2.384-2.384-2.384 2.384zm3.179 1.907h-1.59v-1.271l.795-.795.795.795v1.271zM21.616 15.1h4.768v1.589h-4.768v-1.59zM20.026 19.073h1.59v3.179h-1.59v-3.179zM23.205 19.073h1.59v3.179h-1.59v-3.179zM26.384 19.073h1.59v3.179h-1.59v-3.179z"/>
    <path fill="#CCC" d="M46.252 30.993H48l-1.112-5.563h-.636v-1.589h-1.59v1.59h-.953l-.795-4.769h-.636v-1.59H40.69v1.59h-.954l-.794-3.973h-.636v-1.59h-1.59v1.59h-.953l-.795-3.974h-.636v-1.59h-1.59v1.59h-.953l-.795-3.973h-.635v-1.59h-1.59v1.59h-1.986l-1.987-4.133V0h-1.59v4.61L21.22 8.741h-1.987v-1.59h-1.59v1.59h-.635l-.795 3.973h-.954v-1.59H13.67v1.59h-.636l-.795 3.974h-.953v-1.59h-1.59v1.59H9.06l-.795 3.973H7.31v-1.59H5.722v1.59h-.636l-.795 4.768h-.953v-1.589h-1.59v1.59h-.635L0 30.992h1.748v8.742H.16v7.947h47.682v-7.947h-1.59v-8.742zm-11.126 8.742v-8.742h9.537v8.742h-9.537zM1.907 29.404l.477-2.384h10.49v2.384H1.907zm12.557-2.384h1.59v11.92h-1.59V27.02zm.476-1.59L24 6.596l9.06 18.834H14.94zm17.007 1.59h1.59v11.92h-1.59V27.02zm14.146 2.384H35.126V27.02h10.49l.477 2.384zm-9.378-3.974v-1.589h-1.589v1.59h-.318l-1.51-3.18h8.344l.557 3.18h-5.484zm-4.212-4.768l-1.112-2.384h6.278l.477 2.384h-5.643zm-1.907-3.973l-1.112-2.384h4.211l.477 2.384h-3.576zm-.874-6.358l.477 2.384h-1.51l-1.113-2.384h2.146zm-11.444 0h2.146l-1.113 2.384h-1.51l.477-2.384zm-3.973 3.974h4.211l-1.112 2.384h-3.497l.398-2.384zm-3.974 3.973h6.278l-1.112 2.384H9.934l.397-2.384zm-3.973 3.974h8.344l-1.51 3.178h-.318v-1.589h-1.59v1.59H5.882l.477-3.18zm-3.02 8.741h9.536v8.742H3.338v-8.742zm42.914 15.1H1.748v-4.768h12.716v-.795h3.179V27.02h12.715v13.51h3.179v.795h12.715v4.768z"/>
    <path fill="#CCC" d="M39.894 32.265l-2.384 2.384v3.497h4.768v-3.497l-2.384-2.384zm.795 4.291h-1.59v-1.271l.795-.795.795.795v1.271z"/>
</svg>
