<?xml version="1.0" encoding="utf-8"?>
<!-- Generator: Adobe Illustrator 23.1.0, SVG Export Plug-In . SVG Version: 6.00 Build 0)  -->
<svg version="1.1" id="Layer_1" xmlns="http://www.w3.org/2000/svg" xmlns:xlink="http://www.w3.org/1999/xlink" x="0px" y="0px"
	 viewBox="0 0 80 28" style="enable-background:new 0 0 80 28;" xml:space="preserve">
<style type="text/css">
	.st0{fill-rule:evenodd;clip-rule:evenodd;fill:#53C1BA;}
</style>
<g>
	<path class="st0" d="M9.9,3c5.2,0,8.1,3,8.1,5c0,1.7-1.5,2.8-3.1,2.8c-2.2,0-3.1-2.2-5.2-2.2c-1.5,0-2.1,0.6-2.1,1.2
		c0,2.1,11,1.2,11,8c0,3.8-3.3,7.1-9.9,7.1c-2.6,0-8.5-1.4-8.5-4.9c0-1.6,1.4-3,3-3c2.3,0,3.2,2.2,5.5,2.2c2.2,0,3-0.7,3-1.5
		c0-1.7-11-0.9-11-8C1.1,6.1,4,3,9.9,3z"/>
	<g>
		<g>
			<path class="st0" d="M25.8,3c2,0,3.7,1.6,3.7,3.7s-1.6,3.7-3.7,3.7s-3.7-1.6-3.7-3.7S23.8,3,25.8,3L25.8,3z M22.5,6.7
				c0,1.8,1.5,3.3,3.3,3.3c0.7,0,1.4-0.2,1.8-0.6c-0.9-0.6-1.5-1.6-1.8-2.7s-0.4-2.2,0-3.3C24,3.3,22.5,4.8,22.5,6.7z"/>
			<path class="st0" d="M33.8,3c2,0,3.7,1.6,3.7,3.7s-1.6,3.7-3.7,3.7c-2,0-3.7-1.6-3.7-3.7S31.8,3,33.8,3L33.8,3z M30.6,6.7
				c0,1.8,1.5,3.3,3.3,3.3c0.7,0,1.4-0.2,1.8-0.6c-0.9-0.6-1.5-1.6-1.8-2.7c-0.4-1.1-0.4-2.2,0-3.3C32.1,3.3,30.6,4.8,30.6,6.7z"/>
		</g>
		<path class="st0" d="M29.9,25c2.5,0,9.5-0.7,9.5-4.1v-6.5c0-1.4-1.1-2.6-2.6-2.6H36c-1.5,0-2.6,1.1-2.6,2.6v2.2
			c0,1.4-1.6,2.6-3.7,2.6s-3.7-1.1-3.7-2.6v-2.2c0-1.4-1.1-2.6-2.6-2.6h-0.7c-1.5,0-2.6,1.1-2.6,2.6V21C20.4,24.2,27.4,25,29.9,25z"
			/>
	</g>
	<path class="st0" d="M40.8,6.3v15.4c0,1.8,1.5,3.3,3.3,3.3s3.3-1.5,3.3-3.3v-3.3h3.9l0,0c4.2,0,7.6-3.4,7.6-7.6s-3.4-7.6-7.6-7.6
		l0,0h-7.3l0,0C42.3,3,40.8,4.5,40.8,6.3L40.8,6.3z M50.7,12.6h-3.3V8.9h3.3c1,0,1.8,0.9,1.8,1.8S51.7,12.6,50.7,12.6z"/>
	<path class="st0" d="M60.5,6.3v15.4c0,1.8,1.5,3.3,3.3,3.3s3.3-1.5,3.3-3.3v-3.3h2.1l4.6,5.4c1.1,1.4,3.2,1.6,4.7,0.4
		c1.4-1.1,1.6-3.2,0.4-4.7l-2.6-3.1c1.6-1.4,2.6-3.4,2.6-5.8c0-4.3-3.4-7.8-7.8-7.6h-7.3C62,3,60.5,4.5,60.5,6.3L60.5,6.3z
		 M70.5,12.6h-3.3V8.9h3.3c1,0,1.8,0.9,1.8,1.8S71.5,12.6,70.5,12.6z"/>
</g>
</svg>
