<svg width="48" height="48" viewBox="0 0 48 48" fill="none" xmlns="http://www.w3.org/2000/svg">
<circle cx="24" cy="24" r="23.7105" stroke="#999999" stroke-width="0.578947"/>
<path fill-rule="evenodd" clip-rule="evenodd" d="M27.4182 18.414C27.7599 20.0381 27.8781 22.8151 27.6011 24.9971C27.539 25.0476 27.4682 25.1063 27.3904 25.1725C27.0937 25.4248 26.7969 25.6997 26.5177 25.9903C26.0559 26.4707 25.6863 26.947 25.4399 27.4197C24.763 28.7245 24.5373 29.4115 24.4255 30.6011C24.4074 30.7935 24.3976 31.0136 24.3945 31.2581C24.3911 31.5229 24.3956 31.8021 24.4055 32.079C24.386 32.0748 24.3617 32.0652 24.3281 32.0502C23.3943 31.6307 22.6131 30.506 22.9048 29.3843C23.2459 28.0728 23.3344 27.3097 23.2504 26.8827C23.2294 26.7757 23.1961 26.6801 23.1477 26.5942C22.9886 26.312 22.6751 26.1535 22.3535 26.1925C22.3204 26.1965 22.2534 26.2041 22.1566 26.2139C21.9928 26.2306 21.8073 26.2474 21.6043 26.263C20.7737 26.3271 19.9239 26.3534 19.1385 26.3207C18.6677 26.3012 18.2402 26.2607 17.8676 26.1978C17.3944 26.1181 17.2857 25.9785 17.2862 25.4828C17.2864 25.2188 17.4216 24.8617 17.5033 24.7839C17.8461 24.4572 17.8321 23.906 17.4733 23.597C17.455 23.5813 17.4184 23.3518 17.4853 23.0641C17.5221 22.906 17.5828 22.7649 17.6488 22.673C17.6632 22.653 17.6759 22.6379 17.6859 22.6277C18.1192 22.5153 18.3799 22.0646 18.2527 21.6283C18.0368 20.888 18.1069 20.5346 18.6185 20.1787C18.8438 20.0219 18.9732 19.7606 18.9613 19.4863C18.9402 19.001 18.9921 18.6871 19.0806 18.5171C19.1166 18.4481 19.1419 18.4272 19.1962 18.4084C19.2544 18.3882 19.3059 18.3802 19.4969 18.3608C19.5571 18.3547 19.5989 18.3498 19.644 18.343C20.7104 18.1815 25.5559 18.2111 27.4182 18.414ZM27.6727 27.1004C27.8036 26.9643 27.9403 26.8309 28.0796 26.7019C28.1669 26.7229 28.2598 26.7294 28.3557 26.7188C30.2686 26.5066 31.199 26.5399 32.6266 26.9257C33.0837 27.0492 33.5476 26.7514 33.6256 26.2844C34.2803 22.3647 34.3822 19.4396 33.5676 16.7705C33.4753 16.468 33.2136 16.2482 32.8998 16.2094C30.0716 15.8597 29.4407 15.9165 27.6631 16.6273C27.5592 16.6689 27.4686 16.7299 27.3941 16.8045C25.2038 16.5995 20.5774 16.5814 19.4043 16.759C19.3916 16.7609 19.3712 16.7633 19.3352 16.7669C19.16 16.7847 19.1496 16.7858 19.0642 16.7991C18.9272 16.8205 18.7988 16.8505 18.6706 16.895C17.8485 17.1806 17.3935 17.9253 17.3573 19.1367C16.6479 19.7751 16.4353 20.5528 16.5782 21.4745C15.9212 22.1133 15.6589 23.3258 15.9978 24.1889C15.8037 24.5778 15.6845 25.0497 15.6841 25.4814C15.683 26.7342 16.3287 27.563 17.6012 27.7776C18.0459 27.8525 18.5385 27.8992 19.072 27.9214C19.8894 27.9554 20.7549 27.9313 21.6044 27.8695C21.5516 28.1687 21.4698 28.5374 21.3544 28.9811C20.8338 30.9827 22.0998 32.8054 23.6716 33.5115C24.3835 33.8313 25.0488 33.6852 25.5438 33.2595C25.7169 33.1107 25.8355 32.9598 25.9104 32.8345C25.9932 32.6961 26.0323 32.536 26.0225 32.375C26.0193 32.3213 26.0142 32.2221 26.0091 32.0911C25.9983 31.8154 25.9931 31.536 25.9964 31.2786C25.999 31.0739 26.0069 30.8949 26.0205 30.7511C26.1112 29.7859 26.2736 29.2915 26.8585 28.164C27.0253 27.844 27.3076 27.4802 27.6727 27.1004ZM32.1737 17.7353C32.6935 19.7963 32.6346 22.153 32.1801 25.1739C31.2191 24.982 30.3594 24.9452 29.211 25.0292C29.4937 22.6152 29.3479 19.6443 28.9335 17.8594C29.8574 17.5426 30.4474 17.533 32.1737 17.7353Z" fill="#999999"/>
</svg>
