<svg xmlns="http://www.w3.org/2000/svg" width="193" height="145" fill="none" viewBox="0 0 193 145">
    <path fill="#fff" fill-opacity=".15" fill-rule="evenodd" d="M113.596 0c-7.337 0-13.306 5.97-13.306 13.306 0 7.338 5.969 13.307 13.306 13.307 7.337 0 13.307-5.97 13.307-13.307C126.903 5.97 120.933 0 113.596 0zm0 20.948c-4.214 0-7.642-3.428-7.642-7.642s3.428-7.642 7.642-7.642 7.642 3.428 7.642 7.642-3.428 7.643-7.642 7.643zm14.165 10.814c0-7.337 5.969-13.306 13.306-13.306 7.337 0 13.306 5.969 13.306 13.306 0 7.337-5.969 13.306-13.306 13.306-7.337 0-13.306-5.969-13.306-13.306zm5.664 0c0 4.214 3.428 7.642 7.642 7.642s7.642-3.428 7.642-7.642-3.428-7.642-7.642-7.642-7.642 3.428-7.642 7.642zm31.006 1.656h16.567c6.559 0 11.895 5.336 11.895 11.895v87.789c0 6.559-5.336 11.895-11.895 11.895L71.116 145c-6.56 0-11.895-5.336-11.895-11.895V46.017c0-.08.006-.157.012-.236a12.16 12.16 0 0 1-.012-.468c0-6.56 5.336-11.895 11.895-11.895h18.74a2.832 2.832 0 1 1 0 5.664h-18.74a6.238 6.238 0 0 0-6.23 6.23 6.238 6.238 0 0 0 6.23 6.231h47.153v-8.638a2.832 2.832 0 1 1 5.664 0v8.638h41.772c6.559 0 11.895 5.336 11.895 11.895v20.906h2.916a6.72 6.72 0 0 0 6.713-6.712v-32.32a6.238 6.238 0 0 0-6.231-6.23h-16.567a2.832 2.832 0 0 1 0-5.664zm1.405 105.915a6.237 6.237 0 0 0 6.1-6.228v-13.643h-25.488c-9.682 0-17.559-7.877-17.559-17.559 0-9.682 7.877-17.559 17.559-17.559h25.488V63.438a6.238 6.238 0 0 0-6.231-6.231h-94.59c-2.283 0-4.416-.648-6.23-1.767v77.665a6.238 6.238 0 0 0 6.23 6.231h94.525l.049-.003H165.836zm15.162 0a6.238 6.238 0 0 0 6.231-6.231v-16.203a13.52 13.52 0 0 1-7.93 2.563H177.6v13.644c0 2.282-.647 4.414-1.766 6.227h5.164zm-1.699-25.535c4.373 0 7.93-3.557 7.93-7.93V88.022a12.299 12.299 0 0 1-6.713 1.987h-34.068c-6.559 0-11.895 5.336-11.895 11.894 0 6.559 5.336 11.895 11.895 11.895h32.851zM160.325 4.718h1.607a2.832 2.832 0 0 1 0 5.664h-1.607v1.607a2.832 2.832 0 0 1-5.664 0v-1.607h-1.607a2.832 2.832 0 0 1 0-5.664h1.607V3.11a2.832 2.832 0 0 1 5.664 0v1.607zm-55.886 22.965a2.832 2.832 0 0 0-2.832 2.832v11.47a2.832 2.832 0 0 0 5.664 0v-11.47a2.832 2.832 0 0 0-2.832-2.832zm43.728 71.74c.747 0 1.475.304 2.005.831a2.85 2.85 0 0 1 .83 2.002 2.85 2.85 0 0 1-.83 2.002c-.53.53-1.258.83-2.005.83-.745 0-1.473-.3-2.003-.83a2.85 2.85 0 0 1-.826-2.002c0-.745.3-1.476.826-2.002a2.86 2.86 0 0 1 2.003-.83zm-70.16-25.79a2.832 2.832 0 0 0-2.832 2.832v23.317a2.832 2.832 0 1 0 5.664 0V76.465a2.832 2.832 0 0 0-2.832-2.832zm-.001 33.089c.748 0 1.475.303 2.002.83.53.527.83 1.257.83 2.002 0 .745-.3 1.476-.83 2.002a2.848 2.848 0 0 1-2.002.83 2.853 2.853 0 0 1-2.002-.83 2.851 2.851 0 0 1-.83-2.002c0-.745.303-1.475.83-2.002a2.853 2.853 0 0 1 2.002-.83zM39.736 50.48H38.41v-1.326a2.337 2.337 0 1 0-4.674 0v1.326H32.41a2.337 2.337 0 1 0 0 4.674h1.326v1.326a2.337 2.337 0 1 0 4.674 0v-1.326h1.326a2.337 2.337 0 1 0 0-4.674zM22 101.31c3.931 0 7-3.242 7-7.094 0-3.852-3.069-7.094-7-7.094s-7 3.242-7 7.094c0 3.852 3.069 7.094 7 7.094zm4-7.094c0 2.261-1.79 4.094-4 4.094s-4-1.833-4-4.094c0-2.26 1.79-4.094 4-4.094s4 1.833 4 4.094z" clip-rule="evenodd"/>
</svg>
