<svg xmlns="http://www.w3.org/2000/svg" width="96" height="104" fill="none" viewBox="0 0 96 104">
    <ellipse cx="46" cy="97.5" fill="#E5E5E5" rx="43" ry="6.5"/>
    <g fill="#52C2BB" clip-path="url(#a)">
        <path d="M40.609 86.8a4.092 4.092 0 0 0-4.088-4.087 4.092 4.092 0 0 0-4.088 4.088 4.093 4.093 0 0 0 4.088 4.088 4.093 4.093 0 0 0 4.088-4.088zm-4.088 1.276a1.277 1.277 0 0 1-1.276-1.275 1.277 1.277 0 0 1 2.551 0c0 .703-.572 1.275-1.275 1.275zM54.486 9.236L39.93 34.64c-1.391 2.428.263 5.546 2.982 5.546h29.109c2.718 0 4.373-3.117 2.981-5.546L60.45 9.236c-1.353-2.361-4.612-2.358-5.963 0zm17.536 28.137h-29.11c-.514 0-.874-.753-.54-1.336l14.554-25.402c.272-.474.81-.476 1.082 0l14.555 25.402c.336.586-.03 1.336-.541 1.336z"/>
        <path d="M57.451 30.738a1.8 1.8 0 0 0-1.814 1.815c0 .966.777 1.814 1.814 1.814.966 0 1.791-.848 1.791-1.814 0-.99-.825-1.815-1.79-1.815zM55.707 18.438c0 2.804.33 6.834.33 9.638 0 .73.636 1.036 1.39 1.036.566 0 1.367-.306 1.367-1.036 0-2.805.33-6.834.33-9.638 0-.919-.778-1.437-1.697-1.437-.966 0-1.72.518-1.72 1.437z"/>
        <path d="M85.484 22.654c.777 0 1.406-.63 1.406-1.406V6.558A6.565 6.565 0 0 0 80.333 0H16.454c-4.05 0-7.345 3.295-7.345 7.345v81.31c0 4.05 3.295 7.345 7.345 7.345h16.785a1.406 1.406 0 1 0 0-2.813H16.454a4.537 4.537 0 0 1-4.532-4.532V7.345a4.537 4.537 0 0 1 4.532-4.532H29.22a6.594 6.594 0 0 0-1.177 3.744v5.521H17.538a3.374 3.374 0 0 0-3.37 3.37v61.957a3.374 3.374 0 0 0 3.37 3.37h37.964a3.374 3.374 0 0 0 3.371-3.37V49.346h2.246v39.31a4.537 4.537 0 0 1-4.532 4.531H39.802a1.406 1.406 0 1 0 0 2.813h16.785c4.05 0 7.345-3.295 7.345-7.345V49.346h6.033c.11 0 .2.09.2.2v11.056c0 1.855 1.66 3.277 3.484 2.975 7.54-1.251 13.242-7.805 13.242-15.637V27.81a1.406 1.406 0 1 0-2.813 0v20.13c0 6.406-4.58 11.815-10.89 12.862a.159.159 0 0 1-.137-.04.207.207 0 0 1-.074-.16V49.545a3.015 3.015 0 0 0-3.012-3.012H34.601a3.749 3.749 0 0 1-3.745-3.744V6.557A3.749 3.749 0 0 1 34.6 2.812h45.733a3.749 3.749 0 0 1 3.744 3.745v14.69c0 .778.63 1.407 1.406 1.407zm-60.47-7.763h3.029v6.243h-3.03v-6.243zm-8.034.557c0-.307.25-.558.558-.558h4.663v6.244h-5.22v-5.686zM34.6 49.347h21.46v28.059c0 .308-.25.558-.558.558H17.538a.559.559 0 0 1-.558-.558V23.947h11.063v18.842a6.565 6.565 0 0 0 6.557 6.557z"/>
    </g>
    <defs>
        <clipPath id="a">
            <path fill="#fff" d="M0 0h96v96H0z"/>
        </clipPath>
    </defs>
</svg>
