<svg xmlns="http://www.w3.org/2000/svg" width="157" height="123" fill="none" viewBox="0 0 157 123">
    <ellipse cx="79.5" cy="116" fill="#E5E5E5" rx="52.5" ry="7"/>
    <mask id="a" fill="#fff">
        <path d="M118.437 62.032h-2.893a6.27 6.27 0 0 0 .865-3.181c-.048-6.712.188-7.332-.455-9.19-1.923-5.565-7.351-8.904-11.397-8.904-2.448-.001-3.853 1.127-4.878 1.555v-2.005c0-4.891-1.854-7.424-4.219-14.216V21.13A3.133 3.133 0 0 0 92.33 18H76.25a3.133 3.133 0 0 0-3.129 3.13v4.962c-2.366 6.796-4.22 9.325-4.22 14.215v10.13c-1.114-6.979-5.95-10.002-11.305-5.589-1.366-1.448-2.924-2.23-4.502-2.23-2.219 0-4.355 1.503-6.014 4.233-1.337 2.197-2.167 4.893-2.167 7.036 0 4.255 3.266 7.76 7.423 8.145H41.563a1.562 1.562 0 1 0 0 3.125h1.857v4.034a5.79 5.79 0 0 0 5.782 5.783h61.596a5.79 5.79 0 0 0 5.783-5.783v-4.034h1.856a1.563 1.563 0 1 0 0-3.125zm-23.164-6.18c-3.29 0-5.963 2.813-5.683 6.177h-.467c-1.214 0-2.201-.988-2.201-2.202v-5.921h17.446c.783 3.911 4.543 6.718 8.712 6.052a3.18 3.18 0 0 1-2.975 2.07h-9.147a5.712 5.712 0 0 0-5.685-6.177zm2.538 6.177h-5.075a2.584 2.584 0 0 1 2.537-3.053 2.583 2.583 0 0 1 2.538 3.053zm9.79-8.123h5.682v2.802a4.535 4.535 0 0 1-5.682-2.802zm-3.573-9.993c2.974-.36 7.599 2.523 9.005 6.868H89.757s12.944-6.707 14.271-6.868zM76.25 21.125l16.085.004v3.688H76.248l.002-3.692zm-.49 6.817H92.82c2.72 7.224 2.968 7.549 3.334 9.05H72.427c.367-1.505.644-1.91 3.333-9.05zm-3.733 17.496h1.723a1.563 1.563 0 0 0 0-3.125h-1.723c.002-5.638-.003-1.627.004-2.195H96.55c.008.61.002-4.67.004 2.195H86.25a1.562 1.562 0 1 0 0 3.125h10.304v-1.56c-11.375 5.705-11.107 5.447-11.784 6.194a3.796 3.796 0 0 0-.973 2.532c.002 7.543-.166 8.017.477 9.428H72.027V45.438zm-3.125 9.813v6.78H53.859a8.097 8.097 0 0 0 3.16-.966 8.188 8.188 0 0 0 11.883-5.814zm-9.851-7.524c.982-.926 2.647-2.107 3.948-1.749 2.412.662 3.52 6.274 2.72 9.193-1.03 3.75-5.731 4.943-8.412 2.276-2.942-2.888-1.217-6.925 1.744-9.72zm-11.013 6.16c0-3.028 2.563-8.144 5.056-8.144.724 0 1.54.478 2.321 1.342-2.968 3.752-3.915 7.966-1.078 11.705-3.204.809-6.299-1.625-6.299-4.903zm65.418 15.304a2.662 2.662 0 0 1-2.658 2.658H49.202a2.66 2.66 0 0 1-2.657-2.658v-4.034h66.911v4.034z"/>
    </mask>
    <path fill="#52C2BB" d="M118.437 62.032h-2.893a6.27 6.27 0 0 0 .865-3.181c-.048-6.712.188-7.332-.455-9.19-1.923-5.565-7.351-8.904-11.397-8.904-2.448-.001-3.853 1.127-4.878 1.555v-2.005c0-4.891-1.854-7.424-4.219-14.216V21.13A3.133 3.133 0 0 0 92.33 18H76.25a3.133 3.133 0 0 0-3.129 3.13v4.962c-2.366 6.796-4.22 9.325-4.22 14.215v10.13c-1.114-6.979-5.95-10.002-11.305-5.589-1.366-1.448-2.924-2.23-4.502-2.23-2.219 0-4.355 1.503-6.014 4.233-1.337 2.197-2.167 4.893-2.167 7.036 0 4.255 3.266 7.76 7.423 8.145H41.563a1.562 1.562 0 1 0 0 3.125h1.857v4.034a5.79 5.79 0 0 0 5.782 5.783h61.596a5.79 5.79 0 0 0 5.783-5.783v-4.034h1.856a1.563 1.563 0 1 0 0-3.125zm-23.164-6.18c-3.29 0-5.963 2.813-5.683 6.177h-.467c-1.214 0-2.201-.988-2.201-2.202v-5.921h17.446c.783 3.911 4.543 6.718 8.712 6.052a3.18 3.18 0 0 1-2.975 2.07h-9.147a5.712 5.712 0 0 0-5.685-6.177zm2.538 6.177h-5.075a2.584 2.584 0 0 1 2.537-3.053 2.583 2.583 0 0 1 2.538 3.053zm9.79-8.123h5.682v2.802a4.535 4.535 0 0 1-5.682-2.802zm-3.573-9.993c2.974-.36 7.599 2.523 9.005 6.868H89.757s12.944-6.707 14.271-6.868zM76.25 21.125l16.085.004v3.688H76.248l.002-3.692zm-.49 6.817H92.82c2.72 7.224 2.968 7.549 3.334 9.05H72.427c.367-1.505.644-1.91 3.333-9.05zm-3.733 17.496h1.723a1.563 1.563 0 0 0 0-3.125h-1.723c.002-5.638-.003-1.627.004-2.195H96.55c.008.61.002-4.67.004 2.195H86.25a1.562 1.562 0 1 0 0 3.125h10.304v-1.56c-11.375 5.705-11.107 5.447-11.784 6.194a3.796 3.796 0 0 0-.973 2.532c.002 7.543-.166 8.017.477 9.428H72.027V45.438zm-3.125 9.813v6.78H53.859a8.097 8.097 0 0 0 3.16-.966 8.188 8.188 0 0 0 11.883-5.814zm-9.851-7.524c.982-.926 2.647-2.107 3.948-1.749 2.412.662 3.52 6.274 2.72 9.193-1.03 3.75-5.731 4.943-8.412 2.276-2.942-2.888-1.217-6.925 1.744-9.72zm-11.013 6.16c0-3.028 2.563-8.144 5.056-8.144.724 0 1.54.478 2.321 1.342-2.968 3.752-3.915 7.966-1.078 11.705-3.204.809-6.299-1.625-6.299-4.903zm65.418 15.304a2.662 2.662 0 0 1-2.658 2.658H49.202a2.66 2.66 0 0 1-2.657-2.658v-4.034h66.911v4.034z"/>
    <path fill="#52C2BB" d="M115.544 62.032l-.863-.506-.884 1.506h1.747v-1zm.865-3.181h1v-.007l-1 .007zm-.455-9.19l.946-.326-.946.326zm-11.397-8.904v1-1zm-4.878 1.555h-1v1.502l1.385-.58-.385-.922zm-4.219-16.22h-1v.169l.056.16.944-.33zm-22.339 0l.945.328.055-.16v-.169h-1zm-4.22 24.346l-.987.157 1.988-.157h-1zm-11.305-5.59l-.727.686.642.68.721-.594-.636-.772zM47.08 46.851l.854.52-.854-.52zm5.256 15.18v1l.092-1.995-.092.996zm-8.916 3.126h1v-1h-1v1zm73.161 0v-1h-1v1h1zM89.59 62.029v1h1.087l-.09-1.083-.997.083zm-2.668-8.123v-1h-1v1h1zm17.446 0l.981-.197-.161-.803h-.82v1zm8.712 6.052l.937.35.601-1.608-1.695.27.157.988zm-12.122 2.07l-.997-.081-.089 1.082h1.086v-1zm-3.147 0v1h.83l.153-.816-.983-.183zm-5.075 0l-.983.184.152.817h.831v-1zm14.865-8.122v-1h-1.414l.471 1.332.943-.332zm5.682 0h1v-1h-1v1zm0 2.802l.31.95.69-.224v-.726h-1zm-9.255-12.795l.12.993h.001l-.121-.993zm9.005 6.868v1h1.374l-.423-1.308-.951.308zm-23.276 0l-.46-.888.46 1.888v-1zM76.25 21.125v-1h-.999v1h1zm16.085.004h1v-1h-1v1zm0 3.688v1h1v-1h-1zm-16.087 0h-1l-.001 1h1v-1zm-.488 3.125v-1h-.692l-.244.648.936.352zm17.061 0l.936-.352-.244-.648h-.692v1zm3.334 9.05v1h1.273l-.302-1.236-.971.237zm-23.728 0l-.972-.236-.302 1.237h1.274v-1zm-.4 8.446v-1h-1v1h1zm0-3.125h-1v1h1v-1zm.004-2.195v-1h-.987l-.013.987 1 .013zm24.519 0l1-.014-.014-.986h-.986v1zm.004 2.195v1h1v-1h-1zm0 3.125v1h1v-1h-1zm0-1.56h1v-1.62l-1.448.726.448.894zM84.77 50.072l.741.672-.74-.672zm-.973 2.532h-1 1zm.477 9.428v1h1.555l-.645-1.415-.91.415zm-12.247 0h-1v1h1v-1zm-3.125-6.78h1l-1.983-.184.983.183zm0 6.78v1h1v-1h-1zm-15.043 0l-.093-.996.093 1.996v-1zm3.16-.967l.466-.885-.475-.25-.472.258.482.877zm2.032-13.338L58.365 47l.686.727zm3.948-1.749l-.265.965.265-.965zm2.72 9.193l.964.265-.964-.265zm-8.412 2.276l.705-.71-.005-.004-.7.714zm-1.892-10.362l.784.62.525-.663-.567-.628-.742.67zM54.337 58.79l.244.97 1.466-.371-.914-1.204-.797.605zm-7.792 6.367v-1h-1v1h1zm66.911 0h1v-1h-1v1zm4.981-4.125h-2.893v2h2.893v-2zm-2.031 1.506a7.261 7.261 0 0 0 1.003-3.687h-2c0 .975-.266 1.888-.728 2.675l1.725 1.012zm1.003-3.694c-.024-3.3.022-5.208-.005-6.43-.029-1.307-.143-2.033-.504-3.08l-1.891.654c.281.811.37 1.324.396 2.47.027 1.23-.021 2.988.004 6.4l2-.014zm-.509-9.51c-2.058-5.952-7.854-9.577-12.343-9.577v2c3.603 0 8.662 3.053 10.452 8.23l1.891-.653zm-12.342-9.577c-2.716-.002-4.506 1.315-5.265 1.632l.771 1.846c1.292-.54 2.312-1.48 4.493-1.478l.001-2zm-3.879 2.555v-.013-.013-.012-.013-.012-.012-.012-.013-.012-.012-.011-.012-.012-.011-.012-.011-.011-.011-.011-.011-.011-.011-.01-.012-.01-.01V42v-.011-.01-.01-.01-.01-.01-.01-.01-.01-.009-.01-.009-.009-.009-.01-.008-.009-.009-.009-.008-.009-.008-.009-.008-.008-.009-.008-.008-.008-.008-.008-.007-.008-.008-.007-.008-.007-.007-.007-.008-.006-.008-.006-.007-.007-.007-.006-.007-.006-.007-.006-.006-.007-.006-.006-.006-.006-.006-.006-.005-.006-.006-.005-.006-.005-.005-.006-.005-.005-.005-.005-.005-.005-.005-.005-.005-.004-.005-.005-.004-.005-.004-.004-.005-.004-.004-.004-.004-.004-.004-.004-.004-.004-.003-.004-.004-.003-.004-.003-.003-.004-.003-.003-.004-.003-.003-.003-.003-.003-.003-.003-.002-.003-.003-.003-.002-.003-.002-.003-.002-.003-.002-.002-.003-.002-.002-.002-.002-.003-.002-.002-.002-.002-.001-.002-.002-.002-.002-.001-.002-.002-.001-.002-.001-.002-.001-.002-.002-.002-.002-.001-.002-.002-.002-.001-.001-.001-.001-.002-.002-.001-.002-.001-.001-.002-.001-.001-.001-.001-.001-.001-.001-.001h-2v.004h2v-.001-.001-.001-.001-.001-.001-.002-.001-.001-.001-.002-.001-.002-.001-.001-.001-.001-.001-.001-.001-.001-.001-.001-.002-.002-.001-.002-.002-.002-.002-.002-.001-.002-.002-.001-.002-.002-.001-.002-.002-.002-.002-.002-.001-.002-.003-.002-.002-.002-.002-.002-.003-.002-.002-.003-.002-.003-.002-.003-.002-.003-.003-.003-.002-.003-.003-.003-.003-.003-.003-.004-.003-.003-.003-.004-.003-.004-.003-.004-.003-.004-.004-.003-.004-.004-.004-.004-.004-.004-.004-.005-.004-.004-.005-.004-.005-.004-.005-.004-.005-.005-.005-.005-.005-.005-.005-.005-.005-.006-.005-.005-.006-.005-.006-.006-.005-.006-.006-.006-.006-.006-.006-.007-.006-.006-.007-.006-.007-.006-.007-.007-.007-.007-.007-.007-.007-.007-.007-.008-.007-.008-.007-.008-.008-.008-.007-.008-.008-.008-.009-.008-.008-.009-.008-.009-.009-.008-.01-.008-.01-.008-.01-.009-.009-.01-.009-.01-.01-.009-.01-.01-.01-.01-.01-.01-.01-.011-.01-.011-.011-.01-.012-.01-.012h-2V41.204h2v-.001-.001-.001-.001h-2V42.313h2zm0-2.005c0-2.596-.498-4.571-1.283-6.736-.386-1.066-.85-2.196-1.35-3.451a101.044 101.044 0 0 1-1.642-4.357l-1.888.657a102.926 102.926 0 0 0 1.672 4.44c.512 1.283.956 2.366 1.328 3.393.733 2.022 1.163 3.76 1.163 6.054h2zM96.46 26.091V21.13h-2v4.962h2zm0-4.962A4.133 4.133 0 0 0 92.33 17v2c1.174 0 2.13.956 2.13 2.13h2zM92.33 17H76.25v2h16.08v-2zm-16.08 0a4.133 4.133 0 0 0-4.129 4.13h2c0-1.174.956-2.13 2.13-2.13v-2zm-4.129 4.13v4.962h2v-4.963h-2zm.056 4.633a101.06 101.06 0 0 1-1.642 4.358c-.501 1.256-.964 2.386-1.35 3.452-.786 2.165-1.283 4.138-1.283 6.734h2c0-2.294.43-4.03 1.162-6.052.373-1.027.817-2.11 1.329-3.392a103.133 103.133 0 0 0 1.673-4.443l-1.89-.657zm-4.275 14.544v10.13h2v-10.13h-2zm1.987 9.973c-.582-3.648-2.174-6.508-4.58-7.792-2.487-1.327-5.47-.784-8.349 1.588l1.273 1.544c2.475-2.041 4.587-2.193 6.135-1.367 1.63.87 3.014 3.011 3.546 6.342l1.975-.315zm-11.565-6.118c-1.498-1.587-3.303-2.544-5.23-2.544v2c1.23 0 2.54.608 3.775 1.916l1.455-1.372zm-5.23-2.544c-2.708 0-5.115 1.829-6.87 4.714l1.71 1.039c1.565-2.576 3.43-3.753 5.16-3.753v-2zm-6.869 4.714c-1.412 2.322-2.312 5.195-2.312 7.555h2c0-1.926.76-4.444 2.02-6.516l-1.708-1.04zm-2.312 7.555c0 4.777 3.665 8.709 8.33 9.14l.185-1.99c-3.648-.338-6.515-3.417-6.515-7.15h-2zm8.423 7.145H41.563v2H52.336v-2zm-10.773 0A2.562 2.562 0 0 0 39 63.594h2c0-.31.252-.562.563-.562v-2zM39 63.594a2.562 2.562 0 0 0 2.563 2.563v-2a.562.562 0 0 1-.563-.563h-2zm2.563 2.563h1.857v-2h-1.858v2zm.857-1v4.034h2v-4.034h-2zm0 4.034a6.79 6.79 0 0 0 6.782 6.783v-2a4.79 4.79 0 0 1-4.782-4.783h-2zm6.782 6.783h61.596v-2H49.202v2zm61.596 0a6.79 6.79 0 0 0 6.783-6.783h-2a4.79 4.79 0 0 1-4.783 4.783v2zm6.783-6.783v-4.034h-2v4.034h2zm-1-3.034h1.856v-2h-1.856v2zm1.856 0A2.562 2.562 0 0 0 121 63.594h-2c0 .311-.252.563-.563.563v2zM121 63.594a2.562 2.562 0 0 0-2.563-2.562v2c.311 0 .563.252.563.562h2zm-25.727-8.743c-3.866 0-7.01 3.304-6.68 7.26l1.993-.165c-.23-2.772 1.972-5.095 4.687-5.095v-2zM89.59 61.03h-.467v2h.467v-2zm-.467 0c-.662 0-1.201-.54-1.201-1.202h-2a3.203 3.203 0 0 0 3.2 3.202v-2zm-1.201-1.202v-5.921h-2v5.921h2zm-1-4.921h17.446v-2H86.922v2zm16.466-.804c.884 4.42 5.132 7.597 9.85 6.843l-.315-1.975c-3.621.579-6.893-1.857-7.574-5.26l-1.961.392zm8.756 5.506a2.181 2.181 0 0 1-2.039 1.42v2a4.18 4.18 0 0 0 3.912-2.72l-1.873-.7zm-2.039 1.42h-9.147v2h9.147v-2zm-8.151 1.083c.014-.171.025-.358.025-.553h-2c0 .12-.007.247-.018.389l1.993.163zm.025-.553a6.712 6.712 0 0 0-6.706-6.707v2a4.713 4.713 0 0 1 4.707 4.707h1.999zm-4.168-.53h-5.075v2h5.075v-2zm-4.092.818c-.18-.972.571-1.87 1.554-1.87v-2c-2.227 0-3.931 2.027-3.52 4.236l1.966-.366zm1.554-1.87c.984 0 1.736.898 1.555 1.87l1.966.366c.412-2.21-1.295-4.236-3.52-4.236v2zm12.328-5.07h5.682v-2h-5.682v2zm4.682-1v2.802h2v-2.802h-2zm.689 1.852a3.534 3.534 0 0 1-4.428-2.185l-1.886.665a5.534 5.534 0 0 0 6.935 3.42l-.621-1.9zm-8.823-10.852c1.151-.14 2.802.355 4.388 1.49 1.562 1.117 2.919 2.759 3.544 4.692l1.903-.615c-.78-2.411-2.438-4.384-4.283-5.704-1.822-1.303-3.97-2.07-5.793-1.849l.241 1.986zm8.884 4.875H89.757v2H113.033v-2zm-23.276 1l.46.887h.002a.635.635 0 0 1 .007-.004l.028-.014a95.91 95.91 0 0 1 .52-.269 564.188 564.188 0 0 1 6.067-3.08 211.375 211.375 0 0 1 4.819-2.34 47 47 0 0 1 1.756-.783c.231-.095.418-.167.56-.216.163-.057.204-.06.172-.056l-.24-1.986a2.995 2.995 0 0 0-.585.151c-.194.067-.421.156-.671.259-.501.207-1.13.489-1.835.817a210.811 210.811 0 0 0-4.868 2.365 523.567 523.567 0 0 0-6.505 3.305l-.11.056-.028.015-.007.003-.001.001.459.889zM76.25 22.125l16.085.004v-2l-16.084-.004v2zm15.085-.996v3.688h2V21.13h-2zm1 2.688H76.248v2h16.087v-2zm-15.087 1l.002-3.691-2-.002-.002 3.692 2 .002zm-1.488 4.125H92.82v-2H75.76v2zm16.126-.648c2.753 7.311 2.95 7.512 3.297 8.936l1.943-.474c-.385-1.58-.681-2.03-3.369-9.166l-1.871.704zm4.269 7.699H72.427v2h23.728v-2zM73.398 37.23c.349-1.428.576-1.708 3.298-8.935l-1.872-.705c-2.656 7.053-2.982 7.581-3.369 9.166l1.943.474zm-1.371 9.208h1.723v-2h-1.723v2zm1.723 0a2.563 2.563 0 0 0 2.562-2.563h-2c0 .31-.252.563-.562.563v2zm2.562-2.563a2.562 2.562 0 0 0-2.562-2.562v2c.31 0 .562.252.562.563h2zm-2.562-2.562h-1.723v2h1.723v-2zm-.723 1a4755.94 4755.94 0 0 0 0-3.024v-.027-.005-.004-.008-.015c-.001-.014-.056-.3-.184-.547-1.085-.385-1.815.526-1.815.544V39.257l-.001.057a239.666 239.666 0 0 0 .003.886v.02a1.083 1.083 0 0 0 .04.236c.023.07.147.302.274.446.447.244 1.275.08 1.52-.174.058-.101.121-.258.135-.307.018-.07.024-.128.025-.133a.98.98 0 0 0 .005-.06v-.022l.001-.026.001-.05-2-.025v.031c-.001.035-.001-.02.005-.075.001-.005.007-.062.025-.132.014-.05.077-.206.136-.307.244-.255 1.071-.418 1.519-.175.126.145.25.377.273.446a.991.991 0 0 1 .04.244v-.006l-.001-.226-.001-.59v-.034-.01-.003V39.295c-.001.018-.73.93-1.816.544a2.123 2.123 0 0 1-.184-.562v-.008 3.043l2 .001zm-.996-1.195H96.55v-2H72.03v2zm23.519-.986a2.882 2.882 0 0 0 .003.109l.005.048.01.059c.005.028.025.108.042.16.055.123.46.537.89.659.474-.093.928-.518.988-.65.019-.055.04-.14.047-.169l.009-.06.006-.072a.87.87 0 0 0 .001-.05l.001-.051.002-.36v-.886-.106-.013-.007-.006a1.35 1.35 0 0 0-.007-.107c-.846-.87-1.963-.123-1.99.042a2.34 2.34 0 0 0-.003.06v3.581h2a5804.252 5804.252 0 0 1 0-3.554V38.768a.536.536 0 0 1-.003.059c-.027.166-1.144.912-1.99.042a1.973 1.973 0 0 1-.006-.086v-.015.102a409.33 409.33 0 0 1-.003 1.227v.034c-.001.044-.002-.02.006-.084l.01-.06c.005-.028.027-.113.045-.167.061-.133.515-.558.988-.65.431.122.836.535.89.659.017.051.038.131.043.16l.01.057.004.047a1.005 1.005 0 0 1 .001.01l-2 .029zm1.004 1.181H86.25v2h10.304v-2zm-10.304 0a2.562 2.562 0 0 0-2.563 2.563h2c0-.311.252-.563.563-.563v-2zm-2.563 2.563a2.563 2.563 0 0 0 2.563 2.562v-2a.563.563 0 0 1-.563-.563h-2zm2.563 2.562h10.304v-2H86.25v2zm11.304-1v-1.56h-2v1.56h2zm-1.448-2.454c-5.674 2.846-8.469 4.216-9.914 4.962-.716.369-1.154.61-1.46.821-.35.24-.525.437-.703.634l1.483 1.342c.16-.177.205-.227.351-.327.19-.13.522-.32 1.245-.693 1.434-.739 4.193-2.092 9.894-4.95l-.896-1.789zM84.03 49.4a4.796 4.796 0 0 0-1.233 3.204h2c0-.623.22-1.316.714-1.86L84.03 49.4zm-1.233 3.205c.001 3.736-.04 5.787-.001 7.044.02.64.061 1.134.153 1.578.095.459.236.827.415 1.22l1.82-.83a3.528 3.528 0 0 1-.276-.795c-.058-.278-.095-.638-.113-1.236-.038-1.218.003-3.175.002-6.982h-2zm1.477 8.427H72.027v2h12.247v-2zm-11.247 1V45.438h-2v16.594h2zm-5.125-6.78v6.78h2v-6.78h-2zm1 5.78H53.859v2h15.043v-2zM53.95 63.028a9.097 9.097 0 0 0 3.55-1.086l-.963-1.754a7.099 7.099 0 0 1-2.771.848l.184 1.992zm2.603-1.078c5.387 2.835 12.154-.226 13.33-6.515l-1.965-.367a7.188 7.188 0 0 1-10.434 5.112l-.931 1.77zm3.183-13.496c.45-.424 1.037-.886 1.63-1.197.624-.325 1.082-.393 1.367-.314l.53-1.929c-1.016-.28-2.041.063-2.821.47-.81.422-1.546 1.013-2.078 1.516l1.372 1.454zm2.998-1.511c.27.074.617.324.98.884.355.548.659 1.294.88 2.152.45 1.736.5 3.683.16 4.927l1.928.53c.46-1.675.357-3.993-.151-5.958-.257-.993-.632-1.956-1.138-2.738-.5-.77-1.196-1.47-2.13-1.726l-.53 1.929zm2.02 7.963c-.826 3.008-4.602 3.962-6.743 1.832l-1.41 1.418c3.221 3.205 8.848 1.771 10.081-2.72l-1.928-.53zm-6.748 1.827c-1.185-1.163-1.43-2.515-1.072-3.936.372-1.477 1.41-3.028 2.802-4.343L58.364 47c-1.567 1.48-2.873 3.345-3.368 5.307-.51 2.018-.147 4.129 1.61 5.853l1.401-1.427zm-8.969-2.846c0-1.29.567-3.154 1.46-4.71.442-.768.933-1.407 1.42-1.841.498-.444.897-.593 1.176-.593v-2c-.967 0-1.823.49-2.507 1.1-.695.62-1.312 1.449-1.823 2.338-1.01 1.76-1.726 3.968-1.726 5.706h2zm4.056-7.144c.303 0 .87.227 1.58 1.013l1.483-1.342c-.852-.942-1.918-1.671-3.063-1.671v2zm1.537-.278c-1.558 1.97-2.641 4.128-2.924 6.351-.287 2.252.258 4.502 1.833 6.578l1.593-1.209c-1.262-1.663-1.662-3.389-1.442-5.116.223-1.756 1.098-3.581 2.508-5.364l-1.568-1.24zm-.54 11.355c-2.568.65-5.053-1.304-5.053-3.933h-2c0 3.926 3.706 6.842 7.544 5.872l-.49-1.939zm58.365 11.371c0 .913-.745 1.658-1.658 1.658v2a3.662 3.662 0 0 0 3.658-3.658h-2zm-1.658 1.658H49.202v2h61.596v-2zm-61.596 0a1.66 1.66 0 0 1-1.657-1.658h-2a3.66 3.66 0 0 0 3.657 3.658v-2zm-1.657-1.658v-4.034h-2v4.034h2zm-1-3.034h66.911v-2H46.545v2zm65.911-1v4.034h2v-4.034h-2z" mask="url(#a)"/>
    <path fill="#52C2BB" stroke="#52C2BB" d="M79 42.813h.004a1.062 1.062 0 1 1-1.065 1.063A1.06 1.06 0 0 1 79 42.813z"/>
    <path fill="#fff" stroke="#54C3BC" stroke-width="3" d="M37 114l4.422-60h76.647L122 114H37z"/>
    <path fill="#52C2BB" d="M43.5 94L45 68h2l-1 26h-2.5zM43 100.5l.5-5H46l-.5 5H43z" opacity=".15"/>
    <path fill="#52C2BB" d="M151.836 47.564a5.164 5.164 0 0 0 1.169-10.193c-.047-5.183-4.263-9.371-9.457-9.371a9.457 9.457 0 0 0-8.283 4.889 4.03 4.03 0 0 0-5.593 3.172 5.808 5.808 0 0 0 1.135 11.503h21.029zM20.127 48.673a3.873 3.873 0 0 0 .877-7.645 7.093 7.093 0 0 0-13.305-3.361 3.023 3.023 0 0 0-4.195 2.38 4.357 4.357 0 0 0 .851 8.626h15.772zM33.773 75.228a3.227 3.227 0 0 0 .73-6.371 5.91 5.91 0 0 0-11.087-2.802 2.519 2.519 0 0 0-3.496 1.983 3.63 3.63 0 0 0 .71 7.19h13.143z" opacity=".05"/>
</svg>
