<?xml version="1.0" encoding="utf-8"?>
<!-- Generator: Adobe Illustrator 24.0.2, SVG Export Plug-In . SVG Version: 6.00 Build 0)  -->
<svg version="1.1" xmlns="http://www.w3.org/2000/svg" xmlns:xlink="http://www.w3.org/1999/xlink" x="0px" y="0px"
	 viewBox="0 0 320 112" style="enable-background:new 0 0 320 112;" xml:space="preserve">
<style type="text/css">
	.Drop_x0020_Shadow{fill:none;}
	.Thick_x0020_Blue_x0020_Neon{fill:none;stroke:#0073BC;stroke-width:10;stroke-linecap:round;stroke-linejoin:round;}
	.Illuminating_x0020_Aqua{fill:url(#SVGID_1_);stroke:#FFFFFF;stroke-width:0.25;stroke-miterlimit:1;}
	.Black_x0020_Highlight{fill:url(#SVGID_2_);stroke:#FFFFFF;stroke-width:0.3629;stroke-miterlimit:1;}
	.Bugaboo_GS{fill-rule:evenodd;clip-rule:evenodd;fill:#FFDD00;}
	.st0{fill:#00C4B3;}
	.st1{fill:#FFFFFF;}
	.st2{display:none;}
	.st3{display:inline;fill:#F9F9F9;}
	.st4{display:inline;fill:#FFFFFF;}
	.st5{display:inline;filter:url(#Adobe_OpacityMaskFilter);}
	.st6{display:inline;mask:url(#mask-2_1_);}
	.st7{fill:#66DDB7;fill-opacity:0.1;stroke:#65DCB7;stroke-width:0.5;}
	.st8{fill:none;stroke:#65DCB7;stroke-width:0.5;}
	.st9{opacity:0.3;fill:none;stroke:#65DCB7;stroke-width:0.5;stroke-linecap:square;enable-background:new    ;}
	.st10{opacity:0.3;fill:none;stroke:#65DCB7;stroke-width:0.2;stroke-linecap:square;enable-background:new    ;}
	.st11{display:inline;filter:url(#Adobe_OpacityMaskFilter_1_);}
	.st12{display:inline;mask:url(#mask-2_2_);}
	.st13{display:inline;}
	.st14{fill:none;}
	.st15{fill:#FFFFFF;fill-opacity:0.2;}
	.st16{fill:#263238;fill-opacity:0.2;}
	.st17{clip-path:url(#SVGID_4_);}
	.st18{fill:#4285F4;}
	.st19{fill:#3367D6;}
	.st20{fill:#263238;fill-opacity:0.1;}
	.st21{clip-path:url(#SVGID_6_);}
	.st22{fill:#8BC34A;}
	.st23{fill:#0F9D58;}
	.st24{fill:#3E2723;fill-opacity:0.1;}
	.st25{fill:#3E2723;fill-opacity:5.000000e-02;}
	.st26{clip-path:url(#SVGID_8_);}
	.st27{fill:#FFBC00;}
	.st28{fill:#FF9800;}
	.st29{clip-path:url(#SVGID_10_);}
	.st30{fill:#DB4437;}
	.st31{fill:#AD1457;}
	.st32{opacity:0.2;fill:#FFFFFF;enable-background:new    ;}
	.st33{fill:#F1F1F1;}
	.st34{fill:url(#SVGID_11_);fill-opacity:0.1;}
	.st35{fill:#3B78E7;}
	.st36{fill:#5E97F6;}
	.st37{fill:url(#SVGID_12_);}
	.st38{fill:#F6F6F6;}
	.st39{fill:#A1C2FA;}
</style>
<linearGradient id="SVGID_1_" gradientUnits="userSpaceOnUse" x1="-7026" y1="-617.5" x2="-7026" y2="-618.5">
	<stop  offset="0" style="stop-color:#1D59F4"/>
	<stop  offset="0.618" style="stop-color:#2D65EE"/>
	<stop  offset="0.6292" style="stop-color:#3864F3"/>
	<stop  offset="0.9831" style="stop-color:#00DDFC"/>
</linearGradient>
<linearGradient id="SVGID_2_" gradientUnits="userSpaceOnUse" x1="-7026" y1="-617.5" x2="-7026" y2="-618.5">
	<stop  offset="0" style="stop-color:#060606"/>
	<stop  offset="0.618" style="stop-color:#000000"/>
	<stop  offset="0.6292" style="stop-color:#000000"/>
	<stop  offset="0.9831" style="stop-color:#000000"/>
</linearGradient>
<g id="Layer_2">
	<g>
		<g>
			<path class="st0" d="M5,2.1l61.6,27c0.6,0.3,1.7,1.2,1.7,2.7v15.3c0,1.6-1.1,2.5-1.7,2.8L4.8,76.9c-2.8,0.8-4.1-1.6-4.1-2.8V60.8
				c0-1.7,1.3-2.7,2.1-2.9l41.2-17c1.4-0.6,1.4-2.6,0-3.2L2.5,20.6c-1.5-0.7-1.8-2-1.8-2.7V4.7C1,1.8,3.7,1.5,5,2.1"/>
			<path class="st0" d="M54.4,110.4L17.7,94.3c-0.4-0.2-1-0.7-1-1.6v-9.1c0-1,0.6-1.5,1-1.6l36.8-16.1c1.7-0.5,2.4,0.9,2.4,1.7v7.9
				c0,1-0.8,1.6-1.2,1.7L31.1,87.2c-0.9,0.4-0.9,1.6,0,1.9l24.7,10.2c0.9,0.4,1.1,1.2,1.1,1.6v7.9C56.7,110.5,55.1,110.7,54.4,110.4
				"/>
		</g>
		<g>
			<g>
				<path class="st0" d="M196.3,22.5h18.1c3,0,5.4,0.4,7.5,1.1c2,0.7,3.7,1.7,5,3.1c2.3,2.2,3.4,5.2,3.4,8.9v0.1
					c0,3-0.7,5.4-2.1,7.3c-1.4,1.9-3.3,3.4-5.7,4.4l9.1,13.3h-12.2l-7.7-11.6h-0.1h-4.5v11.6h-10.6V22.5z M213.9,40.9
					c1.8,0,3.2-0.4,4.2-1.2c1-0.8,1.5-1.9,1.5-3.3v-0.1c0-1.5-0.5-2.7-1.5-3.4c-1-0.7-2.4-1.1-4.2-1.1h-6.9v9.2H213.9z"/>
				<path class="st0" d="M96.3,61.5c-3.4,0-6.7-0.5-9.8-1.6c-3.1-1.1-5.8-2.7-8.2-4.8l5.9-7.1c3.8,3.1,8,4.6,12.4,4.6
					c1.4,0,2.5-0.2,3.3-0.7c0.7-0.5,1.1-1.1,1.1-1.9v-0.1c0-0.4-0.1-0.8-0.3-1.1c-0.2-0.3-0.5-0.6-1-0.9c-0.5-0.3-1.1-0.6-2-0.8
					c-0.8-0.3-1.9-0.6-3.2-0.8c-2-0.5-3.9-1-5.7-1.6c-1.7-0.6-3.3-1.3-4.6-2.2c-1.3-0.9-2.3-2-3.1-3.3c-0.7-1.3-1.1-3-1.1-4.9v-0.1
					c0-1.8,0.3-3.4,1-4.9c0.7-1.5,1.7-2.8,3-3.9c1.3-1.1,2.9-1.9,4.7-2.5c1.8-0.6,3.9-0.9,6.2-0.9c3.3,0,6.2,0.4,8.8,1.3
					c2.6,0.9,4.9,2.1,7,3.8l-5.3,7.5c-1.7-1.2-3.5-2.2-5.4-2.8c-1.8-0.6-3.6-1-5.3-1c-1.3,0-2.2,0.2-2.9,0.7c-0.6,0.5-1,1.1-1,1.7
					v0.1c0,0.4,0.1,0.8,0.3,1.1c0.2,0.3,0.5,0.6,1,0.9c0.5,0.3,1.2,0.5,2,0.8c0.9,0.3,1.9,0.6,3.3,0.8c2.2,0.5,4.2,1,5.9,1.7
					c1.8,0.6,3.3,1.4,4.5,2.3c1.2,0.9,2.2,2,2.8,3.3c0.7,1.3,1,2.8,1,4.6v0.1c0,2-0.4,3.7-1.1,5.2c-0.7,1.5-1.8,2.8-3.1,3.9
					c-1.3,1.1-3,1.9-4.9,2.5C100.7,61.2,98.6,61.5,96.3,61.5"/>
				<path class="st0" d="M134.1,61.5c-2.7,0-5.2-0.3-7.4-1c-2.2-0.7-4-1.8-5.6-3.2c-1.5-1.4-2.7-3.3-3.5-5.5
					c-0.8-2.2-1.2-4.8-1.2-7.8V22.5h10.8v21.3c0,2.8,0.6,4.8,1.9,6.1c1.3,1.3,3,2,5.1,2c2.1,0,3.8-0.6,5.1-1.9
					c1.3-1.3,1.9-3.3,1.9-6V22.5H152v21.2c0,3.1-0.4,5.8-1.3,8c-0.9,2.2-2.1,4.1-3.6,5.5c-1.5,1.4-3.4,2.5-5.6,3.2
					C139.3,61.2,136.8,61.5,134.1,61.5"/>
				<path class="st0" d="M158.1,22.5h16.4c2.4,0,4.6,0.3,6.6,0.9c2,0.6,3.6,1.5,5,2.6c1.4,1.1,2.4,2.6,3.2,4.2
					c0.7,1.7,1.1,3.6,1.1,5.7v0.1c0,2.3-0.4,4.2-1.2,6c-0.8,1.7-2,3.2-3.4,4.3c-1.5,1.2-3.2,2-5.2,2.6c-2,0.6-4.2,0.9-6.6,0.9h-5.2
					v10.9h-10.6V22.5z M173.7,41.6c1.9,0,3.4-0.4,4.5-1.3c1.1-0.9,1.6-2.1,1.6-3.7v-0.1c0-1.6-0.5-2.9-1.6-3.8
					c-1.1-0.9-2.6-1.3-4.5-1.3h-5v10.2H173.7z"/>
			</g>
			<g>
				<path class="st0" d="M80.2,69.7h8c7.4,0,11.6,4.3,11.6,10.2V80c0,6-4.3,10.4-11.8,10.4h-7.9V69.7z M85.9,74.7v10.6h2.3
					c3.5,0,5.7-1.9,5.7-5.2V80c0-3.3-2.3-5.3-5.7-5.3H85.9z"/>
				<path class="st0" d="M108.5,69.5h5.5l8.8,20.8h-6.1l-1.5-3.7h-8l-1.5,3.7h-6L108.5,69.5z M113.5,82.2l-2.3-5.9l-2.3,5.9H113.5z"
					/>
				<path class="st0" d="M125,69.7h5.7v20.7H125V69.7z"/>
				<path class="st0" d="M134.5,69.7h5.7v15.7h10v5h-15.8V69.7z"/>
				<path class="st0" d="M154.9,82.6l-7.9-13h6.5l4.3,7.5l4.3-7.5h6.4l-7.9,12.9v7.8h-5.7V82.6z"/>
			</g>
		</g>
	</g>
</g>
<g id="Layer_1" class="st2">
</g>
</svg>
