<svg width="180" height="180" viewBox="0 0 180 180" fill="none" xmlns="http://www.w3.org/2000/svg">
<ellipse cx="90.0017" cy="89.9991" rx="75" ry="75" fill="#BED748"/>
<path fill-rule="evenodd" clip-rule="evenodd" d="M90.5363 156.636C127.041 156.636 156.633 127.044 156.633 90.5391C156.633 54.0347 127.041 24.442 90.5363 24.442C54.0319 24.442 24.4392 54.0347 24.4392 90.5391C24.4392 127.044 54.0319 156.636 90.5363 156.636ZM90.2662 148.542C122.45 148.542 148.54 122.452 148.54 90.2687C148.54 58.0852 122.45 31.9953 90.2662 31.9953C58.0827 31.9953 31.9928 58.0852 31.9928 90.2687C31.9928 122.452 58.0827 148.542 90.2662 148.542Z" fill="#849920"/>
<path d="M105.854 94.8722V101.088C105.854 101.267 105.8 101.442 105.7 101.59C105.599 101.739 105.457 101.854 105.291 101.921L88.4999 108.826C88.3353 108.894 88.1946 109.009 88.0955 109.157C87.9965 109.306 87.9437 109.48 87.9437 109.658C87.9437 109.836 87.9965 110.01 88.0955 110.159C88.1946 110.307 88.3353 110.422 88.4999 110.49L105.291 117.397C105.457 117.463 105.599 117.578 105.7 117.726C105.8 117.874 105.854 118.049 105.854 118.228V124.337C105.854 124.486 105.817 124.634 105.746 124.765C105.675 124.897 105.572 125.009 105.447 125.09C105.321 125.172 105.178 125.222 105.029 125.234C104.88 125.246 104.73 125.221 104.593 125.161L78.6528 113.799C78.4923 113.729 78.3556 113.614 78.2596 113.468C78.1636 113.321 78.1124 113.15 78.1123 112.975V106.241C78.1124 106.066 78.1636 105.895 78.2596 105.749C78.3556 105.602 78.4923 105.487 78.6528 105.417L104.593 94.0558C104.73 93.9955 104.88 93.9704 105.029 93.9826C105.178 93.9949 105.321 94.0442 105.447 94.126C105.572 94.2078 105.675 94.3196 105.746 94.4512C105.817 94.5828 105.854 94.7301 105.854 94.8797" fill="#849920"/>
<path d="M69.1234 52.5975L111.807 71.2934C112.014 71.3841 112.189 71.5329 112.312 71.7215C112.435 71.9101 112.5 72.1305 112.5 72.3556V83.6704C112.5 83.8955 112.434 84.1157 112.311 84.3043C112.189 84.4929 112.013 84.6417 111.807 84.7326L69.1234 103.427C68.9471 103.504 68.7544 103.536 68.5625 103.52C68.3707 103.504 68.1859 103.441 68.0247 103.336C67.8636 103.231 67.7312 103.087 67.6396 102.917C67.548 102.748 67.5 102.559 67.5 102.366V91.6202C67.4997 91.3903 67.5679 91.1656 67.696 90.9748C67.824 90.7839 68.006 90.6355 68.2188 90.5486L96.3208 78.9917C96.5335 78.9046 96.7155 78.7562 96.8435 78.5654C96.9716 78.3746 97.04 78.15 97.04 77.9201C97.04 77.6903 96.9716 77.4657 96.8435 77.2748C96.7155 77.084 96.5335 76.9356 96.3208 76.8485L68.2188 65.2917C68.0062 65.2045 67.8243 65.0561 67.6963 64.8653C67.5683 64.6744 67.5 64.4498 67.5 64.2201V53.6598C67.5002 53.4673 67.5482 53.2779 67.6398 53.1086C67.7314 52.9393 67.8637 52.7955 68.0248 52.6902C68.1858 52.5848 68.3706 52.5211 68.5624 52.505C68.7541 52.4888 68.9469 52.5206 69.1234 52.5975Z" fill="#849920"/>
</svg>
