<svg width="24" height="24" viewBox="0 0 24 24" fill="none" xmlns="http://www.w3.org/2000/svg">
<circle cx="12" cy="12" r="10" fill="#F2BC18"/>
<path fill-rule="evenodd" clip-rule="evenodd" d="M12.0717 20.8849C16.939 20.8849 20.8847 16.9392 20.8847 12.072C20.8847 7.20469 16.939 3.259 12.0717 3.259C7.20448 3.259 3.25879 7.20469 3.25879 12.072C3.25879 16.9392 7.20448 20.8849 12.0717 20.8849ZM12.036 19.8058C16.3271 19.8058 19.8058 16.3271 19.8058 12.036C19.8058 7.74484 16.3271 4.26619 12.036 4.26619C7.74486 4.26619 4.26621 7.74484 4.26621 12.036C4.26621 16.3271 7.74486 19.8058 12.036 19.8058Z" fill="white"/>
<path d="M14.1137 12.6496V13.4783C14.1136 13.5022 14.1065 13.5255 14.0931 13.5453C14.0797 13.5651 14.0608 13.5805 14.0386 13.5894L11.7998 14.51C11.7779 14.5191 11.7591 14.5345 11.7459 14.5543C11.7327 14.574 11.7256 14.5972 11.7256 14.621C11.7256 14.6448 11.7327 14.668 11.7459 14.6877C11.7591 14.7075 11.7779 14.7229 11.7998 14.732L14.0386 15.6528C14.0608 15.6617 14.0797 15.677 14.0931 15.6968C14.1065 15.7165 14.1137 15.7398 14.1137 15.7637V16.5782C14.1137 16.5981 14.1088 16.6177 14.0993 16.6353C14.0898 16.6528 14.0761 16.6677 14.0594 16.6787C14.0427 16.6896 14.0235 16.6961 14.0036 16.6978C13.9838 16.6994 13.9638 16.696 13.9455 16.688L10.4869 15.1731C10.4655 15.1638 10.4472 15.1485 10.4344 15.1289C10.4216 15.1094 10.4148 15.0866 10.4148 15.0633V14.1654C10.4148 14.1421 10.4216 14.1193 10.4344 14.0998C10.4472 14.0803 10.4655 14.0649 10.4869 14.0556L13.9455 12.5407C13.9638 12.5327 13.9838 12.5293 14.0036 12.531C14.0235 12.5326 14.0427 12.5392 14.0594 12.5501C14.0761 12.561 14.0898 12.5759 14.0993 12.5934C14.1088 12.611 14.1137 12.6306 14.1137 12.6506" fill="white"/>
<path d="M9.21645 7.01289L14.9077 9.50567C14.9351 9.51777 14.9585 9.5376 14.9749 9.56275C14.9913 9.5879 15 9.61728 15 9.6473V11.1559C15 11.186 14.9913 11.2153 14.9749 11.2405C14.9585 11.2656 14.9351 11.2854 14.9077 11.2976L9.21645 13.7901C9.19295 13.8004 9.16725 13.8047 9.14167 13.8026C9.11609 13.8005 9.09145 13.792 9.06996 13.778C9.04847 13.764 9.03083 13.7448 9.01861 13.7222C9.00639 13.6996 9 13.6744 9 13.6487V12.2159C8.99996 12.1853 9.00906 12.1553 9.02613 12.1299C9.0432 12.1044 9.06747 12.0846 9.09584 12.073L12.8428 10.5321C12.8711 10.5205 12.8954 10.5007 12.9125 10.4753C12.9295 10.4498 12.9387 10.4199 12.9387 10.3892C12.9387 10.3586 12.9295 10.3286 12.9125 10.3032C12.8954 10.2778 12.8711 10.258 12.8428 10.2464L9.09584 8.70544C9.06749 8.69382 9.04324 8.67403 9.02617 8.64859C9.00911 8.62314 9 8.5932 9 8.56256V7.15452C9.00002 7.12886 9.00643 7.1036 9.01864 7.08103C9.03086 7.05847 9.0485 7.03929 9.06997 7.02524C9.09144 7.01119 9.11608 7.0027 9.14165 7.00055C9.16722 6.99839 9.19293 7.00263 9.21645 7.01289Z" fill="white"/>
</svg>
