<?xml version="1.0" encoding="utf-8"?>
<!-- Generator: Adobe Illustrator 24.0.2, SVG Export Plug-In . SVG Version: 6.00 Build 0)  -->
<svg version="1.1" xmlns="http://www.w3.org/2000/svg" xmlns:xlink="http://www.w3.org/1999/xlink" x="0px" y="0px"
	 viewBox="0 0 232.2 64" style="enable-background:new 0 0 232.2 64;" xml:space="preserve">
<style type="text/css">
	.Drop_x0020_Shadow{fill:none;}
	.Thick_x0020_Blue_x0020_Neon{fill:none;stroke:#0073BC;stroke-width:10;stroke-linecap:round;stroke-linejoin:round;}
	.Illuminating_x0020_Aqua{fill:url(#SVGID_1_);stroke:#FFFFFF;stroke-width:0.25;stroke-miterlimit:1;}
	.Black_x0020_Highlight{fill:url(#SVGID_2_);stroke:#FFFFFF;stroke-width:0.3629;stroke-miterlimit:1;}
	.Bugaboo_GS{fill-rule:evenodd;clip-rule:evenodd;fill:#FFDD00;}
	.st0{fill:#00C4B3;}
	.st1{fill:#FFFFFF;}
	.st2{display:none;}
	.st3{display:inline;fill:#F9F9F9;}
	.st4{display:inline;fill:#FFFFFF;}
	.st5{display:inline;filter:url(#Adobe_OpacityMaskFilter);}
	.st6{display:inline;mask:url(#mask-2_1_);}
	.st7{fill:#66DDB7;fill-opacity:0.1;stroke:#65DCB7;stroke-width:0.5;}
	.st8{fill:none;stroke:#65DCB7;stroke-width:0.5;}
	.st9{opacity:0.3;fill:none;stroke:#65DCB7;stroke-width:0.5;stroke-linecap:square;enable-background:new    ;}
	.st10{opacity:0.3;fill:none;stroke:#65DCB7;stroke-width:0.2;stroke-linecap:square;enable-background:new    ;}
	.st11{display:inline;filter:url(#Adobe_OpacityMaskFilter_1_);}
	.st12{display:inline;mask:url(#mask-2_2_);}
	.st13{display:inline;}
	.st14{fill:none;}
	.st15{fill:#FFFFFF;fill-opacity:0.2;}
	.st16{fill:#263238;fill-opacity:0.2;}
	.st17{clip-path:url(#SVGID_4_);}
	.st18{fill:#4285F4;}
	.st19{fill:#3367D6;}
	.st20{fill:#263238;fill-opacity:0.1;}
	.st21{clip-path:url(#SVGID_6_);}
	.st22{fill:#8BC34A;}
	.st23{fill:#0F9D58;}
	.st24{fill:#3E2723;fill-opacity:0.1;}
	.st25{fill:#3E2723;fill-opacity:5.000000e-02;}
	.st26{clip-path:url(#SVGID_8_);}
	.st27{fill:#FFBC00;}
	.st28{fill:#FF9800;}
	.st29{clip-path:url(#SVGID_10_);}
	.st30{fill:#DB4437;}
	.st31{fill:#AD1457;}
	.st32{opacity:0.2;fill:#FFFFFF;enable-background:new    ;}
	.st33{fill:#F1F1F1;}
	.st34{fill:url(#SVGID_11_);fill-opacity:0.1;}
	.st35{fill:#3B78E7;}
	.st36{fill:#5E97F6;}
	.st37{fill:url(#SVGID_12_);}
	.st38{fill:#F6F6F6;}
	.st39{fill:#A1C2FA;}
</style>
<linearGradient id="SVGID_1_" gradientUnits="userSpaceOnUse" x1="-7409.8999" y1="-641.5" x2="-7409.8999" y2="-642.5">
	<stop  offset="0" style="stop-color:#1D59F4"/>
	<stop  offset="0.618" style="stop-color:#2D65EE"/>
	<stop  offset="0.6292" style="stop-color:#3864F3"/>
	<stop  offset="0.9831" style="stop-color:#00DDFC"/>
</linearGradient>
<linearGradient id="SVGID_2_" gradientUnits="userSpaceOnUse" x1="-7409.8999" y1="-641.5" x2="-7409.8999" y2="-642.5">
	<stop  offset="0" style="stop-color:#060606"/>
	<stop  offset="0.618" style="stop-color:#000000"/>
	<stop  offset="0.6292" style="stop-color:#000000"/>
	<stop  offset="0.9831" style="stop-color:#000000"/>
</linearGradient>
<g id="Layer_2">
	<g>
		<path class="st1" d="M177.1,3.7h26.7c4.4,0,8,0.5,11,1.6c3,1.1,5.5,2.6,7.3,4.5c3.3,3.2,5,7.6,5,13.1v0.2c0,4.4-1,7.9-3.1,10.8
			c-2.1,2.8-4.9,5-8.5,6.5L229,60.1h-18L199.6,43h-0.2h-6.7v17.1h-15.6V3.7z M203,30.8c2.7,0,4.8-0.6,6.2-1.8
			c1.5-1.2,2.2-2.8,2.2-4.9v-0.2c0-2.3-0.8-3.9-2.3-5c-1.5-1.1-3.6-1.7-6.2-1.7h-10.2v13.5H203z"/>
		<path class="st1" d="M29.7,61.2c-5,0-9.8-0.8-14.4-2.3c-4.5-1.6-8.6-3.9-12-7.1l8.7-10.4c5.6,4.5,11.7,6.8,18.3,6.8
			c2.1,0,3.7-0.3,4.8-1c1.1-0.7,1.7-1.6,1.7-2.9v-0.2c0-0.6-0.1-1.1-0.4-1.6c-0.3-0.5-0.8-0.9-1.5-1.3c-0.7-0.4-1.7-0.8-2.9-1.2
			c-1.2-0.4-2.8-0.8-4.7-1.2c-3-0.7-5.8-1.5-8.4-2.3c-2.6-0.8-4.8-1.9-6.7-3.2c-1.9-1.3-3.4-2.9-4.5-4.9c-1.1-2-1.7-4.4-1.7-7.3
			v-0.2c0-2.6,0.5-5,1.5-7.2c1-2.2,2.4-4.1,4.3-5.7c1.9-1.6,4.2-2.9,6.9-3.7c2.7-0.9,5.7-1.3,9.1-1.3c4.8,0,9.1,0.6,12.9,1.9
			c3.8,1.3,7.2,3.1,10.3,5.6l-7.8,11.1c-2.6-1.8-5.2-3.2-7.9-4.1c-2.7-0.9-5.3-1.4-7.9-1.4c-1.9,0-3.3,0.3-4.2,1
			c-0.9,0.7-1.4,1.6-1.4,2.6v0.2c0,0.6,0.1,1.2,0.4,1.7c0.3,0.5,0.8,0.9,1.5,1.3c0.7,0.4,1.7,0.8,3,1.2c1.3,0.4,2.9,0.8,4.8,1.2
			c3.2,0.7,6.1,1.5,8.7,2.5c2.6,0.9,4.8,2.1,6.6,3.4c1.8,1.3,3.2,3,4.2,4.9c1,1.9,1.4,4.2,1.4,6.8v0.2c0,2.9-0.6,5.5-1.7,7.7
			c-1.1,2.3-2.6,4.2-4.6,5.7c-2,1.6-4.4,2.8-7.2,3.6C36.2,60.7,33.1,61.2,29.7,61.2"/>
		<path class="st1" d="M85.3,61.2c-4,0-7.7-0.5-10.9-1.5c-3.2-1-6-2.6-8.2-4.7c-2.3-2.1-4-4.8-5.2-8.1c-1.2-3.2-1.8-7.1-1.8-11.5
			V3.7h16v31.3c0,4.1,0.9,7.1,2.8,9.1c1.9,2,4.4,2.9,7.5,2.9c3.1,0,5.6-0.9,7.5-2.8c1.9-1.9,2.8-4.8,2.8-8.8V3.7h15.9V35
			c0,4.6-0.6,8.5-1.9,11.8c-1.3,3.3-3,6-5.3,8.1c-2.3,2.1-5,3.7-8.3,4.7C93,60.7,89.4,61.2,85.3,61.2"/>
		<path class="st1" d="M120.7,3.7h24.2c3.5,0,6.8,0.4,9.7,1.3c2.9,0.9,5.4,2.2,7.4,3.9c2,1.7,3.6,3.8,4.7,6.2
			c1.1,2.5,1.7,5.3,1.7,8.4v0.2c0,3.3-0.6,6.3-1.8,8.8c-1.2,2.5-2.9,4.6-5,6.4c-2.1,1.7-4.7,3-7.7,3.9c-3,0.9-6.2,1.3-9.7,1.3h-7.7
			v16.1h-15.6V3.7z M143.7,31.8c2.8,0,5-0.7,6.6-2c1.6-1.3,2.4-3.1,2.4-5.4v-0.2c0-2.4-0.8-4.3-2.4-5.5c-1.6-1.3-3.8-1.9-6.6-1.9
			h-7.3v15H143.7z"/>
	</g>
</g>
<g id="Layer_1" class="st2">
</g>
</svg>
