<svg xmlns="http://www.w3.org/2000/svg" width="48" height="48" fill="none" viewBox="0 0 48 48">
    <path fill="#CCC" d="M29.42 29.42h1.548v1.548h-1.549v-1.549zM17.032 29.42h1.549v1.548h-1.549v-1.549z"/>
    <path fill="#CCC" d="M48 20.129v-4.645H37.161V3.097h-1.548V0h-1.548v3.097h-1.549V9.29H15.484V3.097h-1.549V0h-1.548v3.097H10.84v12.387H0v4.645h1.548v2.323H0V24h1.548v2.323H0v4.645h1.548V48h44.904V30.968H48v-4.645h-1.548V24H48v-1.548h-1.548v-2.323H48zm-1.548-3.097v1.549h-9.29v-1.549h9.29zm-6.194 15.484v-1.548h1.548v1.548h-1.548zm-1.548 0H37.16v-1.548h1.549v1.548zM27.87 46.452h-7.742v-7.194A7.584 7.584 0 0 1 24 32.618a7.584 7.584 0 0 1 3.871 6.64v7.194zm-3.525-15.403L24 30.876l-.346.174a9.126 9.126 0 0 0-5.073 8.208v7.194h-3.097V27.87h17.032v18.58H29.42v-7.193a9.128 9.128 0 0 0-5.073-8.209zm-16.604-.081v1.548H6.194v-1.548h1.548zm1.548 0h1.549v1.548H9.29v-1.548zm23.226-4.645h-1.548v-3.097h1.548v3.097zm-17.032-3.097h1.548v3.097h-1.548v-3.097zm3.097 0h1.548v3.097h-1.548v-3.097zm3.096 0h1.549v3.097h-1.549v-3.097zm3.097 0h1.549v3.097h-1.549v-3.097zm3.097 0h1.548v3.097h-1.548v-3.097zm4.645-1.549H15.484v-7.742h17.032v7.742zm-18.58 24.775h-1.549V7.742h1.548v38.71zm21.677 0h-1.548V7.742h1.548v38.71zm0-41.807v1.549h-1.548V4.645h1.548zm-3.097 6.194v1.548H15.484V10.84h17.032zm-18.58-6.194v1.549h-1.549V4.645h1.548zM1.547 17.032h9.29v1.549h-9.29v-1.549zm1.549 3.097h7.742v6.194H3.097v-6.194zm-1.549 7.742h9.29v1.548h-9.29v-1.548zm3.097 3.097v1.548H3.097v-1.548h1.548zm-1.548 3.097h7.742v12.387H9.29V42.58a2.326 2.326 0 0 0-2.322-2.323 2.326 2.326 0 0 0-2.323 2.323v3.87H3.097V34.066zm4.645 12.387H6.194V42.58a.775.775 0 0 1 1.548 0v3.87zm34.064 0h-1.548V42.58a.775.775 0 0 1 1.548 0v3.87zm1.549 0V42.58a2.326 2.326 0 0 0-2.323-2.323 2.326 2.326 0 0 0-2.322 2.323v3.87H37.16V34.066h7.742v12.387h-1.548zm1.548-13.936h-1.548v-1.548h1.548v1.548zm1.549-3.097h-9.29v-1.548h9.29v1.548zm-1.549-3.096h-7.742v-6.194h7.742v6.194z"/>
    <path fill="#CCC" d="M30.968 20.129v-4.645H17.032v4.645h13.936zM18.58 17.032h10.838v1.549H18.581v-1.549zM38.71 22.452h1.548V24H38.71v-1.548zM41.807 22.452h1.548V24h-1.548v-1.548zM4.646 22.452h1.548V24H4.646v-1.548zM7.742 22.452h1.549V24H7.742v-1.548z"/>
</svg>
