<svg xmlns="http://www.w3.org/2000/svg" width="80" height="72" fill="none" viewBox="0 0 80 72">
    <path fill="#52C2BB" fill-rule="evenodd" d="M50.192 5.48c-4.348-6.775-15.342-6.79-19.796-.094l-.061.094h-5.123a.566.566 0 0 0-.562.562v11.464h-2.904c-2.66-3.923-9.072-3.923-11.731 0H6.528a.566.566 0 0 0-.561.562v50.59H.85c-.723 0-.723 1.123 0 1.123H78.968c.723 0 .723-1.123 0-1.123H74.515V18.068a.566.566 0 0 0-.561-.561h-3.459c-2.66-3.924-9.072-3.924-11.731 0h-2.926V6.042a.52.52 0 0 0-.164-.397.52.52 0 0 0-.398-.165h-5.085zm-30.87 63.178h5.326V18.63H7.089v50.03h12.234zm10.819 0h-4.368V6.603h28.943V18.009a.558.558 0 0 0-.003.06v50.589h-4.368V58.376a.567.567 0 0 0-.562-.561H30.702a.567.567 0 0 0-.561.56v10.283zm34.483 0h8.77V18.63H55.839v50.03h8.785zm4.445-51.151c-2.266-2.446-6.611-2.446-8.877 0h8.877zm-57.627 0c2.266-2.446 6.611-2.446 8.877 0h-8.877zM31.704 5.48C35.74.162 44.79.162 48.824 5.48h-17.12zm17.518 53.457v9.721h-8.42v-9.72h8.42zm-9.542 0v9.721h-8.417v-9.72h8.417zm-1.682-29.945a.52.52 0 0 1-.164.397.52.52 0 0 1-.397.164h-6.735a.566.566 0 0 1-.561-.561v-6.013c0-.306.255-.561.56-.561h6.736c.306 0 .56.255.56.56v6.014zm-1.123-5.452v4.89h-5.612v-4.89h5.612zm.959-5.957a.52.52 0 0 0 .164-.397v-6.013a.566.566 0 0 0-.561-.561h-6.735a.566.566 0 0 0-.561.56v6.014c0 .306.255.561.56.561h6.736a.52.52 0 0 0 .397-.164zm-.959-.958v-4.891h-5.612v4.89h5.612zm1.123 24.172a.52.52 0 0 1-.164.398.52.52 0 0 1-.397.164h-6.735a.566.566 0 0 1-.561-.562v-6.013c0-.306.255-.56.56-.56h6.736c.306 0 .56.254.56.56v6.014zm-1.123-5.451v4.89h-5.612v-4.89h5.612zM37.834 53a.52.52 0 0 0 .164-.398V46.59a.566.566 0 0 0-.561-.56h-6.735a.566.566 0 0 0-.561.56v6.013c0 .306.255.562.56.562h6.736a.52.52 0 0 0 .397-.164zm-.959-.959v-4.89h-5.612v4.89h5.612zm13.468-23.05a.52.52 0 0 1-.164.397.52.52 0 0 1-.397.164h-6.734a.567.567 0 0 1-.562-.561v-6.013c0-.306.256-.561.562-.561h6.734c.306 0 .562.255.562.56v6.014zm-1.122-5.452v4.89h-5.612v-4.89h5.612zm.958-5.957a.52.52 0 0 0 .164-.397v-6.013a.566.566 0 0 0-.56-.561h-6.735a.566.566 0 0 0-.562.56v6.014c0 .306.256.561.562.561h6.734a.52.52 0 0 0 .397-.164zm-.958-.958v-4.891h-5.612v4.89h5.612zm1.123 24.172a.52.52 0 0 1-.165.398.52.52 0 0 1-.397.164h-6.734a.567.567 0 0 1-.562-.562v-6.013c0-.306.256-.56.562-.56h6.734c.306 0 .562.254.562.56v6.014zm-1.123-5.451v4.89h-5.612v-4.89h5.612zM50.179 53a.52.52 0 0 0 .164-.398V46.59a.567.567 0 0 0-.56-.56h-6.735a.567.567 0 0 0-.562.56v6.013c0 .306.256.562.562.562h6.734A.52.52 0 0 0 50.18 53zm-.958-.959v-4.89h-5.612v4.89h5.612zM19.797 40.778a.52.52 0 0 1-.165.397.52.52 0 0 1-.397.164h-6.734a.566.566 0 0 1-.561-.561v-6.014c0-.306.255-.56.56-.56h6.735c.306 0 .562.254.562.56v6.014zm-1.123-.562h-5.612v-4.89h5.612v4.89zm.959-10.847a.52.52 0 0 0 .164-.397v-6.013a.566.566 0 0 0-.562-.561h-6.734a.566.566 0 0 0-.561.56v6.014c0 .306.255.561.56.561h6.735a.52.52 0 0 0 .398-.164zm-6.571-.958h5.612V23.52h-5.612v4.89zm6.735 24.172a.52.52 0 0 1-.165.398.519.519 0 0 1-.397.164h-6.734a.566.566 0 0 1-.561-.562V46.57c0-.306.255-.561.56-.561h6.735c.306 0 .562.255.562.561v6.013zm-1.123-.56h-5.612V47.13h5.612v4.891zm.959 12.763a.52.52 0 0 0 .164-.397v-6.013a.567.567 0 0 0-.562-.561h-6.734a.566.566 0 0 0-.561.56v6.014c0 .306.255.561.56.561h6.735a.52.52 0 0 0 .398-.164zm-.959-.958v-4.89h-5.612v4.89h5.612zM68.38 41.175a.52.52 0 0 0 .164-.397v-6.014a.567.567 0 0 0-.562-.56h-6.734a.567.567 0 0 0-.562.56v6.014c0 .305.256.56.562.56h6.734a.52.52 0 0 0 .398-.163zm-.959-.959v-4.89h-5.612v4.89h5.612zm1.123-11.244a.52.52 0 0 1-.164.397.519.519 0 0 1-.398.164h-6.734a.566.566 0 0 1-.562-.561v-6.013c0-.306.256-.561.562-.561h6.734c.306 0 .562.255.562.56v6.014zM67.42 23.52v4.89h-5.612v-4.89h5.612zm.959 29.46a.52.52 0 0 0 .164-.397V46.57a.567.567 0 0 0-.562-.561h-6.734a.567.567 0 0 0-.562.561v6.013c0 .306.256.562.562.562h6.734a.52.52 0 0 0 .398-.165zm-.959-.958v-4.89h-5.612v4.89h5.612zm1.123 12.367a.52.52 0 0 1-.164.397.519.519 0 0 1-.398.164h-6.734a.567.567 0 0 1-.562-.561v-6.013c0-.306.256-.561.562-.561h6.734c.306 0 .562.255.562.56v6.014zm-1.123-5.452v4.89h-5.612v-4.89h5.612zM43.052 65.03v-2.165c0-.724-1.122-.724-1.122 0v2.165c0 .724 1.122.724 1.122 0zm-4.49-2.165v2.165c0 .724-1.122.724-1.122 0v-2.165c0-.724 1.122-.724 1.122 0z" clip-rule="evenodd"/>
</svg>
