<svg width="100" height="101" viewBox="0 0 100 101" fill="none" xmlns="http://www.w3.org/2000/svg">
<path d="M48.4786 71.0692C48.1228 71.056 47.7936 70.9058 47.5518 70.6461C47.31 70.3865 47.1841 70.048 47.1973 69.693C47.2009 69.5957 47.1252 69.514 47.0284 69.5104C46.9315 69.5068 46.8501 69.5828 46.8465 69.6801C46.8334 70.0351 46.6828 70.3633 46.4225 70.6043C46.1622 70.8454 45.8229 70.971 45.467 70.9578C45.3701 70.9542 45.2887 71.0302 45.2851 71.1275C45.2815 71.2248 45.3571 71.3065 45.454 71.3101C46.1875 71.3372 46.7624 71.9563 46.7352 72.6902C46.7316 72.7875 46.8072 72.8692 46.9041 72.8728C47.0009 72.8764 47.0824 72.8004 47.086 72.7031C47.1131 71.9693 47.732 71.3943 48.4656 71.4215C48.5625 71.425 48.6439 71.3491 48.6475 71.2518C48.6511 71.1545 48.5755 71.0727 48.4786 71.0692Z" fill="#8FD2CE"/>
<path d="M31.9044 82.4801C30.8569 82.384 29.9103 81.8879 29.2388 81.083C28.5674 80.2785 28.2506 79.26 28.3464 78.215C28.3727 77.9286 28.1628 77.6753 27.8778 77.6491C27.5926 77.623 27.3402 77.8339 27.314 78.1203C27.2181 79.1653 26.7212 80.1092 25.9148 80.7782C25.108 81.4475 24.087 81.7632 23.0395 81.6671C22.7543 81.641 22.5019 81.8519 22.4757 82.1383C22.4494 82.4247 22.6592 82.678 22.9444 82.7042C25.1037 82.9022 26.6995 84.8207 26.5014 86.9807C26.4752 87.2671 26.685 87.5205 26.9701 87.5466C27.2551 87.5727 27.5076 87.3618 27.5339 87.0754C27.732 84.9154 29.65 83.3191 31.8093 83.5171C32.0945 83.5433 32.3469 83.3323 32.3731 83.0459C32.3994 82.7595 32.1896 82.5062 31.9044 82.4801Z" fill="#ABE1DE"/>
<path d="M85.2834 64.8251C84.7234 64.7737 84.2174 64.5085 83.8584 64.0783C83.4995 63.6482 83.3302 63.1037 83.3814 62.5451C83.3954 62.392 83.2832 62.2566 83.1308 62.2426C82.9784 62.2286 82.8435 62.3414 82.8295 62.4945C82.7782 63.0531 82.5126 63.5577 82.0815 63.9153C81.6502 64.2731 81.1044 64.4419 80.5444 64.3905C80.392 64.3765 80.2571 64.4893 80.243 64.6424C80.229 64.7955 80.3412 64.9309 80.4936 64.9449C81.6479 65.0507 82.501 66.0763 82.3951 67.231C82.3811 67.3841 82.4932 67.5195 82.6456 67.5335C82.798 67.5475 82.933 67.4347 82.947 67.2816C83.0529 66.1269 84.0782 65.2736 85.2326 65.3795C85.385 65.3934 85.5199 65.2807 85.534 65.1276C85.548 64.9745 85.4358 64.8391 85.2834 64.8251Z" fill="#8FD2CE"/>
<g filter="url(#filter0_d)">
<circle cx="49.9347" cy="50.3093" r="36.3794" transform="rotate(-179.508 49.9347 50.3093)" fill="white"/>
</g>
<path fill-rule="evenodd" clip-rule="evenodd" d="M46.665 58.113C46.1683 55.6467 46.0253 51.436 46.4736 48.1323C46.5684 48.0565 46.6764 47.9685 46.7953 47.8691C47.2483 47.4906 47.7016 47.0777 48.1287 46.6409C48.8348 45.9188 49.4014 45.2016 49.781 44.4883C50.824 42.5194 51.175 41.4811 51.36 39.6793C51.3899 39.388 51.4077 39.0544 51.4156 38.6838C51.4242 38.2826 51.4209 37.8593 51.4096 37.4394C51.4391 37.4461 51.4758 37.4609 51.5265 37.4842C52.9364 38.1322 54.1059 39.8472 53.6491 41.5436C53.115 43.527 52.9709 44.6825 53.0927 45.3309C53.1232 45.4933 53.1723 45.6387 53.2446 45.7695C53.4822 46.1992 53.9552 46.4436 54.4431 46.3886C54.4934 46.383 54.5951 46.3725 54.742 46.3588C54.9905 46.3356 55.2718 46.3127 55.5797 46.2916C56.8396 46.2053 58.128 46.1765 59.318 46.2362C60.0314 46.272 60.6788 46.3389 61.2427 46.439C61.959 46.5661 62.1219 46.779 62.1148 47.5304C62.111 47.9306 61.9014 48.47 61.7766 48.587C61.2527 49.0777 61.2667 49.9134 61.8066 50.3864C61.8341 50.4104 61.8866 50.7587 61.7814 51.194C61.7236 51.4331 61.6298 51.6462 61.5285 51.7847C61.5064 51.8148 61.4869 51.8376 61.4717 51.8529C60.8135 52.0176 60.4123 52.6973 60.5995 53.3603C60.9171 54.4852 60.8063 55.02 60.0262 55.5528C59.6826 55.7875 59.4831 56.1819 59.4976 56.5978C59.5233 57.3336 59.4405 57.8088 59.3041 58.0653C59.2487 58.1695 59.21 58.2007 59.1275 58.2286C59.0389 58.2585 58.9609 58.27 58.6711 58.2969C58.5797 58.3053 58.5163 58.3122 58.4478 58.3219C56.8294 58.5527 49.4852 58.4449 46.665 58.113ZM46.3924 44.9432C46.1923 45.1479 45.9834 45.3483 45.7705 45.5419C45.6385 45.509 45.4978 45.4979 45.3522 45.5128C42.45 45.8095 41.0401 45.7468 38.8813 45.1435C38.1901 44.9503 37.483 45.3957 37.3587 46.1026C36.3152 52.0353 36.1228 56.4677 37.3226 60.524C37.4586 60.9837 37.8524 61.3203 38.3276 61.3832C42.6098 61.9501 43.5669 61.8722 46.2705 60.8179C46.4286 60.7563 46.5667 60.665 46.6806 60.5529C49.9978 60.8922 57.0101 60.9799 58.7906 60.726C58.8098 60.7232 58.8408 60.7199 58.8955 60.7148C59.1611 60.6902 59.177 60.6886 59.3066 60.6695C59.5145 60.639 59.7095 60.5952 59.9045 60.5293C61.1542 60.1072 61.8537 58.9843 61.9243 57.1487C63.0078 56.1902 63.3402 55.0141 63.1356 53.6152C64.1398 52.6555 64.5532 50.8212 64.0507 49.5085C64.3501 48.9214 64.5368 48.2078 64.543 47.5534C64.561 45.6545 63.5932 44.3899 61.6671 44.048C60.9941 43.9286 60.2481 43.8514 59.4397 43.8109C58.2011 43.7487 56.8889 43.7739 55.6005 43.8565C55.6844 43.4037 55.8133 42.846 55.9939 42.1749C56.809 39.1477 54.9138 36.3685 52.5407 35.2778C51.4657 34.7837 50.4554 34.9965 49.6995 35.6353C49.4353 35.8586 49.2535 36.0858 49.1383 36.2747C49.0111 36.4834 48.9498 36.7256 48.9624 36.9697C48.9666 37.0511 48.973 37.2016 48.9791 37.4003C48.9918 37.8183 48.9961 38.2419 48.9878 38.632C48.9812 38.9422 48.9667 39.2134 48.9444 39.4312C48.7942 40.893 48.5416 41.6404 47.6404 43.3417C47.3834 43.8246 46.9507 44.3722 46.3924 44.9432ZM39.448 59.0798C38.687 55.949 38.807 52.3776 39.5353 47.8045C40.9894 48.108 42.2919 48.175 44.0338 48.0625C43.5738 51.718 43.7562 56.223 44.361 58.9338C42.9565 59.402 42.0621 59.4089 39.448 59.0798Z" fill="#ABE1DE"/>
<path d="M81.6826 24.6698C80.4612 24.5578 79.3575 23.9793 78.5745 23.0408C77.7917 22.1028 77.4223 20.9152 77.534 19.6967C77.5647 19.3628 77.3199 19.0674 76.9875 19.037C76.6551 19.0065 76.3608 19.2524 76.3302 19.5863C76.2184 20.8048 75.639 21.9054 74.6987 22.6854C73.7581 23.4658 72.5676 23.8339 71.3462 23.7219C71.0137 23.6914 70.7194 23.9373 70.6888 24.2713C70.6582 24.6052 70.9028 24.9006 71.2353 24.931C73.753 25.1619 75.6137 27.3989 75.3828 29.9175C75.3521 30.2514 75.5968 30.5468 75.9292 30.5773C76.2616 30.6077 76.556 30.3618 76.5866 30.0279C76.8176 27.5093 79.0539 25.6481 81.5717 25.8789C81.9042 25.9094 82.1985 25.6635 82.2291 25.3296C82.2597 24.9956 82.0151 24.7003 81.6826 24.6698Z" fill="#8FD2CE"/>
<defs>
<filter id="filter0_d" x="0.193067" y="0.567456" width="99.4832" height="99.4832" filterUnits="userSpaceOnUse" color-interpolation-filters="sRGB">
<feFlood flood-opacity="0" result="BackgroundImageFix"/>
<feColorMatrix in="SourceAlpha" type="matrix" values="0 0 0 0 0 0 0 0 0 0 0 0 0 0 0 0 0 0 127 0"/>
<feOffset/>
<feGaussianBlur stdDeviation="6.68112"/>
<feColorMatrix type="matrix" values="0 0 0 0 0 0 0 0 0 0 0 0 0 0 0 0 0 0 0.15 0"/>
<feBlend mode="normal" in2="BackgroundImageFix" result="effect1_dropShadow"/>
<feBlend mode="normal" in="SourceGraphic" in2="effect1_dropShadow" result="shape"/>
</filter>
</defs>
</svg>
