<svg width="24" height="24" viewBox="0 0 24 24" fill="none" xmlns="http://www.w3.org/2000/svg">
<path d="M14.5293 2.00023C14.4484 1.99805 14.3671 2.01117 14.2899 2.04148L11.9999 2.92019L9.71134 2.04273C9.45758 1.94524 9.17382 2.02273 9.00256 2.23272L7.46033 4.13639L5.03931 4.52138C4.77305 4.56387 4.56304 4.77386 4.52054 5.0401L4.13553 7.46125L2.23172 9.00368C2.02171 9.17368 1.94546 9.45991 2.04171 9.7124L2.91924 12.0007L2.04171 14.2894C1.94421 14.5419 2.02171 14.8281 2.23172 14.9981L4.13553 16.5393L4.52054 18.9604C4.56304 19.2279 4.7718 19.4379 5.03931 19.4804L7.46033 19.8654L9.00256 21.7675C9.17382 21.98 9.46008 22.055 9.71259 21.9575L11.9999 21.0813L14.2887 21.9588C14.3612 21.9862 14.4362 22 14.5124 22C14.6962 22 14.8774 21.9188 14.9987 21.7675L16.54 19.8654L18.9613 19.4804C19.2288 19.4379 19.4388 19.2279 19.4813 18.9604L19.8664 16.5393L21.7686 14.9981C21.9799 14.8269 22.0549 14.5419 21.9586 14.2894L21.0811 12.0007L21.9586 9.7124C22.0549 9.45991 21.9799 9.17368 21.7686 9.00243L19.8664 7.46L19.4813 5.03917C19.4388 4.77168 19.2288 4.56294 18.9613 4.52044L16.54 4.13545L14.9987 2.2321C14.8818 2.08679 14.7071 2.00586 14.5293 2.00086V2.00023ZM15.1434 7.00033C15.2637 7.00346 15.3846 7.04158 15.49 7.11689C15.7712 7.31688 15.835 7.70811 15.635 7.9881L9.38508 16.7371C9.26132 16.9083 9.07007 16.9996 8.87506 16.9996C8.74881 16.9996 8.62255 16.9621 8.51255 16.8833C8.23129 16.6821 8.16629 16.2921 8.36754 16.0109L14.6174 7.26188C14.7434 7.08627 14.9428 6.99471 15.1434 7.00033ZM10.1251 7.00064C11.1589 7.00064 12.0002 7.84186 12.0002 8.87556C12.0002 9.90927 11.1589 10.7505 10.1251 10.7505C9.09132 10.7505 8.25004 9.90927 8.25004 8.87556C8.25004 7.84186 9.09132 7.00064 10.1251 7.00064ZM10.1251 8.25059C9.78009 8.25059 9.50008 8.53058 9.50008 8.87556C9.50008 9.22055 9.78009 9.50054 10.1251 9.50054C10.4701 9.50054 10.7501 9.22055 10.7501 8.87556C10.7501 8.53058 10.4701 8.25059 10.1251 8.25059ZM13.8749 13.2501C14.9087 13.2501 15.75 14.0913 15.75 15.125C15.75 16.1587 14.9087 16.9999 13.8749 16.9999C12.8411 16.9999 11.9999 16.1587 11.9999 15.125C11.9999 14.0913 12.8411 13.2501 13.8749 13.2501ZM13.8749 14.5C13.5312 14.5 13.2499 14.7812 13.2499 15.125C13.2499 15.4687 13.5312 15.75 13.8749 15.75C14.2187 15.75 14.4999 15.4687 14.4999 15.125C14.4999 14.7812 14.2187 14.5 13.8749 14.5Z" fill="#6AC259"/>
</svg>
