<svg width="53" height="50" viewBox="0 0 53 50" fill="none" xmlns="http://www.w3.org/2000/svg">
<path d="M46.7582 17.3232L46.7582 17.3232C47.0517 17.6493 47.1933 18.085 47.148 18.5218L45.5476 33.9127C45.459 34.7647 44.6978 35.3829 43.8489 35.2939L43.8488 35.2939C42.9994 35.2053 42.3818 34.4434 42.4705 33.5915L43.1155 27.3876L43.1442 27.1117H42.8669H28.4964H28.219L28.2477 27.3876L29.7362 41.7017C29.7972 42.2886 30.2882 42.7327 30.8783 42.7327H40.485C41.0749 42.7327 41.5661 42.2888 41.6271 41.7018C41.7157 40.8499 42.4762 40.2323 43.326 40.3206C44.1753 40.4093 44.7928 41.1711 44.7042 42.023L44.9307 42.0465L44.7042 42.023C44.4784 44.1958 42.6645 45.8329 40.485 45.8329H30.8783C28.6987 45.8329 26.8849 44.1958 26.6591 42.023L24.2154 18.5218C24.17 18.0849 24.3116 17.6493 24.605 17.3232L24.6051 17.3232C24.8984 16.9971 25.3159 16.811 25.7539 16.811H45.6094C46.0474 16.811 46.4649 16.9971 46.7582 17.3232ZM27.8733 23.7873L27.8967 24.0115H28.122H43.2412H43.4665L43.4898 23.7873L43.8642 20.1871L43.8929 19.9113H43.6156H27.7476H27.4703L27.499 20.1871L27.8733 23.7873ZM12.3501 15.0305L12.3501 15.0305C14.2027 12.5962 15.2227 9.57086 15.2227 6.50993V3.60023V3.35023H14.9727H14.5234C13.6695 3.35023 12.9766 2.65667 12.9766 1.80011C12.9766 0.943557 13.6695 0.25 14.5234 0.25H28.8086C29.6625 0.25 30.3555 0.943557 30.3555 1.80011C30.3555 2.65667 29.6625 3.35023 28.8086 3.35023H28.3594H28.1094V3.60023V6.69417C28.1094 8.08596 28.3151 9.46673 28.7208 10.7979L28.96 10.725L28.7208 10.7979C28.9705 11.617 28.5099 12.4834 27.6931 12.7333C27.5422 12.7794 27.3901 12.8013 27.2408 12.8013C26.5784 12.8013 25.9656 12.3713 25.7621 11.7035L25.7621 11.7034C25.2668 10.0785 25.0156 8.39326 25.0156 6.69417V3.60023V3.35023H24.7656H18.5664H18.3164V3.60023V6.50993C18.3164 10.2456 17.0709 13.9399 14.81 16.9105L14.9912 17.0484L14.81 16.9105C12.9574 19.3448 11.9375 22.3702 11.9375 25.4311V38.8824C11.9375 41.0052 13.6612 42.7327 15.7812 42.7327H21.8008C22.6547 42.7327 23.3477 43.4262 23.3477 44.2828C23.3477 45.1393 22.6547 45.8329 21.8008 45.8329H15.7812C11.9566 45.8329 8.84375 42.7151 8.84375 38.8824V25.4311C8.84375 21.6954 10.0892 18.0012 12.3501 15.0305Z" fill="#E5E5E5" stroke="white" stroke-width="0.5"/>
<line x1="1.5" y1="-1.5" x2="67.9116" y2="-1.5" transform="matrix(-0.734747 0.678341 -0.677021 -0.735964 51 1.00195)" stroke="#E5E5E5" stroke-width="3" stroke-linecap="round"/>
</svg>
