<?xml version="1.0" encoding="utf-8"?>
<!-- Generator: Adobe Illustrator 23.1.0, SVG Export Plug-In . SVG Version: 6.00 Build 0)  -->
<svg version="1.1" id="Layer_1" xmlns="http://www.w3.org/2000/svg" xmlns:xlink="http://www.w3.org/1999/xlink" x="0px" y="0px"
	 viewBox="0 0 56 16" style="enable-background:new 0 0 56 16;" xml:space="preserve">
<style type="text/css">
	.st0{fill-rule:evenodd;clip-rule:evenodd;fill:#FFFFFF;}
</style>
<g>
	<path class="st0" d="M7.4,0.4C11,0.4,13,2.5,13,3.9c0,1.2-1,1.9-2.1,1.9c-1.5,0-2.1-1.5-3.5-1.5C6.4,4.3,6,4.7,6,5.1
		c0,1.4,7.6,0.8,7.6,5.5c0,2.7-2.3,4.9-6.8,4.9c-1.8,0-5.9-1-5.9-3.4c0-1.1,0.9-2,2-2c1.7,0,2.2,1.5,3.8,1.5c1.5,0,2.1-0.5,2.1-1
		c0-1.2-7.6-0.6-7.6-5.5C1.2,2.5,3.2,0.4,7.4,0.4z"/>
	<path class="st0" d="M28.7,2.7v10.6c0,1.3,1,2.3,2.3,2.3s2.3-1,2.3-2.3V11h2.8l0,0c2.9,0,5.3-2.4,5.3-5.3S39,0.4,36.1,0.4l0,0h-5
		l0,0C29.8,0.4,28.7,1.4,28.7,2.7L28.7,2.7z M35.6,7h-2.3V4.5h2.3c0.7,0,1.3,0.6,1.3,1.3S36.3,7,35.6,7z"/>
	<path class="st0" d="M42.4,2.7v10.6c0,1.3,1,2.3,2.3,2.3s2.3-1,2.3-2.3V11h1.4l3.1,3.7c0.8,1,2.2,1.1,3.2,0.3s1.1-2.2,0.3-3.2
		l-1.8-2.1c1.1-1,1.8-2.4,1.8-4c0-2.9-2.4-5.3-5.3-5.3h-5C43.4,0.4,42.4,1.4,42.4,2.7L42.4,2.7z M49.2,7H47V4.5h2.3
		c0.7,0,1.3,0.6,1.3,1.3S49.9,7,49.2,7z"/>
	<g>
		<g>
			<path class="st0" d="M18.3,0.4c1.4,0,2.5,1.1,2.5,2.5s-1.1,2.5-2.5,2.5s-2.5-1.1-2.5-2.5S16.9,0.4,18.3,0.4L18.3,0.4z M20.6,2.9
				c0-1.3-1-2.3-2.3-2.3l0,0c-0.2,0.7-0.2,1.5,0,2.3s0.7,1.4,1.3,1.9C20.2,4.4,20.6,3.7,20.6,2.9z"/>
			<path class="st0" d="M23.9,0.4c1.4,0,2.5,1.1,2.5,2.5s-1.1,2.5-2.5,2.5s-2.5-1.1-2.5-2.5S22.5,0.4,23.9,0.4L23.9,0.4z M26.2,2.9
				c0-1.3-1-2.3-2.3-2.3l0,0c-0.2,0.7-0.2,1.5,0,2.3s0.7,1.4,1.3,1.9C25.8,4.4,26.2,3.7,26.2,2.9z"/>
		</g>
		<path class="st0" d="M21.1,15.6c1.7,0,6.6-0.5,6.6-2.8V8.3c0-1-0.8-1.8-1.8-1.8h-0.5c-1,0-1.8,0.8-1.8,1.8v1.5
			c0,1-1.1,1.8-2.5,1.8s-2.5-0.8-2.5-1.8V8.3c0-1-0.8-1.8-1.8-1.8h-0.5c-1,0-1.8,0.8-1.8,1.8v4.6C14.5,15.1,19.5,15.6,21.1,15.6z"/>
	</g>
</g>
</svg>
