<svg width="213" height="216" viewBox="0 0 213 216" fill="none" xmlns="http://www.w3.org/2000/svg">
<path d="M61.2093 72.3797C61.1051 74.8258 62.3713 77.1154 64.5055 78.3127C64.7136 78.4344 66.4828 77.0638 66.7256 76.9074C67.246 76.5777 67.7664 76.2311 68.27 75.884C68.339 75.8318 68.8599 75.4331 68.9115 75.45C66.7778 74.2533 65.5116 71.9631 65.6153 69.517C65.6153 69.5518 64.8869 69.9684 64.9564 69.9163C64.436 70.2455 63.9156 70.5752 63.3952 70.9223C62.8748 71.252 62.3544 71.5991 61.8509 71.9457C61.7471 72.0152 61.2262 72.2928 61.2093 72.3797Z" fill="#FA7697"/>
<path d="M97.8657 75.2252C98.0564 78.1574 100.901 80.447 103.799 80.0136C103.851 80.0136 104.146 79.233 104.111 79.3199C104.354 78.7468 104.597 78.1748 104.839 77.6196C105.082 77.0471 105.308 76.4745 105.551 75.902C105.586 75.8151 105.776 75.1904 105.828 75.1904C102.931 75.6244 100.086 73.3342 99.8951 70.4025C99.8951 70.5242 99.6002 71.0794 99.5828 71.0962C99.34 71.6693 99.0972 72.2413 98.8543 72.7965C98.6115 73.369 98.3861 73.9415 98.1433 74.5141C98.0737 74.6874 97.8483 75.0345 97.8657 75.2252Z" fill="#FFBC1F"/>
<path d="M53.8761 168.527C55.9751 168.44 58.074 168.354 60.173 168.267C60.2947 168.267 60.1562 163.028 60.1909 163.028C58.0914 163.115 55.9924 163.201 53.8935 163.288C53.7718 163.288 53.9109 168.527 53.8761 168.527Z" fill="#FFBC1F"/>
<path d="M34.7767 34.8235C33.9282 34.0831 32.9005 33.4975 31.9569 32.8875C31.4431 32.5534 30.9531 32.2427 30.3317 32.1829C28.9812 32.0754 27.8943 33.1509 27.822 34.465C27.822 34.5008 28.3 34.7996 28.2522 34.7637C28.5988 35.0027 28.9573 35.2417 29.3159 35.4808C29.6744 35.7198 30.0209 35.9468 30.3795 36.1859C30.4273 36.2217 30.8336 36.4368 30.8216 36.4727C30.9292 34.6562 32.7935 33.6529 34.3704 34.5133C34.2987 34.465 34.227 34.4291 34.1553 34.3813C33.3546 33.856 32.5664 33.3416 31.7657 32.8163C32.2079 33.2107 32.7696 33.5089 33.2596 33.8321C33.749 34.1662 34.3346 34.4411 34.7767 34.8235Z" fill="#FF8164"/>
<path d="M114.337 182.897C113.504 185.188 114.302 187.79 116.263 189.212C116.349 189.264 117.044 189.195 117.027 189.195C117.651 189.178 118.258 189.143 118.883 189.108C119.507 189.074 120.114 189.038 120.739 189.004C120.877 189.004 121.416 188.883 121.502 188.952C119.524 187.529 118.744 184.927 119.576 182.637C119.524 182.759 117.2 182.724 116.957 182.742C116.332 182.776 115.725 182.811 115.101 182.845C115.013 182.845 114.355 182.828 114.337 182.897Z" fill="#FF8164"/>
<path d="M125.167 46.8575C126.693 49.4943 129.451 51.1945 132.487 51.3857C132.556 51.3857 133.043 50.7779 133.008 50.8127C133.424 50.3444 133.823 49.8936 134.222 49.4253C134.621 48.9565 135.038 48.4883 135.437 48.02C135.506 47.9331 135.853 47.4301 135.923 47.4301C132.887 47.2394 130.128 45.5392 128.601 42.9019C128.653 42.9888 127.005 44.6891 126.867 44.8623C126.71 45.0362 125.062 46.6843 125.167 46.8575Z" fill="#FFBC1F"/>
<path d="M135.335 8.58965C135.174 6.90353 134.172 5.40591 132.682 4.60684C132.647 4.59109 132.261 4.78501 132.286 4.77577C131.968 4.91647 131.662 5.05174 131.352 5.19623C131.041 5.34073 130.723 5.48087 130.413 5.62536C130.358 5.65361 130.066 5.82743 130.031 5.81114C131.521 6.6102 132.522 8.10782 132.684 9.79395C132.677 9.73799 133.904 9.25999 134.014 9.20458C134.133 9.15298 135.347 8.70155 135.335 8.58965Z" fill="#FFBC1F"/>
<path d="M188.013 68.1791C187.596 68.9526 187.167 69.7261 186.749 70.4991C186.77 70.4682 188.149 70.9071 188.264 70.938C188.39 70.9695 189.748 71.4188 189.79 71.3454C190.208 70.5724 190.636 69.7989 191.054 69.0259C191.034 69.0569 189.027 66.8938 188.902 66.8623C188.777 66.8314 188.045 68.1063 188.013 68.1791Z" fill="#FA7697"/>
<path d="M43.7147 124.152C41.1633 124.44 39.2789 126.945 39.6906 129.476C39.8357 130.309 40.2442 131.171 40.5065 131.969C40.7852 132.758 41.2323 133.621 41.3702 134.439C40.9427 131.916 42.8429 129.403 45.3944 129.116C45.3395 129.123 44.6355 126.826 44.5779 126.623C44.5203 126.42 43.8625 124.14 43.7147 124.152Z" fill="#FA7697"/>
<path d="M209.817 91.5977C209.625 89.6519 209.433 87.6931 209.254 85.7467C209.24 85.6696 207.781 85.5419 207.64 85.5295C207.512 85.5164 206.027 85.3882 206.027 85.3372C206.219 87.2829 206.411 89.2423 206.59 91.1881C206.603 91.2647 208.062 91.3929 208.204 91.4059C208.332 91.4314 209.817 91.5591 209.817 91.5977Z" fill="#FFBC1F"/>
<path d="M69.7692 164.784C68.9185 167.265 69.283 169.972 70.7404 172.14C70.7752 172.174 71.5905 172.105 71.5036 172.105C72.1283 172.071 72.7351 172.036 73.3598 172.001C73.9845 171.966 74.5912 171.932 75.2159 171.879C75.3028 171.879 75.9617 171.776 75.9797 171.81C74.5049 169.641 74.1578 166.936 75.0079 164.455C74.9731 164.576 72.6139 164.576 72.3885 164.576C72.1109 164.628 69.8381 164.576 69.7692 164.784Z" fill="#30D6AF"/>
<path d="M103.179 202.813C105.5 204.035 108.23 204.09 110.597 202.984C110.637 202.955 110.692 202.138 110.679 202.224C110.741 201.602 110.801 200.996 110.862 200.374C110.923 199.752 110.983 199.146 111.027 198.521C111.041 198.435 111.039 197.768 111.075 197.756C108.707 198.88 105.979 198.807 103.658 197.586C103.773 197.639 103.411 199.97 103.376 200.193C103.385 200.476 102.984 202.713 103.179 202.813Z" fill="#30D6AF"/>
<path d="M29.2507 62.4978C27.6873 61.9074 26.1234 61.3049 24.5485 60.7145C24.595 60.7373 24.4096 62.3126 24.3979 62.4631C24.3866 62.6141 24.178 64.1655 24.2822 64.2122C25.8458 64.8027 27.4092 65.4051 28.9845 65.9961C28.9383 65.9727 29.1235 64.3974 29.1349 64.247C29.1583 64.0845 29.3669 62.5326 29.2507 62.4978Z" fill="#3F67F2"/>
<path d="M141.555 138.402C143.498 139.494 145.718 139.737 147.853 139.095C147.956 139.061 147.714 136.701 147.696 136.476C147.679 136.267 147.419 133.891 147.488 133.856C145.354 134.498 143.134 134.255 141.191 133.162C141.208 133.179 141.225 134.03 141.225 133.925C141.26 134.55 141.294 135.157 141.347 135.782C141.382 136.406 141.433 137.013 141.486 137.638C141.486 137.742 141.468 138.366 141.555 138.402Z" fill="#FFBC1F"/>
<path d="M186.365 109.004C187.493 110.219 188.603 111.433 189.731 112.647C189.835 112.751 193.738 109.282 193.79 109.334C192.663 108.12 191.552 106.905 190.425 105.691C190.32 105.586 186.401 109.056 186.365 109.004Z" fill="#3F67F2"/>
<path d="M169.46 113.967C171.106 113.78 172.743 113.607 174.39 113.42C174.535 113.398 174.059 108.197 174.132 108.186C172.485 108.373 170.849 108.546 169.202 108.733C169.057 108.755 169.522 113.97 169.46 113.967Z" fill="#3F67F2"/>
<path d="M88.7494 149.47C87.5521 151.499 86.3554 153.529 85.1582 155.559C85.2793 155.368 89.8771 157.762 90.033 157.502C91.2302 155.472 92.4269 153.442 93.6241 151.413C93.5025 151.621 88.9053 149.21 88.7494 149.47Z" fill="#FFBC1F"/>
<path d="M129.318 174.681C128.121 176.71 126.925 178.74 125.727 180.77C125.849 180.579 130.447 182.972 130.603 182.713C131.8 180.683 132.997 178.653 134.193 176.623C134.072 176.832 129.475 174.42 129.318 174.681Z" fill="#FFBC1F"/>
<path d="M124.468 210.785C125.743 211.126 127.019 211.467 128.296 211.809C128.174 211.772 128.775 208.93 128.612 208.884C127.336 208.543 126.059 208.202 124.784 207.86C124.914 207.895 124.303 210.74 124.468 210.785Z" fill="#FFBC1F"/>
<path d="M56.7036 201.711C56.0887 202.753 55.4738 203.796 54.8589 204.838C54.9214 204.741 57.2832 205.97 57.3631 205.837C57.978 204.794 58.5929 203.751 59.2078 202.709C59.1454 202.816 56.784 201.577 56.7036 201.711Z" fill="#FFBC1F"/>
<path d="M22.3395 85.555C22.4611 86.0058 22.5998 86.4567 22.7212 86.9081C22.86 87.3764 22.808 87.2547 23.1895 87.3416C23.4327 87.4111 23.7968 87.3242 24.0572 87.3068C25.1498 87.2721 26.2433 87.2373 27.3357 87.2031C27.5959 87.2031 27.6481 81.9812 27.8213 81.9812C26.729 82.0159 25.6355 82.0502 24.5429 82.0849C24.3175 82.0849 24.0918 82.1029 23.849 82.1029C23.6757 82.1029 23.5021 82.1197 23.3283 82.1197C23.2939 82.0154 23.2763 81.9117 23.2415 81.8247C23.0162 81.4086 22.947 80.784 22.808 80.3157C22.8428 80.4542 22.7212 81.0094 22.7212 81.0789C22.6518 81.6862 22.5998 82.3104 22.5479 82.9182C22.4959 83.525 22.4263 84.1497 22.3915 84.7565C22.3743 84.9998 22.2701 85.3464 22.3395 85.555Z" fill="#30D6AF"/>
<path d="M102.296 60.5084C102.418 61.792 102.521 63.0757 102.643 64.3598C102.66 64.4815 104.153 64.828 104.308 64.8628C104.465 64.915 105.974 65.2273 105.991 65.3311C105.87 64.0474 105.766 62.7633 105.644 61.4797C105.627 61.3586 104.135 61.0114 103.979 60.9767C103.823 60.9419 102.314 60.6122 102.296 60.5084Z" fill="#FA7697"/>
<path d="M166.843 130.902C168.387 131.769 170.174 131.804 171.753 131.023C171.874 130.971 171.7 129.444 171.7 129.271C171.7 129.098 171.509 127.571 171.614 127.519C170.036 128.3 168.248 128.248 166.705 127.398C166.826 127.467 166.756 128.959 166.756 129.149C166.756 129.375 166.652 130.798 166.843 130.902Z" fill="#FF8164"/>
<path d="M121.834 136.354C121.366 137.638 120.898 138.922 120.429 140.188C120.429 140.206 123.708 141.403 123.708 141.386C124.177 140.101 124.645 138.818 125.113 137.552C125.113 137.534 121.834 136.337 121.834 136.354Z" fill="#FF8164"/>
<path d="M23.7 137.272C23.7694 138.781 23.839 140.307 23.9081 141.817C23.9081 141.956 27.3951 141.904 27.3951 141.99C27.3256 140.481 27.2566 138.954 27.1871 137.445C27.1871 137.324 23.7 137.358 23.7 137.272Z" fill="#30D6AF"/>
<path d="M1.97144 120.712C2.52649 122.117 3.08181 123.539 3.6367 124.945C3.72345 125.153 5.09403 125.378 5.31957 125.448C5.54495 125.517 6.93285 125.708 7.00227 125.916C6.44695 124.511 5.89184 123.089 5.33679 121.683C5.24998 121.475 3.87946 121.249 3.65408 121.18C3.44592 121.111 2.05819 120.903 1.97144 120.712Z" fill="#FFBC1F"/>
<path d="M36.7883 109.126C37.9329 109.959 39.078 110.809 40.223 111.641C40.3789 111.763 42.5648 109.074 42.7039 109.178C41.5588 108.345 40.4137 107.495 39.2692 106.662C39.0953 106.524 36.9095 109.213 36.7883 109.126Z" fill="#FF8164"/>
<path d="M140.704 155.594C140.167 157.728 138.797 159.497 136.854 160.539C136.992 160.469 138.224 161.232 138.415 161.336C138.623 161.44 139.785 162.203 139.993 162.1C141.936 161.059 143.307 159.289 143.845 157.155C143.896 156.877 140.635 155.819 140.704 155.594Z" fill="#3F67F2"/>
<path d="M72.0232 41.0952C73.2894 41.7025 74.5736 42.2924 75.8398 42.8998C75.9441 42.9514 77.5053 39.829 77.5748 39.8638C76.3086 39.2565 75.0244 38.6665 73.7582 38.0592C73.6539 38.0071 72.0753 41.1126 72.0232 41.0952Z" fill="#FF8164"/>
<path d="M74.073 7.52097C74.7325 7.83712 75.4006 8.14348 76.0595 8.45962C76.1138 8.48678 76.9265 6.86151 76.9623 6.87943C76.3034 6.56383 75.6353 6.2569 74.9758 5.94075C74.922 5.91359 74.1002 7.52966 74.073 7.52097Z" fill="#FF8164"/>
<path d="M179.573 83.2332C179.643 84.6037 181.065 85.6271 182.384 85.2284C182.47 85.211 182.713 84.8813 182.731 84.8639C183.008 84.5695 183.286 84.2566 183.564 83.9616C183.841 83.6498 184.118 83.3548 184.396 83.0425C184.465 82.9556 184.639 82.678 184.726 82.6606C183.407 83.0599 181.985 82.0359 181.916 80.6659C181.916 80.7002 181.534 81.0647 181.568 81.0299C181.291 81.3249 181.013 81.6372 180.736 81.9322C180.458 82.2445 180.181 82.5395 179.903 82.8513C179.851 82.904 179.573 83.1462 179.573 83.2332Z" fill="#FA7697"/>
<path d="M12.7713 86.3895C12.6599 87.4124 13.0875 88.389 13.9057 89.0116C13.9617 89.049 14.6312 88.5748 14.7054 88.5281C14.7799 88.4819 15.4587 87.9985 15.4959 88.0262C14.6776 87.4031 14.2501 86.427 14.3615 85.4041C14.3521 85.497 13.6549 85.8224 13.5617 85.8876C13.4504 85.962 12.7902 86.2499 12.7713 86.3895Z" fill="#30D6AF"/>
<path d="M73.6368 81.2664C73.168 79.4097 72.7171 77.5362 72.2483 75.68C72.2483 75.6453 68.8484 76.4785 68.8484 76.4954C69.3166 78.3521 69.768 80.2251 70.2363 82.0818C70.2363 82.0991 73.6368 81.2838 73.6368 81.2664Z" fill="#FFBC1F"/>
<path d="M51.0293 73.051C51.2553 74.8034 51.4807 76.5553 51.7235 78.2897C51.7409 78.4809 55.193 78.186 55.2104 78.3245C54.985 76.5727 54.7595 74.8208 54.5167 73.0858C54.4993 72.8946 51.0472 73.1895 51.0293 73.051Z" fill="#FF8164"/>
<path d="M62.4813 51.6265C64.2163 52.1295 65.9513 52.6152 67.7032 53.1182C67.6515 53.1008 67.7032 51.5222 67.7032 51.3663C67.7032 51.2099 67.7727 49.6487 67.6684 49.6139C65.9339 49.1109 64.1989 48.6253 62.4465 48.1217C62.4987 48.1391 62.4465 49.7177 62.4465 49.8741C62.4297 50.0474 62.3601 51.6086 62.4813 51.6265Z" fill="#FF8164"/>
<path d="M67.3532 25.4844C67.1995 27.284 67.0626 29.0804 66.9121 30.8975C66.9192 30.8426 68.4776 30.5851 68.6303 30.5547C68.7835 30.5237 70.3284 30.2863 70.3419 30.1772C70.4957 28.3775 70.6326 26.5811 70.783 24.7646C70.776 24.8189 69.218 25.077 69.0649 25.1074C68.891 25.1242 67.3461 25.3622 67.3532 25.4844Z" fill="#FFBC1F"/>
<path d="M178.662 54.6966C178.419 56.6744 178.194 58.6522 177.951 60.6295C177.968 60.5084 181.421 60.786 181.438 60.6295C181.681 58.6522 181.907 56.6744 182.149 54.6966C182.132 54.8008 178.68 54.5407 178.662 54.6966Z" fill="#FA7697"/>
<path d="M156.821 63.4398C157.116 65.0531 157.429 66.6838 157.724 68.2971C157.741 68.4362 159.25 68.6964 159.424 68.7312C159.58 68.7659 161.106 69.0087 161.123 69.1299C160.829 67.5165 160.517 65.8858 160.222 64.2725C160.204 64.1334 158.695 63.8732 158.521 63.839C158.348 63.8042 156.839 63.5614 156.821 63.4398Z" fill="#FA7697"/>
<path d="M144.036 53.066C143.012 54.7141 141.989 56.3622 140.965 57.9929C141 57.9413 142.527 58.34 142.666 58.3748C142.821 58.4095 144.313 58.843 144.383 58.7219C145.407 57.0732 146.43 55.4257 147.453 53.7949C147.419 53.8466 145.892 53.4478 145.753 53.4131C145.597 53.3783 144.105 52.9448 144.036 53.066Z" fill="#3F67F2"/>
<path d="M137.649 33.0553C137.441 34.8072 137.216 36.5596 137.008 38.3114C136.99 38.52 140.39 39.1268 140.355 39.2832C140.564 37.5308 140.789 35.779 140.998 34.0266C141.032 33.8185 137.632 33.2112 137.649 33.0553Z" fill="#3F67F2"/>
<path d="M119.537 23.6277C119.277 25.5708 119.902 27.4617 121.272 28.867C121.341 28.9539 122.712 28.2075 122.868 28.138C123.007 28.069 124.377 27.3232 124.447 27.3753C123.076 25.9869 122.435 24.0791 122.712 22.1361C122.694 22.2746 121.289 22.7776 121.116 22.8645C120.908 22.9688 119.572 23.4197 119.537 23.6277Z" fill="#FF8164"/>
<path d="M81.522 136.78C81.0016 138.722 81.6257 140.77 83.1527 142.071C83.3949 142.279 84.5748 142.14 84.9045 142.14C85.3212 142.158 85.7199 142.158 86.136 142.175C86.2234 142.175 86.5874 142.123 86.6569 142.175C85.13 140.857 84.4884 138.827 85.0262 136.884C84.9567 137.127 81.5909 136.502 81.522 136.78Z" fill="#FF8164"/>
<path d="M164.227 178.236C163.707 180.179 164.331 182.226 165.858 183.527C166.101 183.735 167.28 183.596 167.61 183.596C168.026 183.613 168.425 183.613 168.842 183.631C168.928 183.631 169.292 183.579 169.362 183.631C167.836 182.313 167.193 180.283 167.731 178.34C167.662 178.582 164.296 177.958 164.227 178.236Z" fill="#FF8164"/>
<path d="M79.5015 191.036C79.0072 192.986 79.6601 195.024 81.2045 196.304C81.45 196.509 82.6277 196.354 82.9569 196.35C83.3735 196.362 83.7728 196.356 84.1894 196.368C84.2763 196.367 84.6397 196.31 84.7098 196.361C83.1649 195.063 82.4951 193.042 83.0068 191.093C82.9406 191.336 79.5667 190.758 79.5015 191.036Z" fill="#FF8164"/>
<path d="M88.7814 8.51393C88.3919 9.96865 88.8596 11.501 90.0026 12.475C90.1845 12.6304 91.0672 12.5266 91.3139 12.5266C91.6257 12.5396 91.9244 12.5396 92.2357 12.5527C92.3009 12.5527 92.5736 12.5141 92.6257 12.5527C91.4828 11.5657 91.0021 10.0463 91.4051 8.59215C91.353 8.77358 88.8466 8.30643 88.7814 8.51393Z" fill="#30D6AF"/>
<path d="M64.2769 159.589C65.5904 158.452 66.9289 157.316 68.2418 156.179C68.3173 156.107 66.094 153.433 66.1314 153.396C64.818 154.533 63.48 155.669 62.1665 156.805C62.0796 156.865 64.3024 159.565 64.2769 159.589Z" fill="#3F67F2"/>
<path d="M96.1836 162.04C97.3287 162.89 98.4564 163.74 99.6015 164.591C99.7748 164.728 101.995 162.075 102.134 162.179C100.989 161.329 99.8617 160.478 98.7166 159.629C98.5254 159.49 96.3227 162.144 96.1836 162.04Z" fill="#3F67F2"/>
<path d="M166.705 193.323C167.225 193.71 167.738 194.096 168.259 194.483C168.338 194.546 169.347 193.338 169.41 193.386C168.89 193 168.377 192.613 167.856 192.227C167.77 192.163 166.768 193.371 166.705 193.323Z" fill="#3F67F2"/>
<path d="M134.91 145.235C134.72 147.212 133.367 148.861 131.475 149.433C131.527 149.415 131.979 149.571 131.961 149.571C132.36 149.676 132.759 149.797 133.159 149.902C133.557 150.005 133.956 150.109 134.355 150.214C134.477 150.248 134.737 150.37 134.859 150.334C136.749 149.762 138.102 148.114 138.293 146.137C138.31 145.928 134.893 145.391 134.91 145.235Z" fill="#FF8164"/>
<path d="M190.48 96.0888C192.076 97.0954 193.95 97.4072 195.789 96.9737C196.171 96.8868 196.761 96.0198 197.038 95.7596C197.333 95.4647 197.627 95.1697 197.905 94.8747C197.975 94.8052 198.166 94.5276 198.252 94.5103C196.413 94.9443 194.54 94.6314 192.943 93.6254C192.701 93.4695 190.671 96.2105 190.48 96.0888Z" fill="#FF8164"/>
<path d="M172.573 147.111C173.614 148.047 174.673 148.984 175.714 149.904C175.818 149.991 177.153 149.279 177.309 149.193C177.466 149.123 178.801 148.377 178.888 148.464C177.847 147.527 176.789 146.59 175.748 145.671C175.644 145.584 174.309 146.295 174.152 146.382C173.996 146.452 172.66 147.198 172.573 147.111Z" fill="#FFBC1F"/>
<path d="M163.704 143.389C164.137 145.02 165.421 146.252 167.069 146.599C167.104 146.599 167.503 146.235 167.468 146.269C167.78 145.991 168.093 145.732 168.405 145.454C168.717 145.176 169.03 144.916 169.325 144.638C169.377 144.586 169.654 144.274 169.706 144.291C168.058 143.945 166.774 142.696 166.341 141.082C166.375 141.186 165.144 142.123 165.022 142.227C164.866 142.349 163.669 143.216 163.704 143.389Z" fill="#30D6AF"/>
<path d="M2.89321 75.8126C3.1232 76.6784 3.80477 77.3325 4.67988 77.5166C4.6983 77.5166 4.91009 77.3232 4.89162 77.3417C5.05758 77.1939 5.22325 77.056 5.38899 76.9088C5.55472 76.761 5.72067 76.623 5.87728 76.4758C5.90482 76.4481 6.05209 76.2824 6.0799 76.2917C5.20506 76.1075 4.52327 75.4443 4.29301 74.5876C4.31126 74.643 3.6575 75.1401 3.59303 75.1955C3.51002 75.2601 2.8654 75.7202 2.89321 75.8126Z" fill="#FFBC1F"/>
<path d="M195.508 120.794C196.063 122.737 195.126 124.836 193.322 125.738C193.478 125.651 194.693 126.397 194.901 126.502C195.126 126.606 196.254 127.334 196.497 127.23C198.318 126.328 199.238 124.229 198.682 122.286C198.613 122.061 197.329 121.644 197.104 121.523C196.722 121.349 196.358 121.176 195.976 121.002C195.907 120.967 195.508 120.829 195.508 120.794Z" fill="#FF8164"/>
<path d="M210.206 115.625C210.613 117.054 209.925 118.597 208.598 119.26C208.713 119.196 209.606 119.745 209.759 119.822C209.925 119.898 210.754 120.433 210.932 120.357C212.271 119.694 212.948 118.15 212.54 116.722C212.489 116.556 211.545 116.25 211.379 116.16C211.098 116.033 210.83 115.906 210.55 115.778C210.499 115.752 210.206 115.65 210.206 115.625Z" fill="#FF8164"/>
<path d="M164.799 203.945C165.743 203.496 166.895 203.794 167.51 204.638C167.452 204.565 167.729 203.882 167.764 203.767C167.798 203.643 168.074 203.005 168 202.89C167.384 202.037 166.234 201.748 165.289 202.197C165.18 202.252 165.077 202.943 165.035 203.068C164.978 203.278 164.921 203.478 164.865 203.688C164.853 203.727 164.816 203.942 164.799 203.945Z" fill="#FF8164"/>
<path d="M147.178 204.875C147.476 205.919 146.973 207.046 146.003 207.53C146.087 207.484 146.74 207.885 146.852 207.94C146.973 207.996 147.578 208.387 147.709 208.331C148.687 207.847 149.181 206.719 148.883 205.676C148.846 205.555 148.156 205.331 148.035 205.266C147.83 205.173 147.634 205.08 147.429 204.986C147.392 204.968 147.178 204.894 147.178 204.875Z" fill="#FF8164"/>
<path d="M154.695 174.745C156.447 174.78 158.043 173.895 158.928 172.386C159.102 172.091 158.824 170.997 158.807 170.651C158.772 170.234 158.737 169.836 158.703 169.419C158.685 169.315 158.598 168.985 158.651 168.916C157.766 170.425 156.17 171.328 154.418 171.276C154.505 171.276 154.556 174.745 154.695 174.745Z" fill="#30D6AF"/>
<path d="M10.5063 139.477C10.9577 140.761 11.426 142.045 11.8769 143.328C11.8945 143.363 15.1907 142.201 15.1733 142.184C14.7222 140.9 14.2539 139.616 13.8025 138.332C13.8025 138.298 10.5063 139.46 10.5063 139.477Z" fill="#FF8164"/>
<path d="M39.7652 151.072C40.7191 152.512 42.3672 153.258 44.0675 153.033C44.2239 153.015 44.6226 151.576 44.6922 151.402C44.7611 151.228 45.143 149.771 45.2815 149.754C43.5645 149.979 41.9337 149.233 40.9793 147.793C41.0662 147.932 40.4242 149.233 40.3552 149.424C40.2683 149.65 39.6262 150.864 39.7652 151.072Z" fill="#3F67F2"/>
<path d="M99.8847 47.2022C101.411 47.8791 102.938 48.5385 104.465 49.2148C104.413 49.1975 104.638 47.6189 104.638 47.4804C104.656 47.3239 104.899 45.7975 104.777 45.7454C103.25 45.0685 101.724 44.4096 100.197 43.7328C100.249 43.7502 100.024 45.3287 100.024 45.4678C100.024 45.6237 99.7636 47.1506 99.8847 47.2022Z" fill="#30D6AF"/>
<path d="M25.4193 50.6197C25.7903 51.7778 25.1645 53.0636 24.0181 53.4808C24.1456 53.4341 24.8984 53.9555 25.0488 54.0365C25.2922 54.1636 25.535 54.2913 25.7783 54.4189C25.8251 54.4417 26.0331 54.5922 26.0798 54.5688C27.2265 54.1522 27.8632 52.8784 27.4808 51.7083C27.4232 51.535 26.6241 51.2449 26.4503 51.1526C26.2069 51.0249 25.9636 50.8978 25.7208 50.7702C25.674 50.7468 25.4307 50.6545 25.4193 50.6197Z" fill="#FF8164"/>
<path d="M9.77797 62.545C10.6465 63.3093 11.5152 64.0736 12.3839 64.8379C12.3608 64.8151 12.8354 63.865 12.8819 63.7841C12.9284 63.6912 13.4148 62.765 13.3566 62.7183C12.4881 61.954 11.6194 61.1897 10.7509 60.4254C10.774 60.4482 10.2993 61.3983 10.2528 61.4792C10.2064 61.5721 9.72007 62.4869 9.77797 62.545Z" fill="#FFBC1F"/>
<path d="M121.991 166.945C122.008 169.079 121.071 171.04 119.423 172.393C119.58 172.254 120.916 172.636 121.141 172.671C121.54 172.74 121.956 172.792 122.355 172.861C122.442 172.878 122.806 172.983 122.859 172.931C124.506 171.578 125.443 169.617 125.426 167.484C125.443 167.275 121.991 167.102 121.991 166.945Z" fill="#FF8164"/>
<path d="M17.4307 54.5851C18.1479 54.9393 18.8649 55.2929 19.573 55.6471C19.6793 55.7003 20.5556 54.1777 20.6352 54.213C19.9182 53.8588 19.2012 53.5047 18.4931 53.151C18.387 53.107 17.5107 54.6291 17.4307 54.5851Z" fill="#30D6AF"/>
<path d="M23.0081 67.4705C24.0968 67.7025 25.1857 67.9344 26.2743 68.1539C26.4482 68.1887 27.0734 65.9881 27.2124 66.0115C26.1239 65.78 25.0347 65.5481 23.9461 65.3281C23.7724 65.2933 23.147 67.5053 23.0081 67.4705Z" fill="#FF8164"/>
<path d="M49.8935 171.516C49.4943 172.661 49.095 173.805 48.6963 174.968C48.7137 174.934 50.2928 175.159 50.4313 175.159C50.5698 175.176 52.1316 175.419 52.1658 175.315C52.565 174.17 52.9638 173.025 53.363 171.863C53.3456 171.898 51.7671 171.672 51.6285 171.672C51.4895 171.672 49.9109 171.429 49.8935 171.516Z" fill="#30D6AF"/>
<path d="M164.877 31.2056C165.012 32.2686 165.571 33.1878 166.444 33.8097C166.489 33.8456 167.12 33.3317 167.184 33.2779C167.247 33.2328 167.877 32.7103 167.913 32.7374C167.039 32.1247 166.481 31.1969 166.345 30.1338C166.354 30.1968 165.679 30.6113 165.607 30.6656C165.516 30.7281 164.868 31.1067 164.877 31.2056Z" fill="#30D6AF"/>
<path d="M115.721 70.4667C116.293 72.2533 117.785 73.5717 119.642 73.9188C119.763 73.9362 120.491 72.583 120.579 72.444C120.665 72.3054 121.394 70.9349 121.498 70.9523C119.659 70.5878 118.167 69.2868 117.577 67.4997C117.629 67.6735 116.745 68.7833 116.64 68.9745C116.415 69.3216 116.207 69.6682 115.981 70.0153C115.929 70.1022 115.703 70.3971 115.721 70.4667Z" fill="#FA7697"/>
<path d="M83.0347 86.3944C82.5491 87.9382 82.0808 89.482 81.5952 91.0264C81.6294 90.9221 83.1564 90.8183 83.3297 90.8009C83.5209 90.7662 85.0126 90.6966 85.0647 90.5407C85.5503 88.9964 86.0191 87.4526 86.5048 85.9088C86.47 86.0125 84.9436 86.1168 84.7697 86.1342C84.5791 86.1516 83.0695 86.2385 83.0347 86.3944Z" fill="#FF8164"/>
<path d="M13.4119 102.279C14.7652 103.597 16.1182 104.933 17.4716 106.252C17.5061 106.286 19.9523 103.805 19.9523 103.788C18.5991 102.469 17.2457 101.133 15.8928 99.8151C15.8581 99.7803 13.4119 102.261 13.4119 102.279Z" fill="#3F67F2"/>
<path d="M185.758 94.7497C185.532 94.1603 185.29 93.5878 185.064 92.9978C185.082 93.0326 184.839 93.5009 184.856 93.4661C184.682 93.848 184.526 94.2293 184.37 94.5938C184.214 94.9757 184.041 95.357 183.884 95.7389C183.85 95.8258 183.659 96.1376 183.694 96.2071C183.919 96.7971 184.162 97.3696 184.387 97.959C184.37 97.9248 184.613 97.4565 184.595 97.4907C184.769 97.1094 184.925 96.7275 185.082 96.363C185.237 95.9817 185.411 95.5998 185.567 95.2185C185.619 95.1316 185.793 94.8192 185.758 94.7497Z" fill="#FF8164"/>
<path d="M174.626 93.5489C174.295 91.9921 173.972 90.4504 173.64 88.8936C173.679 89.1092 170.403 90.0571 170.451 90.3271C170.783 91.884 171.105 93.4256 171.437 94.9824C171.383 94.7749 174.674 93.8194 174.626 93.5489Z" fill="#FF8164"/>
<path d="M79.0699 170.888C80.5795 171.113 82.1059 171.339 83.6155 171.582C83.6323 171.582 84.0316 168.997 83.9968 168.997C82.4878 168.771 80.9608 168.546 79.4518 168.303C79.4518 168.303 79.0525 170.888 79.0699 170.888Z" fill="#FF8164"/>
<path d="M62.8383 181.248C63.225 179.771 63.614 178.278 64.0187 176.804C64.0203 176.786 61.4933 176.111 61.4895 176.145C61.1027 177.621 60.7138 179.115 60.3091 180.589C60.3091 180.589 62.8361 181.265 62.8383 181.248Z" fill="#FF8164"/>
<path d="M71.1038 188.104C71.9191 188.104 72.7345 188.104 73.5498 188.104C73.6188 188.104 73.8622 186.942 73.8796 186.838C73.897 186.733 74.1398 185.572 74.1919 185.572C73.3766 185.572 72.5612 185.572 71.7458 185.572C71.6763 185.572 71.4329 186.733 71.4161 186.838C71.3813 186.925 71.138 188.104 71.1038 188.104Z" fill="#3F67F2"/>
<path d="M140.722 171.832C141.121 173.22 140.774 174.642 139.785 175.701C139.838 175.632 140.93 176.013 141.052 176.048C141.191 176.082 142.231 176.481 142.318 176.377C143.307 175.319 143.637 173.897 143.255 172.509C143.22 172.387 142.145 172.197 141.989 172.161C141.85 172.109 140.757 171.936 140.722 171.832Z" fill="#3F67F2"/>
<path d="M41.0669 193.934C41.6047 195.01 42.1424 196.068 42.6802 197.143C42.7498 197.265 43.8253 197.265 43.9812 197.282C44.1377 197.299 45.2306 197.282 45.2822 197.387C44.745 196.311 44.2067 195.252 43.6694 194.176C43.5999 194.056 42.5243 194.056 42.3679 194.038C42.2294 194.02 41.1364 194.038 41.0669 193.934Z" fill="#FA7697"/>
<path d="M22.6155 156.253C23.1706 157.086 23.7433 157.918 24.2984 158.733C24.3332 158.786 25.4258 158.318 25.5301 158.265C25.6339 158.231 26.7274 157.745 26.7442 157.779C26.189 156.947 25.617 156.114 25.0619 155.298C25.0271 155.246 23.9341 155.715 23.8301 155.767C23.7433 155.802 22.6329 156.287 22.6155 156.253Z" fill="#30D6AF"/>
<path d="M63.6427 141.491C64.8568 142.671 66.5744 143.07 68.1878 142.549C68.2915 142.515 68.3611 141.387 68.3784 141.248C68.3958 141.127 68.448 139.982 68.5517 139.947C66.9384 140.468 65.2208 140.068 64.0067 138.889C64.0936 138.975 63.8334 140.034 63.816 140.19C63.7812 140.363 63.5037 141.352 63.6427 141.491Z" fill="#FFBC1F"/>
<path d="M97.502 143.217C98.7856 143.425 100.069 143.633 101.353 143.841C101.284 143.823 101.614 141.239 101.509 141.221C100.226 141.013 98.9421 140.805 97.6579 140.597C97.7275 140.597 97.3977 143.199 97.502 143.217Z" fill="#FA7697"/>
<path d="M125.27 156.903C126.432 156.903 127.595 156.903 128.757 156.903C128.844 156.903 128.896 154.284 128.931 154.284C127.768 154.284 126.606 154.284 125.444 154.284C125.374 154.284 125.322 156.903 125.27 156.903Z" fill="#30D6AF"/>
<path d="M111.976 14.4346C113.138 14.4346 114.3 14.4346 115.463 14.4346C115.55 14.4346 115.601 11.8152 115.637 11.8152C114.474 11.8152 113.312 11.8152 112.149 11.8152C112.08 11.8152 112.011 14.4346 111.976 14.4346Z" fill="#FA7697"/>
<path d="M104.833 26.0742C105.995 26.0742 107.157 26.0742 108.32 26.0742C108.406 26.0742 108.458 23.4548 108.493 23.4548C107.33 23.4548 106.169 23.4548 105.006 23.4548C104.937 23.4548 104.867 26.0742 104.833 26.0742Z" fill="#FA7697"/>
<path d="M170.735 75.0982C171.879 75.4975 173.042 75.8788 174.187 76.2781C174.256 76.2955 174.898 75.3242 174.967 75.2373C175.037 75.1504 175.678 74.1617 175.731 74.1791C174.586 73.7799 173.424 73.3985 172.278 72.9993C172.209 72.9819 171.567 73.9537 171.498 74.0401C171.428 74.1096 170.786 75.1156 170.735 75.0982Z" fill="#30D6AF"/>
<path d="M79.0361 51.8804C79.7824 53.4937 81.4821 54.4307 83.2519 54.2221C83.3557 54.2053 83.6332 53.095 83.668 52.9733C83.7028 52.8516 83.963 51.7244 84.0499 51.7244C82.2801 51.9325 80.5978 50.9955 79.834 49.3821C79.9209 49.5554 79.4875 50.4403 79.4179 50.631C79.3484 50.8564 78.9323 51.6549 79.0361 51.8804Z" fill="#3F67F2"/>
<path d="M20.6201 138.54C22.1466 138.228 23.6731 137.933 25.1824 137.62C25.4774 137.551 25.2867 135.087 25.5469 135.018C24.02 135.33 22.4938 135.625 20.9842 135.938C20.6895 136.007 20.8803 138.488 20.6201 138.54Z" fill="#FF8164"/>
<path d="M52.1941 148.654C52.8709 149.608 53.5472 150.545 54.2241 151.499C54.1719 151.43 56.2361 149.834 56.1666 149.747C55.4903 148.793 54.814 147.856 54.1371 146.902C54.1893 146.954 52.1251 148.55 52.1941 148.654Z" fill="#FF8164"/>
<path d="M184.67 121.546C184.046 123.056 185.329 124.86 186.96 124.773C187.22 124.756 187.793 124.131 187.984 123.958C188.226 123.767 188.469 123.576 188.694 123.368C188.747 123.316 188.92 123.125 188.989 123.125C187.359 123.212 186.092 121.407 186.699 119.898C186.682 119.95 186.405 120.124 186.387 120.124C186.145 120.315 185.902 120.505 185.658 120.697C185.416 120.887 185.173 121.078 184.948 121.286C184.895 121.356 184.705 121.459 184.67 121.546Z" fill="#FF8164"/>
<path d="M158.433 154.805C159.717 154.805 161.001 154.788 162.284 154.788C162.354 154.788 162.388 152.168 162.424 152.168C161.14 152.168 159.855 152.185 158.572 152.185C158.503 152.185 158.468 154.805 158.433 154.805Z" fill="#FF8164"/>
<path d="M167.644 164.545C167.436 165.603 167.228 166.644 167.003 167.702C167.003 167.667 168.2 167.65 168.304 167.65C168.408 167.65 169.605 167.65 169.605 167.58C169.813 166.522 170.022 165.482 170.247 164.423C170.247 164.458 169.05 164.475 168.946 164.475C168.842 164.475 167.662 164.458 167.644 164.545Z" fill="#FF8164"/>
<path d="M208.243 142.57C208.139 143.099 208.035 143.62 207.922 144.149C207.922 144.131 208.52 144.123 208.573 144.123C208.625 144.123 209.223 144.123 209.223 144.088C209.328 143.559 209.431 143.039 209.544 142.509C209.544 142.527 208.945 142.536 208.894 142.536C208.841 142.536 208.252 142.527 208.243 142.57Z" fill="#FF8164"/>
<path d="M198.473 135.247C198.323 136.011 198.172 136.763 198.009 137.526C198.009 137.501 198.874 137.489 198.948 137.489C199.024 137.489 199.888 137.489 199.888 137.439C200.038 136.675 200.189 135.923 200.352 135.16C200.352 135.185 199.487 135.197 199.412 135.197C199.337 135.197 198.486 135.185 198.473 135.247Z" fill="#FF8164"/>
<path d="M92.824 207.579C92.7197 208.108 92.6159 208.628 92.5029 209.157C92.5029 209.14 93.1016 209.132 93.1537 209.132C93.2059 209.132 93.8039 209.132 93.8039 209.096C93.9082 208.568 94.012 208.048 94.125 207.518C94.125 207.535 93.5263 207.544 93.4747 207.544C93.422 207.544 92.8327 207.535 92.824 207.579Z" fill="#FF8164"/>
<path d="M52.9483 192.356C53.3867 192.671 53.8169 192.981 54.2515 193.304C54.2357 193.296 54.4763 192.749 54.4981 192.701C54.5193 192.654 54.7681 192.109 54.7365 192.095C54.2982 191.78 53.868 191.47 53.4334 191.147C53.4497 191.155 53.2085 191.703 53.1873 191.75C53.1656 191.797 52.9124 192.33 52.9483 192.356Z" fill="#FF8164"/>
<path d="M37.8613 183.001C37.8695 183.54 37.876 184.071 37.876 184.612C37.8722 184.595 38.4556 184.462 38.5067 184.451C38.5577 184.44 39.1433 184.316 39.1357 184.282C39.1276 183.743 39.121 183.212 39.121 182.671C39.1248 182.688 38.5409 182.821 38.4904 182.832C38.4393 182.843 37.8608 182.957 37.8613 183.001Z" fill="#FF8164"/>
<path d="M0.286777 136.057C0.91614 136.509 1.53426 136.956 2.15852 137.418C2.13603 137.408 2.48173 136.62 2.51269 136.552C2.54365 136.484 2.90081 135.702 2.8554 135.681C2.22604 135.23 1.6077 134.783 0.983445 134.32C1.00615 134.33 0.660449 135.118 0.629486 135.186C0.598523 135.254 0.235009 136.02 0.286777 136.057Z" fill="#FF8164"/>
<path d="M198.009 40.6969C198.605 41.2607 199.212 41.8246 199.808 42.3884C199.851 42.4319 201.012 41.283 201.033 41.3042C200.437 40.7403 199.83 40.1765 199.234 39.6132C199.19 39.5697 198.041 40.7186 198.009 40.6969Z" fill="#30D6AF"/>
<path d="M198.882 59.6819C199.732 60.4798 200.981 60.6357 202.005 60.0637C202.091 60.0116 201.918 58.8839 201.918 58.7628C201.901 58.6411 201.727 57.496 201.796 57.4612C200.773 58.0338 199.524 57.8779 198.674 57.0799C198.691 57.0973 198.691 57.496 198.691 57.4612C198.709 57.7736 198.743 58.0859 198.761 58.3809C198.778 58.6932 198.813 59.005 198.83 59.3C198.847 59.3695 198.83 59.6471 198.882 59.6819Z" fill="#FF8164"/>
<path d="M44.3992 29.7861C45.2493 30.5841 46.4987 30.7405 47.5221 30.168C47.609 30.1158 47.4352 28.9881 47.4352 28.8665C47.4178 28.7453 47.2445 27.6008 47.3141 27.566C46.2901 28.138 45.0413 27.9821 44.1912 27.1841C44.2085 27.201 44.2085 27.6008 44.2085 27.566C44.2259 27.8778 44.2601 28.1907 44.2781 28.4851C44.2949 28.7975 44.3297 29.1098 44.3471 29.4048C44.3644 29.4738 44.3471 29.7345 44.3992 29.7861Z" fill="#FF8164"/>
<path d="M73.2373 149.247C73.3068 150.618 74.729 151.641 76.0479 151.242C76.1342 151.224 76.3776 150.895 76.3944 150.877C76.672 150.582 76.9496 150.271 77.2272 149.976C77.5048 149.663 77.7823 149.368 78.0599 149.056C78.1295 148.97 78.3027 148.692 78.3897 148.675C77.0713 149.073 75.6486 148.05 75.5791 146.679C75.5791 146.714 75.1978 147.078 75.2325 147.044C74.9544 147.339 74.6774 147.651 74.3992 147.946C74.1222 148.258 73.8441 148.553 73.567 148.865C73.5149 148.917 73.2373 149.16 73.2373 149.247Z" fill="#FF8164"/>
<path d="M48.2398 139.937C49.7662 140.388 51.2758 140.839 52.8022 141.29C52.5941 141.221 53.3226 137.89 53.0624 137.803C51.536 137.352 50.0264 136.901 48.5 136.45C48.708 136.52 47.9796 139.867 48.2398 139.937Z" fill="#FF8164"/>
<path d="M96.0123 85.5921C96.8624 86.3901 98.1112 86.546 99.1352 85.9735C99.2215 85.9219 99.0483 84.7942 99.0483 84.6725C99.0309 84.5513 98.8576 83.4063 98.9266 83.3715C97.9032 83.944 96.6543 83.7881 95.8042 82.9896C95.8216 83.0075 95.8216 83.4063 95.8216 83.3715C95.839 83.6838 95.8737 83.9962 95.8906 84.2911C95.9085 84.6035 95.9433 84.9153 95.9601 85.2103C95.9775 85.2798 95.9601 85.5574 96.0123 85.5921Z" fill="#FF8164"/>
<path d="M168.177 55.3424C168.646 57.0426 170.224 58.2225 171.994 58.1877C172.132 58.1877 172.584 57.1817 172.653 57.06C172.722 56.9383 173.174 55.9155 173.295 55.9155C171.526 55.9671 169.947 54.7872 169.478 53.0701C169.53 53.2434 168.906 54.0414 168.819 54.1973C168.715 54.3885 168.125 55.117 168.177 55.3424Z" fill="#30D6AF"/>
<path d="M156.483 53.365C156.553 54.7355 157.229 55.9327 158.339 56.7133C158.409 56.7649 159.294 56.0022 159.398 55.9327C159.485 55.8632 160.387 55.1 160.439 55.1342C159.311 54.3536 158.652 53.1395 158.583 51.7864C158.583 51.9081 157.646 52.4801 157.524 52.567C157.385 52.6713 156.483 53.1917 156.483 53.365Z" fill="#30D6AF"/>
<path d="M181.664 45.0346C181.664 46.5436 181.664 48.0706 181.664 49.5796C181.664 49.7529 184.248 49.9093 184.248 50.0479C184.248 48.5388 184.248 47.0118 184.248 45.5028C184.248 45.329 181.664 45.1731 181.664 45.0346Z" fill="#FF8164"/>
<path d="M5.18088 97.2868C4.95512 99.0392 4.71236 100.774 4.48682 102.526C4.48682 102.474 7.0889 102.752 7.1065 102.647C7.33188 100.895 7.57486 99.1604 7.8004 97.4085C7.7828 97.4607 5.18088 97.1999 5.18088 97.2868Z" fill="#FF8164"/>
<path d="M14.6616 120.247C15.9626 120.767 17.2639 121.305 18.5823 121.825C18.5301 121.808 18.6517 120.629 18.6517 120.524C18.6517 120.403 18.7904 119.257 18.7037 119.223C17.4025 118.703 16.1015 118.165 14.783 117.645C14.835 117.661 14.7136 118.841 14.7136 118.945C14.7136 119.067 14.5748 120.212 14.6616 120.247Z" fill="#FA7697"/>
<path d="M24.3237 178.02C25.1523 178.012 25.9813 177.995 26.8015 177.987C26.9411 177.987 27.0558 176.805 27.1791 176.805C26.3501 176.814 25.5217 176.83 24.701 176.838C24.5616 176.838 24.4466 178.02 24.3237 178.02Z" fill="#FF8164"/>
<path d="M32.335 169.191C32.7858 170.475 33.2372 171.759 33.6881 173.06C33.7402 173.216 34.7463 173.459 34.9022 173.529C35.076 173.598 36.082 173.806 36.1342 173.979C35.6833 172.695 35.2319 171.412 34.781 170.111C34.7289 169.955 33.7229 169.711 33.567 169.643C33.3931 169.573 32.3871 169.365 32.335 169.191Z" fill="#30D6AF"/>
<path d="M9.84229 155.347C10.2518 156.513 10.6616 157.679 11.0711 158.86C11.1184 159.002 12.0321 159.223 12.1739 159.286C12.3313 159.349 13.245 159.538 13.2923 159.695C12.8828 158.529 12.4732 157.364 12.0637 156.182C12.0164 156.04 11.1027 155.82 10.9608 155.757C10.8192 155.694 9.90551 155.505 9.84229 155.347Z" fill="#FFBC1F"/>
<path d="M189.259 84.7178C192.659 84.6656 196.042 84.5961 199.442 84.5445C199.633 84.5445 199.408 80.8664 199.477 80.8664C196.077 80.9186 192.694 80.9875 189.294 81.0397C189.103 81.0397 189.311 84.7178 189.259 84.7178Z" fill="#3F67F2"/>
<path d="M202.325 66.8773C201.39 68.4619 200.456 70.0464 199.521 71.631C199.616 71.4821 203.205 73.3508 203.327 73.1476C204.261 71.5631 205.196 69.9785 206.13 68.394C206.035 68.5434 202.433 66.6742 202.325 66.8773Z" fill="#3F67F2"/>
<path d="M140.195 78.1399C140.455 80.1867 141.531 81.9565 143.214 83.1537C143.301 83.2233 144.515 82.2341 144.637 82.1298C144.758 82.0434 145.972 81.0368 146.042 81.089C144.359 79.9091 143.283 78.1225 143.023 76.0752C143.041 76.1968 141.74 76.9948 141.601 77.0991C141.445 77.2202 140.178 77.9492 140.195 78.1399Z" fill="#FA7697"/>
<path d="M131.059 195.733C131.319 197.78 132.395 199.55 134.077 200.746C134.163 200.816 135.379 199.827 135.5 199.723C135.621 199.636 136.836 198.63 136.905 198.682C135.222 197.502 134.147 195.715 133.886 193.668C133.904 193.79 132.602 194.588 132.464 194.692C132.307 194.814 131.041 195.542 131.059 195.733Z" fill="#FA7697"/>
<path d="M201.879 108.579C201.48 110.089 201.098 111.581 200.7 113.09C200.682 113.159 203.197 113.871 203.18 113.905C203.579 112.396 203.961 110.904 204.36 109.394C204.394 109.325 201.879 108.614 201.879 108.579Z" fill="#FF8164"/>
<path d="M177.656 103.862C178.142 105.597 178.628 107.349 179.113 109.084C179.183 109.344 181.681 108.91 181.733 109.136C181.247 107.401 180.762 105.648 180.276 103.914C180.207 103.654 177.709 104.087 177.656 103.862Z" fill="#FA7697"/>
<path d="M204.092 98.8848C204.577 100.619 205.063 102.372 205.549 104.106C205.618 104.366 208.116 103.933 208.168 104.158C207.683 102.423 207.197 100.671 206.711 98.9364C206.642 98.6762 204.144 99.1103 204.092 98.8848Z" fill="#FA7697"/>
<path d="M158.564 82.2799C159.849 82.6096 161.132 82.9394 162.416 83.2686C162.19 83.2169 162.572 80.7187 162.312 80.6492C161.028 80.3195 159.744 79.9897 158.461 79.6606C158.686 79.7295 158.305 82.2278 158.564 82.2799Z" fill="#FF8164"/>
<path d="M132.343 63.093C133.401 63.5618 134.442 64.0127 135.5 64.4814C135.413 64.4467 135.413 63.3016 135.396 63.1799C135.379 63.0235 135.396 61.9311 135.274 61.8789C134.216 61.4107 133.175 60.9593 132.117 60.491C132.204 60.5258 132.204 61.6709 132.221 61.792C132.238 61.9479 132.221 63.0414 132.343 63.093Z" fill="#FF8164"/>
<path d="M127.176 86.8241C128.361 86.6214 129.285 85.7697 129.609 84.6089C129.654 84.4356 128.955 83.6865 128.861 83.5317C128.685 83.2725 128.498 83.0352 128.322 82.7761C128.292 82.7299 128.088 82.4968 128.099 82.4757C127.793 83.6316 126.851 84.4883 125.667 84.6909C125.734 84.673 126.351 85.6594 126.416 85.7681C126.48 85.8767 127.055 86.8382 127.176 86.8241Z" fill="#FF8164"/>
<path d="M91.2102 165.413C91.245 167.339 92.3031 169.039 93.986 169.941C94.1941 170.062 95.5993 167.929 95.7726 168.016C94.0729 167.113 93.0316 165.396 92.9974 163.487C92.9974 163.661 92.2336 164.285 92.0951 164.442C91.9386 164.615 91.2102 165.17 91.2102 165.413Z" fill="#FF8164"/>
<path d="M76.1079 205.302C76.1427 207.228 77.2014 208.928 78.8837 209.83C79.0923 209.951 80.4971 207.818 80.6709 207.904C78.9706 207.003 77.9298 205.285 77.8951 203.377C77.8951 203.55 77.1319 204.175 76.9928 204.331C76.8369 204.504 76.1079 205.06 76.1079 205.302Z" fill="#FF8164"/>
<path d="M139.49 189.685C140.323 190.362 141.156 191.039 141.989 191.715C141.92 191.663 142.214 190.552 142.231 190.431C142.284 190.119 142.335 189.824 142.388 189.512C142.388 189.459 142.474 189.148 142.44 189.13C141.607 188.453 140.774 187.777 139.941 187.1C140.011 187.152 139.716 188.263 139.699 188.384C139.646 188.697 139.594 188.991 139.543 189.304C139.543 189.355 139.456 189.668 139.49 189.685Z" fill="#3F67F2"/>
<path d="M67.1316 187.915C68.3978 188.558 69.664 189.199 70.9303 189.841C71.1383 189.945 72.4746 187.777 72.6479 187.863C71.3817 187.222 70.1149 186.58 68.8487 185.938C68.6406 185.834 67.3049 188.002 67.1316 187.915Z" fill="#FF8164"/>
<path d="M80.359 71.0564C80.1336 72.6175 79.9076 74.1961 79.6822 75.7573C79.6648 75.879 84.8345 76.7291 84.8171 76.7812C85.0431 75.2195 85.2686 73.6409 85.494 72.0798C85.5288 71.9407 80.359 71.108 80.359 71.0564Z" fill="#FA7697"/>
<path d="M118.568 53.0277C116.383 52.1428 114.197 51.2579 112.011 50.3731C112.219 50.46 110.519 55.3521 110.796 55.4738C112.982 56.3587 115.169 57.243 117.354 58.1279C117.146 58.0416 118.863 53.1315 118.568 53.0277Z" fill="#3F67F2"/>
<path d="M110.112 213.09C108.883 212.593 107.656 212.096 106.428 211.599C106.545 211.648 105.589 214.396 105.745 214.464C106.973 214.961 108.201 215.458 109.429 215.955C109.313 215.906 110.277 213.148 110.112 213.09Z" fill="#3F67F2"/>
<path d="M108.477 1.41045C107.456 0.997072 106.435 0.583672 105.414 0.170832C105.511 0.211029 104.717 2.49632 104.847 2.55281C105.868 2.9662 106.889 3.37959 107.91 3.79297C107.813 3.75223 108.615 1.4588 108.477 1.41045Z" fill="#3F67F2"/>
<path d="M63.0718 58.3919C63.2282 60.1264 63.4015 61.8614 63.5574 63.5964C63.5753 63.7002 67.0448 63.44 67.0448 63.4921C66.8884 61.7571 66.7151 60.0226 66.5586 58.2876C66.5586 58.1833 63.0718 58.4267 63.0718 58.3919Z" fill="#30D6AF"/>
<path d="M41.2132 62.1638C41.2132 63.6908 41.1958 65.2346 41.1958 66.7615C41.1958 66.7789 43.8157 66.7963 43.8157 66.7789C43.8157 65.252 43.8331 63.7082 43.8331 62.1817C43.8331 62.147 41.2132 62.147 41.2132 62.1638Z" fill="#FA7697"/>
<path d="M92.1725 37.1588C91.1665 38.5293 91.0274 40.2817 91.7906 41.8081C91.8427 41.9124 92.9705 41.8081 93.109 41.8081C93.248 41.8081 94.3757 41.7039 94.4279 41.7908C93.6641 40.2643 93.8206 38.5119 94.8092 37.1414C94.7397 37.2457 93.6468 37.1414 93.4909 37.1414C93.3002 37.1414 92.2768 37.0203 92.1725 37.1588Z" fill="#FF8164"/>
<path d="M116.348 36.6716C114.804 36.4983 113.26 36.3251 111.716 36.1686C111.647 36.1686 111.3 38.7537 111.265 38.7537C112.809 38.927 114.353 39.1003 115.897 39.2567C115.966 39.2741 116.313 36.6716 116.348 36.6716Z" fill="#FFBC1F"/>
<path d="M84.2925 23.4575C83.4597 24.2728 82.6096 25.0708 81.7769 25.8862C81.829 25.8346 83.7199 27.6386 83.8068 27.5516C84.639 26.7363 85.4892 25.9383 86.3224 25.123C86.2529 25.1751 84.3788 23.3706 84.2925 23.4575Z" fill="#3F67F2"/>
<path d="M58.3738 15.2778C57.541 16.0931 56.6909 16.8911 55.8582 17.7065C55.9103 17.6543 57.8012 19.4589 57.8881 19.372C58.7209 18.5566 59.571 17.7586 60.4037 16.9433C60.3342 16.9954 58.4607 15.1909 58.3738 15.2778Z" fill="#3F67F2"/>
<path d="M17.8621 39.4705C17.2395 40.08 16.604 40.6764 15.9814 41.2859C16.0204 41.2473 17.4341 42.5961 17.499 42.5309C18.1216 41.9214 18.7569 41.325 19.3794 40.7155C19.3275 40.7546 17.927 39.4058 17.8621 39.4705Z" fill="#3F67F2"/>
<path d="M107.753 62.9291C106.106 63.6576 104.44 64.3866 102.792 65.1324C102.549 65.2367 103.33 67.6306 103.121 67.7344C104.769 67.0059 106.435 66.2775 108.083 65.5311C108.326 65.4274 107.545 63.0334 107.753 62.9291Z" fill="#3F67F2"/>
<path d="M92.2679 53.4483C90.377 53.778 88.8332 55.0622 88.1911 56.8662C88.1042 57.0916 90.4118 58.1672 90.3428 58.3584C91.0017 56.5539 92.5281 55.2702 94.419 54.9405C94.2457 54.9753 93.5173 54.2984 93.3435 54.1773C93.1702 54.0382 92.5107 53.3967 92.2679 53.4483Z" fill="#FF8164"/>
<path d="M57.0274 35.9812C56.3859 37.248 55.7438 38.5142 55.1023 39.7804C54.998 39.989 57.1665 41.3248 57.0796 41.498C57.7216 40.2318 58.3632 38.9651 59.0052 37.6988C59.1095 37.4908 56.9237 36.155 57.0274 35.9812Z" fill="#3F67F2"/>
<path d="M174.529 178.164C176.058 177.67 177.605 177.176 179.134 176.681C179.125 176.689 178.518 174.867 178.482 174.865C176.953 175.36 175.406 175.854 173.877 176.348C173.895 176.349 174.501 178.172 174.529 178.164Z" fill="#FF8164"/>
<path d="M188.872 183.226C189.804 182.924 190.747 182.623 191.68 182.321C191.674 182.327 191.305 181.215 191.282 181.214C190.35 181.516 189.407 181.816 188.475 182.119C188.485 182.119 188.855 183.23 188.872 183.226Z" fill="#FF8164"/>
<path d="M185.544 26.5107C186.476 26.2092 187.419 25.9083 188.351 25.6068C188.347 25.6117 187.976 24.5003 187.954 24.4992C187.022 24.8007 186.079 25.1016 185.146 25.4031C185.157 25.4042 185.527 26.5156 185.544 26.5107Z" fill="#FF8164"/>
<path d="M42.986 42.8603C43.9187 42.5589 44.8617 42.2574 45.7939 41.9559C45.7884 41.9613 45.4185 40.8499 45.3962 40.8488C44.4641 41.1503 43.5211 41.4513 42.5884 41.7527C42.5992 41.7533 42.9697 42.8652 42.986 42.8603Z" fill="#FF8164"/>
<path d="M178.889 166.378C179.913 167.696 181.318 168.564 182.967 168.876C183.105 168.911 183.799 168.095 183.92 167.974C184.042 167.87 184.719 167.037 184.857 167.054C183.227 166.725 181.821 165.858 180.781 164.556C180.833 164.626 178.82 166.291 178.889 166.378Z" fill="#30D6AF"/>
<path d="M192.922 163.289C193.518 164.057 194.336 164.562 195.296 164.744C195.376 164.764 195.78 164.289 195.85 164.218C195.921 164.158 196.315 163.673 196.396 163.684C195.447 163.491 194.629 162.987 194.023 162.23C194.053 162.27 192.882 163.239 192.922 163.289Z" fill="#30D6AF"/>
<path d="M189.557 150.867C190.147 151.439 190.736 152.011 191.326 152.601C191.379 152.653 191.639 152.723 191.691 152.74C191.986 152.845 192.281 152.948 192.558 153.052C192.853 153.157 193.148 153.261 193.425 153.347C193.512 153.382 193.738 153.399 193.79 153.469C193.2 152.896 192.61 152.324 192.02 151.734C191.968 151.682 191.708 151.613 191.656 151.595C191.361 151.491 191.066 151.387 190.789 151.283C190.494 151.179 190.199 151.075 189.921 150.988C189.835 150.953 189.609 150.919 189.557 150.867Z" fill="#FF8164"/>
<path d="M39.3747 54.5047C45.1518 55.476 49.454 61.0624 49.4366 66.8568C49.4192 69.8928 48.3089 72.8419 46.5223 75.2706C46.123 75.8257 45.6722 76.3461 45.2034 76.8492C45.0648 77.0056 44.0583 77.9421 45.1518 76.9535C46.1056 76.086 45.4636 76.6585 45.2207 76.8492C44.8568 77.1267 44.4749 77.3869 44.0762 77.6471C42.6535 78.532 41.0576 79.2779 39.3747 79.4517C37.6049 79.6423 35.8357 79.1219 34.777 77.6471C34.3609 77.0746 34.0833 76.3983 34.0312 75.6867C33.9964 75.3227 34.0485 74.9582 34.1528 74.6117C34.3435 73.987 35.2284 73.1369 33.8405 74.3683C33.5977 74.5769 33.3549 74.785 33.1121 74.993C36.0264 72.755 39.2878 75.4091 40.9359 77.8726C42.4797 80.1801 43.2951 82.9038 43.4684 85.6622C43.6248 88.4032 43.1565 91.1791 42.0984 93.6941C41.578 94.9609 40.9011 96.1581 40.1032 97.2505C39.6871 97.8057 39.253 98.3435 38.7674 98.8296C38.6284 98.9855 38.4551 99.124 38.3165 99.2805C38.2296 99.3842 39.9473 97.91 39.2014 98.4651C38.8538 98.7253 38.5246 98.9855 38.1601 99.211C35.5755 100.911 31.3075 102.212 29.1042 99.211C28.341 98.1702 27.9597 96.6953 28.5496 95.4807C28.6186 95.3422 28.6881 95.2385 28.7571 95.1168C29.2955 94.145 26.8662 96.4004 27.6126 96.1054C27.8902 96.0017 28.133 95.8452 28.4279 95.7762C29.0869 95.6198 29.7811 95.6719 30.4226 95.8626C33.8231 96.8692 34.0312 100.772 32.8519 103.583C31.4639 106.896 28.5149 109.221 27.04 112.5C24.247 118.745 25.8602 126.638 30.9609 131.201C31.0473 131.288 32.8519 129.415 32.9208 129.466C29.1738 126.118 27.3176 121.018 27.6816 116.039C27.8728 113.576 28.6012 111.164 29.9022 109.065C31.4987 106.48 33.8753 104.363 34.9508 101.466C35.8357 99.0898 35.7662 95.9669 33.3201 94.5616C32.4178 94.0412 31.2727 93.7984 30.2667 94.0934C29.1738 94.4052 28.2889 95.4291 27.4735 96.175C26.7277 96.8518 26.2421 97.6324 26.2768 98.6732C26.3116 99.8009 26.8836 100.894 27.6995 101.657C29.9022 103.67 33.3201 102.68 35.5923 101.345C37.518 100.217 39.2878 98.6036 40.8142 96.9735C42.3412 95.3248 43.521 93.3644 44.2837 91.248C45.8454 86.998 45.8281 82.1058 43.885 77.9769C42.8268 75.7562 41.0918 73.2406 38.5767 72.5817C36.1997 71.957 34.2224 73.6399 32.7302 75.3054C31.0473 77.1963 32.5395 80.0237 34.6037 80.8738C37.3447 82.0015 40.554 80.4925 42.7921 78.8965C46.921 75.9643 50.5817 71.8527 51.2232 66.6482C51.8479 61.6002 49.1938 56.3783 44.7004 53.9496C43.6248 53.3596 42.4797 52.9783 41.2656 52.7871C41.0918 52.7523 40.4155 53.5329 40.277 53.6546C40.2248 53.7415 39.548 54.5395 39.3747 54.5047Z" fill="#FFBC1F"/>
<path d="M171.581 122.087C173.573 123.841 176.552 126.143 179.322 124.401C180.483 123.672 180.625 122.457 180.811 121.232C180.953 120.302 180.603 119.246 179.76 118.707C178.577 117.958 177.307 118.813 176.782 119.88C176.508 120.44 176.376 121.031 176.256 121.633C176.125 122.289 175.971 122.954 175.939 123.629C175.774 126.63 176.552 129.704 178.008 132.355C178.752 133.707 179.672 134.953 180.767 136.063C181.764 137.066 182.935 138.006 184.348 138.386C185.651 138.724 187.162 138.471 188.114 137.51C188.508 137.119 188.728 136.643 188.837 136.115C188.958 135.534 189.154 134.911 189.144 134.308C189.121 133.337 188.377 132.313 187.37 132.08C186.231 131.827 185.388 132.714 185.147 133.707C184.851 134.921 184.621 136.126 184.895 137.362C185.212 138.756 185.957 140.108 186.713 141.312C188.366 143.953 190.699 146.203 193.436 147.797C195.856 149.202 199.502 149.847 200.618 152.678C200.728 152.963 200.805 153.258 200.838 153.565C200.849 153.703 200.826 153.85 200.86 153.976C200.904 154.22 201.013 153.174 201.035 153.153C201.002 153.195 200.947 153.375 200.936 153.417C200.728 153.903 200.838 154.505 200.63 154.991C200.86 154.452 200.936 153.85 201.045 153.28C201.144 152.783 201.21 152.308 201.123 151.801C200.925 150.681 200.191 149.72 199.272 149.044C198.133 148.199 196.765 147.724 195.473 147.132C194.125 146.52 192.845 145.759 191.684 144.861C189.417 143.129 187.545 140.921 186.264 138.428C185.683 137.319 185.147 136.136 185.07 134.879C185.06 134.637 185.082 134.404 185.082 134.172C185.092 135.291 184.785 135.323 184.994 134.837C185.038 134.721 185.103 134.605 185.169 134.499C185.443 134.077 185.881 133.76 186.396 133.665C187.337 133.485 188.213 134.161 188.607 134.942C188.706 135.133 188.782 135.344 188.815 135.555C188.837 135.671 188.837 135.788 188.848 135.904C188.913 136.517 189.308 134.583 188.968 135.186C188.662 135.714 188.322 136.136 187.775 136.453C185.3 137.9 182.64 136.126 180.953 134.383C179.048 132.407 177.657 129.978 176.902 127.38C176.508 126.027 176.278 124.622 176.245 123.218C176.234 122.922 176.234 122.627 176.245 122.341C176.245 122.173 176.256 122.003 176.278 121.845C176.376 120.799 175.96 122.774 176.245 122.098C176.486 121.496 176.727 120.915 177.252 120.493C178.194 119.722 179.475 119.986 180.121 120.957C180.417 121.412 180.526 121.887 180.559 122.415C180.603 123.049 180.997 121.074 180.712 121.655C180.636 121.814 180.57 121.961 180.46 122.098C180.286 122.341 180.066 122.563 179.825 122.742C178.719 123.556 177.154 123.619 175.873 123.207C174.318 122.7 173.08 121.602 171.887 120.556C171.931 120.598 171.745 121.253 171.723 121.338C171.711 121.401 171.515 122.024 171.581 122.087Z" fill="#30D6AF"/>
<path d="M110.197 142.84C113.663 144.676 116.63 148.231 116.16 152.358C115.954 154.179 115.117 155.971 113.692 157.146C113.031 157.69 112.268 158.116 111.43 158.307C111.342 158.321 111.254 158.336 111.166 158.365C110.549 158.542 112.106 158.336 112.121 158.351C111.974 158.292 111.739 158.321 111.577 158.292C111.151 158.233 110.74 158.116 110.344 157.969C108.654 157.323 107.303 155.942 107.024 154.135C106.289 154.165 105.541 154.194 104.806 154.224C109.594 154.928 113.413 159.012 114.353 163.682C115.352 168.662 112.561 173.347 108.082 175.521C106.877 176.108 105.585 176.505 104.262 176.666C104.028 176.696 103.014 176.755 104.336 176.696C105.614 176.637 104.63 176.666 104.307 176.637C103.954 176.608 103.617 176.578 103.278 176.519C102.588 176.402 101.913 176.211 101.266 175.961C100.635 175.991 100.003 176.02 99.372 176.05C99.4301 176.05 99.4893 176.05 99.5626 176.05C99.46 176.05 99.3421 176.05 99.2394 176.05C101.031 176.123 102.25 177.841 102.397 179.516C102.603 181.822 100.84 183.79 99.2101 185.171C97.3594 186.742 95.0388 188.064 93.9225 190.326C93.0854 192.015 92.9974 194.204 94.3923 195.614C94.5097 195.731 95.3326 195.584 95.5086 195.584C95.6705 195.584 96.5076 195.408 96.6103 195.526C95.1708 194.071 95.3028 191.766 96.2284 190.062C97.4767 187.756 99.9152 186.463 101.81 184.759C103.425 183.305 105.056 181.205 104.527 178.884C104.116 177.092 102.78 175.932 100.958 175.991C100.562 176.006 100.15 176.02 99.7533 176.035C99.592 176.05 99.2247 176.138 99.0781 176.079C101.501 177.019 104.351 176.96 106.892 176.549C109.536 176.123 112.033 174.83 113.883 172.892C117.702 168.911 117.585 162.933 114.339 158.63C112.561 156.28 109.991 154.591 107.054 154.15C106.833 154.121 104.836 154.282 104.836 154.238C105.452 158.277 110.182 158.924 113.487 158.277C117.878 157.411 119.332 151.917 117.761 148.246C116.733 145.837 114.706 143.971 112.429 142.767C112.209 142.649 111.577 142.796 111.313 142.796C111.049 142.796 110.417 142.958 110.197 142.84Z" fill="#FA7697"/>
<path d="M156.349 134.195C158.606 134.702 159.51 137.107 159.316 139.223C159.266 139.743 159.156 140.277 158.988 140.769C158.895 141.012 158.802 141.255 158.677 141.486C158.593 141.659 158.483 141.802 158.382 141.968C159.704 139.668 159.561 140.431 158.964 141.075C157.997 142.1 156.839 142.902 155.659 143.659C153.379 145.112 151.094 146.432 149.42 148.634C147.903 150.619 146.144 152.752 146.668 155.421C147.437 159.445 152.044 161.385 152.893 165.347C153.142 166.5 152.955 167.672 152.453 168.744C152.32 169.046 152.16 169.319 152 169.592C151.305 170.738 152.194 169.425 152.295 169.258C152.194 169.425 152.045 169.572 151.935 169.716C151.5 170.274 151.081 170.838 150.655 171.419C149.118 173.506 147.659 175.531 147.775 178.249C148.081 185.196 155.073 188.528 160.608 190.859C160.819 190.939 161.996 188.677 162.158 188.739C157.071 186.597 151.214 183.94 149.632 178.102C149.309 176.903 149.204 175.618 149.426 174.403C149.538 173.815 149.716 173.252 149.964 172.696C150.117 172.346 150.295 172.024 150.489 171.708C150.596 171.526 151.144 170.769 150.504 171.621C149.899 172.43 150.352 171.824 150.491 171.653C151.346 170.531 152.194 169.425 153.006 168.267C153.708 167.254 154.331 166.154 154.504 164.921C155.049 160.71 150.378 158.207 148.724 154.848C148.244 153.867 148.003 152.792 148.121 151.704C148.191 151.081 148.371 150.463 148.642 149.898C148.775 149.595 149.58 148.362 148.815 149.444C148.056 150.51 149.029 149.321 149.28 149.101C151.332 147.172 153.949 146.053 156.137 144.306C157.256 143.414 158.098 142.323 158.943 141.179C159.705 140.151 160.433 139.166 160.712 137.898C161.215 135.602 160.4 132.675 157.855 132.095C157.751 132.074 157.145 133.031 157.063 133.149C157.048 133.236 156.43 134.226 156.349 134.195Z" fill="#FFBC1F"/>
<path d="M158.764 43.5767C156.422 43.2991 154.271 44.4095 152.709 46.1097C150.922 48.0522 150.073 50.4988 149.69 53.0661C148.927 58.1668 149.708 63.7874 146.603 68.2461C145.301 70.1191 143.375 71.3858 141.086 71.6634C138.64 71.9584 136.211 71.2641 133.817 70.8307C131.458 70.3972 128.977 70.1538 126.739 71.1952C124.64 72.1664 123.113 74.0052 121.743 75.8097C120.147 77.8913 118.689 80.0598 116.416 81.4651C114.283 82.8008 111.559 83.4603 109.374 81.8644C109.46 81.9333 109.304 83.0263 109.287 83.1653C109.269 83.3386 109.096 84.3794 109.235 84.4663C111.091 85.8369 113.398 85.5593 115.376 84.5701C117.545 83.4951 119.071 81.7601 120.511 79.8518C121.899 78.013 123.234 76.0525 125.126 74.6646C127.103 73.2078 129.411 72.8601 131.805 73.1382C136.367 73.6586 141.571 75.8967 145.371 72.1143C148.979 68.5405 148.927 63.0763 149.239 58.3749C149.447 55.2519 149.951 52.06 151.877 49.4923C153.473 47.3759 155.867 45.8321 158.59 46.1613C158.59 46.1961 158.85 43.5941 158.764 43.5767Z" fill="#FF8164"/>
<path d="M33.3999 150.005C32.6302 153.341 31.805 156.806 32.2863 160.243C32.4966 161.773 32.948 163.275 33.7286 164.6C34.4918 165.927 35.5641 166.904 36.7705 167.831C37.9004 168.697 39.1134 169.536 39.8516 170.795C40.7191 172.268 40.7463 174.029 41.0222 175.673C41.4894 178.378 43.1864 180.541 45.7194 181.613C48.436 182.768 51.2036 182.084 53.8692 181.115C53.0484 181.419 52.1695 181.52 51.3487 181.823C51.3313 181.825 53.9191 181.249 52.5312 181.478C52.4107 181.492 52.3069 181.504 52.1863 181.518C51.9283 181.547 51.6502 181.562 51.3878 181.557C50.7767 181.557 50.1574 181.489 49.5631 181.329C48.4322 181.058 47.3615 180.551 46.4429 179.853C45.5249 179.156 44.759 178.266 44.2402 177.243C43.6269 176.003 43.4862 174.622 43.2977 173.282C43.0951 171.821 42.7589 170.41 41.7545 169.268C40.8892 168.267 39.7777 167.556 38.7576 166.731C36.55 164.993 35.2789 162.589 34.8405 159.828C34.2783 156.295 35.111 152.742 35.9057 149.316C35.8808 149.406 34.7704 149.621 34.6346 149.654C34.514 149.668 33.4363 149.861 33.3999 150.005Z" fill="#3F67F2"/>
<path d="M167.006 20.0386C167.727 20.075 168.455 20.1179 169.177 20.1543C169.22 20.1543 169.321 18.7115 169.343 18.7115C168.621 18.6757 167.893 18.6322 167.172 18.5964C167.128 18.5964 167.02 20.0386 167.006 20.0386Z" fill="#FF8164"/>
<path d="M146.183 18.8157C147.137 20.2552 148.785 21.0016 150.485 20.7756C150.641 20.7582 151.041 19.3187 151.11 19.1449C151.179 18.9716 151.561 17.5141 151.7 17.4968C149.983 17.7227 148.352 16.9764 147.397 15.5363C147.484 15.6754 146.842 16.9764 146.773 17.167C146.686 17.393 146.044 18.6076 146.183 18.8157Z" fill="#FFBC1F"/>
<path d="M153.026 8.62492C153.271 8.99539 153.695 9.18714 154.133 9.12956C154.173 9.12468 154.276 8.75421 154.294 8.70966C154.311 8.66512 154.409 8.2903 154.445 8.28541C154.004 8.34354 153.584 8.15178 153.338 7.78077C153.361 7.81662 153.196 8.15179 153.177 8.20123C153.155 8.25881 152.991 8.57114 153.026 8.62492Z" fill="#FFBC1F"/>
<path d="M177.952 38.2513C179.153 38.4311 180.368 38.6109 181.569 38.8037C181.582 38.8037 181.9 36.7466 181.873 36.7466C180.672 36.5673 179.457 36.3881 178.256 36.1947C178.256 36.1805 177.938 38.2377 177.952 38.2513Z" fill="#FF8164"/>
<path d="M149.517 39.2745C150.055 40.35 150.593 41.4082 151.131 42.4837C151.2 42.6054 152.276 42.6054 152.432 42.6223C152.588 42.6402 153.681 42.6223 153.733 42.7266C153.195 41.651 152.657 40.5928 152.12 39.5173C152.05 39.3956 150.975 39.3956 150.819 39.3782C150.68 39.3608 149.587 39.3956 149.517 39.2745Z" fill="#FFBC1F"/>
<path d="M127.095 15.3679C127.546 16.6515 127.997 17.9356 128.448 19.2366C128.501 19.3925 129.507 19.6353 129.662 19.7048C129.836 19.7744 130.842 19.9824 130.894 20.1562C130.443 18.8721 129.992 17.5885 129.541 16.287C129.489 16.1311 128.483 15.8882 128.327 15.8187C128.153 15.7492 127.147 15.5238 127.095 15.3679Z" fill="#FF8164"/>
<path d="M167.057 52.1125C168.219 52.9279 169.381 53.7606 170.544 54.576C170.735 54.7145 172.383 52.7541 172.539 52.8758C171.376 52.0604 170.215 51.2277 169.052 50.4123C168.861 50.2732 167.213 52.2163 167.057 52.1125Z" fill="#FF8164"/>
<path d="M145.146 31.59C146.308 32.4054 147.47 33.2381 148.632 34.0535C148.824 34.1925 150.472 32.2321 150.628 32.3538C149.465 31.5384 148.303 30.7057 147.141 29.8898C146.95 29.7512 145.301 31.6943 145.146 31.59Z" fill="#FF8164"/>
<circle cx="109" cy="120" r="53" fill="white"/>
<path d="M94.5125 93.6203L124.548 106.778C124.857 106.914 125.396 107.365 125.396 108.105V115.571C125.396 116.357 124.865 116.783 124.557 116.918L94.4243 130.112C93.0562 130.511 92.4375 129.343 92.4375 128.732V122.254C92.4375 121.405 93.0797 120.953 93.4471 120.837L113.544 112.564C114.245 112.276 114.245 111.283 113.544 110.995L93.303 102.668C92.5786 102.316 92.4375 101.678 92.4375 101.332V94.8988C92.6021 93.4969 93.9188 93.3294 94.5125 93.6203Z" fill="#50C1BA"/>
<path d="M118.606 146.428L100.709 138.588C100.525 138.508 100.204 138.239 100.204 137.798V133.35C100.204 132.881 100.52 132.628 100.703 132.547L118.658 124.685C119.473 124.447 119.841 125.144 119.841 125.508V129.369C119.841 129.876 119.457 130.143 119.238 130.212L107.263 135.142C106.846 135.314 106.846 135.907 107.263 136.078L119.325 141.04C119.757 141.25 119.841 141.63 119.841 141.835V145.669C119.744 146.503 118.961 146.602 118.606 146.428Z" fill="#50C1BA"/>
</svg>
