<svg width="14" height="10" viewBox="0 0 14 10" fill="none" xmlns="http://www.w3.org/2000/svg">
<path d="M10.9981 0.415369L4.87021 6.55752L2.51334 4.20065C2.38529 4.05112 2.22771 3.92967 2.0505 3.84394C1.87328 3.7582 1.68026 3.71002 1.48354 3.70242C1.28682 3.69482 1.09065 3.72797 0.907353 3.79978C0.724053 3.87159 0.557576 3.98052 0.418371 4.11973C0.279166 4.25893 0.170239 4.42541 0.0984261 4.60871C0.0266135 4.79201 -0.00653398 4.98818 0.00106442 5.18489C0.00866282 5.38161 0.0568432 5.57464 0.142581 5.75185C0.228318 5.92907 0.349762 6.08665 0.49929 6.2147L3.85605 9.58574C3.98952 9.71813 4.14781 9.82286 4.32184 9.89395C4.49587 9.96503 4.68223 10.0011 4.87021 9.99998C5.24494 9.9984 5.60404 9.84963 5.8701 9.58574L13.0121 2.44371C13.146 2.31092 13.2523 2.15293 13.3248 1.97887C13.3973 1.80481 13.4347 1.6181 13.4347 1.42954C13.4347 1.24097 13.3973 1.05427 13.3248 0.880206C13.2523 0.706141 13.146 0.548158 13.0121 0.415369C12.7445 0.149327 12.3825 0 12.0051 0C11.6277 0 11.2657 0.149327 10.9981 0.415369Z" fill="#50C1BA"/>
</svg>
