<svg xmlns="http://www.w3.org/2000/svg" width="44" height="48" fill="none" viewBox="0 0 44 48">
    <path fill="#CCC" d="M42.877 46.382h-1.349V4.045a.809.809 0 0 0-.809-.809H25.618a.809.809 0 0 0-.809.809V7.55h-1.618V4.045a.809.809 0 0 0-.809-.809h-3.506V.809a.809.809 0 1 0-1.617 0v2.427h-3.506a.809.809 0 0 0-.809.809V7.55h-2.427a.809.809 0 0 0-.809.809V15.1H2.966a.809.809 0 0 0-.809.809v30.472H.81a.809.809 0 1 0 0 1.618h42.068a.809.809 0 1 0 0-1.618zM14.561 4.854h7.011V7.55h-7.011V4.854zm-2.697 41.528h-.54v-1.348a.809.809 0 1 0-1.617 0v1.348h-.54v-2.697h2.697v2.697zm5.393-20.764v20.764h-3.775v-3.505a.809.809 0 0 0-.809-.81H8.36a.809.809 0 0 0-.81.81v3.505H3.776V16.72h13.483v8.899zm.81-10.517h-6.742V9.17h13.483v15.64h-5.933v-2.697h2.427a.809.809 0 1 0 0-1.618h-2.427v-2.696h2.427a.809.809 0 1 0 0-1.618h-2.427v-.27a.809.809 0 0 0-.809-.809zM32.36 46.382H18.877V26.427H32.36v19.955zm7.55 0h-5.932V24.54a.809.809 0 1 0-1.618 0v.27h-1.618v-.27a.809.809 0 1 0-1.618 0v.27h-2.697V4.854H39.91v41.528z"/>
    <path fill="#CCC" d="M22.382 44.764a.809.809 0 0 0 .81-.809v-15.1a.809.809 0 1 0-1.619 0v15.1c0 .447.362.81.81.81zM25.618 44.764a.809.809 0 0 0 .809-.809v-15.1a.809.809 0 1 0-1.618 0v15.1c0 .447.362.81.81.81zM28.854 44.764a.809.809 0 0 0 .809-.809v-15.1a.809.809 0 1 0-1.618 0v15.1c0 .447.362.81.809.81zM29.933 10.247a.809.809 0 0 0 .808-.809V8.36a.809.809 0 1 0-1.617 0v1.078c0 .447.362.81.809.81zM33.169 10.247a.809.809 0 0 0 .809-.809V8.36a.809.809 0 1 0-1.618 0v1.078c0 .447.362.81.809.81zM36.405 10.247a.809.809 0 0 0 .809-.809V8.36a.809.809 0 1 0-1.618 0v1.078c0 .447.362.81.809.81zM29.933 15.64a.809.809 0 0 0 .808-.809v-1.078a.809.809 0 0 0-1.617 0v1.078c0 .447.362.81.809.81zM33.169 15.64a.809.809 0 0 0 .809-.809v-1.078a.809.809 0 0 0-1.618 0v1.078c0 .447.362.81.809.81zM36.405 15.64a.809.809 0 0 0 .809-.809v-1.078a.809.809 0 1 0-1.618 0v1.078c0 .447.362.81.809.81zM29.933 21.034a.809.809 0 0 0 .808-.81v-1.078a.809.809 0 1 0-1.617 0v1.079c0 .447.362.809.809.809zM33.169 21.034a.809.809 0 0 0 .809-.81v-1.078a.809.809 0 1 0-1.618 0v1.079c0 .447.362.809.809.809zM36.405 21.034a.809.809 0 0 0 .809-.81v-1.078a.809.809 0 1 0-1.618 0v1.079c0 .447.362.809.809.809zM7.28 23.191a.809.809 0 0 0 .81-.809v-1.079a.809.809 0 1 0-1.618 0v1.08c0 .446.362.808.809.808zM10.517 23.191a.809.809 0 0 0 .809-.809v-1.079a.809.809 0 1 0-1.618 0v1.08c0 .446.362.808.809.808zM13.753 23.191a.809.809 0 0 0 .809-.809v-1.079a.809.809 0 1 0-1.618 0v1.08c0 .446.362.808.809.808zM7.28 28.584a.809.809 0 0 0 .81-.809v-1.078a.809.809 0 1 0-1.618 0v1.078c0 .447.362.81.809.81zM10.517 28.584a.809.809 0 0 0 .809-.809v-1.078a.809.809 0 1 0-1.618 0v1.078c0 .447.362.81.809.81zM13.753 28.584a.809.809 0 0 0 .809-.809v-1.078a.809.809 0 0 0-1.618 0v1.078c0 .447.362.81.809.81zM7.28 33.978a.809.809 0 0 0 .81-.81V32.09a.809.809 0 1 0-1.618 0v1.079c0 .447.362.809.809.809zM10.517 33.978a.809.809 0 0 0 .809-.81V32.09a.809.809 0 1 0-1.618 0v1.079c0 .447.362.809.809.809zM13.753 33.978a.809.809 0 0 0 .809-.81V32.09a.809.809 0 1 0-1.618 0v1.079c0 .447.362.809.809.809zM7.28 39.37a.809.809 0 0 0 .81-.808v-1.079a.809.809 0 1 0-1.618 0v1.079c0 .447.362.809.809.809zM10.517 39.37a.809.809 0 0 0 .809-.808v-1.079a.809.809 0 1 0-1.618 0v1.079c0 .447.362.809.809.809zM13.753 39.37a.809.809 0 0 0 .809-.808v-1.079a.809.809 0 1 0-1.618 0v1.079c0 .447.362.809.809.809zM36.405 26.427a.809.809 0 0 0 .809-.809v-1.079a.809.809 0 1 0-1.618 0v1.079c0 .447.362.809.809.809zM36.405 31.82a.809.809 0 0 0 .809-.809v-1.078a.809.809 0 1 0-1.618 0v1.078c0 .447.362.81.809.81zM36.405 37.214a.809.809 0 0 0 .809-.81v-1.078a.809.809 0 1 0-1.618 0v1.078c0 .447.362.81.809.81zM36.405 42.607a.809.809 0 0 0 .809-.81V40.72a.809.809 0 1 0-1.618 0v1.079c0 .447.362.809.809.809zM22.112 12.674a.809.809 0 0 0-.809-.809h-6.472a.809.809 0 1 0 0 1.618h6.472a.809.809 0 0 0 .81-.809z"/>
</svg>
