<svg width="65" height="44" viewBox="0 0 65 44" fill="none" xmlns="http://www.w3.org/2000/svg">
<g filter="url(#filter0_d)">
<circle cx="21.5005" cy="21.5002" r="19" transform="rotate(171.854 21.5005 21.5002)" fill="white"/>
</g>
<path fill-rule="evenodd" clip-rule="evenodd" d="M20.4244 25.7856C19.9745 24.5511 19.5703 22.3881 19.5426 20.6471C19.5856 20.6005 19.6345 20.5466 19.6881 20.4859C19.8923 20.2549 20.094 20.0062 20.2803 19.7472C20.5882 19.3189 20.8245 18.9041 20.9645 18.506C21.3486 17.4076 21.4484 16.8439 21.4026 15.8991C21.3952 15.7463 21.3782 15.5727 21.3532 15.3807C21.3262 15.1728 21.2913 14.9545 21.2525 14.7386C21.2683 14.7397 21.2884 14.7445 21.3164 14.7526C22.0952 14.9766 22.8336 15.7703 22.7308 16.6821C22.6107 17.7482 22.6269 18.3561 22.7406 18.6813C22.7691 18.7628 22.8059 18.834 22.8535 18.8959C23.0099 19.0991 23.2733 19.1882 23.5209 19.1215C23.5464 19.1147 23.5981 19.1013 23.6729 19.0827C23.7994 19.0512 23.9428 19.0173 24.1001 18.9823C24.7439 18.8389 25.4069 18.7229 26.0261 18.6604C26.3972 18.6229 26.7368 18.6067 27.0358 18.6142C27.4156 18.6236 27.5164 18.7207 27.5717 19.1093C27.6012 19.3162 27.5353 19.6112 27.48 19.6814C27.248 19.9759 27.3207 20.4063 27.6366 20.6081C27.6527 20.6184 27.7071 20.7941 27.687 21.0271C27.6759 21.1551 27.6441 21.2725 27.6027 21.352C27.5937 21.3693 27.5854 21.3825 27.5788 21.3916C27.2518 21.5283 27.098 21.9108 27.2467 22.2384C27.4989 22.7943 27.4836 23.0792 27.1226 23.4155C26.9636 23.5636 26.8915 23.7829 26.9317 23.9965C27.0026 24.3745 26.9972 24.6263 26.9468 24.7694C26.9264 24.8276 26.9089 24.8468 26.8685 24.8676C26.8251 24.89 26.7857 24.9021 26.6382 24.9387C26.5916 24.9502 26.5594 24.9587 26.5248 24.9691C25.7073 25.2153 21.9066 25.7357 20.4244 25.7856ZM19.2505 19.0068C19.1633 19.1281 19.0711 19.248 18.9763 19.3647C18.9056 19.3581 18.8321 19.3634 18.7581 19.3825C17.2828 19.7633 16.5499 19.8416 15.3879 19.6994C15.0158 19.6539 14.6857 19.9393 14.6769 20.3141C14.6035 23.4593 14.8519 25.763 15.7896 27.7634C15.8959 27.9901 16.1256 28.133 16.3759 28.1282C18.6315 28.085 19.1196 27.9697 20.4329 27.2132C20.5097 27.169 20.5738 27.111 20.6239 27.0442C22.3633 26.9592 25.991 26.4543 26.8904 26.1836C26.9001 26.1807 26.9159 26.1765 26.9437 26.1696C27.0789 26.136 27.087 26.134 27.1525 26.1139C27.2574 26.0819 27.3546 26.0439 27.4501 25.9946C28.0624 25.6787 28.3354 25.044 28.2279 24.0906C28.7122 23.5107 28.7915 22.8774 28.5762 22.1711C29.0194 21.5968 29.0889 20.6172 28.7265 19.9788C28.835 19.6522 28.8755 19.2691 28.8274 18.9307C28.6877 17.9488 28.0887 17.3717 27.0674 17.3463C26.7105 17.3374 26.3193 17.3561 25.8987 17.3986C25.2542 17.4636 24.5786 17.5796 23.9199 17.7233C23.9277 17.4829 23.9505 17.1848 23.9911 16.8241C24.1745 15.1971 22.9779 13.9107 21.667 13.5337C21.0731 13.3629 20.5682 13.5521 20.228 13.9412C20.1091 14.0772 20.033 14.2088 19.9884 14.3154C19.939 14.4331 19.9264 14.563 19.9521 14.688C19.9606 14.7297 19.9757 14.8069 19.9944 14.9091C20.0338 15.1239 20.0693 15.3423 20.0956 15.5444C20.1165 15.705 20.1303 15.8462 20.1358 15.9604C20.173 16.727 20.1012 17.1327 19.7693 18.0819C19.6745 18.3514 19.494 18.6681 19.2505 19.0068ZM16.7737 26.8509C16.1352 25.294 15.917 23.4406 15.9343 21.0221C16.7089 21.0648 17.3868 20.9972 18.2773 20.8024C18.3266 22.726 18.7742 25.0378 19.2991 26.3901C18.6107 26.7421 18.1494 26.8158 16.7737 26.8509Z" fill="#ABE1DE"/>
<g filter="url(#filter1_d)">
<path d="M9.46972 19.9782C9.14517 19.9662 8.84501 19.8292 8.62445 19.5924C8.40397 19.3557 8.28917 19.047 8.30114 18.7232C8.30442 18.6345 8.23543 18.5599 8.14713 18.5567C8.05879 18.5534 7.98453 18.6227 7.98125 18.7114C7.96928 19.0352 7.83197 19.3345 7.59461 19.5543C7.35717 19.7742 7.04771 19.8887 6.72316 19.8767C6.63482 19.8734 6.56056 19.9427 6.55728 20.0314C6.554 20.1202 6.62294 20.1947 6.71128 20.198C7.38029 20.2227 7.90451 20.7873 7.87977 21.4566C7.87649 21.5453 7.94543 21.6199 8.03378 21.6231C8.12208 21.6264 8.19638 21.5571 8.19966 21.4684C8.2244 20.7992 8.78883 20.2748 9.45784 20.2995C9.54618 20.3028 9.62044 20.2335 9.62372 20.1448C9.627 20.0561 9.55806 19.9815 9.46972 19.9782Z" fill="#8FD2CE"/>
</g>
<path opacity="0.7" d="M21.0778 40.3503C20.5227 40.3298 20.0094 40.0954 19.6322 39.6904C19.2552 39.2856 19.0588 38.7577 19.0793 38.204C19.0849 38.0523 18.9669 37.9248 18.8159 37.9192C18.6649 37.9136 18.5379 38.0321 18.5323 38.1838C18.5118 38.7375 18.2769 39.2494 17.871 39.6253C17.465 40.0014 16.9357 40.1972 16.3807 40.1767C16.2296 40.1711 16.1026 40.2895 16.097 40.4413C16.0914 40.593 16.2093 40.7205 16.3604 40.7261C17.5045 40.7684 18.401 41.734 18.3587 42.8785C18.3531 43.0302 18.471 43.1577 18.6221 43.1633C18.7731 43.1689 18.9002 43.0504 18.9058 42.8987C18.9481 41.7542 19.9133 40.8575 21.0575 40.8998C21.2085 40.9053 21.3355 40.7869 21.3411 40.6351C21.3467 40.4834 21.2288 40.3559 21.0778 40.3503Z" fill="#8FD2CE"/>
<g opacity="0.7" filter="url(#filter2_d)">
<path d="M32.4992 4.14402C32.9337 4.16008 33.3356 4.34352 33.6308 4.6606C33.926 4.9775 34.0797 5.39075 34.0637 5.82418C34.0593 5.94298 34.1516 6.0428 34.2699 6.04717C34.3881 6.05154 34.4875 5.95881 34.4919 5.84002C34.508 5.40658 34.6918 5.00581 35.0096 4.71157C35.3274 4.41716 35.7417 4.26389 36.1762 4.27995C36.2945 4.28432 36.3939 4.19159 36.3983 4.0728C36.4027 3.95401 36.3104 3.85419 36.1921 3.84981C35.2965 3.8167 34.5947 3.06083 34.6278 2.16489C34.6322 2.0461 34.5399 1.94628 34.4216 1.9419C34.3034 1.93753 34.2039 2.03027 34.1995 2.14906C34.1664 3.045 33.4108 3.747 32.5151 3.71389C32.3968 3.70951 32.2974 3.80225 32.293 3.92104C32.2886 4.03983 32.3809 4.13965 32.4992 4.14402Z" fill="#8FD2CE"/>
</g>
<g filter="url(#filter3_d)">
<ellipse cx="44.0324" cy="23.0324" rx="15" ry="15" transform="rotate(24.7838 44.0324 23.0324)" fill="white"/>
<path d="M57.4239 29.2155C54.009 36.6114 45.2452 39.8387 37.8493 36.4238C30.4534 33.009 27.2261 24.2451 30.6409 16.8492C34.0558 9.45331 42.8196 6.22604 50.2155 9.64089C57.6114 13.0557 60.8387 21.8196 57.4239 29.2155Z" stroke="white" stroke-width="0.5"/>
</g>
<mask id="path-8-inside-1" fill="white">
<path fill-rule="evenodd" clip-rule="evenodd" d="M47.09 20.8882C46.8584 21.8993 46.1979 23.506 45.4691 24.6716C45.4206 24.684 45.365 24.6988 45.3035 24.716C45.0691 24.7814 44.8286 24.8596 44.5941 24.9513C44.2062 25.103 43.8716 25.2764 43.608 25.4801C42.882 26.0431 42.574 26.3738 42.1988 27.0196C42.1382 27.1239 42.0749 27.2463 42.0091 27.3842C41.9378 27.5336 41.8672 27.6932 41.8003 27.8529C41.7903 27.8454 41.779 27.8336 41.7639 27.8163C41.344 27.3336 41.1954 26.4907 41.6548 25.9307C42.1919 25.2758 42.4421 24.866 42.5063 24.6017C42.5224 24.5355 42.5286 24.4725 42.5236 24.4111C42.5072 24.2093 42.3709 24.0372 42.1782 23.9751C42.1583 23.9687 42.1183 23.9554 42.0608 23.9356C41.9635 23.9022 41.8539 23.8631 41.7346 23.8188C41.2465 23.6375 40.7574 23.4298 40.3203 23.2055C40.0582 23.0711 39.8263 22.9361 39.6313 22.8028C39.3837 22.6336 39.3586 22.5259 39.4887 22.2447C39.558 22.095 39.7283 21.9278 39.795 21.905C40.0752 21.8095 40.2117 21.4931 40.089 21.2237C40.0827 21.21 40.1221 21.0702 40.2354 20.9245C40.2977 20.8444 40.3691 20.7803 40.4307 20.7454C40.4441 20.7378 40.4553 20.7326 40.4636 20.7294C40.7389 20.7791 41.0049 20.5917 41.047 20.3108C41.1185 19.8342 41.2509 19.652 41.6344 19.5841C41.8034 19.5541 41.9452 19.4398 42.0103 19.281C42.1255 19.0001 42.2372 18.8356 42.3319 18.7623C42.3704 18.7326 42.3903 18.7274 42.426 18.7309C42.4644 18.7347 42.4956 18.7436 42.6091 18.7827C42.6449 18.795 42.6699 18.8032 42.6973 18.8111C43.3447 18.9989 46.0865 20.2852 47.09 20.8882ZM44.9586 25.8839C45.0685 25.8409 45.181 25.801 45.2939 25.7644C45.3379 25.7991 45.3889 25.8272 45.4462 25.8463C46.5872 26.227 47.1064 26.4897 47.8154 27.0826C48.0424 27.2725 48.3837 27.2251 48.5503 26.9805C49.9488 24.9278 50.7729 23.2947 51.01 21.5668C51.0369 21.371 50.946 21.1777 50.7781 21.0734C49.2649 20.134 48.892 20.0009 47.6971 19.9386C47.6272 19.9349 47.5599 19.9458 47.498 19.9686C46.3089 19.2784 43.6884 18.0561 42.9762 17.8495C42.9686 17.8473 42.9563 17.8433 42.9349 17.8359C42.8309 17.8001 42.8247 17.798 42.7727 17.7832C42.6894 17.7594 42.6087 17.7428 42.5243 17.7345C41.983 17.6811 41.5297 17.9845 41.1918 18.6624C40.622 18.8388 40.2976 19.2244 40.1372 19.7848C39.597 19.9752 39.1305 20.5944 39.0967 21.173C38.8846 21.3428 38.6934 21.5793 38.58 21.8242C38.2512 22.5348 38.4004 23.1743 39.0663 23.6294C39.2989 23.7885 39.5662 23.944 39.8632 24.0964C40.3181 24.3298 40.8155 24.5429 41.3137 24.7304C41.2054 24.8864 41.0624 25.0741 40.8806 25.2957C40.0608 26.2951 40.3017 27.661 41.0085 28.4735C41.3287 28.8415 41.7445 28.9329 42.137 28.821C42.2741 28.7819 42.381 28.7274 42.4563 28.6759C42.5395 28.6191 42.6036 28.5384 42.6403 28.4446C42.6525 28.4132 42.6756 28.3556 42.7071 28.2799C42.7732 28.1206 42.8434 27.9607 42.9127 27.8155C42.9678 27.7001 43.0193 27.6006 43.0646 27.5225C43.369 26.9986 43.5907 26.7606 44.218 26.2741C44.3964 26.1362 44.6519 26.0038 44.9586 25.8839ZM49.9663 21.7491C49.7212 23.0547 49.0704 24.3766 48.021 25.9717C47.526 25.611 47.0478 25.3649 46.3741 25.1117C47.167 23.8159 47.8626 22.0919 48.0951 20.9706C48.7024 21.0328 49.0397 21.1819 49.9663 21.7491Z"/>
</mask>
<path fill-rule="evenodd" clip-rule="evenodd" d="M47.09 20.8882C46.8584 21.8993 46.1979 23.506 45.4691 24.6716C45.4206 24.684 45.365 24.6988 45.3035 24.716C45.0691 24.7814 44.8286 24.8596 44.5941 24.9513C44.2062 25.103 43.8716 25.2764 43.608 25.4801C42.882 26.0431 42.574 26.3738 42.1988 27.0196C42.1382 27.1239 42.0749 27.2463 42.0091 27.3842C41.9378 27.5336 41.8672 27.6932 41.8003 27.8529C41.7903 27.8454 41.779 27.8336 41.7639 27.8163C41.344 27.3336 41.1954 26.4907 41.6548 25.9307C42.1919 25.2758 42.4421 24.866 42.5063 24.6017C42.5224 24.5355 42.5286 24.4725 42.5236 24.4111C42.5072 24.2093 42.3709 24.0372 42.1782 23.9751C42.1583 23.9687 42.1183 23.9554 42.0608 23.9356C41.9635 23.9022 41.8539 23.8631 41.7346 23.8188C41.2465 23.6375 40.7574 23.4298 40.3203 23.2055C40.0582 23.0711 39.8263 22.9361 39.6313 22.8028C39.3837 22.6336 39.3586 22.5259 39.4887 22.2447C39.558 22.095 39.7283 21.9278 39.795 21.905C40.0752 21.8095 40.2117 21.4931 40.089 21.2237C40.0827 21.21 40.1221 21.0702 40.2354 20.9245C40.2977 20.8444 40.3691 20.7803 40.4307 20.7454C40.4441 20.7378 40.4553 20.7326 40.4636 20.7294C40.7389 20.7791 41.0049 20.5917 41.047 20.3108C41.1185 19.8342 41.2509 19.652 41.6344 19.5841C41.8034 19.5541 41.9452 19.4398 42.0103 19.281C42.1255 19.0001 42.2372 18.8356 42.3319 18.7623C42.3704 18.7326 42.3903 18.7274 42.426 18.7309C42.4644 18.7347 42.4956 18.7436 42.6091 18.7827C42.6449 18.795 42.6699 18.8032 42.6973 18.8111C43.3447 18.9989 46.0865 20.2852 47.09 20.8882ZM44.9586 25.8839C45.0685 25.8409 45.181 25.801 45.2939 25.7644C45.3379 25.7991 45.3889 25.8272 45.4462 25.8463C46.5872 26.227 47.1064 26.4897 47.8154 27.0826C48.0424 27.2725 48.3837 27.2251 48.5503 26.9805C49.9488 24.9278 50.7729 23.2947 51.01 21.5668C51.0369 21.371 50.946 21.1777 50.7781 21.0734C49.2649 20.134 48.892 20.0009 47.6971 19.9386C47.6272 19.9349 47.5599 19.9458 47.498 19.9686C46.3089 19.2784 43.6884 18.0561 42.9762 17.8495C42.9686 17.8473 42.9563 17.8433 42.9349 17.8359C42.8309 17.8001 42.8247 17.798 42.7727 17.7832C42.6894 17.7594 42.6087 17.7428 42.5243 17.7345C41.983 17.6811 41.5297 17.9845 41.1918 18.6624C40.622 18.8388 40.2976 19.2244 40.1372 19.7848C39.597 19.9752 39.1305 20.5944 39.0967 21.173C38.8846 21.3428 38.6934 21.5793 38.58 21.8242C38.2512 22.5348 38.4004 23.1743 39.0663 23.6294C39.2989 23.7885 39.5662 23.944 39.8632 24.0964C40.3181 24.3298 40.8155 24.5429 41.3137 24.7304C41.2054 24.8864 41.0624 25.0741 40.8806 25.2957C40.0608 26.2951 40.3017 27.661 41.0085 28.4735C41.3287 28.8415 41.7445 28.9329 42.137 28.821C42.2741 28.7819 42.381 28.7274 42.4563 28.6759C42.5395 28.6191 42.6036 28.5384 42.6403 28.4446C42.6525 28.4132 42.6756 28.3556 42.7071 28.2799C42.7732 28.1206 42.8434 27.9607 42.9127 27.8155C42.9678 27.7001 43.0193 27.6006 43.0646 27.5225C43.369 26.9986 43.5907 26.7606 44.218 26.2741C44.3964 26.1362 44.6519 26.0038 44.9586 25.8839ZM49.9663 21.7491C49.7212 23.0547 49.0704 24.3766 48.021 25.9717C47.526 25.611 47.0478 25.3649 46.3741 25.1117C47.167 23.8159 47.8626 22.0919 48.0951 20.9706C48.7024 21.0328 49.0397 21.1819 49.9663 21.7491Z" fill="#50C1BA"/>
<path d="M45.4691 24.6716L45.5928 25.1561L45.7868 25.1065L45.893 24.9367L45.4691 24.6716ZM47.09 20.8882L47.5774 20.9999L47.6584 20.6464L47.3476 20.4597L47.09 20.8882ZM45.3035 24.716L45.1691 24.2344L45.1691 24.2344L45.3035 24.716ZM44.5941 24.9513L44.412 24.4857L44.412 24.4857L44.5941 24.9513ZM43.608 25.4801L43.3023 25.0844L43.3015 25.085L43.608 25.4801ZM42.1988 27.0196L42.6312 27.2707L42.6312 27.2707L42.1988 27.0196ZM42.0091 27.3842L41.5579 27.1689L41.5579 27.1689L42.0091 27.3842ZM41.8003 27.8529L41.4988 28.2518L42.0125 28.6401L42.2614 28.0462L41.8003 27.8529ZM41.7639 27.8163L41.3867 28.1445L41.3867 28.1445L41.7639 27.8163ZM41.6548 25.9307L41.2682 25.6136L41.2682 25.6136L41.6548 25.9307ZM42.5063 24.6017L42.9922 24.7197L42.9922 24.7197L42.5063 24.6017ZM42.5236 24.4111L43.0219 24.3706L43.0219 24.3706L42.5236 24.4111ZM42.1782 23.9751L42.3316 23.4992L42.3316 23.4992L42.1782 23.9751ZM42.0608 23.9356L41.8983 24.4085L41.8983 24.4085L42.0608 23.9356ZM41.7346 23.8188L41.9087 23.3501L41.9087 23.3501L41.7346 23.8188ZM40.3203 23.2055L40.092 23.6504L40.3203 23.2055ZM39.6313 22.8028L39.3492 23.2156L39.6313 22.8028ZM39.4887 22.2447L39.9425 22.4547L39.9425 22.4547L39.4887 22.2447ZM39.795 21.905L39.6336 21.4318L39.6336 21.4318L39.795 21.905ZM40.089 21.2237L40.544 21.0164L40.544 21.0164L40.089 21.2237ZM40.2354 20.9245L39.8408 20.6175L39.8408 20.6175L40.2354 20.9245ZM40.4307 20.7454L40.6771 21.1804L40.6771 21.1804L40.4307 20.7454ZM40.4636 20.7294L40.5524 20.2373L40.415 20.2125L40.2846 20.2625L40.4636 20.7294ZM41.047 20.3108L41.5415 20.3849L41.5415 20.3849L41.047 20.3108ZM41.6344 19.5841L41.7216 20.0764L41.7216 20.0764L41.6344 19.5841ZM42.0103 19.281L41.5477 19.0913L41.5477 19.0913L42.0103 19.281ZM42.3319 18.7623L42.6377 19.1579L42.6377 19.1579L42.3319 18.7623ZM42.426 18.7309L42.4751 18.2333L42.4751 18.2333L42.426 18.7309ZM42.6091 18.7827L42.7718 18.3099L42.7718 18.3099L42.6091 18.7827ZM42.6973 18.8111L42.8366 18.3309L42.8366 18.3309L42.6973 18.8111ZM45.2939 25.7644L45.6036 25.3719L45.3937 25.2063L45.1395 25.2888L45.2939 25.7644ZM44.9586 25.8839L44.7766 25.4182L44.7766 25.4182L44.9586 25.8839ZM45.4462 25.8463L45.6044 25.372L45.6044 25.372L45.4462 25.8463ZM47.8154 27.0826L47.4946 27.4662L47.4946 27.4662L47.8154 27.0826ZM48.5503 26.9805L48.9635 27.262L48.9635 27.262L48.5503 26.9805ZM51.01 21.5668L50.5146 21.4988L50.5146 21.4988L51.01 21.5668ZM50.7781 21.0734L51.0418 20.6486L51.0418 20.6486L50.7781 21.0734ZM47.6971 19.9386L47.671 20.4379L47.671 20.4379L47.6971 19.9386ZM47.498 19.9686L47.247 20.401L47.4504 20.5191L47.671 20.4377L47.498 19.9686ZM42.9762 17.8495L42.8369 18.3297L42.8369 18.3297L42.9762 17.8495ZM42.9349 17.8359L43.0977 17.3631L43.0976 17.3631L42.9349 17.8359ZM42.7727 17.7832L42.91 17.3024L42.91 17.3024L42.7727 17.7832ZM42.5243 17.7345L42.5733 17.2369L42.5733 17.2369L42.5243 17.7345ZM41.1918 18.6624L41.3396 19.14L41.5439 19.0768L41.6393 18.8854L41.1918 18.6624ZM40.1372 19.7848L40.3034 20.2564L40.5469 20.1706L40.6179 19.9224L40.1372 19.7848ZM39.0967 21.173L39.4092 21.5633L39.5829 21.4242L39.5958 21.2022L39.0967 21.173ZM38.58 21.8242L39.0338 22.0342L39.0338 22.0342L38.58 21.8242ZM39.0663 23.6294L38.7841 24.0422L39.0663 23.6294ZM39.8632 24.0964L39.6349 24.5412L39.8632 24.0964ZM41.3137 24.7304L41.7244 25.0157L42.0906 24.4886L41.4898 24.2625L41.3137 24.7304ZM40.8806 25.2957L41.2672 25.6128L41.2672 25.6128L40.8806 25.2957ZM41.0085 28.4735L41.3858 28.1453L41.3858 28.1453L41.0085 28.4735ZM42.137 28.821L42.274 29.3018L42.274 29.3018L42.137 28.821ZM42.4563 28.6759L42.1743 28.263L42.1743 28.263L42.4563 28.6759ZM42.6403 28.4446L43.1061 28.6264L43.1061 28.6264L42.6403 28.4446ZM42.7071 28.2799L42.2453 28.0882L42.2453 28.0882L42.7071 28.2799ZM42.9127 27.8155L42.4615 27.6001L42.4615 27.6002L42.9127 27.8155ZM43.0646 27.5225L43.4969 27.7737L43.4969 27.7737L43.0646 27.5225ZM44.218 26.2741L43.9123 25.8784L43.9115 25.879L44.218 26.2741ZM48.021 25.9717L47.7265 26.3758L48.1504 26.6847L48.4387 26.2465L48.021 25.9717ZM49.9663 21.7491L50.4577 21.8413L50.5213 21.5025L50.2273 21.3226L49.9663 21.7491ZM46.3741 25.1117L45.9476 24.8507L45.6318 25.3668L46.1982 25.5797L46.3741 25.1117ZM48.0951 20.9706L48.1461 20.4732L47.6972 20.4271L47.6055 20.869L48.0951 20.9706ZM45.893 24.9367C46.6483 23.7288 47.3321 22.0707 47.5774 20.9999L46.6026 20.7766C46.3847 21.728 45.7475 23.2833 45.0451 24.4065L45.893 24.9367ZM45.4379 25.1976C45.496 25.1813 45.548 25.1675 45.5928 25.1561L45.3453 24.1872C45.2931 24.2005 45.2341 24.2162 45.1691 24.2344L45.4379 25.1976ZM44.7761 25.417C44.993 25.3322 45.2173 25.2591 45.4379 25.1976L45.1691 24.2344C44.9208 24.3036 44.6643 24.387 44.412 24.4857L44.7761 25.417ZM43.9136 25.8758C44.1268 25.7111 44.4144 25.5584 44.7761 25.417L44.412 24.4857C43.998 24.6475 43.6165 24.8417 43.3023 25.0844L43.9136 25.8758ZM42.6312 27.2707C42.9663 26.6939 43.2256 26.4094 43.9144 25.8752L43.3015 25.085C42.5385 25.6768 42.1817 26.0537 41.7665 26.7684L42.6312 27.2707ZM42.4603 27.5996C42.5225 27.4695 42.5794 27.3599 42.6312 27.2707L41.7665 26.7684C41.697 26.888 41.6274 27.0232 41.5579 27.1689L42.4603 27.5996ZM42.2614 28.0462C42.326 27.8922 42.3933 27.7401 42.4603 27.5996L41.5579 27.1689C41.4824 27.3271 41.4085 27.4943 41.3392 27.6596L42.2614 28.0462ZM41.3867 28.1445C41.4018 28.1618 41.443 28.2097 41.4988 28.2518L42.1018 27.4541C42.1231 27.4702 42.1366 27.4837 42.1406 27.4877C42.1448 27.4921 42.1457 27.4934 42.1411 27.4881L41.3867 28.1445ZM41.2682 25.6136C40.6121 26.4134 40.8544 27.5326 41.3867 28.1445L42.1411 27.4881C41.8336 27.1345 41.7786 26.5681 42.0414 26.2478L41.2682 25.6136ZM42.0204 24.4837C42.0072 24.5383 41.9616 24.6531 41.8355 24.8521C41.7129 25.0457 41.5299 25.2945 41.2682 25.6136L42.0414 26.2478C42.3168 25.912 42.5275 25.6284 42.6803 25.3873C42.8296 25.1516 42.9412 24.9294 42.9922 24.7197L42.0204 24.4837ZM42.0252 24.4516C42.0252 24.4517 42.0254 24.4537 42.025 24.4585C42.0245 24.4634 42.0234 24.4716 42.0204 24.4837L42.9922 24.7197C43.0186 24.6111 43.032 24.494 43.0219 24.3706L42.0252 24.4516ZM42.0248 24.451L42.0252 24.4516L43.0219 24.3706C42.9892 23.9673 42.7168 23.6234 42.3316 23.4992L42.0248 24.451ZM41.8983 24.4085C41.9574 24.4288 42.0007 24.4432 42.0248 24.451L42.3316 23.4992C42.3159 23.4942 42.2792 23.482 42.2233 23.4628L41.8983 24.4085ZM41.5605 24.2875C41.6835 24.3332 41.7969 24.3737 41.8983 24.4085L42.2233 23.4628C42.13 23.4307 42.0243 23.393 41.9087 23.3501L41.5605 24.2875ZM40.092 23.6504C40.5509 23.8859 41.059 24.1013 41.5605 24.2875L41.9087 23.3501C41.434 23.1738 40.9638 22.9738 40.5485 22.7607L40.092 23.6504ZM39.3492 23.2156C39.5657 23.3636 39.8167 23.5091 40.092 23.6504L40.5485 22.7607C40.2998 22.6331 40.0869 22.5086 39.9135 22.3901L39.3492 23.2156ZM39.035 22.0348C38.9689 22.1775 38.8659 22.4196 38.9335 22.6879C39.0034 22.9653 39.2168 23.1251 39.3492 23.2156L39.9135 22.3901C39.8906 22.3744 39.8752 22.3628 39.8649 22.3544C39.8546 22.346 39.8523 22.3431 39.8546 22.3457C39.8572 22.3485 39.866 22.3585 39.876 22.3759C39.8865 22.394 39.8965 22.417 39.9032 22.4436C39.9173 22.4993 39.9088 22.5378 39.9085 22.5393C39.9084 22.5394 39.91 22.5328 39.9157 22.5176C39.9213 22.5025 39.9298 22.4821 39.9425 22.4547L39.035 22.0348ZM39.6336 21.4318C39.5302 21.4671 39.4507 21.5287 39.4158 21.5567C39.3679 21.5951 39.3212 21.6394 39.2786 21.6848C39.1979 21.7706 39.1001 21.8941 39.035 22.0348L39.9425 22.4547C39.9424 22.455 39.9437 22.4521 39.9473 22.4462C39.9508 22.4403 39.9557 22.4329 39.962 22.4242C39.9749 22.4063 39.9907 22.3872 40.0071 22.3698C40.024 22.3518 40.0367 22.3406 40.0417 22.3366C40.0442 22.3346 40.0409 22.3375 40.0321 22.3431C40.0274 22.346 40.0194 22.3508 40.0083 22.3565C39.9977 22.3619 39.9801 22.3702 39.9565 22.3783L39.6336 21.4318ZM39.634 21.431L39.6336 21.4318L39.9565 22.3783C40.5164 22.1872 40.7892 21.5548 40.544 21.0164L39.634 21.431ZM39.8408 20.6175C39.7546 20.7283 39.6952 20.8382 39.6569 20.9287C39.6379 20.9736 39.6216 21.0194 39.6099 21.0637C39.6044 21.0847 39.5974 21.1145 39.5929 21.1488C39.5908 21.1654 39.5879 21.1932 39.5884 21.2271C39.5887 21.2461 39.5893 21.333 39.634 21.431L40.544 21.0164C40.5689 21.0712 40.5784 21.1186 40.5825 21.1447C40.587 21.1733 40.5881 21.1969 40.5883 21.2123C40.5887 21.2426 40.5861 21.2658 40.5847 21.277C40.5817 21.3004 40.5776 21.3159 40.5766 21.3196C40.5741 21.3293 40.5736 21.3285 40.5778 21.3185C40.5859 21.2993 40.6029 21.2664 40.6301 21.2315L39.8408 20.6175ZM40.1842 20.3103C40.0504 20.3861 39.9315 20.5008 39.8408 20.6175L40.6301 21.2315C40.6445 21.2129 40.6588 21.1979 40.6703 21.1874C40.6829 21.1759 40.6861 21.1753 40.6771 21.1804L40.1842 20.3103ZM40.2846 20.2625C40.2481 20.2765 40.2142 20.2934 40.1842 20.3103L40.6771 21.1804C40.6749 21.1817 40.6712 21.1837 40.6661 21.1861C40.6612 21.1885 40.6533 21.1921 40.6425 21.1962L40.2846 20.2625ZM40.5526 20.2367L40.5524 20.2373L40.3747 21.2214C40.9256 21.3209 41.4573 20.9467 41.5415 20.3849L40.5526 20.2367ZM41.5472 19.0917C41.289 19.1375 41.0258 19.2386 40.8317 19.4838C40.6564 19.7051 40.5909 19.9809 40.5526 20.2367L41.5415 20.3849C41.5571 20.2811 41.5734 20.2115 41.5893 20.1641C41.5969 20.1414 41.6035 20.1264 41.6082 20.1171C41.6129 20.1081 41.6156 20.1047 41.6157 20.1046C41.6158 20.1045 41.6155 20.1048 41.6148 20.1055C41.6141 20.1062 41.6134 20.1069 41.6127 20.1074C41.6112 20.1087 41.6117 20.1079 41.6163 20.1055C41.627 20.1001 41.6567 20.0879 41.7216 20.0764L41.5472 19.0917ZM41.5477 19.0913L41.5472 19.0917L41.7216 20.0764C42.0593 20.0166 42.3428 19.788 42.4729 19.4707L41.5477 19.0913ZM42.0262 18.3667C41.8227 18.524 41.6702 18.7926 41.5477 19.0913L42.4729 19.4707C42.5226 19.3496 42.5665 19.2659 42.601 19.2116C42.6378 19.1536 42.6529 19.1462 42.6377 19.1579L42.0262 18.3667ZM42.4751 18.2333C42.4233 18.2282 42.3327 18.2242 42.227 18.2581C42.1309 18.289 42.0621 18.339 42.0262 18.3667L42.6377 19.1579C42.6374 19.1581 42.6279 19.1656 42.6117 19.1751C42.5943 19.1854 42.5677 19.199 42.533 19.2102C42.4559 19.2349 42.3931 19.2301 42.377 19.2285L42.4751 18.2333ZM42.7718 18.3099C42.6704 18.275 42.5823 18.2439 42.4751 18.2333L42.377 19.2285C42.3729 19.2281 42.3662 19.2272 42.3587 19.2258C42.3521 19.2245 42.3495 19.2236 42.3532 19.2246C42.3575 19.2259 42.3661 19.2285 42.3823 19.2338C42.3983 19.239 42.4188 19.2459 42.4464 19.2554L42.7718 18.3099ZM42.8366 18.3309C42.8205 18.3262 42.8043 18.321 42.7718 18.3099L42.4464 19.2554C42.4856 19.2689 42.5193 19.2801 42.558 19.2913L42.8366 18.3309ZM47.3476 20.4597C46.8226 20.1442 45.8666 19.6628 44.9733 19.2417C44.0922 18.8263 43.2062 18.4381 42.8366 18.3309L42.558 19.2913C42.8358 19.3719 43.6443 19.7207 44.5469 20.1462C45.4372 20.5659 46.3539 21.0292 46.8325 21.3168L47.3476 20.4597ZM45.1395 25.2888C45.0182 25.3282 44.8964 25.3713 44.7766 25.4182L45.1407 26.3496C45.2406 26.3105 45.3438 26.2739 45.4483 26.24L45.1395 25.2888ZM45.6044 25.372L45.6036 25.3719L44.9842 26.1569C45.0732 26.2272 45.1754 26.283 45.2879 26.3206L45.6044 25.372ZM48.1362 26.6991C47.3645 26.0538 46.7836 25.7655 45.6044 25.372L45.2879 26.3206C46.3908 26.6886 46.8483 26.9257 47.4946 27.4662L48.1362 26.6991ZM48.1371 26.699L48.1362 26.6991L47.4946 27.4662C47.9484 27.8457 48.6305 27.7508 48.9635 27.262L48.1371 26.699ZM50.5146 21.4988C50.2935 23.1103 49.5224 24.6655 48.1371 26.699L48.9635 27.262C50.3751 25.1901 51.2523 23.4791 51.5054 21.6348L50.5146 21.4988ZM50.5143 21.4982L50.5146 21.4988L51.5054 21.6348C51.5591 21.2434 51.3774 20.857 51.0418 20.6486L50.5143 21.4982ZM47.671 20.4379C48.2531 20.4683 48.5853 20.5141 48.9459 20.6465C49.3232 20.785 49.7543 21.0264 50.5143 21.4982L51.0418 20.6486C50.2886 20.1811 49.7767 19.8862 49.2905 19.7077C48.7877 19.5231 48.3359 19.4712 47.7232 19.4393L47.671 20.4379ZM47.671 20.4377L47.671 20.4379L47.7232 19.4393C47.5843 19.432 47.4493 19.4537 47.3251 19.4995L47.671 20.4377ZM42.8369 18.3297C43.1488 18.4202 43.9458 18.7593 44.8464 19.1806C45.7346 19.5961 46.6715 20.067 47.247 20.401L47.749 19.5362C47.1354 19.1801 46.1675 18.6946 45.2702 18.2748C44.3852 17.8608 43.5159 17.4854 43.1155 17.3693L42.8369 18.3297ZM42.7722 18.3087C42.7931 18.3158 42.816 18.3236 42.8369 18.3297L43.1156 17.3693C43.1197 17.3705 43.121 17.371 43.1169 17.3696C43.1133 17.3684 43.1073 17.3664 43.0977 17.3631L42.7722 18.3087ZM42.6354 18.2639C42.6602 18.271 42.6676 18.2732 42.6796 18.2771C42.6956 18.2824 42.7183 18.2901 42.7722 18.3087L43.0976 17.3631C42.9925 17.3269 42.9756 17.3211 42.91 17.3024L42.6354 18.2639ZM42.4752 18.2321C42.525 18.237 42.5759 18.2469 42.6354 18.264L42.91 17.3024C42.803 17.2718 42.6925 17.2486 42.5733 17.2369L42.4752 18.2321ZM41.6393 18.8854C41.7835 18.596 41.9326 18.4275 42.0656 18.3358C42.1895 18.2504 42.3197 18.2167 42.4752 18.2321L42.5733 17.2369C42.1875 17.1988 41.8205 17.2902 41.4979 17.5126C41.1844 17.7287 40.9379 18.0508 40.7443 18.4393L41.6393 18.8854ZM40.6179 19.9224C40.7391 19.4987 40.9549 19.2591 41.3396 19.14L41.0439 18.1847C40.2891 18.4184 39.856 18.9501 39.6565 19.6473L40.6179 19.9224ZM39.5958 21.2022C39.6059 21.0303 39.6848 20.8229 39.8269 20.6335C39.9692 20.444 40.1452 20.3121 40.3034 20.2564L39.971 19.3132C39.5891 19.4478 39.2616 19.7208 39.0272 20.0331C38.7926 20.3456 38.6213 20.7371 38.5975 21.1438L39.5958 21.2022ZM39.0338 22.0342C39.1122 21.8648 39.2528 21.6885 39.4092 21.5633L38.7841 20.7827C38.5164 20.9971 38.2745 21.2939 38.1263 21.6142L39.0338 22.0342ZM39.3485 23.2167C39.0928 23.0419 38.9769 22.8617 38.9341 22.6968C38.8906 22.5295 38.9053 22.312 39.0338 22.0342L38.1263 21.6142C37.926 22.0471 37.8509 22.5046 37.9662 22.9484C38.0822 23.3947 38.3739 23.7618 38.7841 24.0422L39.3485 23.2167ZM40.0914 23.6515C39.8083 23.5063 39.5599 23.3612 39.3485 23.2167L38.7841 24.0422C39.038 24.2157 39.3241 24.3818 39.6349 24.5412L40.0914 23.6515ZM41.4898 24.2625C41.0049 24.08 40.5256 23.8743 40.0914 23.6515L39.6349 24.5412C40.1106 24.7853 40.6261 25.0059 41.1376 25.1984L41.4898 24.2625ZM41.2672 25.6128C41.4547 25.3843 41.6063 25.1856 41.7244 25.0157L40.9031 24.4451C40.8045 24.5871 40.6701 24.764 40.4941 24.9785L41.2672 25.6128ZM41.3858 28.1453C40.7995 27.4714 40.6374 26.3805 41.2672 25.6128L40.4941 24.9785C39.4843 26.2096 39.8039 27.8506 40.6313 28.8017L41.3858 28.1453ZM41.9999 28.3401C41.7851 28.4014 41.5727 28.3601 41.3858 28.1453L40.6313 28.8017C41.0848 29.3229 41.704 29.4643 42.274 29.3018L41.9999 28.3401ZM42.1743 28.263C42.1435 28.284 42.0857 28.3157 41.9999 28.3401L42.274 29.3018C42.4625 29.2481 42.6184 29.1707 42.7383 29.0888L42.1743 28.263ZM42.1745 28.2627L42.1743 28.263L42.7383 29.0888C42.9046 28.9752 43.0328 28.814 43.1061 28.6264L42.1745 28.2627ZM42.2453 28.0882C42.2129 28.1662 42.1884 28.2273 42.1745 28.2627L43.1061 28.6264C43.1167 28.5992 43.1384 28.545 43.1689 28.4716L42.2453 28.0882ZM42.4615 27.6002C42.3876 27.755 42.3138 27.9231 42.2453 28.0882L43.1689 28.4716C43.2326 28.3182 43.2993 28.1664 43.364 28.0309L42.4615 27.6002ZM42.6323 27.2714C42.5778 27.3652 42.5199 27.4777 42.4615 27.6001L43.364 28.0309C43.4157 27.9224 43.4608 27.836 43.4969 27.7737L42.6323 27.2714ZM43.9115 25.879C43.5923 26.1266 43.3537 26.328 43.1532 26.5448C42.948 26.7665 42.7955 26.9903 42.6323 27.2714L43.4969 27.7737C43.638 27.5308 43.7486 27.3737 43.8872 27.2238C44.0304 27.069 44.2164 26.9081 44.5244 26.6692L43.9115 25.879ZM44.7766 25.4182C44.4479 25.5467 44.1436 25.6997 43.9123 25.8784L44.5236 26.6698C44.6493 26.5727 44.856 26.4608 45.1407 26.3496L44.7766 25.4182ZM48.4387 26.2465C49.5015 24.6309 50.1945 23.2434 50.4577 21.8413L49.4749 21.6568C49.2479 22.866 48.6392 24.1222 47.6033 25.6969L48.4387 26.2465ZM46.1982 25.5797C46.8395 25.8207 47.2755 26.0471 47.7265 26.3758L48.3155 25.5676C47.7764 25.1748 47.2562 24.909 46.55 24.6436L46.1982 25.5797ZM47.6055 20.869C47.3866 21.9251 46.7156 23.5956 45.9476 24.8507L46.8006 25.3726C47.6184 24.0362 48.3387 22.2588 48.5847 21.0721L47.6055 20.869ZM50.2273 21.3226C49.2854 20.7461 48.869 20.5473 48.1461 20.4732L48.0441 21.468C48.5358 21.5184 48.7939 21.6178 49.7053 22.1755L50.2273 21.3226Z" fill="#ABE1DE" mask="url(#path-8-inside-1)"/>
<path d="M62.3871 26.7775C61.6722 26.3021 61.185 25.5785 61.0151 24.74C60.8453 23.9018 61.013 23.0475 61.4873 22.3343C61.6173 22.1389 61.5648 21.8755 61.3703 21.7462C61.1757 21.6167 60.9126 21.6703 60.7827 21.8657C60.3084 22.5789 59.5853 23.0639 58.7466 23.2313C57.9076 23.3989 57.052 23.2293 56.3371 22.7539C56.1425 22.6245 55.8794 22.678 55.7494 22.8734C55.6194 23.0689 55.6718 23.3322 55.8664 23.4616C57.3401 24.4417 57.7415 26.4385 56.7611 27.9127C56.6311 28.1081 56.6834 28.3714 56.878 28.5009C57.0726 28.6302 57.3357 28.5768 57.4657 28.3813C58.4461 26.9071 60.4428 26.5052 61.9164 27.4853C62.111 27.6147 62.3741 27.5612 62.5041 27.3657C62.6341 27.1702 62.5817 26.9069 62.3871 26.7775Z" fill="#8FD2CE"/>
<defs>
<filter id="filter0_d" x="0.498169" y="0.498047" width="42.0049" height="42.0049" filterUnits="userSpaceOnUse" color-interpolation-filters="sRGB">
<feFlood flood-opacity="0" result="BackgroundImageFix"/>
<feColorMatrix in="SourceAlpha" type="matrix" values="0 0 0 0 0 0 0 0 0 0 0 0 0 0 0 0 0 0 127 0"/>
<feOffset/>
<feGaussianBlur stdDeviation="1"/>
<feColorMatrix type="matrix" values="0 0 0 0 0 0 0 0 0 0 0 0 0 0 0 0 0 0 0.15 0"/>
<feBlend mode="normal" in2="BackgroundImageFix" result="effect1_dropShadow"/>
<feBlend mode="normal" in="SourceGraphic" in2="effect1_dropShadow" result="shape"/>
</filter>
<filter id="filter1_d" x="2.55713" y="17.5566" width="11.0667" height="11.0667" filterUnits="userSpaceOnUse" color-interpolation-filters="sRGB">
<feFlood flood-opacity="0" result="BackgroundImageFix"/>
<feColorMatrix in="SourceAlpha" type="matrix" values="0 0 0 0 0 0 0 0 0 0 0 0 0 0 0 0 0 0 127 0"/>
<feOffset dy="3"/>
<feGaussianBlur stdDeviation="2"/>
<feColorMatrix type="matrix" values="0 0 0 0 0 0 0 0 0 0 0 0 0 0 0 0 0 0 0.25 0"/>
<feBlend mode="normal" in2="BackgroundImageFix" result="effect1_dropShadow"/>
<feBlend mode="normal" in="SourceGraphic" in2="effect1_dropShadow" result="shape"/>
</filter>
<filter id="filter2_d" x="31.2928" y="0.941406" width="6.10556" height="6.10556" filterUnits="userSpaceOnUse" color-interpolation-filters="sRGB">
<feFlood flood-opacity="0" result="BackgroundImageFix"/>
<feColorMatrix in="SourceAlpha" type="matrix" values="0 0 0 0 0 0 0 0 0 0 0 0 0 0 0 0 0 0 127 0"/>
<feOffset/>
<feGaussianBlur stdDeviation="0.5"/>
<feColorMatrix type="matrix" values="0 0 0 0 0 0 0 0 0 0 0 0 0 0 0 0 0 0 0.25 0"/>
<feBlend mode="normal" in2="BackgroundImageFix" result="effect1_dropShadow"/>
<feBlend mode="normal" in="SourceGraphic" in2="effect1_dropShadow" result="shape"/>
</filter>
<filter id="filter3_d" x="27.0288" y="6.02832" width="34.0072" height="34.0072" filterUnits="userSpaceOnUse" color-interpolation-filters="sRGB">
<feFlood flood-opacity="0" result="BackgroundImageFix"/>
<feColorMatrix in="SourceAlpha" type="matrix" values="0 0 0 0 0 0 0 0 0 0 0 0 0 0 0 0 0 0 127 0"/>
<feOffset/>
<feGaussianBlur stdDeviation="1"/>
<feColorMatrix type="matrix" values="0 0 0 0 0 0 0 0 0 0 0 0 0 0 0 0 0 0 0.15 0"/>
<feBlend mode="normal" in2="BackgroundImageFix" result="effect1_dropShadow"/>
<feBlend mode="normal" in="SourceGraphic" in2="effect1_dropShadow" result="shape"/>
</filter>
</defs>
</svg>
