<svg width="140" height="140" viewBox="0 0 140 140" fill="none" xmlns="http://www.w3.org/2000/svg">
<circle cx="70" cy="70" r="69.5" stroke="#CCCCCC"/>
<path d="M52.5056 38.1453L88.7753 54.0345C89.1479 54.1977 89.7992 54.7425 89.7992 55.6369V64.6515C89.7992 65.6009 89.1586 66.1155 88.7859 66.2787L52.3992 82.2105C50.7471 82.6932 50 81.2824 50 80.5442V72.7221C50 71.6964 50.7755 71.1516 51.2191 71.0114L75.4876 61.0208C76.334 60.673 76.334 59.4734 75.4876 59.1256L51.0452 49.0711C50.1704 48.6452 50 47.8751 50 47.4581V39.6892C50.1987 37.9962 51.7887 37.794 52.5056 38.1453Z" fill="#00B4AA"/>
<path d="M81.5989 101.913L59.9869 92.4461C59.7651 92.3485 59.3765 92.0237 59.3765 91.4914V86.1198C59.3765 85.5538 59.758 85.2486 59.9798 85.151L81.661 75.6572C82.6459 75.3697 83.0895 76.2109 83.0895 76.6509V81.3126C83.0895 81.9249 82.6264 82.2478 82.362 82.3312L67.9013 88.2848C67.3973 88.4924 67.3973 89.2075 67.9013 89.4152L82.4667 95.406C82.9884 95.6597 83.0895 96.1193 83.0895 96.366V100.996C82.9724 102.004 82.0266 102.123 81.5989 101.913Z" fill="#00B4AA"/>
</svg>
