<svg width="16" height="16" viewBox="0 0 16 16" fill="none" xmlns="http://www.w3.org/2000/svg">
<path d="M8.13449 2C5.53536 2 3.30129 3.58405 2.38354 5.83772L2.01778 5.1906C1.97082 5.10206 1.90016 5.02834 1.81371 4.97766C1.72725 4.92698 1.6284 4.90134 1.52821 4.90361C1.43442 4.90571 1.34278 4.93218 1.26233 4.98045C1.18188 5.02871 1.11538 5.0971 1.06938 5.17887C1.02339 5.26064 0.999477 5.35298 1.00001 5.4468C1.00054 5.54062 1.02549 5.63268 1.07241 5.71392L2.06279 7.48649C2.13164 7.60863 2.24527 7.6992 2.37967 7.73911C2.51408 7.77901 2.65873 7.7651 2.78307 7.70032L4.54437 6.79997C4.61055 6.76963 4.66992 6.72622 4.7189 6.67237C4.76789 6.61851 4.80549 6.5553 4.82943 6.48655C4.85338 6.4178 4.86318 6.34491 4.85826 6.27228C4.85333 6.19964 4.83377 6.12875 4.80076 6.06386C4.76774 5.99897 4.72196 5.94142 4.66614 5.89467C4.61033 5.84793 4.54565 5.81295 4.47597 5.79183C4.4063 5.7707 4.33308 5.76388 4.2607 5.77177C4.18833 5.77965 4.11829 5.80209 4.05481 5.83772L3.40768 6.16972C4.1815 4.35933 6.00479 3.08041 8.13449 3.08041C10.9707 3.08041 13.2496 5.33528 13.2496 8.12235C13.2496 10.9094 10.9707 13.1643 8.13449 13.1643C5.70825 13.1643 3.68724 11.4993 3.15446 9.28154C3.12088 9.142 3.03324 9.02152 2.91083 8.94659C2.78841 8.87167 2.64125 8.84844 2.50171 8.88202C2.36217 8.91561 2.24168 9.00324 2.16675 9.12565C2.09183 9.24807 2.0686 9.39523 2.10218 9.53478C2.75122 12.2365 5.21406 14.2447 8.13449 14.2447C11.5469 14.2447 14.33 11.5011 14.33 8.12235C14.33 4.74356 11.5469 2 8.13449 2ZM8.20202 4.68978C8.1306 4.69052 8.06003 4.70541 7.9944 4.73359C7.92877 4.76177 7.86938 4.8027 7.81967 4.85398C7.76996 4.90526 7.73091 4.96589 7.70478 5.03237C7.67865 5.09884 7.66596 5.16983 7.66744 5.24124V8.12235C7.6674 8.20338 7.68558 8.2834 7.72064 8.35646C7.75571 8.42951 7.80676 8.49374 7.87002 8.5444L9.67071 9.98495C9.72614 10.0293 9.78975 10.0623 9.85792 10.082C9.9261 10.1018 9.9975 10.108 10.068 10.1001C10.1386 10.0923 10.2069 10.0706 10.2691 10.0364C10.3313 10.0021 10.3861 9.956 10.4304 9.90057C10.4748 9.84515 10.5077 9.78153 10.5275 9.71335C10.5473 9.64517 10.5534 9.57378 10.5455 9.50323C10.5377 9.43269 10.516 9.36438 10.4818 9.3022C10.4476 9.24003 10.4014 9.18521 10.346 9.14087L8.74786 7.8635V5.24124C8.74936 5.16889 8.73631 5.09696 8.70949 5.02974C8.68266 4.96252 8.6426 4.90138 8.59169 4.84995C8.54077 4.79851 8.48005 4.75783 8.41311 4.73031C8.34617 4.7028 8.27438 4.68902 8.20202 4.68978Z" fill="#50C1BA"/>
</svg>
